%TF.GenerationSoftware,Flux,Pcbnew,7.0.11-7.0.11~ubuntu20.04.1*%
%TF.CreationDate,2024-08-17T06:32:20+00:00*%
%TF.ProjectId,input,696e7075-742e-46b6-9963-61645f706362,rev?*%
%TF.SameCoordinates,Original*%
%TF.FileFunction,Profile,NP*%
%FSLAX46Y46*%
G04 Gerber Fmt 4.6, Leading zero omitted, Abs format (unit mm)*
G04 Filename: pcbrobot*
G04 Build it with Flux! Visit our site at: https://www.flux.ai (PCBNEW 7.0.11-7.0.11~ubuntu20.04.1) date 2024-08-17 06:32:20*
%MOMM*%
%LPD*%
G01*
G04 APERTURE LIST*
%TA.AperFunction,Profile*%
%ADD10C,0.050000*%
%TD*%
G04 APERTURE END LIST*
D10*
X18590000Y-91000D02*
X18021416Y-203591D01*
X18021416Y-203591D02*
X17466824Y-346065D01*
X17466824Y-346065D02*
X16927219Y-517969D01*
X16927219Y-517969D02*
X16403593Y-718852D01*
X16403593Y-718852D02*
X15896939Y-948263D01*
X15896939Y-948263D02*
X15408250Y-1205750D01*
X15408250Y-1205750D02*
X14938520Y-1490862D01*
X14938520Y-1490862D02*
X14488741Y-1803148D01*
X14488741Y-1803148D02*
X14059906Y-2142156D01*
X14059906Y-2142156D02*
X13653009Y-2507435D01*
X13653009Y-2507435D02*
X13269043Y-2898534D01*
X13269043Y-2898534D02*
X12909000Y-3315000D01*
X12909000Y-3315000D02*
X12662143Y-3633538D01*
X12662143Y-3633538D02*
X12434560Y-3953384D01*
X12434560Y-3953384D02*
X12225484Y-4276391D01*
X12225484Y-4276391D02*
X12034148Y-4604407D01*
X12034148Y-4604407D02*
X11859784Y-4939285D01*
X11859784Y-4939285D02*
X11701625Y-5282875D01*
X11701625Y-5282875D02*
X11558903Y-5637027D01*
X11558903Y-5637027D02*
X11430852Y-6003593D01*
X11430852Y-6003593D02*
X11316703Y-6384422D01*
X11316703Y-6384422D02*
X11215690Y-6781366D01*
X11215690Y-6781366D02*
X11127045Y-7196275D01*
X11127045Y-7196275D02*
X11050000Y-7631000D01*
X11050000Y-7631000D02*
X11032170Y-7865655D01*
X11032170Y-7865655D02*
X11044944Y-8254819D01*
X11044944Y-8254819D02*
X11099969Y-8882047D01*
X11099969Y-8882047D02*
X11208889Y-9830889D01*
X11208889Y-9830889D02*
X11383351Y-11184898D01*
X11383351Y-11184898D02*
X11635000Y-13027625D01*
X11635000Y-13027625D02*
X11975483Y-15442623D01*
X11975483Y-15442623D02*
X12416444Y-18513444D01*
X12416444Y-18513444D02*
X12969531Y-22323641D01*
X12969531Y-22323641D02*
X13646389Y-26956764D01*
X13646389Y-26956764D02*
X14458663Y-32496366D01*
X14458663Y-32496366D02*
X15418000Y-39026000D01*
X15418000Y-39026000D02*
X16025374Y-43166959D01*
X16025374Y-43166959D02*
X16608824Y-47153588D01*
X16608824Y-47153588D02*
X17162844Y-50948016D01*
X17162844Y-50948016D02*
X17681926Y-54512370D01*
X17681926Y-54512370D02*
X18160564Y-57808781D01*
X18160564Y-57808781D02*
X18593250Y-60799375D01*
X18593250Y-60799375D02*
X18974478Y-63446282D01*
X18974478Y-63446282D02*
X19298741Y-65711630D01*
X19298741Y-65711630D02*
X19560531Y-67557547D01*
X19560531Y-67557547D02*
X19754343Y-68946162D01*
X19754343Y-68946162D02*
X19874668Y-69839604D01*
X19874668Y-69839604D02*
X19916000Y-70200000D01*
X19916000Y-70200000D02*
X19874924Y-70559877D01*
X19874924Y-70559877D02*
X19755306Y-71451852D01*
X19755306Y-71451852D02*
X19562563Y-72838188D01*
X19562563Y-72838188D02*
X19302111Y-74681148D01*
X19302111Y-74681148D02*
X18979368Y-76942998D01*
X18979368Y-76942998D02*
X18599750Y-79586000D01*
X18599750Y-79586000D02*
X18168674Y-82572419D01*
X18168674Y-82572419D02*
X17691556Y-85864519D01*
X17691556Y-85864519D02*
X17173813Y-89424563D01*
X17173813Y-89424563D02*
X16620861Y-93214815D01*
X16620861Y-93214815D02*
X16038118Y-97197539D01*
X16038118Y-97197539D02*
X15431000Y-101335000D01*
X15431000Y-101335000D02*
X14471911Y-107872119D01*
X14471911Y-107872119D02*
X13660292Y-113415370D01*
X13660292Y-113415370D02*
X12984359Y-118049344D01*
X12984359Y-118049344D02*
X12432333Y-121858630D01*
X12432333Y-121858630D02*
X11992432Y-124927818D01*
X11992432Y-124927818D02*
X11652875Y-127341500D01*
X11652875Y-127341500D02*
X11401880Y-129184265D01*
X11401880Y-129184265D02*
X11227667Y-130540704D01*
X11227667Y-130540704D02*
X11118453Y-131495406D01*
X11118453Y-131495406D02*
X11062458Y-132132963D01*
X11062458Y-132132963D02*
X11047901Y-132537964D01*
X11047901Y-132537964D02*
X11063000Y-132795000D01*
X11063000Y-132795000D02*
X11226365Y-133692782D01*
X11226365Y-133692782D02*
X11479421Y-134556259D01*
X11479421Y-134556259D02*
X11817609Y-135380375D01*
X11817609Y-135380375D02*
X12236370Y-136160074D01*
X12236370Y-136160074D02*
X12731145Y-136890301D01*
X12731145Y-136890301D02*
X13297375Y-137566000D01*
X13297375Y-137566000D02*
X13930501Y-138182116D01*
X13930501Y-138182116D02*
X14625963Y-138733593D01*
X14625963Y-138733593D02*
X15379203Y-139215375D01*
X15379203Y-139215375D02*
X16185662Y-139622407D01*
X16185662Y-139622407D02*
X17040781Y-139949634D01*
X17040781Y-139949634D02*
X17940000Y-140192000D01*
X17940000Y-140192000D02*
X18319964Y-140237041D01*
X18319964Y-140237041D02*
X19157546Y-140274995D01*
X19157546Y-140274995D02*
X20672031Y-140306359D01*
X20672031Y-140306359D02*
X23082704Y-140331630D01*
X23082704Y-140331630D02*
X26608848Y-140351303D01*
X26608848Y-140351303D02*
X31469750Y-140365875D01*
X31469750Y-140365875D02*
X37884693Y-140375843D01*
X37884693Y-140375843D02*
X46072963Y-140381704D01*
X46072963Y-140381704D02*
X56253844Y-140383953D01*
X56253844Y-140383953D02*
X68646620Y-140383088D01*
X68646620Y-140383088D02*
X83470578Y-140379605D01*
X83470578Y-140379605D02*
X100945000Y-140374000D01*
X100945000Y-140374000D02*
X118791833Y-140364656D01*
X118791833Y-140364656D02*
X133863167Y-140355583D01*
X133863167Y-140355583D02*
X146399500Y-140345969D01*
X146399500Y-140345969D02*
X156641333Y-140335000D01*
X156641333Y-140335000D02*
X164829167Y-140321865D01*
X164829167Y-140321865D02*
X171203500Y-140305750D01*
X171203500Y-140305750D02*
X176004833Y-140285844D01*
X176004833Y-140285844D02*
X179473667Y-140261333D01*
X179473667Y-140261333D02*
X181850500Y-140231406D01*
X181850500Y-140231406D02*
X183375833Y-140195250D01*
X183375833Y-140195250D02*
X184290167Y-140152052D01*
X184290167Y-140152052D02*
X184834000Y-140101000D01*
X184834000Y-140101000D02*
X186805155Y-139830535D01*
X186805155Y-139830535D02*
X188729907Y-139505949D01*
X188729907Y-139505949D02*
X190611688Y-139126203D01*
X190611688Y-139126203D02*
X192453926Y-138690259D01*
X192453926Y-138690259D02*
X194260053Y-138197079D01*
X194260053Y-138197079D02*
X196033500Y-137645625D01*
X196033500Y-137645625D02*
X197777697Y-137034858D01*
X197777697Y-137034858D02*
X199496074Y-136363741D01*
X199496074Y-136363741D02*
X201192063Y-135631234D01*
X201192063Y-135631234D02*
X202869093Y-134836301D01*
X202869093Y-134836301D02*
X204530595Y-133977902D01*
X204530595Y-133977902D02*
X206180000Y-133055000D01*
X206180000Y-133055000D02*
X209688119Y-130848400D01*
X209688119Y-130848400D02*
X213044120Y-128395704D01*
X213044120Y-128395704D02*
X216239969Y-125707563D01*
X216239969Y-125707563D02*
X219267630Y-122794630D01*
X219267630Y-122794630D02*
X222119068Y-119667558D01*
X222119068Y-119667558D02*
X224786250Y-116337000D01*
X224786250Y-116337000D02*
X227261140Y-112813609D01*
X227261140Y-112813609D02*
X229535704Y-109108037D01*
X229535704Y-109108037D02*
X231601906Y-105230938D01*
X231601906Y-105230938D02*
X233451713Y-101192963D01*
X233451713Y-101192963D02*
X235077089Y-97004766D01*
X235077089Y-97004766D02*
X236470000Y-92677000D01*
X236470000Y-92677000D02*
X236790155Y-91540147D01*
X236790155Y-91540147D02*
X237094241Y-90390926D01*
X237094241Y-90390926D02*
X237382438Y-89228344D01*
X237382438Y-89228344D02*
X237654926Y-88051407D01*
X237654926Y-88051407D02*
X237911887Y-86859124D01*
X237911887Y-86859124D02*
X238153500Y-85650500D01*
X238153500Y-85650500D02*
X238379947Y-84424543D01*
X238379947Y-84424543D02*
X238591407Y-83180259D01*
X238591407Y-83180259D02*
X238788063Y-81916656D01*
X238788063Y-81916656D02*
X238970093Y-80632741D01*
X238970093Y-80632741D02*
X239137678Y-79327520D01*
X239137678Y-79327520D02*
X239291000Y-78000000D01*
X239291000Y-78000000D02*
X239368458Y-77102187D01*
X239368458Y-77102187D02*
X239431833Y-75985000D01*
X239431833Y-75985000D02*
X239481125Y-74692313D01*
X239481125Y-74692313D02*
X239516333Y-73268000D01*
X239516333Y-73268000D02*
X239537458Y-71755937D01*
X239537458Y-71755937D02*
X239544500Y-70200000D01*
X239544500Y-70200000D02*
X239537458Y-68644062D01*
X239537458Y-68644062D02*
X239516333Y-67132000D01*
X239516333Y-67132000D02*
X239481125Y-65707687D01*
X239481125Y-65707687D02*
X239431833Y-64415000D01*
X239431833Y-64415000D02*
X239368458Y-63297812D01*
X239368458Y-63297812D02*
X239291000Y-62400000D01*
X239291000Y-62400000D02*
X238912052Y-59361920D01*
X238912052Y-59361920D02*
X238449912Y-56405856D01*
X238449912Y-56405856D02*
X237902641Y-53526078D01*
X237902641Y-53526078D02*
X237268296Y-50716852D01*
X237268296Y-50716852D02*
X236544938Y-47972445D01*
X236544938Y-47972445D02*
X235730625Y-45287125D01*
X235730625Y-45287125D02*
X234823416Y-42655159D01*
X234823416Y-42655159D02*
X233821370Y-40070815D01*
X233821370Y-40070815D02*
X232722547Y-37528359D01*
X232722547Y-37528359D02*
X231525005Y-35022060D01*
X231525005Y-35022060D02*
X230226803Y-32546185D01*
X230226803Y-32546185D02*
X228826000Y-30095000D01*
X228826000Y-30095000D02*
X228092170Y-28891514D01*
X228092170Y-28891514D02*
X227339606Y-27711366D01*
X227339606Y-27711366D02*
X226567453Y-26553516D01*
X226567453Y-26553516D02*
X225774852Y-25416926D01*
X225774852Y-25416926D02*
X224960945Y-24300558D01*
X224960945Y-24300558D02*
X224124875Y-23203375D01*
X224124875Y-23203375D02*
X223265784Y-22124337D01*
X223265784Y-22124337D02*
X222382815Y-21062407D01*
X222382815Y-21062407D02*
X221475109Y-20016547D01*
X221475109Y-20016547D02*
X220541810Y-18985718D01*
X220541810Y-18985718D02*
X219582060Y-17968881D01*
X219582060Y-17968881D02*
X218595000Y-16965000D01*
X218595000Y-16965000D02*
X217344751Y-15744362D01*
X217344751Y-15744362D02*
X216088588Y-14577394D01*
X216088588Y-14577394D02*
X214824391Y-13462516D01*
X214824391Y-13462516D02*
X213550037Y-12398148D01*
X213550037Y-12398148D02*
X212263406Y-11382711D01*
X212263406Y-11382711D02*
X210962375Y-10414625D01*
X210962375Y-10414625D02*
X209644823Y-9492310D01*
X209644823Y-9492310D02*
X208308630Y-8614185D01*
X208308630Y-8614185D02*
X206951672Y-7778672D01*
X206951672Y-7778672D02*
X205571829Y-6984190D01*
X205571829Y-6984190D02*
X204166979Y-6229159D01*
X204166979Y-6229159D02*
X202735000Y-5512000D01*
X202735000Y-5512000D02*
X201084339Y-4745474D01*
X201084339Y-4745474D02*
X199433542Y-4038125D01*
X199433542Y-4038125D02*
X197781391Y-3389547D01*
X197781391Y-3389547D02*
X196126667Y-2799333D01*
X196126667Y-2799333D02*
X194468151Y-2267078D01*
X194468151Y-2267078D02*
X192804625Y-1792375D01*
X192804625Y-1792375D02*
X191134870Y-1374818D01*
X191134870Y-1374818D02*
X189457667Y-1014000D01*
X189457667Y-1014000D02*
X187771797Y-709516D01*
X187771797Y-709516D02*
X186076042Y-460958D01*
X186076042Y-460958D02*
X184369182Y-267922D01*
X184369182Y-267922D02*
X182650000Y-130000D01*
X182650000Y-130000D02*
X179002402Y-99441D01*
X179002402Y-99441D02*
X169832963Y-72944D01*
X169832963Y-72944D02*
X156251469Y-50781D01*
X156251469Y-50781D02*
X139367704Y-33222D01*
X139367704Y-33222D02*
X120291453Y-20538D01*
X120291453Y-20538D02*
X100132500Y-13000D01*
X100132500Y-13000D02*
X80000631Y-10878D01*
X80000631Y-10878D02*
X61005630Y-14444D01*
X61005630Y-14444D02*
X44257281Y-23969D01*
X44257281Y-23969D02*
X30865370Y-39722D01*
X30865370Y-39722D02*
X21939682Y-61976D01*
X21939682Y-61976D02*
X18590000Y-91000D01*
M02*
