M48
; DRILL file {KiCad 7.0.11-7.0.11~ubuntu20.04.1} date Sat Aug 17 06:32:20 2024
; FORMAT={-:-/ absolute / metric / decimal}
; #@! TF.CreationDate,2024-08-17T06:32:20+00:00
; #@! TF.GenerationSoftware,Kicad,Pcbnew,7.0.11-7.0.11~ubuntu20.04.1
; #@! TF.FileFunction,MixedPlating,1,2
FMAT,2
METRIC
; #@! TA.AperFunction,Plated,PTH,ComponentDrill
T1C0.200
; #@! TA.AperFunction,Plated,PTH,ComponentDrill
T2C0.300
; #@! TA.AperFunction,Plated,PTH,ComponentDrill
T3C0.650
; #@! TA.AperFunction,NonPlated,NPTH,ComponentDrill
T4C0.700
; #@! TA.AperFunction,NonPlated,NPTH,ComponentDrill
T5C12.000
%
G90
G05
T1
X129.438Y-30.706
X129.438Y-32.106
X130.138Y-30.006
X130.138Y-31.406
X130.138Y-32.806
X130.838Y-30.706
X130.838Y-32.106
X131.538Y-30.006
X131.538Y-31.406
X131.538Y-32.806
X132.238Y-30.706
X132.238Y-32.106
T2
X0.0Y0.0
X13.585Y-129.172
X13.691Y-10.168
X13.953Y-19.651
X14.049Y-121.995
X14.636Y-15.971
X14.731Y-125.709
X14.731Y-125.709
X14.896Y-7.375
X15.195Y-114.079
X15.333Y-27.875
X15.753Y-23.927
X15.902Y-117.664
X16.341Y-106.461
X16.358Y-125.537
X16.537Y-35.59
X16.644Y-19.542
X16.784Y-31.463
X17.071Y-110.975
X17.133Y-23.667
X17.199Y-98.576
X17.317Y-117.766
X17.317Y-121.464
X17.66Y-43.571
X17.989Y-38.534
X18.015Y-26.474
X18.386Y-102.456
X18.433Y-31.027
X18.646Y-109.55
X18.646Y-113.106
X18.742Y-90.727
X18.79Y-42.066
X18.891Y-46.401
X18.925Y-51.006
X19.098Y-97.982
X19.141Y-34.242
X19.315Y-102.193
X19.565Y-38.958
X19.609Y-105.872
X19.779Y-82.813
X20.284Y-54.504
X20.284Y-57.958
X20.575Y-46.824
X20.641Y-86.734
X20.755Y-97.713
X20.792Y-43.005
X21.071Y-94.096
X21.11Y-74.866
X21.272Y-66.775
X21.483Y-62.289
X21.573Y-50.651
X21.573Y-54.719
X21.607Y-78.48
X21.901Y-89.821
X22.313Y-86.327
X22.92Y-82.813
X22.987Y-57.958
X23.085Y-71.286
X23.085Y-78.374
X23.213Y-63.296
X23.729Y-66.063
X24.192Y-70.297
X24.192Y-74.632
X26.032Y-35.384
X26.032Y-50.384
X26.032Y-65.384
X26.032Y-80.384
X26.032Y-95.384
X26.032Y-110.384
X41.032Y-35.384
X41.032Y-50.384
X41.032Y-65.384
X41.032Y-80.384
X41.032Y-95.384
X41.032Y-110.384
X56.032Y-20.384
X56.032Y-35.384
X56.032Y-50.384
X56.032Y-65.384
X56.032Y-80.384
X56.032Y-95.384
X56.032Y-110.384
X56.032Y-125.384
X71.032Y-5.384
X71.032Y-20.384
X71.032Y-35.384
X71.032Y-50.384
X71.032Y-65.384
X71.032Y-80.384
X71.032Y-95.384
X71.032Y-110.384
X71.032Y-125.384
X86.032Y-5.384
X86.032Y-20.384
X86.032Y-35.384
X86.032Y-50.384
X86.032Y-65.384
X86.032Y-80.384
X86.032Y-95.384
X86.032Y-110.384
X86.032Y-125.384
X101.032Y-5.384
X101.032Y-20.384
X101.032Y-35.384
X101.032Y-50.384
X101.032Y-65.384
X101.032Y-80.384
X101.032Y-95.384
X101.032Y-110.384
X101.032Y-125.384
X116.032Y-5.384
X116.032Y-20.384
X116.032Y-35.384
X116.032Y-50.384
X116.032Y-65.384
X116.032Y-80.384
X116.032Y-95.384
X116.032Y-110.384
X116.032Y-125.384
X122.633Y-38.037
X122.649Y-10.38
X123.318Y-8.237
X123.318Y-28.461
X123.934Y-5.773
X124.006Y-28.461
X124.331Y-32.223
X131.032Y-5.384
X131.032Y-35.384
X131.032Y-50.384
X131.032Y-65.384
X131.032Y-80.384
X131.032Y-95.384
X131.032Y-110.384
X131.032Y-125.384
X133.818Y-26.978
X134.296Y-31.406
X135.987Y-1.148
X136.018Y-29.571
X136.034Y-4.41
X137.288Y-32.106
X138.924Y-4.768
X139.333Y-17.155
X140.718Y-19.061
X141.311Y-4.877
X142.245Y-26.167
X142.477Y-16.38
X144.193Y-5.203
X144.472Y-18.565
X144.972Y-6.418
X144.978Y-18.065
X145.485Y-29.78
X145.485Y-32.479
X146.032Y-35.384
X146.032Y-50.384
X146.032Y-65.384
X146.032Y-80.384
X146.032Y-95.384
X146.032Y-110.384
X146.032Y-125.384
X146.322Y-14.431
X148.172Y-12.483
X148.522Y-19.598
X149.339Y-14.675
X149.828Y-31.406
X150.506Y-5.738
X151.487Y-31.405
X151.487Y-33.866
X151.487Y-33.866
X152.745Y-26.889
X153.014Y-20.598
X153.448Y-1.148
X153.638Y-8.89
X154.444Y-36.006
X161.032Y-35.384
X161.032Y-50.384
X161.032Y-65.384
X161.032Y-80.384
X161.032Y-95.384
X161.032Y-110.384
X176.032Y-20.384
X176.032Y-35.384
X176.032Y-50.384
X176.032Y-65.384
X176.032Y-80.384
X176.032Y-95.384
X176.032Y-110.384
X191.032Y-5.384
X191.032Y-20.384
X191.032Y-35.384
X191.032Y-50.384
X191.032Y-65.384
X191.032Y-80.384
X191.032Y-95.384
X191.032Y-110.384
X191.032Y-125.384
X206.032Y-20.384
X206.032Y-35.384
X206.032Y-50.384
X206.032Y-65.384
X206.032Y-80.384
X206.032Y-95.384
X206.032Y-110.384
X206.032Y-125.384
X221.032Y-35.384
X221.032Y-50.384
X221.032Y-65.384
X221.032Y-80.384
X221.032Y-95.384
X221.032Y-110.384
X236.032Y-50.384
X236.032Y-65.384
X236.032Y-80.384
T4
X141.832Y-6.26
X147.612Y-6.26
T3
G00X140.402Y-7.34
M15
G01X140.402Y-6.24
M16
G05
G00X140.403Y-2.91
M15
G01X140.403Y-2.31
M16
G05
G00X149.042Y-7.34
M15
G01X149.042Y-6.24
M16
G05
G00X149.042Y-2.91
M15
G01X149.042Y-2.31
M16
G05
T5
G00X27.407Y-14.705
M15
G01X27.407Y-7.705
M16
G05
G00X27.407Y-125.672
M15
G01X27.407Y-132.672
M16
G05
G00X27.407Y-7.705
M15
G01X38.407Y-7.705
M16
G05
G00X38.407Y-125.672
M15
G01X27.407Y-125.672
M16
G05
G00X38.407Y-132.672
M15
G01X27.407Y-132.672
M16
G05
G00X27.407Y-14.705
M15
G01X38.407Y-14.705
M16
G05
G00X38.407Y-14.705
M15
G01X38.407Y-7.705
M16
G05
G00X38.407Y-125.672
M15
G01X38.407Y-132.672
M16
G05
G00X159.932Y-14.705
M15
G01X159.932Y-7.705
M16
G05
G00X159.932Y-125.672
M15
G01X159.932Y-132.672
M16
G05
G00X159.932Y-7.705
M15
G01X170.932Y-7.705
M16
G05
G00X170.932Y-125.672
M15
G01X159.932Y-125.672
M16
G05
G00X170.932Y-132.672
M15
G01X159.932Y-132.672
M16
G05
G00X159.932Y-14.705
M15
G01X170.932Y-14.705
M16
G05
G00X170.932Y-14.705
M15
G01X170.932Y-7.705
M16
G05
G00X170.932Y-125.672
M15
G01X170.932Y-132.672
M16
G05
M30
