%TF.GenerationSoftware,Flux,Pcbnew,7.0.11-7.0.11~ubuntu20.04.1*%
%TF.CreationDate,2024-08-17T06:32:21+00:00*%
%TF.ProjectId,input,696e7075-742e-46b6-9963-61645f706362,rev?*%
%TF.SameCoordinates,Original*%
%TF.FileFunction,Legend,Top*%
%TF.FilePolarity,Positive*%
%FSLAX46Y46*%
G04 Gerber Fmt 4.6, Leading zero omitted, Abs format (unit mm)*
G04 Filename: pcbrobot*
G04 Build it with Flux! Visit our site at: https://www.flux.ai (PCBNEW 7.0.11-7.0.11~ubuntu20.04.1) date 2024-08-17 06:32:21*
%MOMM*%
%LPD*%
G01*
G04 APERTURE LIST*
%ADD10C,0.095000*%
%ADD11C,0.047500*%
%ADD12C,0.120000*%
%ADD13C,0.400000*%
%ADD14C,0.127000*%
%ADD15C,0.100000*%
%ADD16C,0.050000*%
%ADD17C,0.200000*%
G04 APERTURE END LIST*
D10*
X128822073Y-5405092D02*
X129088739Y-5405092D01*
X129088739Y-4986044D02*
X129088739Y-5786044D01*
X129088739Y-5786044D02*
X128707787Y-5786044D01*
X128022073Y-4986044D02*
X128403025Y-4986044D01*
X128403025Y-4986044D02*
X128403025Y-5786044D01*
X127793502Y-5214616D02*
X127412549Y-5214616D01*
X127869692Y-4986044D02*
X127603025Y-5786044D01*
X127603025Y-5786044D02*
X127336359Y-4986044D01*
X127107788Y-5024140D02*
X126993502Y-4986044D01*
X126993502Y-4986044D02*
X126803026Y-4986044D01*
X126803026Y-4986044D02*
X126726835Y-5024140D01*
X126726835Y-5024140D02*
X126688740Y-5062235D01*
X126688740Y-5062235D02*
X126650645Y-5138425D01*
X126650645Y-5138425D02*
X126650645Y-5214616D01*
X126650645Y-5214616D02*
X126688740Y-5290806D01*
X126688740Y-5290806D02*
X126726835Y-5328901D01*
X126726835Y-5328901D02*
X126803026Y-5366997D01*
X126803026Y-5366997D02*
X126955407Y-5405092D01*
X126955407Y-5405092D02*
X127031597Y-5443187D01*
X127031597Y-5443187D02*
X127069692Y-5481282D01*
X127069692Y-5481282D02*
X127107788Y-5557473D01*
X127107788Y-5557473D02*
X127107788Y-5633663D01*
X127107788Y-5633663D02*
X127069692Y-5709854D01*
X127069692Y-5709854D02*
X127031597Y-5747949D01*
X127031597Y-5747949D02*
X126955407Y-5786044D01*
X126955407Y-5786044D02*
X126764930Y-5786044D01*
X126764930Y-5786044D02*
X126650645Y-5747949D01*
X126307787Y-4986044D02*
X126307787Y-5786044D01*
X126307787Y-5405092D02*
X125850644Y-5405092D01*
X125850644Y-4986044D02*
X125850644Y-5786044D01*
X20561376Y-112778310D02*
X20614395Y-112401065D01*
X20614395Y-112401065D02*
X21406609Y-112512404D01*
X20939233Y-113100702D02*
X20902120Y-113364773D01*
X20471245Y-113419626D02*
X20524263Y-113042382D01*
X20524263Y-113042382D02*
X21316478Y-113153720D01*
X21316478Y-113153720D02*
X21263460Y-113530965D01*
X20423529Y-113759147D02*
X21215743Y-113870486D01*
X21215743Y-113870486D02*
X21189234Y-114059108D01*
X21189234Y-114059108D02*
X21135604Y-114166980D01*
X21135604Y-114166980D02*
X21049551Y-114231825D01*
X21049551Y-114231825D02*
X20968800Y-114258946D01*
X20968800Y-114258946D02*
X20812601Y-114275463D01*
X20812601Y-114275463D02*
X20699427Y-114259558D01*
X20699427Y-114259558D02*
X20553831Y-114200626D01*
X20553831Y-114200626D02*
X20483684Y-114152298D01*
X20483684Y-114152298D02*
X20418838Y-114066245D01*
X20418838Y-114066245D02*
X20397019Y-113947770D01*
X20397019Y-113947770D02*
X20423529Y-113759147D01*
X20253870Y-114966331D02*
X20317492Y-114513637D01*
X20285681Y-114739984D02*
X21077895Y-114851323D01*
X21077895Y-114851323D02*
X20975326Y-114759968D01*
X20975326Y-114759968D02*
X20910480Y-114673916D01*
X20910480Y-114673916D02*
X20883359Y-114593165D01*
X20686580Y-115719598D02*
X20158437Y-115645373D01*
X21014885Y-115573390D02*
X20475527Y-115305240D01*
X20475527Y-115305240D02*
X20406603Y-115795659D01*
X151891467Y-5484555D02*
X151624800Y-5103602D01*
X151434324Y-5484555D02*
X151434324Y-4684555D01*
X151434324Y-4684555D02*
X151739086Y-4684555D01*
X151739086Y-4684555D02*
X151815276Y-4722650D01*
X151815276Y-4722650D02*
X151853371Y-4760745D01*
X151853371Y-4760745D02*
X151891467Y-4836936D01*
X151891467Y-4836936D02*
X151891467Y-4951221D01*
X151891467Y-4951221D02*
X151853371Y-5027412D01*
X151853371Y-5027412D02*
X151815276Y-5065507D01*
X151815276Y-5065507D02*
X151739086Y-5103602D01*
X151739086Y-5103602D02*
X151434324Y-5103602D01*
X152615276Y-4684555D02*
X152234324Y-4684555D01*
X152234324Y-4684555D02*
X152196228Y-5065507D01*
X152196228Y-5065507D02*
X152234324Y-5027412D01*
X152234324Y-5027412D02*
X152310514Y-4989317D01*
X152310514Y-4989317D02*
X152500990Y-4989317D01*
X152500990Y-4989317D02*
X152577181Y-5027412D01*
X152577181Y-5027412D02*
X152615276Y-5065507D01*
X152615276Y-5065507D02*
X152653371Y-5141698D01*
X152653371Y-5141698D02*
X152653371Y-5332174D01*
X152653371Y-5332174D02*
X152615276Y-5408364D01*
X152615276Y-5408364D02*
X152577181Y-5446460D01*
X152577181Y-5446460D02*
X152500990Y-5484555D01*
X152500990Y-5484555D02*
X152310514Y-5484555D01*
X152310514Y-5484555D02*
X152234324Y-5446460D01*
X152234324Y-5446460D02*
X152196228Y-5408364D01*
X140474135Y-19689466D02*
X140436040Y-19651370D01*
X140436040Y-19651370D02*
X140397944Y-19537085D01*
X140397944Y-19537085D02*
X140397944Y-19460894D01*
X140397944Y-19460894D02*
X140436040Y-19346608D01*
X140436040Y-19346608D02*
X140512230Y-19270418D01*
X140512230Y-19270418D02*
X140588420Y-19232323D01*
X140588420Y-19232323D02*
X140740801Y-19194227D01*
X140740801Y-19194227D02*
X140855087Y-19194227D01*
X140855087Y-19194227D02*
X141007468Y-19232323D01*
X141007468Y-19232323D02*
X141083659Y-19270418D01*
X141083659Y-19270418D02*
X141159849Y-19346608D01*
X141159849Y-19346608D02*
X141197944Y-19460894D01*
X141197944Y-19460894D02*
X141197944Y-19537085D01*
X141197944Y-19537085D02*
X141159849Y-19651370D01*
X141159849Y-19651370D02*
X141121754Y-19689466D01*
X141121754Y-19994227D02*
X141159849Y-20032323D01*
X141159849Y-20032323D02*
X141197944Y-20108513D01*
X141197944Y-20108513D02*
X141197944Y-20298989D01*
X141197944Y-20298989D02*
X141159849Y-20375180D01*
X141159849Y-20375180D02*
X141121754Y-20413275D01*
X141121754Y-20413275D02*
X141045563Y-20451370D01*
X141045563Y-20451370D02*
X140969373Y-20451370D01*
X140969373Y-20451370D02*
X140855087Y-20413275D01*
X140855087Y-20413275D02*
X140397944Y-19956132D01*
X140397944Y-19956132D02*
X140397944Y-20451370D01*
X138791535Y-19703266D02*
X138753440Y-19665170D01*
X138753440Y-19665170D02*
X138715344Y-19550885D01*
X138715344Y-19550885D02*
X138715344Y-19474694D01*
X138715344Y-19474694D02*
X138753440Y-19360408D01*
X138753440Y-19360408D02*
X138829630Y-19284218D01*
X138829630Y-19284218D02*
X138905820Y-19246123D01*
X138905820Y-19246123D02*
X139058201Y-19208027D01*
X139058201Y-19208027D02*
X139172487Y-19208027D01*
X139172487Y-19208027D02*
X139324868Y-19246123D01*
X139324868Y-19246123D02*
X139401059Y-19284218D01*
X139401059Y-19284218D02*
X139477249Y-19360408D01*
X139477249Y-19360408D02*
X139515344Y-19474694D01*
X139515344Y-19474694D02*
X139515344Y-19550885D01*
X139515344Y-19550885D02*
X139477249Y-19665170D01*
X139477249Y-19665170D02*
X139439154Y-19703266D01*
X139515344Y-19969932D02*
X139515344Y-20465170D01*
X139515344Y-20465170D02*
X139210582Y-20198504D01*
X139210582Y-20198504D02*
X139210582Y-20312789D01*
X139210582Y-20312789D02*
X139172487Y-20388980D01*
X139172487Y-20388980D02*
X139134392Y-20427075D01*
X139134392Y-20427075D02*
X139058201Y-20465170D01*
X139058201Y-20465170D02*
X138867725Y-20465170D01*
X138867725Y-20465170D02*
X138791535Y-20427075D01*
X138791535Y-20427075D02*
X138753440Y-20388980D01*
X138753440Y-20388980D02*
X138715344Y-20312789D01*
X138715344Y-20312789D02*
X138715344Y-20084218D01*
X138715344Y-20084218D02*
X138753440Y-20008027D01*
X138753440Y-20008027D02*
X138791535Y-19969932D01*
X23998976Y-89422410D02*
X24051995Y-89045165D01*
X24051995Y-89045165D02*
X24844209Y-89156504D01*
X24376833Y-89744802D02*
X24339720Y-90008873D01*
X23908845Y-90063726D02*
X23961863Y-89686482D01*
X23961863Y-89686482D02*
X24754078Y-89797820D01*
X24754078Y-89797820D02*
X24701060Y-90175065D01*
X23861129Y-90403247D02*
X24653343Y-90514586D01*
X24653343Y-90514586D02*
X24626834Y-90703208D01*
X24626834Y-90703208D02*
X24573204Y-90811080D01*
X24573204Y-90811080D02*
X24487151Y-90875925D01*
X24487151Y-90875925D02*
X24406400Y-90903046D01*
X24406400Y-90903046D02*
X24250201Y-90919563D01*
X24250201Y-90919563D02*
X24137027Y-90903658D01*
X24137027Y-90903658D02*
X23991431Y-90844726D01*
X23991431Y-90844726D02*
X23921284Y-90796398D01*
X23921284Y-90796398D02*
X23856438Y-90710345D01*
X23856438Y-90710345D02*
X23834619Y-90591870D01*
X23834619Y-90591870D02*
X23861129Y-90403247D01*
X23691470Y-91610431D02*
X23755092Y-91157737D01*
X23723281Y-91384084D02*
X24515495Y-91495423D01*
X24515495Y-91495423D02*
X24412926Y-91404068D01*
X24412926Y-91404068D02*
X24348080Y-91318016D01*
X24348080Y-91318016D02*
X24320959Y-91237265D01*
X23585433Y-92364922D02*
X23649055Y-91912228D01*
X23617244Y-92138575D02*
X24409459Y-92249913D01*
X24409459Y-92249913D02*
X24306889Y-92158559D01*
X24306889Y-92158559D02*
X24242044Y-92072506D01*
X24242044Y-92072506D02*
X24214923Y-91991755D01*
X137698355Y-13989682D02*
X136898355Y-13989682D01*
X136898355Y-13989682D02*
X136898355Y-13799206D01*
X136898355Y-13799206D02*
X136936450Y-13684920D01*
X136936450Y-13684920D02*
X137012640Y-13608730D01*
X137012640Y-13608730D02*
X137088831Y-13570635D01*
X137088831Y-13570635D02*
X137241212Y-13532539D01*
X137241212Y-13532539D02*
X137355498Y-13532539D01*
X137355498Y-13532539D02*
X137507879Y-13570635D01*
X137507879Y-13570635D02*
X137584069Y-13608730D01*
X137584069Y-13608730D02*
X137660260Y-13684920D01*
X137660260Y-13684920D02*
X137698355Y-13799206D01*
X137698355Y-13799206D02*
X137698355Y-13989682D01*
X137698355Y-12770635D02*
X137698355Y-13227778D01*
X137698355Y-12999206D02*
X136898355Y-12999206D01*
X136898355Y-12999206D02*
X137012640Y-13075397D01*
X137012640Y-13075397D02*
X137088831Y-13151587D01*
X137088831Y-13151587D02*
X137126926Y-13227778D01*
X137698355Y-13989682D02*
X136898355Y-13989682D01*
X136898355Y-13989682D02*
X136898355Y-13799206D01*
X136898355Y-13799206D02*
X136936450Y-13684920D01*
X136936450Y-13684920D02*
X137012640Y-13608730D01*
X137012640Y-13608730D02*
X137088831Y-13570635D01*
X137088831Y-13570635D02*
X137241212Y-13532539D01*
X137241212Y-13532539D02*
X137355498Y-13532539D01*
X137355498Y-13532539D02*
X137507879Y-13570635D01*
X137507879Y-13570635D02*
X137584069Y-13608730D01*
X137584069Y-13608730D02*
X137660260Y-13684920D01*
X137660260Y-13684920D02*
X137698355Y-13799206D01*
X137698355Y-13799206D02*
X137698355Y-13989682D01*
X137698355Y-12770635D02*
X137698355Y-13227778D01*
X137698355Y-12999206D02*
X136898355Y-12999206D01*
X136898355Y-12999206D02*
X137012640Y-13075397D01*
X137012640Y-13075397D02*
X137088831Y-13151587D01*
X137088831Y-13151587D02*
X137126926Y-13227778D01*
X151891467Y-8745855D02*
X151624800Y-8364902D01*
X151434324Y-8745855D02*
X151434324Y-7945855D01*
X151434324Y-7945855D02*
X151739086Y-7945855D01*
X151739086Y-7945855D02*
X151815276Y-7983950D01*
X151815276Y-7983950D02*
X151853371Y-8022045D01*
X151853371Y-8022045D02*
X151891467Y-8098236D01*
X151891467Y-8098236D02*
X151891467Y-8212521D01*
X151891467Y-8212521D02*
X151853371Y-8288712D01*
X151853371Y-8288712D02*
X151815276Y-8326807D01*
X151815276Y-8326807D02*
X151739086Y-8364902D01*
X151739086Y-8364902D02*
X151434324Y-8364902D01*
X152577181Y-8212521D02*
X152577181Y-8745855D01*
X152386705Y-7907760D02*
X152196228Y-8479188D01*
X152196228Y-8479188D02*
X152691467Y-8479188D01*
X26037283Y-64783879D02*
X25984264Y-64406634D01*
X25984264Y-64406634D02*
X26776479Y-64295296D01*
X26489365Y-64989631D02*
X26526478Y-65253702D01*
X26127414Y-65425196D02*
X26074396Y-65047951D01*
X26074396Y-65047951D02*
X26866610Y-64936612D01*
X26866610Y-64936612D02*
X26919628Y-65313857D01*
X26175131Y-65764717D02*
X26967345Y-65653378D01*
X26967345Y-65653378D02*
X26993854Y-65842001D01*
X26993854Y-65842001D02*
X26972035Y-65960476D01*
X26972035Y-65960476D02*
X26907190Y-66046529D01*
X26907190Y-66046529D02*
X26837043Y-66094857D01*
X26837043Y-66094857D02*
X26691446Y-66153789D01*
X26691446Y-66153789D02*
X26578273Y-66169694D01*
X26578273Y-66169694D02*
X26422073Y-66153177D01*
X26422073Y-66153177D02*
X26341322Y-66126056D01*
X26341322Y-66126056D02*
X26255270Y-66061211D01*
X26255270Y-66061211D02*
X26201640Y-65953339D01*
X26201640Y-65953339D02*
X26175131Y-65764717D01*
X26755068Y-66606483D02*
X26782189Y-66525732D01*
X26782189Y-66525732D02*
X26814612Y-66482705D01*
X26814612Y-66482705D02*
X26884759Y-66434377D01*
X26884759Y-66434377D02*
X26922484Y-66429075D01*
X26922484Y-66429075D02*
X27003234Y-66456196D01*
X27003234Y-66456196D02*
X27046261Y-66488619D01*
X27046261Y-66488619D02*
X27094589Y-66558766D01*
X27094589Y-66558766D02*
X27115796Y-66709664D01*
X27115796Y-66709664D02*
X27088675Y-66790415D01*
X27088675Y-66790415D02*
X27056253Y-66833441D01*
X27056253Y-66833441D02*
X26986106Y-66881769D01*
X26986106Y-66881769D02*
X26948381Y-66887071D01*
X26948381Y-66887071D02*
X26867630Y-66859950D01*
X26867630Y-66859950D02*
X26824604Y-66827528D01*
X26824604Y-66827528D02*
X26776276Y-66757381D01*
X26776276Y-66757381D02*
X26755068Y-66606483D01*
X26755068Y-66606483D02*
X26706740Y-66536335D01*
X26706740Y-66536335D02*
X26663714Y-66503913D01*
X26663714Y-66503913D02*
X26582963Y-66476792D01*
X26582963Y-66476792D02*
X26432065Y-66497999D01*
X26432065Y-66497999D02*
X26361918Y-66546327D01*
X26361918Y-66546327D02*
X26329495Y-66589354D01*
X26329495Y-66589354D02*
X26302374Y-66670105D01*
X26302374Y-66670105D02*
X26323582Y-66821003D01*
X26323582Y-66821003D02*
X26371910Y-66891150D01*
X26371910Y-66891150D02*
X26414936Y-66923572D01*
X26414936Y-66923572D02*
X26495687Y-66950693D01*
X26495687Y-66950693D02*
X26646585Y-66929486D01*
X26646585Y-66929486D02*
X26716732Y-66881158D01*
X26716732Y-66881158D02*
X26749155Y-66838131D01*
X26749155Y-66838131D02*
X26776276Y-66757381D01*
X25144876Y-81637210D02*
X25197895Y-81259965D01*
X25197895Y-81259965D02*
X25990109Y-81371304D01*
X25522733Y-81959602D02*
X25485620Y-82223673D01*
X25054745Y-82278526D02*
X25107763Y-81901282D01*
X25107763Y-81901282D02*
X25899978Y-82012620D01*
X25899978Y-82012620D02*
X25846960Y-82389865D01*
X25007029Y-82618047D02*
X25799243Y-82729386D01*
X25799243Y-82729386D02*
X25772734Y-82918008D01*
X25772734Y-82918008D02*
X25719104Y-83025880D01*
X25719104Y-83025880D02*
X25633051Y-83090725D01*
X25633051Y-83090725D02*
X25552300Y-83117846D01*
X25552300Y-83117846D02*
X25396101Y-83134363D01*
X25396101Y-83134363D02*
X25282927Y-83118458D01*
X25282927Y-83118458D02*
X25137331Y-83059526D01*
X25137331Y-83059526D02*
X25067184Y-83011198D01*
X25067184Y-83011198D02*
X25002338Y-82925145D01*
X25002338Y-82925145D02*
X24980519Y-82806670D01*
X24980519Y-82806670D02*
X25007029Y-82618047D01*
X24837370Y-83825231D02*
X24900992Y-83372537D01*
X24869181Y-83598884D02*
X25661395Y-83710223D01*
X25661395Y-83710223D02*
X25558826Y-83618868D01*
X25558826Y-83618868D02*
X25493980Y-83532816D01*
X25493980Y-83532816D02*
X25466859Y-83452065D01*
X25560661Y-84426989D02*
X25550057Y-84502438D01*
X25550057Y-84502438D02*
X25501729Y-84572585D01*
X25501729Y-84572585D02*
X25458702Y-84605007D01*
X25458702Y-84605007D02*
X25377952Y-84632128D01*
X25377952Y-84632128D02*
X25221752Y-84648645D01*
X25221752Y-84648645D02*
X25033129Y-84622136D01*
X25033129Y-84622136D02*
X24887533Y-84563204D01*
X24887533Y-84563204D02*
X24817386Y-84514876D01*
X24817386Y-84514876D02*
X24784963Y-84471850D01*
X24784963Y-84471850D02*
X24757842Y-84391099D01*
X24757842Y-84391099D02*
X24768446Y-84315650D01*
X24768446Y-84315650D02*
X24816774Y-84245503D01*
X24816774Y-84245503D02*
X24859801Y-84213080D01*
X24859801Y-84213080D02*
X24940551Y-84185959D01*
X24940551Y-84185959D02*
X25096751Y-84169442D01*
X25096751Y-84169442D02*
X25285374Y-84195951D01*
X25285374Y-84195951D02*
X25430970Y-84254883D01*
X25430970Y-84254883D02*
X25501117Y-84303211D01*
X25501117Y-84303211D02*
X25533540Y-84346238D01*
X25533540Y-84346238D02*
X25560661Y-84426989D01*
X23625883Y-49202279D02*
X23572864Y-48825034D01*
X23572864Y-48825034D02*
X24365079Y-48713696D01*
X24077965Y-49408031D02*
X24115078Y-49672102D01*
X23716014Y-49843596D02*
X23662996Y-49466351D01*
X23662996Y-49466351D02*
X24455210Y-49355012D01*
X24455210Y-49355012D02*
X24508228Y-49732257D01*
X23763731Y-50183117D02*
X24555945Y-50071778D01*
X24555945Y-50071778D02*
X24582454Y-50260401D01*
X24582454Y-50260401D02*
X24560635Y-50378876D01*
X24560635Y-50378876D02*
X24495790Y-50464929D01*
X24495790Y-50464929D02*
X24425643Y-50513257D01*
X24425643Y-50513257D02*
X24280046Y-50572189D01*
X24280046Y-50572189D02*
X24166873Y-50588094D01*
X24166873Y-50588094D02*
X24010673Y-50571577D01*
X24010673Y-50571577D02*
X23929922Y-50544456D01*
X23929922Y-50544456D02*
X23843870Y-50479611D01*
X23843870Y-50479611D02*
X23790240Y-50371739D01*
X23790240Y-50371739D02*
X23763731Y-50183117D01*
X24715000Y-51203513D02*
X24693793Y-51052615D01*
X24693793Y-51052615D02*
X24645464Y-50982468D01*
X24645464Y-50982468D02*
X24602438Y-50950045D01*
X24602438Y-50950045D02*
X24478661Y-50890502D01*
X24478661Y-50890502D02*
X24322461Y-50873985D01*
X24322461Y-50873985D02*
X24020665Y-50916399D01*
X24020665Y-50916399D02*
X23950518Y-50964727D01*
X23950518Y-50964727D02*
X23918095Y-51007754D01*
X23918095Y-51007754D02*
X23890974Y-51088505D01*
X23890974Y-51088505D02*
X23912182Y-51239403D01*
X23912182Y-51239403D02*
X23960510Y-51309550D01*
X23960510Y-51309550D02*
X24003536Y-51341972D01*
X24003536Y-51341972D02*
X24084287Y-51369093D01*
X24084287Y-51369093D02*
X24272910Y-51342584D01*
X24272910Y-51342584D02*
X24343057Y-51294256D01*
X24343057Y-51294256D02*
X24375479Y-51251230D01*
X24375479Y-51251230D02*
X24402600Y-51170479D01*
X24402600Y-51170479D02*
X24381393Y-51019581D01*
X24381393Y-51019581D02*
X24333065Y-50949434D01*
X24333065Y-50949434D02*
X24290038Y-50917011D01*
X24290038Y-50917011D02*
X24209288Y-50889890D01*
X18269576Y-128348810D02*
X18322595Y-127971565D01*
X18322595Y-127971565D02*
X19114809Y-128082904D01*
X18647433Y-128671202D02*
X18610320Y-128935273D01*
X18179445Y-128990126D02*
X18232463Y-128612882D01*
X18232463Y-128612882D02*
X19024678Y-128724220D01*
X19024678Y-128724220D02*
X18971660Y-129101465D01*
X18131729Y-129329647D02*
X18923943Y-129440986D01*
X18923943Y-129440986D02*
X18897434Y-129629608D01*
X18897434Y-129629608D02*
X18843804Y-129737480D01*
X18843804Y-129737480D02*
X18757751Y-129802325D01*
X18757751Y-129802325D02*
X18677000Y-129829446D01*
X18677000Y-129829446D02*
X18520801Y-129845963D01*
X18520801Y-129845963D02*
X18407627Y-129830058D01*
X18407627Y-129830058D02*
X18262031Y-129771126D01*
X18262031Y-129771126D02*
X18191884Y-129722798D01*
X18191884Y-129722798D02*
X18127038Y-129636745D01*
X18127038Y-129636745D02*
X18105219Y-129518270D01*
X18105219Y-129518270D02*
X18131729Y-129329647D01*
X17962070Y-130536831D02*
X18025692Y-130084137D01*
X17993881Y-130310484D02*
X18786095Y-130421823D01*
X18786095Y-130421823D02*
X18683526Y-130330468D01*
X18683526Y-130330468D02*
X18618680Y-130244416D01*
X18618680Y-130244416D02*
X18591559Y-130163665D01*
X18658851Y-131327211D02*
X18680059Y-131176313D01*
X18680059Y-131176313D02*
X18652938Y-131095562D01*
X18652938Y-131095562D02*
X18620515Y-131052536D01*
X18620515Y-131052536D02*
X18517945Y-130961181D01*
X18517945Y-130961181D02*
X18372349Y-130902250D01*
X18372349Y-130902250D02*
X18070553Y-130859835D01*
X18070553Y-130859835D02*
X17989802Y-130886956D01*
X17989802Y-130886956D02*
X17946776Y-130919378D01*
X17946776Y-130919378D02*
X17898448Y-130989526D01*
X17898448Y-130989526D02*
X17877241Y-131140424D01*
X17877241Y-131140424D02*
X17904361Y-131221174D01*
X17904361Y-131221174D02*
X17936784Y-131264201D01*
X17936784Y-131264201D02*
X18006931Y-131312529D01*
X18006931Y-131312529D02*
X18195554Y-131339038D01*
X18195554Y-131339038D02*
X18276305Y-131311917D01*
X18276305Y-131311917D02*
X18319331Y-131279495D01*
X18319331Y-131279495D02*
X18367659Y-131209347D01*
X18367659Y-131209347D02*
X18388866Y-131058449D01*
X18388866Y-131058449D02*
X18361746Y-130977699D01*
X18361746Y-130977699D02*
X18329323Y-130934672D01*
X18329323Y-130934672D02*
X18259176Y-130886344D01*
X21214583Y-33620679D02*
X21161564Y-33243434D01*
X21161564Y-33243434D02*
X21953779Y-33132096D01*
X21666665Y-33826431D02*
X21703778Y-34090502D01*
X21304714Y-34261996D02*
X21251696Y-33884751D01*
X21251696Y-33884751D02*
X22043910Y-33773412D01*
X22043910Y-33773412D02*
X22096928Y-34150657D01*
X21352431Y-34601517D02*
X22144645Y-34490178D01*
X22144645Y-34490178D02*
X22171154Y-34678801D01*
X22171154Y-34678801D02*
X22149335Y-34797276D01*
X22149335Y-34797276D02*
X22084490Y-34883329D01*
X22084490Y-34883329D02*
X22014343Y-34931657D01*
X22014343Y-34931657D02*
X21868746Y-34990589D01*
X21868746Y-34990589D02*
X21755573Y-35006494D01*
X21755573Y-35006494D02*
X21599373Y-34989977D01*
X21599373Y-34989977D02*
X21518622Y-34962856D01*
X21518622Y-34962856D02*
X21432570Y-34898011D01*
X21432570Y-34898011D02*
X21378940Y-34790139D01*
X21378940Y-34790139D02*
X21352431Y-34601517D01*
X22039628Y-35659026D02*
X21511485Y-35733252D01*
X22314915Y-35427989D02*
X21722539Y-35318894D01*
X21722539Y-35318894D02*
X21791462Y-35809312D01*
X24831583Y-56993079D02*
X24778564Y-56615834D01*
X24778564Y-56615834D02*
X25570779Y-56504496D01*
X25283665Y-57198831D02*
X25320778Y-57462902D01*
X24921714Y-57634396D02*
X24868696Y-57257151D01*
X24868696Y-57257151D02*
X25660910Y-57145812D01*
X25660910Y-57145812D02*
X25713928Y-57523057D01*
X24969431Y-57973917D02*
X25761645Y-57862578D01*
X25761645Y-57862578D02*
X25788154Y-58051201D01*
X25788154Y-58051201D02*
X25766335Y-58169676D01*
X25766335Y-58169676D02*
X25701490Y-58255729D01*
X25701490Y-58255729D02*
X25631343Y-58304057D01*
X25631343Y-58304057D02*
X25485746Y-58362989D01*
X25485746Y-58362989D02*
X25372573Y-58378894D01*
X25372573Y-58378894D02*
X25216373Y-58362377D01*
X25216373Y-58362377D02*
X25135622Y-58335256D01*
X25135622Y-58335256D02*
X25049570Y-58270411D01*
X25049570Y-58270411D02*
X24995940Y-58162539D01*
X24995940Y-58162539D02*
X24969431Y-57973917D01*
X25862380Y-58579344D02*
X25936605Y-59107487D01*
X25936605Y-59107487D02*
X25096674Y-58879305D01*
D11*
X153495707Y-2015722D02*
X153495707Y-1691912D01*
X153495707Y-1691912D02*
X153476660Y-1653817D01*
X153476660Y-1653817D02*
X153457612Y-1634770D01*
X153457612Y-1634770D02*
X153419517Y-1615722D01*
X153419517Y-1615722D02*
X153343326Y-1615722D01*
X153343326Y-1615722D02*
X153305231Y-1634770D01*
X153305231Y-1634770D02*
X153286184Y-1653817D01*
X153286184Y-1653817D02*
X153267136Y-1691912D01*
X153267136Y-1691912D02*
X153267136Y-2015722D01*
X153095707Y-1634770D02*
X153038564Y-1615722D01*
X153038564Y-1615722D02*
X152943326Y-1615722D01*
X152943326Y-1615722D02*
X152905231Y-1634770D01*
X152905231Y-1634770D02*
X152886183Y-1653817D01*
X152886183Y-1653817D02*
X152867136Y-1691912D01*
X152867136Y-1691912D02*
X152867136Y-1730008D01*
X152867136Y-1730008D02*
X152886183Y-1768103D01*
X152886183Y-1768103D02*
X152905231Y-1787150D01*
X152905231Y-1787150D02*
X152943326Y-1806198D01*
X152943326Y-1806198D02*
X153019517Y-1825246D01*
X153019517Y-1825246D02*
X153057612Y-1844293D01*
X153057612Y-1844293D02*
X153076659Y-1863341D01*
X153076659Y-1863341D02*
X153095707Y-1901436D01*
X153095707Y-1901436D02*
X153095707Y-1939531D01*
X153095707Y-1939531D02*
X153076659Y-1977627D01*
X153076659Y-1977627D02*
X153057612Y-1996674D01*
X153057612Y-1996674D02*
X153019517Y-2015722D01*
X153019517Y-2015722D02*
X152924278Y-2015722D01*
X152924278Y-2015722D02*
X152867136Y-1996674D01*
X152562374Y-1825246D02*
X152505231Y-1806198D01*
X152505231Y-1806198D02*
X152486184Y-1787150D01*
X152486184Y-1787150D02*
X152467136Y-1749055D01*
X152467136Y-1749055D02*
X152467136Y-1691912D01*
X152467136Y-1691912D02*
X152486184Y-1653817D01*
X152486184Y-1653817D02*
X152505231Y-1634770D01*
X152505231Y-1634770D02*
X152543326Y-1615722D01*
X152543326Y-1615722D02*
X152695707Y-1615722D01*
X152695707Y-1615722D02*
X152695707Y-2015722D01*
X152695707Y-2015722D02*
X152562374Y-2015722D01*
X152562374Y-2015722D02*
X152524279Y-1996674D01*
X152524279Y-1996674D02*
X152505231Y-1977627D01*
X152505231Y-1977627D02*
X152486184Y-1939531D01*
X152486184Y-1939531D02*
X152486184Y-1901436D01*
X152486184Y-1901436D02*
X152505231Y-1863341D01*
X152505231Y-1863341D02*
X152524279Y-1844293D01*
X152524279Y-1844293D02*
X152562374Y-1825246D01*
X152562374Y-1825246D02*
X152695707Y-1825246D01*
X152295707Y-1615722D02*
X152295707Y-2015722D01*
X152295707Y-2015722D02*
X152143326Y-2015722D01*
X152143326Y-2015722D02*
X152105231Y-1996674D01*
X152105231Y-1996674D02*
X152086184Y-1977627D01*
X152086184Y-1977627D02*
X152067136Y-1939531D01*
X152067136Y-1939531D02*
X152067136Y-1882389D01*
X152067136Y-1882389D02*
X152086184Y-1844293D01*
X152086184Y-1844293D02*
X152105231Y-1825246D01*
X152105231Y-1825246D02*
X152143326Y-1806198D01*
X152143326Y-1806198D02*
X152295707Y-1806198D01*
X151819517Y-2015722D02*
X151743326Y-2015722D01*
X151743326Y-2015722D02*
X151705231Y-1996674D01*
X151705231Y-1996674D02*
X151667136Y-1958579D01*
X151667136Y-1958579D02*
X151648088Y-1882389D01*
X151648088Y-1882389D02*
X151648088Y-1749055D01*
X151648088Y-1749055D02*
X151667136Y-1672865D01*
X151667136Y-1672865D02*
X151705231Y-1634770D01*
X151705231Y-1634770D02*
X151743326Y-1615722D01*
X151743326Y-1615722D02*
X151819517Y-1615722D01*
X151819517Y-1615722D02*
X151857612Y-1634770D01*
X151857612Y-1634770D02*
X151895707Y-1672865D01*
X151895707Y-1672865D02*
X151914755Y-1749055D01*
X151914755Y-1749055D02*
X151914755Y-1882389D01*
X151914755Y-1882389D02*
X151895707Y-1958579D01*
X151895707Y-1958579D02*
X151857612Y-1996674D01*
X151857612Y-1996674D02*
X151819517Y-2015722D01*
X151514755Y-2015722D02*
X151419517Y-1615722D01*
X151419517Y-1615722D02*
X151343326Y-1901436D01*
X151343326Y-1901436D02*
X151267136Y-1615722D01*
X151267136Y-1615722D02*
X151171898Y-2015722D01*
X151019516Y-1825246D02*
X150886183Y-1825246D01*
X150829040Y-1615722D02*
X151019516Y-1615722D01*
X151019516Y-1615722D02*
X151019516Y-2015722D01*
X151019516Y-2015722D02*
X150829040Y-2015722D01*
X150429040Y-1615722D02*
X150562373Y-1806198D01*
X150657611Y-1615722D02*
X150657611Y-2015722D01*
X150657611Y-2015722D02*
X150505230Y-2015722D01*
X150505230Y-2015722D02*
X150467135Y-1996674D01*
X150467135Y-1996674D02*
X150448088Y-1977627D01*
X150448088Y-1977627D02*
X150429040Y-1939531D01*
X150429040Y-1939531D02*
X150429040Y-1882389D01*
X150429040Y-1882389D02*
X150448088Y-1844293D01*
X150448088Y-1844293D02*
X150467135Y-1825246D01*
X150467135Y-1825246D02*
X150505230Y-1806198D01*
X150505230Y-1806198D02*
X150657611Y-1806198D01*
D10*
X140611164Y-17288437D02*
X140649260Y-17326533D01*
X140649260Y-17326533D02*
X140687355Y-17440818D01*
X140687355Y-17440818D02*
X140687355Y-17517009D01*
X140687355Y-17517009D02*
X140649260Y-17631295D01*
X140649260Y-17631295D02*
X140573069Y-17707485D01*
X140573069Y-17707485D02*
X140496879Y-17745580D01*
X140496879Y-17745580D02*
X140344498Y-17783676D01*
X140344498Y-17783676D02*
X140230212Y-17783676D01*
X140230212Y-17783676D02*
X140077831Y-17745580D01*
X140077831Y-17745580D02*
X140001640Y-17707485D01*
X140001640Y-17707485D02*
X139925450Y-17631295D01*
X139925450Y-17631295D02*
X139887355Y-17517009D01*
X139887355Y-17517009D02*
X139887355Y-17440818D01*
X139887355Y-17440818D02*
X139925450Y-17326533D01*
X139925450Y-17326533D02*
X139963545Y-17288437D01*
X140154021Y-16602723D02*
X140687355Y-16602723D01*
X139849260Y-16793199D02*
X140420688Y-16983676D01*
X140420688Y-16983676D02*
X140420688Y-16488437D01*
X151891467Y-7110855D02*
X151624800Y-6729902D01*
X151434324Y-7110855D02*
X151434324Y-6310855D01*
X151434324Y-6310855D02*
X151739086Y-6310855D01*
X151739086Y-6310855D02*
X151815276Y-6348950D01*
X151815276Y-6348950D02*
X151853371Y-6387045D01*
X151853371Y-6387045D02*
X151891467Y-6463236D01*
X151891467Y-6463236D02*
X151891467Y-6577521D01*
X151891467Y-6577521D02*
X151853371Y-6653712D01*
X151853371Y-6653712D02*
X151815276Y-6691807D01*
X151815276Y-6691807D02*
X151739086Y-6729902D01*
X151739086Y-6729902D02*
X151434324Y-6729902D01*
X152158133Y-6310855D02*
X152653371Y-6310855D01*
X152653371Y-6310855D02*
X152386705Y-6615617D01*
X152386705Y-6615617D02*
X152500990Y-6615617D01*
X152500990Y-6615617D02*
X152577181Y-6653712D01*
X152577181Y-6653712D02*
X152615276Y-6691807D01*
X152615276Y-6691807D02*
X152653371Y-6767998D01*
X152653371Y-6767998D02*
X152653371Y-6958474D01*
X152653371Y-6958474D02*
X152615276Y-7034664D01*
X152615276Y-7034664D02*
X152577181Y-7072760D01*
X152577181Y-7072760D02*
X152500990Y-7110855D01*
X152500990Y-7110855D02*
X152272419Y-7110855D01*
X152272419Y-7110855D02*
X152196228Y-7072760D01*
X152196228Y-7072760D02*
X152158133Y-7034664D01*
X147037344Y-11071566D02*
X147418297Y-10804899D01*
X147037344Y-10614423D02*
X147837344Y-10614423D01*
X147837344Y-10614423D02*
X147837344Y-10919185D01*
X147837344Y-10919185D02*
X147799249Y-10995375D01*
X147799249Y-10995375D02*
X147761154Y-11033470D01*
X147761154Y-11033470D02*
X147684963Y-11071566D01*
X147684963Y-11071566D02*
X147570678Y-11071566D01*
X147570678Y-11071566D02*
X147494487Y-11033470D01*
X147494487Y-11033470D02*
X147456392Y-10995375D01*
X147456392Y-10995375D02*
X147418297Y-10919185D01*
X147418297Y-10919185D02*
X147418297Y-10614423D01*
X147761154Y-11376327D02*
X147799249Y-11414423D01*
X147799249Y-11414423D02*
X147837344Y-11490613D01*
X147837344Y-11490613D02*
X147837344Y-11681089D01*
X147837344Y-11681089D02*
X147799249Y-11757280D01*
X147799249Y-11757280D02*
X147761154Y-11795375D01*
X147761154Y-11795375D02*
X147684963Y-11833470D01*
X147684963Y-11833470D02*
X147608773Y-11833470D01*
X147608773Y-11833470D02*
X147494487Y-11795375D01*
X147494487Y-11795375D02*
X147037344Y-11338232D01*
X147037344Y-11338232D02*
X147037344Y-11833470D01*
D11*
X152562373Y-3524122D02*
X152314754Y-3524122D01*
X152314754Y-3524122D02*
X152448087Y-3371741D01*
X152448087Y-3371741D02*
X152390944Y-3371741D01*
X152390944Y-3371741D02*
X152352849Y-3352693D01*
X152352849Y-3352693D02*
X152333801Y-3333646D01*
X152333801Y-3333646D02*
X152314754Y-3295550D01*
X152314754Y-3295550D02*
X152314754Y-3200312D01*
X152314754Y-3200312D02*
X152333801Y-3162217D01*
X152333801Y-3162217D02*
X152352849Y-3143170D01*
X152352849Y-3143170D02*
X152390944Y-3124122D01*
X152390944Y-3124122D02*
X152505230Y-3124122D01*
X152505230Y-3124122D02*
X152543325Y-3143170D01*
X152543325Y-3143170D02*
X152562373Y-3162217D01*
X152143325Y-3162217D02*
X152124278Y-3143170D01*
X152124278Y-3143170D02*
X152143325Y-3124122D01*
X152143325Y-3124122D02*
X152162373Y-3143170D01*
X152162373Y-3143170D02*
X152143325Y-3162217D01*
X152143325Y-3162217D02*
X152143325Y-3124122D01*
X151990945Y-3524122D02*
X151743326Y-3524122D01*
X151743326Y-3524122D02*
X151876659Y-3371741D01*
X151876659Y-3371741D02*
X151819516Y-3371741D01*
X151819516Y-3371741D02*
X151781421Y-3352693D01*
X151781421Y-3352693D02*
X151762373Y-3333646D01*
X151762373Y-3333646D02*
X151743326Y-3295550D01*
X151743326Y-3295550D02*
X151743326Y-3200312D01*
X151743326Y-3200312D02*
X151762373Y-3162217D01*
X151762373Y-3162217D02*
X151781421Y-3143170D01*
X151781421Y-3143170D02*
X151819516Y-3124122D01*
X151819516Y-3124122D02*
X151933802Y-3124122D01*
X151933802Y-3124122D02*
X151971897Y-3143170D01*
X151971897Y-3143170D02*
X151990945Y-3162217D01*
X151629040Y-3524122D02*
X151495707Y-3124122D01*
X151495707Y-3124122D02*
X151362374Y-3524122D01*
D10*
X22853076Y-97207710D02*
X22906095Y-96830465D01*
X22906095Y-96830465D02*
X23698309Y-96941804D01*
X23230933Y-97530102D02*
X23193820Y-97794173D01*
X22762945Y-97849026D02*
X22815963Y-97471782D01*
X22815963Y-97471782D02*
X23608178Y-97583120D01*
X23608178Y-97583120D02*
X23555160Y-97960365D01*
X22715229Y-98188547D02*
X23507443Y-98299886D01*
X23507443Y-98299886D02*
X23480934Y-98488508D01*
X23480934Y-98488508D02*
X23427304Y-98596380D01*
X23427304Y-98596380D02*
X23341251Y-98661225D01*
X23341251Y-98661225D02*
X23260500Y-98688346D01*
X23260500Y-98688346D02*
X23104301Y-98704863D01*
X23104301Y-98704863D02*
X22991127Y-98688958D01*
X22991127Y-98688958D02*
X22845531Y-98630026D01*
X22845531Y-98630026D02*
X22775384Y-98581698D01*
X22775384Y-98581698D02*
X22710538Y-98495645D01*
X22710538Y-98495645D02*
X22688719Y-98377170D01*
X22688719Y-98377170D02*
X22715229Y-98188547D01*
X22545570Y-99395731D02*
X22609192Y-98943037D01*
X22577381Y-99169384D02*
X23369595Y-99280723D01*
X23369595Y-99280723D02*
X23267026Y-99189368D01*
X23267026Y-99189368D02*
X23202180Y-99103316D01*
X23202180Y-99103316D02*
X23175059Y-99022565D01*
X23219921Y-99798262D02*
X23252343Y-99841289D01*
X23252343Y-99841289D02*
X23279464Y-99922040D01*
X23279464Y-99922040D02*
X23252955Y-100110662D01*
X23252955Y-100110662D02*
X23204627Y-100180809D01*
X23204627Y-100180809D02*
X23161601Y-100213232D01*
X23161601Y-100213232D02*
X23080850Y-100240353D01*
X23080850Y-100240353D02*
X23005401Y-100229749D01*
X23005401Y-100229749D02*
X22897529Y-100176119D01*
X22897529Y-100176119D02*
X22508457Y-99659803D01*
X22508457Y-99659803D02*
X22439533Y-100150222D01*
X137159135Y-19703266D02*
X137121040Y-19665170D01*
X137121040Y-19665170D02*
X137082944Y-19550885D01*
X137082944Y-19550885D02*
X137082944Y-19474694D01*
X137082944Y-19474694D02*
X137121040Y-19360408D01*
X137121040Y-19360408D02*
X137197230Y-19284218D01*
X137197230Y-19284218D02*
X137273420Y-19246123D01*
X137273420Y-19246123D02*
X137425801Y-19208027D01*
X137425801Y-19208027D02*
X137540087Y-19208027D01*
X137540087Y-19208027D02*
X137692468Y-19246123D01*
X137692468Y-19246123D02*
X137768659Y-19284218D01*
X137768659Y-19284218D02*
X137844849Y-19360408D01*
X137844849Y-19360408D02*
X137882944Y-19474694D01*
X137882944Y-19474694D02*
X137882944Y-19550885D01*
X137882944Y-19550885D02*
X137844849Y-19665170D01*
X137844849Y-19665170D02*
X137806754Y-19703266D01*
X137082944Y-20465170D02*
X137082944Y-20008027D01*
X137082944Y-20236599D02*
X137882944Y-20236599D01*
X137882944Y-20236599D02*
X137768659Y-20160408D01*
X137768659Y-20160408D02*
X137692468Y-20084218D01*
X137692468Y-20084218D02*
X137654373Y-20008027D01*
X17597483Y-10248279D02*
X17544464Y-9871034D01*
X17544464Y-9871034D02*
X18336679Y-9759696D01*
X18049565Y-10454031D02*
X18086678Y-10718102D01*
X17687614Y-10889596D02*
X17634596Y-10512351D01*
X17634596Y-10512351D02*
X18426810Y-10401012D01*
X18426810Y-10401012D02*
X18479828Y-10778257D01*
X17735331Y-11229117D02*
X18527545Y-11117778D01*
X18527545Y-11117778D02*
X18554054Y-11306401D01*
X18554054Y-11306401D02*
X18532235Y-11424876D01*
X18532235Y-11424876D02*
X18467390Y-11510929D01*
X18467390Y-11510929D02*
X18397243Y-11559257D01*
X18397243Y-11559257D02*
X18251646Y-11618189D01*
X18251646Y-11618189D02*
X18138473Y-11634094D01*
X18138473Y-11634094D02*
X17982273Y-11617577D01*
X17982273Y-11617577D02*
X17901522Y-11590456D01*
X17901522Y-11590456D02*
X17815470Y-11525611D01*
X17815470Y-11525611D02*
X17761840Y-11417739D01*
X17761840Y-11417739D02*
X17735331Y-11229117D01*
X17904989Y-12436301D02*
X17841367Y-11983607D01*
X17873178Y-12209954D02*
X18665393Y-12098615D01*
X18665393Y-12098615D02*
X18541615Y-12039072D01*
X18541615Y-12039072D02*
X18455563Y-11974226D01*
X18455563Y-11974226D02*
X18407235Y-11904079D01*
X144162344Y-11071566D02*
X144543297Y-10804899D01*
X144162344Y-10614423D02*
X144962344Y-10614423D01*
X144962344Y-10614423D02*
X144962344Y-10919185D01*
X144962344Y-10919185D02*
X144924249Y-10995375D01*
X144924249Y-10995375D02*
X144886154Y-11033470D01*
X144886154Y-11033470D02*
X144809963Y-11071566D01*
X144809963Y-11071566D02*
X144695678Y-11071566D01*
X144695678Y-11071566D02*
X144619487Y-11033470D01*
X144619487Y-11033470D02*
X144581392Y-10995375D01*
X144581392Y-10995375D02*
X144543297Y-10919185D01*
X144543297Y-10919185D02*
X144543297Y-10614423D01*
X144162344Y-11833470D02*
X144162344Y-11376327D01*
X144162344Y-11604899D02*
X144962344Y-11604899D01*
X144962344Y-11604899D02*
X144848059Y-11528708D01*
X144848059Y-11528708D02*
X144771868Y-11452518D01*
X144771868Y-11452518D02*
X144733773Y-11376327D01*
D11*
X153105230Y-4746708D02*
X152914754Y-4746708D01*
X153143325Y-4632422D02*
X153009992Y-5032422D01*
X153009992Y-5032422D02*
X152876659Y-4632422D01*
X152514754Y-4670517D02*
X152533802Y-4651470D01*
X152533802Y-4651470D02*
X152590944Y-4632422D01*
X152590944Y-4632422D02*
X152629040Y-4632422D01*
X152629040Y-4632422D02*
X152686183Y-4651470D01*
X152686183Y-4651470D02*
X152724278Y-4689565D01*
X152724278Y-4689565D02*
X152743325Y-4727660D01*
X152743325Y-4727660D02*
X152762373Y-4803850D01*
X152762373Y-4803850D02*
X152762373Y-4860993D01*
X152762373Y-4860993D02*
X152743325Y-4937184D01*
X152743325Y-4937184D02*
X152724278Y-4975279D01*
X152724278Y-4975279D02*
X152686183Y-5013374D01*
X152686183Y-5013374D02*
X152629040Y-5032422D01*
X152629040Y-5032422D02*
X152590944Y-5032422D01*
X152590944Y-5032422D02*
X152533802Y-5013374D01*
X152533802Y-5013374D02*
X152514754Y-4994327D01*
X152400468Y-5032422D02*
X152171897Y-5032422D01*
X152286183Y-4632422D02*
X152286183Y-5032422D01*
X152038563Y-4632422D02*
X152038563Y-5032422D01*
X151905230Y-5032422D02*
X151771897Y-4632422D01*
X151771897Y-4632422D02*
X151638564Y-5032422D01*
X151505230Y-4632422D02*
X151505230Y-5032422D01*
X151371897Y-5032422D02*
X151143326Y-5032422D01*
X151257612Y-4632422D02*
X151257612Y-5032422D01*
X150933802Y-4822898D02*
X150933802Y-4632422D01*
X151067135Y-5032422D02*
X150933802Y-4822898D01*
X150933802Y-4822898D02*
X150800469Y-5032422D01*
D10*
X18803183Y-18039079D02*
X18750164Y-17661834D01*
X18750164Y-17661834D02*
X19542379Y-17550496D01*
X19255265Y-18244831D02*
X19292378Y-18508902D01*
X18893314Y-18680396D02*
X18840296Y-18303151D01*
X18840296Y-18303151D02*
X19632510Y-18191812D01*
X19632510Y-18191812D02*
X19685528Y-18569057D01*
X18941031Y-19019917D02*
X19733245Y-18908578D01*
X19733245Y-18908578D02*
X19759754Y-19097201D01*
X19759754Y-19097201D02*
X19737935Y-19215676D01*
X19737935Y-19215676D02*
X19673090Y-19301729D01*
X19673090Y-19301729D02*
X19602943Y-19350057D01*
X19602943Y-19350057D02*
X19457346Y-19408989D01*
X19457346Y-19408989D02*
X19344173Y-19424894D01*
X19344173Y-19424894D02*
X19187973Y-19408377D01*
X19187973Y-19408377D02*
X19107222Y-19381256D01*
X19107222Y-19381256D02*
X19021170Y-19316411D01*
X19021170Y-19316411D02*
X18967540Y-19208539D01*
X18967540Y-19208539D02*
X18941031Y-19019917D01*
X19763833Y-19673672D02*
X19806859Y-19706094D01*
X19806859Y-19706094D02*
X19855187Y-19776242D01*
X19855187Y-19776242D02*
X19881696Y-19964864D01*
X19881696Y-19964864D02*
X19854575Y-20045615D01*
X19854575Y-20045615D02*
X19822153Y-20088641D01*
X19822153Y-20088641D02*
X19752006Y-20136969D01*
X19752006Y-20136969D02*
X19676557Y-20147573D01*
X19676557Y-20147573D02*
X19558081Y-20125754D01*
X19558081Y-20125754D02*
X19041765Y-19736682D01*
X19041765Y-19736682D02*
X19110689Y-20227101D01*
X142661511Y-25948447D02*
X142661511Y-26329400D01*
X142432939Y-25872257D02*
X143232939Y-26138924D01*
X143232939Y-26138924D02*
X142432939Y-26405590D01*
X142432939Y-26672257D02*
X143232939Y-26672257D01*
X143232939Y-26672257D02*
X142432939Y-27129400D01*
X142432939Y-27129400D02*
X143232939Y-27129400D01*
X143232939Y-27396066D02*
X143232939Y-27853209D01*
X142432939Y-27624637D02*
X143232939Y-27624637D01*
X142851987Y-28119876D02*
X142851987Y-28386542D01*
X142432939Y-28500828D02*
X142432939Y-28119876D01*
X142432939Y-28119876D02*
X143232939Y-28119876D01*
X143232939Y-28119876D02*
X143232939Y-28500828D01*
X142432939Y-28843686D02*
X143232939Y-28843686D01*
X143232939Y-28843686D02*
X142432939Y-29300829D01*
X142432939Y-29300829D02*
X143232939Y-29300829D01*
X142432939Y-29681781D02*
X143232939Y-29681781D01*
X143232939Y-29681781D02*
X142432939Y-30138924D01*
X142432939Y-30138924D02*
X143232939Y-30138924D01*
X142661511Y-30481780D02*
X142661511Y-30862733D01*
X142432939Y-30405590D02*
X143232939Y-30672257D01*
X143232939Y-30672257D02*
X142432939Y-30938923D01*
X147757944Y-32296062D02*
X147110325Y-32296062D01*
X147110325Y-32296062D02*
X147034135Y-32334157D01*
X147034135Y-32334157D02*
X146996040Y-32372252D01*
X146996040Y-32372252D02*
X146957944Y-32448443D01*
X146957944Y-32448443D02*
X146957944Y-32600824D01*
X146957944Y-32600824D02*
X146996040Y-32677014D01*
X146996040Y-32677014D02*
X147034135Y-32715109D01*
X147034135Y-32715109D02*
X147110325Y-32753205D01*
X147110325Y-32753205D02*
X147757944Y-32753205D01*
X147681754Y-33096061D02*
X147719849Y-33134157D01*
X147719849Y-33134157D02*
X147757944Y-33210347D01*
X147757944Y-33210347D02*
X147757944Y-33400823D01*
X147757944Y-33400823D02*
X147719849Y-33477014D01*
X147719849Y-33477014D02*
X147681754Y-33515109D01*
X147681754Y-33515109D02*
X147605563Y-33553204D01*
X147605563Y-33553204D02*
X147529373Y-33553204D01*
X147529373Y-33553204D02*
X147415087Y-33515109D01*
X147415087Y-33515109D02*
X146957944Y-33057966D01*
X146957944Y-33057966D02*
X146957944Y-33553204D01*
X21707276Y-104993010D02*
X21760295Y-104615765D01*
X21760295Y-104615765D02*
X22552509Y-104727104D01*
X22085133Y-105315402D02*
X22048020Y-105579473D01*
X21617145Y-105634326D02*
X21670163Y-105257082D01*
X21670163Y-105257082D02*
X22462378Y-105368420D01*
X22462378Y-105368420D02*
X22409360Y-105745665D01*
X21569429Y-105973847D02*
X22361643Y-106085186D01*
X22361643Y-106085186D02*
X22335134Y-106273808D01*
X22335134Y-106273808D02*
X22281504Y-106381680D01*
X22281504Y-106381680D02*
X22195451Y-106446525D01*
X22195451Y-106446525D02*
X22114700Y-106473646D01*
X22114700Y-106473646D02*
X21958501Y-106490163D01*
X21958501Y-106490163D02*
X21845327Y-106474258D01*
X21845327Y-106474258D02*
X21699731Y-106415326D01*
X21699731Y-106415326D02*
X21629584Y-106366998D01*
X21629584Y-106366998D02*
X21564738Y-106280945D01*
X21564738Y-106280945D02*
X21542919Y-106162470D01*
X21542919Y-106162470D02*
X21569429Y-105973847D01*
X21399770Y-107181031D02*
X21463392Y-106728337D01*
X21431581Y-106954684D02*
X22223795Y-107066023D01*
X22223795Y-107066023D02*
X22121226Y-106974668D01*
X22121226Y-106974668D02*
X22056380Y-106888616D01*
X22056380Y-106888616D02*
X22029259Y-106807865D01*
X22154872Y-107556442D02*
X22085948Y-108046860D01*
X22085948Y-108046860D02*
X21821265Y-107740374D01*
X21821265Y-107740374D02*
X21805359Y-107853547D01*
X21805359Y-107853547D02*
X21757031Y-107923695D01*
X21757031Y-107923695D02*
X21714005Y-107956117D01*
X21714005Y-107956117D02*
X21633254Y-107983238D01*
X21633254Y-107983238D02*
X21444631Y-107956729D01*
X21444631Y-107956729D02*
X21374484Y-107908401D01*
X21374484Y-107908401D02*
X21342061Y-107865374D01*
X21342061Y-107865374D02*
X21314941Y-107784624D01*
X21314941Y-107784624D02*
X21346752Y-107558277D01*
X21346752Y-107558277D02*
X21395080Y-107488129D01*
X21395080Y-107488129D02*
X21438106Y-107455707D01*
X26237758Y-74229155D02*
X26290776Y-73851910D01*
X26290776Y-73851910D02*
X27082991Y-73963248D01*
X26615615Y-74551546D02*
X26578502Y-74815618D01*
X26147627Y-74870471D02*
X26200645Y-74493226D01*
X26200645Y-74493226D02*
X26992860Y-74604565D01*
X26992860Y-74604565D02*
X26939841Y-74981810D01*
X26099910Y-75209992D02*
X26892125Y-75321331D01*
X26892125Y-75321331D02*
X26865616Y-75509953D01*
X26865616Y-75509953D02*
X26811986Y-75617825D01*
X26811986Y-75617825D02*
X26725933Y-75682670D01*
X26725933Y-75682670D02*
X26645182Y-75709791D01*
X26645182Y-75709791D02*
X26488982Y-75726308D01*
X26488982Y-75726308D02*
X26375809Y-75710403D01*
X26375809Y-75710403D02*
X26230213Y-75651471D01*
X26230213Y-75651471D02*
X26160066Y-75603143D01*
X26160066Y-75603143D02*
X26095220Y-75517090D01*
X26095220Y-75517090D02*
X26073401Y-75398615D01*
X26073401Y-75398615D02*
X26099910Y-75209992D01*
X25983270Y-76039931D02*
X25962063Y-76190829D01*
X25962063Y-76190829D02*
X25989184Y-76271580D01*
X25989184Y-76271580D02*
X26021606Y-76314606D01*
X26021606Y-76314606D02*
X26124176Y-76405961D01*
X26124176Y-76405961D02*
X26269772Y-76464892D01*
X26269772Y-76464892D02*
X26571568Y-76507307D01*
X26571568Y-76507307D02*
X26652319Y-76480186D01*
X26652319Y-76480186D02*
X26695345Y-76447764D01*
X26695345Y-76447764D02*
X26743673Y-76377616D01*
X26743673Y-76377616D02*
X26764881Y-76226718D01*
X26764881Y-76226718D02*
X26737760Y-76145968D01*
X26737760Y-76145968D02*
X26705337Y-76102941D01*
X26705337Y-76102941D02*
X26635190Y-76054613D01*
X26635190Y-76054613D02*
X26446568Y-76028104D01*
X26446568Y-76028104D02*
X26365817Y-76055225D01*
X26365817Y-76055225D02*
X26322791Y-76087647D01*
X26322791Y-76087647D02*
X26274462Y-76157795D01*
X26274462Y-76157795D02*
X26253255Y-76308693D01*
X26253255Y-76308693D02*
X26280376Y-76389443D01*
X26280376Y-76389443D02*
X26312799Y-76432470D01*
X26312799Y-76432470D02*
X26382946Y-76480798D01*
X159322076Y-28770755D02*
X159322076Y-29418374D01*
X159322076Y-29418374D02*
X159360171Y-29494564D01*
X159360171Y-29494564D02*
X159398266Y-29532660D01*
X159398266Y-29532660D02*
X159474457Y-29570755D01*
X159474457Y-29570755D02*
X159626838Y-29570755D01*
X159626838Y-29570755D02*
X159703028Y-29532660D01*
X159703028Y-29532660D02*
X159741123Y-29494564D01*
X159741123Y-29494564D02*
X159779219Y-29418374D01*
X159779219Y-29418374D02*
X159779219Y-28770755D01*
X160579218Y-29570755D02*
X160122075Y-29570755D01*
X160350647Y-29570755D02*
X160350647Y-28770755D01*
X160350647Y-28770755D02*
X160274456Y-28885040D01*
X160274456Y-28885040D02*
X160198266Y-28961231D01*
X160198266Y-28961231D02*
X160122075Y-28999326D01*
X19415476Y-120563510D02*
X19468495Y-120186265D01*
X19468495Y-120186265D02*
X20260709Y-120297604D01*
X19793333Y-120885902D02*
X19756220Y-121149973D01*
X19325345Y-121204826D02*
X19378363Y-120827582D01*
X19378363Y-120827582D02*
X20170578Y-120938920D01*
X20170578Y-120938920D02*
X20117560Y-121316165D01*
X19277629Y-121544347D02*
X20069843Y-121655686D01*
X20069843Y-121655686D02*
X20043334Y-121844308D01*
X20043334Y-121844308D02*
X19989704Y-121952180D01*
X19989704Y-121952180D02*
X19903651Y-122017025D01*
X19903651Y-122017025D02*
X19822900Y-122044146D01*
X19822900Y-122044146D02*
X19666701Y-122060663D01*
X19666701Y-122060663D02*
X19553527Y-122044758D01*
X19553527Y-122044758D02*
X19407931Y-121985826D01*
X19407931Y-121985826D02*
X19337784Y-121937498D01*
X19337784Y-121937498D02*
X19272938Y-121851445D01*
X19272938Y-121851445D02*
X19251119Y-121732970D01*
X19251119Y-121732970D02*
X19277629Y-121544347D01*
X19107970Y-122751531D02*
X19171592Y-122298837D01*
X19139781Y-122525184D02*
X19931995Y-122636523D01*
X19931995Y-122636523D02*
X19829426Y-122545168D01*
X19829426Y-122545168D02*
X19764580Y-122459116D01*
X19764580Y-122459116D02*
X19737459Y-122378365D01*
X19799450Y-123579636D02*
X19852468Y-123202391D01*
X19852468Y-123202391D02*
X19480525Y-123111648D01*
X19480525Y-123111648D02*
X19512947Y-123154674D01*
X19512947Y-123154674D02*
X19540068Y-123235425D01*
X19540068Y-123235425D02*
X19513559Y-123424047D01*
X19513559Y-123424047D02*
X19465231Y-123494195D01*
X19465231Y-123494195D02*
X19422205Y-123526617D01*
X19422205Y-123526617D02*
X19341454Y-123553738D01*
X19341454Y-123553738D02*
X19152831Y-123527229D01*
X19152831Y-123527229D02*
X19082684Y-123478901D01*
X19082684Y-123478901D02*
X19050261Y-123435874D01*
X19050261Y-123435874D02*
X19023141Y-123355124D01*
X19023141Y-123355124D02*
X19049650Y-123166501D01*
X19049650Y-123166501D02*
X19097978Y-123096354D01*
X19097978Y-123096354D02*
X19141004Y-123063931D01*
X121561097Y-4986044D02*
X121827764Y-5366997D01*
X122018240Y-4986044D02*
X122018240Y-5786044D01*
X122018240Y-5786044D02*
X121713478Y-5786044D01*
X121713478Y-5786044D02*
X121637288Y-5747949D01*
X121637288Y-5747949D02*
X121599193Y-5709854D01*
X121599193Y-5709854D02*
X121561097Y-5633663D01*
X121561097Y-5633663D02*
X121561097Y-5519378D01*
X121561097Y-5519378D02*
X121599193Y-5443187D01*
X121599193Y-5443187D02*
X121637288Y-5405092D01*
X121637288Y-5405092D02*
X121713478Y-5366997D01*
X121713478Y-5366997D02*
X122018240Y-5366997D01*
X121218240Y-5405092D02*
X120951574Y-5405092D01*
X120837288Y-4986044D02*
X121218240Y-4986044D01*
X121218240Y-4986044D02*
X121218240Y-5786044D01*
X121218240Y-5786044D02*
X120837288Y-5786044D01*
X120532526Y-5024140D02*
X120418240Y-4986044D01*
X120418240Y-4986044D02*
X120227764Y-4986044D01*
X120227764Y-4986044D02*
X120151573Y-5024140D01*
X120151573Y-5024140D02*
X120113478Y-5062235D01*
X120113478Y-5062235D02*
X120075383Y-5138425D01*
X120075383Y-5138425D02*
X120075383Y-5214616D01*
X120075383Y-5214616D02*
X120113478Y-5290806D01*
X120113478Y-5290806D02*
X120151573Y-5328901D01*
X120151573Y-5328901D02*
X120227764Y-5366997D01*
X120227764Y-5366997D02*
X120380145Y-5405092D01*
X120380145Y-5405092D02*
X120456335Y-5443187D01*
X120456335Y-5443187D02*
X120494430Y-5481282D01*
X120494430Y-5481282D02*
X120532526Y-5557473D01*
X120532526Y-5557473D02*
X120532526Y-5633663D01*
X120532526Y-5633663D02*
X120494430Y-5709854D01*
X120494430Y-5709854D02*
X120456335Y-5747949D01*
X120456335Y-5747949D02*
X120380145Y-5786044D01*
X120380145Y-5786044D02*
X120189668Y-5786044D01*
X120189668Y-5786044D02*
X120075383Y-5747949D01*
X119732525Y-5405092D02*
X119465859Y-5405092D01*
X119351573Y-4986044D02*
X119732525Y-4986044D01*
X119732525Y-4986044D02*
X119732525Y-5786044D01*
X119732525Y-5786044D02*
X119351573Y-5786044D01*
X119123001Y-5786044D02*
X118665858Y-5786044D01*
X118894430Y-4986044D02*
X118894430Y-5786044D01*
X22420183Y-41411479D02*
X22367164Y-41034234D01*
X22367164Y-41034234D02*
X23159379Y-40922896D01*
X22872265Y-41617231D02*
X22909378Y-41881302D01*
X22510314Y-42052796D02*
X22457296Y-41675551D01*
X22457296Y-41675551D02*
X23249510Y-41564212D01*
X23249510Y-41564212D02*
X23302528Y-41941457D01*
X22558031Y-42392317D02*
X23350245Y-42280978D01*
X23350245Y-42280978D02*
X23376754Y-42469601D01*
X23376754Y-42469601D02*
X23354935Y-42588076D01*
X23354935Y-42588076D02*
X23290090Y-42674129D01*
X23290090Y-42674129D02*
X23219943Y-42722457D01*
X23219943Y-42722457D02*
X23074346Y-42781389D01*
X23074346Y-42781389D02*
X22961173Y-42797294D01*
X22961173Y-42797294D02*
X22804973Y-42780777D01*
X22804973Y-42780777D02*
X22724222Y-42753656D01*
X22724222Y-42753656D02*
X22638170Y-42688811D01*
X22638170Y-42688811D02*
X22584540Y-42580939D01*
X22584540Y-42580939D02*
X22558031Y-42392317D01*
X23514602Y-43450438D02*
X23461583Y-43073193D01*
X23461583Y-43073193D02*
X23079037Y-43088486D01*
X23079037Y-43088486D02*
X23122063Y-43120909D01*
X23122063Y-43120909D02*
X23170391Y-43191056D01*
X23170391Y-43191056D02*
X23196900Y-43379679D01*
X23196900Y-43379679D02*
X23169779Y-43460430D01*
X23169779Y-43460430D02*
X23137357Y-43503456D01*
X23137357Y-43503456D02*
X23067210Y-43551784D01*
X23067210Y-43551784D02*
X22878587Y-43578293D01*
X22878587Y-43578293D02*
X22797836Y-43551172D01*
X22797836Y-43551172D02*
X22754810Y-43518750D01*
X22754810Y-43518750D02*
X22706482Y-43448603D01*
X22706482Y-43448603D02*
X22679973Y-43259980D01*
X22679973Y-43259980D02*
X22707094Y-43179229D01*
X22707094Y-43179229D02*
X22739516Y-43136203D01*
X144963748Y-9851944D02*
X144963748Y-9280516D01*
X144963748Y-9280516D02*
X145001843Y-9166230D01*
X145001843Y-9166230D02*
X145078034Y-9090040D01*
X145078034Y-9090040D02*
X145192319Y-9051944D01*
X145192319Y-9051944D02*
X145268510Y-9051944D01*
X144163748Y-9051944D02*
X144620891Y-9051944D01*
X144392319Y-9051944D02*
X144392319Y-9851944D01*
X144392319Y-9851944D02*
X144468510Y-9737659D01*
X144468510Y-9737659D02*
X144544700Y-9661468D01*
X144544700Y-9661468D02*
X144620891Y-9623373D01*
X20008883Y-25829879D02*
X19955864Y-25452634D01*
X19955864Y-25452634D02*
X20748079Y-25341296D01*
X20460965Y-26035631D02*
X20498078Y-26299702D01*
X20099014Y-26471196D02*
X20045996Y-26093951D01*
X20045996Y-26093951D02*
X20838210Y-25982612D01*
X20838210Y-25982612D02*
X20891228Y-26359857D01*
X20146731Y-26810717D02*
X20938945Y-26699378D01*
X20938945Y-26699378D02*
X20965454Y-26888001D01*
X20965454Y-26888001D02*
X20943635Y-27006476D01*
X20943635Y-27006476D02*
X20878790Y-27092529D01*
X20878790Y-27092529D02*
X20808643Y-27140857D01*
X20808643Y-27140857D02*
X20663046Y-27199789D01*
X20663046Y-27199789D02*
X20549873Y-27215694D01*
X20549873Y-27215694D02*
X20393673Y-27199177D01*
X20393673Y-27199177D02*
X20312922Y-27172056D01*
X20312922Y-27172056D02*
X20226870Y-27107211D01*
X20226870Y-27107211D02*
X20173240Y-26999339D01*
X20173240Y-26999339D02*
X20146731Y-26810717D01*
X21039680Y-27416144D02*
X21108604Y-27906562D01*
X21108604Y-27906562D02*
X20769695Y-27684905D01*
X20769695Y-27684905D02*
X20785600Y-27798079D01*
X20785600Y-27798079D02*
X20758479Y-27878830D01*
X20758479Y-27878830D02*
X20726057Y-27921856D01*
X20726057Y-27921856D02*
X20655910Y-27970184D01*
X20655910Y-27970184D02*
X20467287Y-27996693D01*
X20467287Y-27996693D02*
X20386536Y-27969572D01*
X20386536Y-27969572D02*
X20343510Y-27937150D01*
X20343510Y-27937150D02*
X20295182Y-27867003D01*
X20295182Y-27867003D02*
X20263371Y-27640656D01*
X20263371Y-27640656D02*
X20290492Y-27559905D01*
X20290492Y-27559905D02*
X20322914Y-27516878D01*
D12*
%TO.C,*%
X125269696Y-4331194D02*
X125269695Y-4451194D01*
X125269702Y-2181194D02*
X125269698Y-3321194D01*
X125269705Y-1051194D02*
X125269704Y-1171194D01*
X129669705Y-1051206D02*
X125269705Y-1051194D01*
X129669704Y-1171206D02*
X129669705Y-1051206D01*
X129669698Y-3321206D02*
X129669702Y-2181206D01*
X129669695Y-4451206D02*
X129669696Y-4331206D01*
X125269695Y-4451194D02*
X129669695Y-4451206D01*
D13*
X19340189Y-109972230D02*
X19342972Y-109952425D01*
D14*
X14346491Y-115541430D02*
X15042370Y-110590091D01*
X19297830Y-116237309D02*
X19993709Y-111285970D01*
D12*
X151787500Y-6026900D02*
X152262100Y-6026900D01*
X151787500Y-7071900D02*
X152262100Y-7071900D01*
X139843100Y-19682199D02*
X139843100Y-19963399D01*
X138823100Y-19682201D02*
X138823100Y-19963401D01*
X138160500Y-19695999D02*
X138160500Y-19977199D01*
X137140500Y-19696001D02*
X137140500Y-19977201D01*
D13*
X22777789Y-86616330D02*
X22780572Y-86596525D01*
D14*
X17784091Y-92185530D02*
X18479970Y-87234191D01*
X22735430Y-92881409D02*
X23431309Y-87930070D01*
D15*
X139333199Y-13149200D02*
X139333197Y-12649200D01*
X139733199Y-13149199D02*
X139333201Y-13749200D01*
X138933199Y-13149201D02*
X139733199Y-13149199D01*
X139333201Y-13749200D02*
X138933199Y-13149201D01*
X139333201Y-13749200D02*
X139883201Y-13749198D01*
X139333201Y-13749200D02*
X138783201Y-13749202D01*
X139333203Y-14149200D02*
X139333201Y-13749200D01*
X140233205Y-14799197D02*
X138433205Y-14799203D01*
X140233195Y-11999197D02*
X140233205Y-14799197D01*
X138433195Y-11999203D02*
X140233195Y-11999197D01*
X138433205Y-14799203D02*
X138433195Y-11999203D01*
D12*
X138333208Y-15649204D02*
X140333208Y-15649196D01*
D16*
X138183209Y-15749204D02*
X138183191Y-11049204D01*
X138183191Y-11049204D02*
X140483191Y-11049196D01*
X140483191Y-11049196D02*
X140483209Y-15749196D01*
X138183209Y-15749204D02*
X140483209Y-15749196D01*
D12*
X140333208Y-15649196D02*
X140333194Y-11749196D01*
X138333208Y-15649204D02*
X138333194Y-11749204D01*
X151787500Y-9288200D02*
X152262100Y-9288200D01*
X151787500Y-10333200D02*
X152262100Y-10333200D01*
D13*
X24036897Y-62045881D02*
X24034114Y-62026076D01*
D14*
X20771776Y-68775813D02*
X20075887Y-63824476D01*
X25723113Y-68079924D02*
X25027224Y-63128587D01*
D13*
X23923689Y-78831130D02*
X23926472Y-78811325D01*
D14*
X18929991Y-84400330D02*
X19625870Y-79448991D01*
X23881330Y-85096209D02*
X24577209Y-80144870D01*
D13*
X21625497Y-46464281D02*
X21622714Y-46444476D01*
D14*
X18360376Y-53194213D02*
X17664487Y-48242876D01*
X23311713Y-52498324D02*
X22615824Y-47546987D01*
D13*
X17048389Y-125542730D02*
X17051172Y-125522925D01*
D14*
X12054691Y-131111930D02*
X12750570Y-126160591D01*
X17006030Y-131807809D02*
X17701909Y-126856470D01*
D13*
X19214197Y-30882681D02*
X19211414Y-30862876D01*
D14*
X15949076Y-37612613D02*
X15253187Y-32661276D01*
X20900413Y-36916724D02*
X20204524Y-31965387D01*
D13*
X22831197Y-54255081D02*
X22828414Y-54235276D01*
D14*
X19566076Y-60985013D02*
X18870187Y-56033676D01*
X24517413Y-60289124D02*
X23821524Y-55337787D01*
D15*
X151841899Y-1418300D02*
X152081899Y-1418300D01*
X151851901Y-898300D02*
X152091901Y-898300D01*
X153011900Y-1148303D02*
X153013604Y-1135362D01*
X153013604Y-1135362D02*
X153018599Y-1123303D01*
X153018599Y-1123303D02*
X153026545Y-1112947D01*
X153026545Y-1112947D02*
X153036900Y-1105002D01*
X153036900Y-1105002D02*
X153048959Y-1100007D01*
X153048959Y-1100007D02*
X153061900Y-1098303D01*
X153061900Y-1098303D02*
X153074841Y-1100007D01*
X153074841Y-1100007D02*
X153086900Y-1105002D01*
X153086900Y-1105002D02*
X153097255Y-1112948D01*
X153097255Y-1112948D02*
X153105201Y-1123303D01*
X153105201Y-1123303D02*
X153110196Y-1135362D01*
X153110196Y-1135362D02*
X153111900Y-1148303D01*
X153111900Y-1148303D02*
X153110196Y-1161244D01*
X153110196Y-1161244D02*
X153105201Y-1173303D01*
X153105201Y-1173303D02*
X153097255Y-1183658D01*
X153097255Y-1183658D02*
X153086900Y-1191604D01*
X153086900Y-1191604D02*
X153074841Y-1196599D01*
X153074841Y-1196599D02*
X153061900Y-1198303D01*
X153061900Y-1198303D02*
X153048959Y-1196599D01*
X153048959Y-1196599D02*
X153036900Y-1191604D01*
X153036900Y-1191604D02*
X153026545Y-1183658D01*
X153026545Y-1183658D02*
X153018599Y-1173303D01*
X153018599Y-1173303D02*
X153013604Y-1161244D01*
X153013604Y-1161244D02*
X153011900Y-1148303D01*
D12*
X141242201Y-17295702D02*
X141242199Y-17014502D01*
X142262201Y-17295698D02*
X142262199Y-17014498D01*
X151787500Y-7653200D02*
X152262100Y-7653200D01*
X151787500Y-8698200D02*
X152262100Y-8698200D01*
X146495000Y-10967599D02*
X146495000Y-11442199D01*
X145450000Y-10967601D02*
X145450000Y-11442201D01*
D15*
X151841899Y-2926700D02*
X152081899Y-2926700D01*
X151851901Y-2406700D02*
X152091901Y-2406700D01*
X153011900Y-2656703D02*
X153013604Y-2643762D01*
X153013604Y-2643762D02*
X153018599Y-2631703D01*
X153018599Y-2631703D02*
X153026545Y-2621347D01*
X153026545Y-2621347D02*
X153036900Y-2613402D01*
X153036900Y-2613402D02*
X153048959Y-2608407D01*
X153048959Y-2608407D02*
X153061900Y-2606703D01*
X153061900Y-2606703D02*
X153074841Y-2608407D01*
X153074841Y-2608407D02*
X153086900Y-2613402D01*
X153086900Y-2613402D02*
X153097255Y-2621348D01*
X153097255Y-2621348D02*
X153105201Y-2631703D01*
X153105201Y-2631703D02*
X153110196Y-2643762D01*
X153110196Y-2643762D02*
X153111900Y-2656703D01*
X153111900Y-2656703D02*
X153110196Y-2669644D01*
X153110196Y-2669644D02*
X153105201Y-2681703D01*
X153105201Y-2681703D02*
X153097255Y-2692058D01*
X153097255Y-2692058D02*
X153086900Y-2700004D01*
X153086900Y-2700004D02*
X153074841Y-2704999D01*
X153074841Y-2704999D02*
X153061900Y-2706703D01*
X153061900Y-2706703D02*
X153048959Y-2704999D01*
X153048959Y-2704999D02*
X153036900Y-2700004D01*
X153036900Y-2700004D02*
X153026545Y-2692058D01*
X153026545Y-2692058D02*
X153018599Y-2681703D01*
X153018599Y-2681703D02*
X153013604Y-2669644D01*
X153013604Y-2669644D02*
X153011900Y-2656703D01*
D13*
X21631889Y-94401630D02*
X21634672Y-94381825D01*
D14*
X16638191Y-99970830D02*
X17334070Y-95019491D01*
X21589530Y-100666709D02*
X22285409Y-95715370D01*
D12*
X136528100Y-19695999D02*
X136528100Y-19977199D01*
X135508100Y-19696001D02*
X135508100Y-19977201D01*
D13*
X15597097Y-7510281D02*
X15594314Y-7490476D01*
D14*
X12331976Y-14240213D02*
X11636087Y-9288876D01*
X17283313Y-13544324D02*
X16587424Y-8592987D01*
D12*
X143620000Y-10967599D02*
X143620000Y-11442199D01*
X142575000Y-10967601D02*
X142575000Y-11442201D01*
D15*
X151841899Y-4435000D02*
X152081899Y-4435000D01*
X151851901Y-3915000D02*
X152091901Y-3915000D01*
X153011900Y-4165003D02*
X153013604Y-4152062D01*
X153013604Y-4152062D02*
X153018599Y-4140003D01*
X153018599Y-4140003D02*
X153026545Y-4129647D01*
X153026545Y-4129647D02*
X153036900Y-4121702D01*
X153036900Y-4121702D02*
X153048959Y-4116707D01*
X153048959Y-4116707D02*
X153061900Y-4115003D01*
X153061900Y-4115003D02*
X153074841Y-4116707D01*
X153074841Y-4116707D02*
X153086900Y-4121702D01*
X153086900Y-4121702D02*
X153097255Y-4129648D01*
X153097255Y-4129648D02*
X153105201Y-4140003D01*
X153105201Y-4140003D02*
X153110196Y-4152062D01*
X153110196Y-4152062D02*
X153111900Y-4165003D01*
X153111900Y-4165003D02*
X153110196Y-4177944D01*
X153110196Y-4177944D02*
X153105201Y-4190003D01*
X153105201Y-4190003D02*
X153097255Y-4200358D01*
X153097255Y-4200358D02*
X153086900Y-4208304D01*
X153086900Y-4208304D02*
X153074841Y-4213299D01*
X153074841Y-4213299D02*
X153061900Y-4215003D01*
X153061900Y-4215003D02*
X153048959Y-4213299D01*
X153048959Y-4213299D02*
X153036900Y-4208304D01*
X153036900Y-4208304D02*
X153026545Y-4200358D01*
X153026545Y-4200358D02*
X153018599Y-4190003D01*
X153018599Y-4190003D02*
X153013604Y-4177944D01*
X153013604Y-4177944D02*
X153011900Y-4165003D01*
D13*
X16802797Y-15301081D02*
X16800014Y-15281276D01*
D14*
X13537676Y-22031013D02*
X12841787Y-17079676D01*
X18489013Y-21335124D02*
X17793124Y-16383787D01*
D17*
X138558090Y-22805595D02*
X138532208Y-22802187D01*
X138532208Y-22802187D02*
X138508090Y-22792197D01*
X138508090Y-22792197D02*
X138487379Y-22776305D01*
X138487379Y-22776305D02*
X138471487Y-22755595D01*
X138471487Y-22755595D02*
X138461497Y-22731477D01*
X138461497Y-22731477D02*
X138458090Y-22705595D01*
X138458090Y-22705595D02*
X138461497Y-22679713D01*
X138461497Y-22679713D02*
X138471487Y-22655595D01*
X138471487Y-22655595D02*
X138487379Y-22634884D01*
X138487379Y-22634884D02*
X138508090Y-22618992D01*
X138508090Y-22618992D02*
X138532208Y-22609002D01*
X138532208Y-22609002D02*
X138558089Y-22605595D01*
X138558089Y-22605595D02*
X138583971Y-22609002D01*
X138583971Y-22609002D02*
X138608090Y-22618992D01*
X138608090Y-22618992D02*
X138628800Y-22634884D01*
X138628800Y-22634884D02*
X138644692Y-22655595D01*
X138644692Y-22655595D02*
X138654682Y-22679713D01*
X138654682Y-22679713D02*
X138658090Y-22705595D01*
X138658090Y-22705595D02*
X138654682Y-22731476D01*
X138654682Y-22731476D02*
X138644692Y-22755595D01*
X138644692Y-22755595D02*
X138628800Y-22776305D01*
X138628800Y-22776305D02*
X138608090Y-22792197D01*
X138608090Y-22792197D02*
X138583972Y-22802187D01*
X138583972Y-22802187D02*
X138558090Y-22805595D01*
D14*
X140048091Y-23905593D02*
X140048109Y-41905593D01*
X140048091Y-23905593D02*
X146048091Y-23905587D01*
X120548091Y-23905613D02*
X140048091Y-23905593D01*
X120548109Y-41905613D02*
X120548091Y-23905613D01*
X140048109Y-41905593D02*
X120548109Y-41905613D01*
X146048109Y-41905587D02*
X140048109Y-41905593D01*
X146048091Y-23905587D02*
X146048109Y-41905587D01*
D17*
X138558090Y-22805595D02*
X138532208Y-22802187D01*
X138532208Y-22802187D02*
X138508090Y-22792197D01*
X138508090Y-22792197D02*
X138487379Y-22776305D01*
X138487379Y-22776305D02*
X138471487Y-22755595D01*
X138471487Y-22755595D02*
X138461497Y-22731477D01*
X138461497Y-22731477D02*
X138458090Y-22705595D01*
X138458090Y-22705595D02*
X138461497Y-22679713D01*
X138461497Y-22679713D02*
X138471487Y-22655595D01*
X138471487Y-22655595D02*
X138487379Y-22634884D01*
X138487379Y-22634884D02*
X138508090Y-22618992D01*
X138508090Y-22618992D02*
X138532208Y-22609002D01*
X138532208Y-22609002D02*
X138558089Y-22605595D01*
X138558089Y-22605595D02*
X138583971Y-22609002D01*
X138583971Y-22609002D02*
X138608090Y-22618992D01*
X138608090Y-22618992D02*
X138628800Y-22634884D01*
X138628800Y-22634884D02*
X138644692Y-22655595D01*
X138644692Y-22655595D02*
X138654682Y-22679713D01*
X138654682Y-22679713D02*
X138658090Y-22705595D01*
X138658090Y-22705595D02*
X138654682Y-22731476D01*
X138654682Y-22731476D02*
X138644692Y-22755595D01*
X138644692Y-22755595D02*
X138628800Y-22776305D01*
X138628800Y-22776305D02*
X138608090Y-22792197D01*
X138608090Y-22792197D02*
X138583972Y-22802187D01*
X138583972Y-22802187D02*
X138558090Y-22805595D01*
D14*
X120548109Y-41905613D02*
X120548108Y-40660613D01*
X121278109Y-41905612D02*
X120548109Y-41905613D01*
X120548091Y-23905613D02*
X120548092Y-25150613D01*
X121278091Y-23905612D02*
X120548091Y-23905613D01*
X139328091Y-23905594D02*
X146048091Y-23905587D01*
X146048109Y-41905587D02*
X139328109Y-41905594D01*
X146048091Y-23905587D02*
X146048109Y-41905587D01*
D16*
X119798090Y-23155614D02*
X119798110Y-42655614D01*
X146298110Y-42655587D02*
X119798110Y-42655614D01*
X146298090Y-23155587D02*
X146298110Y-42655587D01*
X119798090Y-23155614D02*
X146298090Y-23155587D01*
D13*
X20486089Y-102186930D02*
X20488872Y-102167125D01*
D14*
X15492391Y-107756130D02*
X16188270Y-102804791D01*
X20443730Y-108452009D02*
X21139609Y-103500670D01*
D13*
X25069589Y-71045830D02*
X25072372Y-71026025D01*
D14*
X20075891Y-76615030D02*
X20771770Y-71663691D01*
X25027230Y-77310909D02*
X25723109Y-72359570D01*
D12*
X161841600Y-37115600D02*
X161841600Y-35855600D01*
X161841600Y-30295600D02*
X161841600Y-31555600D01*
X158081600Y-37115600D02*
X161841600Y-37115600D01*
X155831600Y-30295600D02*
X161841600Y-30295600D01*
D13*
X18194289Y-117757430D02*
X18197072Y-117737625D01*
D14*
X13200591Y-123326630D02*
X13896470Y-118375291D01*
X18151930Y-124022509D02*
X18847809Y-119071170D01*
D12*
X118199196Y-4331194D02*
X118199195Y-4451194D01*
X118199202Y-2181194D02*
X118199198Y-3321194D01*
X118199205Y-1051194D02*
X118199204Y-1171194D01*
X122599205Y-1051206D02*
X118199205Y-1051194D01*
X122599204Y-1171206D02*
X122599205Y-1051206D01*
X122599198Y-3321206D02*
X122599202Y-2181206D01*
X122599195Y-4451206D02*
X122599196Y-4331206D01*
X118199195Y-4451194D02*
X122599195Y-4451206D01*
D13*
X20419797Y-38673481D02*
X20417014Y-38653676D01*
D14*
X17154676Y-45403413D02*
X16458787Y-40452076D01*
X22106013Y-44707524D02*
X21410124Y-39756187D01*
D17*
X148022483Y-9009909D02*
X148025891Y-8984027D01*
X148025891Y-8984027D02*
X148035881Y-8959909D01*
X148035881Y-8959909D02*
X148051773Y-8939198D01*
X148051773Y-8939198D02*
X148072483Y-8923306D01*
X148072483Y-8923306D02*
X148096601Y-8913316D01*
X148096601Y-8913316D02*
X148122483Y-8909909D01*
X148122483Y-8909909D02*
X148148365Y-8913317D01*
X148148365Y-8913317D02*
X148172483Y-8923307D01*
X148172483Y-8923307D02*
X148193194Y-8939199D01*
X148193194Y-8939199D02*
X148209086Y-8959909D01*
X148209086Y-8959909D02*
X148219076Y-8984027D01*
X148219076Y-8984027D02*
X148222483Y-9009909D01*
X148222483Y-9009909D02*
X148219076Y-9035791D01*
X148219076Y-9035791D02*
X148209085Y-9059909D01*
X148209085Y-9059909D02*
X148193194Y-9080620D01*
X148193194Y-9080620D02*
X148172483Y-9096512D01*
X148172483Y-9096512D02*
X148148365Y-9106502D01*
X148148365Y-9106502D02*
X148122483Y-9109909D01*
X148122483Y-9109909D02*
X148096601Y-9106502D01*
X148096601Y-9106502D02*
X148072483Y-9096511D01*
X148072483Y-9096511D02*
X148051772Y-9080620D01*
X148051772Y-9080620D02*
X148035880Y-9059909D01*
X148035880Y-9059909D02*
X148025890Y-9035791D01*
X148025890Y-9035791D02*
X148022483Y-9009909D01*
D14*
X140252488Y-7309888D02*
X149192488Y-7309912D01*
X149192507Y-9912D02*
X140252507Y-9888D01*
D17*
X148022483Y-9009909D02*
X148025891Y-8984027D01*
X148025891Y-8984027D02*
X148035881Y-8959909D01*
X148035881Y-8959909D02*
X148051773Y-8939198D01*
X148051773Y-8939198D02*
X148072483Y-8923306D01*
X148072483Y-8923306D02*
X148096601Y-8913316D01*
X148096601Y-8913316D02*
X148122483Y-8909909D01*
X148122483Y-8909909D02*
X148148365Y-8913317D01*
X148148365Y-8913317D02*
X148172483Y-8923307D01*
X148172483Y-8923307D02*
X148193194Y-8939199D01*
X148193194Y-8939199D02*
X148209086Y-8959909D01*
X148209086Y-8959909D02*
X148219076Y-8984027D01*
X148219076Y-8984027D02*
X148222483Y-9009909D01*
X148222483Y-9009909D02*
X148219076Y-9035791D01*
X148219076Y-9035791D02*
X148209085Y-9059909D01*
X148209085Y-9059909D02*
X148193194Y-9080620D01*
X148193194Y-9080620D02*
X148172483Y-9096512D01*
X148172483Y-9096512D02*
X148148365Y-9106502D01*
X148148365Y-9106502D02*
X148122483Y-9109909D01*
X148122483Y-9109909D02*
X148096601Y-9106502D01*
X148096601Y-9106502D02*
X148072483Y-9096511D01*
X148072483Y-9096511D02*
X148051772Y-9080620D01*
X148051772Y-9080620D02*
X148035880Y-9059909D01*
X148035880Y-9059909D02*
X148025890Y-9035791D01*
X148025890Y-9035791D02*
X148022483Y-9009909D01*
D14*
X149192507Y-9912D02*
X149192504Y-1239912D01*
X140252507Y-9888D02*
X149192507Y-9912D01*
X140252504Y-1239888D02*
X140252507Y-9888D01*
X140252493Y-5419888D02*
X140252496Y-3979888D01*
X149192493Y-5419912D02*
X149192496Y-3979912D01*
D13*
X18008497Y-23091881D02*
X18005714Y-23072076D01*
D14*
X14743376Y-29821813D02*
X14047487Y-24870476D01*
X19694713Y-29125924D02*
X18998824Y-24174587D01*
%TD*%
M02*
