<?xml version="1.0" standalone="no"?>
<!DOCTYPE svg PUBLIC "-//W3C//DTD SVG 20010904//EN"
 "http://www.w3.org/TR/2001/REC-SVG-20010904/DTD/svg10.dtd">
<svg version="1.0" xmlns="http://www.w3.org/2000/svg"
 width="6000.000000pt" height="3375.000000pt" viewBox="0 0 6000.000000 3375.000000"
 preserveAspectRatio="xMidYMid meet">

<g transform="translate(0.000000,3375.000000) scale(0.100000,-0.100000)"
fill="#000000" stroke="none">
<path d="M30845 30413 c-703 -26 -1404 -250 -1802 -574 -617 -505 -749 -1534
-286 -2234 82 -124 256 -300 368 -374 327 -214 808 -315 1355 -282 223 14 464
40 785 86 251 37 347 42 455 25 179 -29 301 -150 360 -362 16 -58 59 -296 60
-330 0 -19 57 -5 102 23 90 58 170 168 229 314 35 88 104 315 114 378 9 53 29
99 52 118 10 9 65 28 121 43 549 140 904 499 976 987 30 204 40 416 27 597
-42 620 -282 1006 -776 1251 -133 66 -210 95 -386 146 -307 89 -824 164 -1284
185 -209 9 -286 10 -470 3z m78 -397 c80 -38 148 -110 194 -203 36 -74 38 -81
38 -177 0 -90 -3 -107 -27 -157 -51 -104 -151 -182 -268 -210 -30 -7 -56 -14
-58 -14 -1 -1 4 -31 13 -66 20 -86 19 -166 -3 -209 -36 -74 -184 -110 -262
-64 -19 11 -49 40 -65 65 l-31 45 -32 -67 c-17 -37 -52 -88 -77 -113 -113
-117 -323 -147 -475 -68 l-55 28 -1 -51 c-1 -105 -87 -230 -193 -282 -113 -56
-216 -29 -332 86 -90 90 -175 222 -281 438 -89 183 -117 267 -104 313 7 28
262 234 324 262 53 25 95 23 130 -7 58 -49 46 -132 -31 -209 l-50 -50 32 -63
c17 -35 36 -63 43 -63 7 1 22 15 33 32 30 47 68 70 124 76 45 4 53 2 80 -25
16 -16 35 -48 42 -71 18 -63 1 -109 -65 -169 l-53 -49 24 -48 c13 -26 30 -49
38 -52 7 -3 31 6 52 20 41 28 110 35 131 14 9 -9 12 -5 12 21 0 33 15 70 34
84 6 4 46 5 88 1 93 -7 145 7 154 41 13 53 -25 82 -156 115 -101 26 -153 55
-213 119 -77 82 -92 120 -92 236 0 86 3 107 25 150 52 107 185 200 302 212
103 10 220 -32 265 -97 21 -30 21 -106 -1 -147 -22 -44 -63 -73 -102 -73 -33
0 -47 9 -86 58 -21 26 -31 27 -52 6 -20 -20 -20 -63 0 -92 22 -32 57 -47 175
-77 112 -29 176 -59 239 -112 22 -19 40 -32 40 -28 0 4 -9 82 -21 173 -22 179
-26 336 -10 391 24 79 53 100 195 137 75 20 110 24 201 21 96 -3 117 -6 168
-31z m1398 -226 c120 -37 235 -120 270 -195 21 -46 25 -138 7 -196 -16 -55
-71 -116 -117 -130 -37 -11 -38 -12 -20 -30 40 -40 63 -102 64 -171 0 -38 3
-68 7 -68 4 0 19 5 33 10 15 6 73 14 129 19 122 11 191 37 241 92 41 46 44 73
10 95 -23 15 -27 14 -78 -15 -30 -17 -66 -31 -79 -31 -37 0 -74 34 -94 85 -14
38 -15 52 -5 84 34 114 212 162 373 101 113 -43 232 -142 274 -228 43 -88 14
-214 -70 -295 -73 -70 -153 -99 -336 -117 -167 -16 -167 -41 0 -124 122 -60
145 -85 135 -144 -8 -51 -56 -125 -91 -141 -51 -23 -192 35 -360 147 -154 104
-244 196 -244 251 0 20 0 20 -47 -1 -61 -27 -179 -34 -250 -15 -29 8 -56 11
-60 6 -4 -4 -35 -10 -69 -14 -49 -5 -63 -4 -74 10 -10 12 -10 19 -2 27 24 24
13 62 -32 108 -83 85 -118 189 -97 283 23 106 83 157 181 157 46 0 56 -4 86
-34 33 -33 34 -35 34 -122 0 -101 12 -124 66 -124 66 0 87 97 39 175 -51 83
-24 153 71 181 81 23 104 56 67 96 -23 25 -69 23 -91 -4 -50 -64 -81 -88 -111
-88 -104 0 -194 106 -175 207 12 62 95 136 184 164 49 15 166 9 231 -11z
m-671 -204 c63 -24 116 -62 133 -98 24 -49 14 -58 -62 -58 -81 0 -177 -20
-292 -60 -48 -16 -99 -30 -114 -30 -87 0 -142 98 -101 179 34 65 125 92 286
87 65 -2 122 -10 150 -20z m-911 -722 c24 -8 56 -12 72 -9 23 5 30 2 41 -21
14 -29 61 -42 85 -23 7 7 29 8 52 4 23 -4 48 -2 60 4 25 14 48 5 54 -20 3 -10
13 -22 24 -26 22 -8 77 -45 81 -55 2 -5 12 -4 22 2 13 7 29 4 60 -11 23 -11
44 -18 47 -15 3 3 23 -4 44 -14 51 -27 77 -26 81 3 3 21 7 22 81 20 l77 -3 0
28 c0 37 17 52 60 52 54 0 129 -31 171 -72 30 -29 49 -39 88 -44 40 -5 57 -14
90 -47 23 -22 41 -47 41 -54 0 -8 10 -23 23 -33 19 -16 20 -19 5 -25 -15 -6
-15 -8 3 -26 25 -25 37 -24 41 2 2 12 13 28 25 36 20 14 23 14 29 -1 4 -9 -1
-25 -10 -35 -9 -10 -16 -21 -16 -24 0 -11 38 -8 46 4 4 7 10 7 16 1 6 -6 7
-16 2 -23 -4 -7 -9 -33 -10 -56 -1 -24 -6 -49 -12 -55 -6 -7 -12 -26 -14 -43
-2 -20 -13 -35 -36 -48 -30 -18 -34 -18 -57 -3 -14 9 -25 21 -25 28 0 16 -32
37 -58 38 -33 0 -62 -18 -62 -39 0 -21 -36 -71 -52 -71 -6 0 -8 10 -4 23 4 16
-1 26 -15 36 -13 8 -19 19 -16 31 5 18 3 18 -49 -1 -39 -15 -72 -20 -114 -17
-33 1 -60 0 -60 -4 0 -13 -109 -6 -114 8 -3 9 -27 11 -93 9 -88 -4 -353 -21
-448 -29 -27 -2 -67 -5 -87 -5 -37 -1 -38 -2 -38 -37 l0 -35 26 20 c34 27 76
27 99 1 45 -50 25 -205 -32 -250 -30 -24 -48 -25 -84 -6 -24 12 -29 12 -43 -2
-15 -15 -17 -15 -33 1 -15 15 -19 41 -21 165 -2 98 -7 149 -15 154 -21 13 -28
9 -16 -11 18 -28 4 -51 -29 -51 -33 0 -57 22 -48 45 3 8 -4 31 -15 50 -18 31
-26 35 -61 35 -22 0 -57 -8 -77 -19 -64 -33 -85 -40 -131 -45 -93 -9 -213 -27
-221 -32 -5 -3 -9 -14 -9 -26 0 -15 4 -18 18 -13 69 29 101 5 109 -82 8 -86
-4 -171 -26 -182 -33 -18 -45 4 -52 88 -3 45 -8 83 -11 87 -4 3 -15 3 -26 -1
-17 -5 -22 -18 -27 -73 -9 -79 -19 -102 -45 -102 -32 0 -40 32 -40 157 -1 121
-10 155 -40 145 -26 -9 -30 -25 -30 -148 0 -106 -3 -125 -19 -145 -16 -20 -23
-22 -38 -13 -24 15 -30 49 -32 175 l-1 105 -37 10 c-81 20 -37 84 66 98 89 13
104 17 92 29 -20 20 -11 71 19 107 17 19 30 40 30 46 0 14 43 44 63 44 30 0
66 26 71 51 3 17 21 37 53 57 26 17 70 56 96 87 27 30 54 55 61 55 7 0 28 14
46 30 18 17 41 30 50 30 9 0 20 3 24 7 31 31 139 40 205 17z m1791 -554 c39
-39 38 -113 -2 -126 -24 -7 -48 17 -48 48 0 25 -16 22 -24 -4 -11 -44 -7 -58
18 -58 13 0 29 -7 36 -15 10 -13 10 -19 -5 -35 -10 -11 -26 -20 -36 -20 -16 0
-19 -11 -21 -81 -2 -65 -7 -84 -20 -93 -30 -18 -51 14 -56 86 -4 60 -13 78
-38 78 -6 0 -14 -21 -18 -46 -15 -112 -101 -166 -168 -107 -31 27 -51 98 -45
154 10 82 58 139 117 139 23 0 77 -44 85 -69 5 -16 10 -18 35 -8 23 9 30 19
36 51 7 48 19 73 47 104 26 28 79 30 107 2z m-2039 -99 c42 -43 40 -83 -10
-132 -23 -23 -48 -39 -62 -39 -23 -1 -23 -1 -5 -15 16 -12 23 -12 59 6 35 18
41 19 54 6 13 -13 13 -18 -1 -46 -33 -63 -123 -81 -168 -33 -51 53 -62 126
-29 198 38 84 109 108 162 55z m924 3 c43 -20 65 -74 72 -176 5 -62 2 -82 -11
-103 -19 -30 -41 -32 -57 -7 -11 17 -15 17 -51 5 -33 -11 -43 -11 -67 2 -33
16 -52 60 -41 91 12 31 66 72 105 80 19 3 35 8 35 9 0 36 -41 45 -79 18 -19
-12 -28 -14 -42 -5 -13 8 -20 9 -25 1 -4 -7 -22 -9 -45 -5 -33 5 -41 3 -54
-17 -8 -13 -18 -52 -21 -88 -8 -77 -18 -99 -45 -99 -30 0 -39 39 -39 160 0 85
3 112 16 124 21 21 30 20 48 -5 14 -20 16 -20 37 -5 33 23 66 20 94 -8 22 -22
25 -23 30 -6 6 20 59 49 88 50 11 0 34 -7 52 -16z m287 -4 c11 -18 14 -18 30
-3 26 23 75 21 101 -6 19 -18 22 -32 21 -94 0 -81 -15 -144 -43 -178 -17 -21
-21 -22 -36 -9 -16 13 -17 27 -11 112 6 102 -1 125 -28 86 -11 -15 -16 -45
-16 -88 0 -68 -17 -110 -45 -110 -27 0 -35 39 -35 162 0 123 6 148 37 148 7 0
18 -9 25 -20z m-101 -27 c14 -43 7 -198 -10 -231 -17 -31 -49 -28 -62 6 -15
39 -8 225 10 245 23 29 48 21 62 -20z m-813 -396 c6 -7 14 -39 18 -71 6 -47
10 -56 23 -50 67 28 100 3 108 -83 8 -86 -4 -171 -26 -182 -33 -18 -45 4 -52
88 -3 45 -8 83 -11 87 -4 3 -15 3 -26 -1 -17 -5 -22 -18 -27 -73 -9 -79 -19
-102 -45 -102 -36 0 -43 34 -38 184 3 99 10 152 21 179 16 38 36 47 55 24z
m-164 -13 c3 -9 6 -28 6 -43 0 -21 7 -29 31 -38 39 -15 36 -43 -8 -62 -28 -12
-32 -20 -38 -67 -9 -72 -1 -92 37 -96 17 -2 36 -11 42 -21 9 -15 7 -22 -13
-38 -34 -28 -95 -25 -126 6 -23 22 -25 32 -25 115 0 81 -2 90 -19 90 -23 0
-45 25 -36 41 4 6 23 17 41 25 26 11 34 20 34 40 0 14 5 34 10 45 13 23 55 25
64 3z m499 -66 c67 -35 62 -122 -9 -169 -16 -10 -38 -19 -49 -19 -19 -1 -19
-1 -1 -15 16 -12 23 -12 58 6 31 16 43 18 54 8 22 -18 17 -39 -22 -75 -66 -62
-145 -40 -180 51 -15 40 -15 53 -4 103 21 95 89 144 153 110z m377 -30 c26
-43 26 -83 -1 -102 -27 -19 -49 -10 -49 19 0 13 -4 26 -10 30 -15 9 -40 -50
-40 -95 0 -47 20 -62 49 -36 10 9 25 16 35 16 38 0 32 -69 -9 -96 -29 -19 -90
-21 -111 -3 -69 57 -58 230 18 283 12 9 40 16 60 16 32 0 41 -5 58 -32z m190
17 c46 -24 63 -68 68 -171 4 -94 -6 -134 -33 -134 -9 0 -22 9 -31 19 -15 17
-20 18 -50 5 -55 -23 -114 16 -114 74 0 32 48 78 98 93 43 12 55 35 26 46 -9
3 -31 -1 -50 -10 -40 -20 -64 -13 -64 18 0 25 23 49 60 64 36 14 57 13 90 -4z
m164 -16 c14 -20 16 -20 37 -5 47 33 113 6 107 -42 -3 -25 -6 -27 -46 -25 -54
2 -69 -19 -78 -108 -8 -77 -18 -99 -45 -99 -30 0 -39 39 -39 160 0 85 3 112
16 124 21 21 30 20 48 -5z"/>
<path d="M30707 29723 c5 -82 25 -193 35 -187 4 3 22 29 38 57 53 92 37 161
-41 173 l-34 6 2 -49z"/>
<path d="M30595 28793 c13 -21 34 -66 46 -100 11 -35 22 -63 24 -63 2 0 11 7
19 16 12 11 16 35 16 84 0 98 -2 100 -71 100 l-60 0 26 -37z"/>
<path d="M30941 28772 c-19 -2 -49 -14 -66 -28 -34 -26 -55 -31 -55 -13 0 8
-5 8 -15 -1 -8 -7 -15 -19 -15 -27 0 -7 -25 -38 -55 -68 -30 -29 -55 -62 -55
-72 0 -11 -4 -23 -9 -28 -5 -6 -25 -40 -45 -76 -33 -63 -34 -68 -18 -82 10 -9
40 -22 67 -29 52 -13 68 -25 61 -45 -9 -23 54 -32 76 -10 7 8 24 16 38 20 36
9 100 75 122 125 11 24 25 41 31 39 25 -9 7 -60 -38 -113 l-47 -54 42 0 c41 0
100 23 100 39 0 11 46 31 70 31 11 0 20 5 20 10 0 6 9 10 20 10 37 0 135 30
162 50 15 11 33 20 41 20 8 0 22 9 32 20 22 24 38 25 59 5 17 -18 11 -45 -11
-45 -8 0 -39 -13 -68 -29 -29 -16 -79 -35 -111 -42 l-59 -13 36 -6 c20 -4 49
-16 64 -28 15 -12 42 -22 59 -22 37 0 123 25 143 42 12 10 17 9 24 -5 11 -20
53 -24 47 -4 -3 6 -17 18 -31 25 -35 17 -34 44 3 73 16 13 30 29 30 35 0 24
49 64 80 64 19 0 30 5 30 14 0 17 67 86 83 86 7 0 8 3 1 10 -6 6 -32 6 -73 -1
-38 -6 -68 -6 -75 -1 -6 5 -37 12 -68 16 -43 5 -58 3 -58 -6 0 -18 12 -33 33
-41 9 -3 17 -16 17 -27 0 -11 5 -20 10 -20 16 0 12 -30 -6 -37 -8 -3 -25 3
-37 15 -12 11 -32 23 -44 27 -13 3 -23 11 -23 16 0 5 -6 9 -12 7 -7 -1 -33 8
-58 19 -25 12 -62 23 -82 25 -34 3 -158 74 -158 91 0 4 -10 7 -22 7 -12 0 -29
6 -37 14 -17 15 -96 24 -150 18z"/>
<path d="M31670 28714 c0 -23 3 -25 23 -19 12 4 34 8 50 10 15 1 30 3 35 4 14
3 -61 31 -84 31 -19 0 -24 -5 -24 -26z"/>
<path d="M30377 28696 c-20 -20 -37 -39 -37 -41 0 -2 11 -21 25 -41 34 -50 48
-106 46 -187 l-1 -69 29 21 c16 12 34 21 39 21 34 0 21 164 -19 242 -5 10 -9
24 -9 32 0 7 -8 24 -18 36 l-18 23 -37 -37z"/>
<path d="M31850 28631 c0 -11 77 -21 98 -13 13 5 12 7 -4 13 -27 11 -94 11
-94 0z"/>
<path d="M30200 28510 c-8 -5 -27 -10 -41 -10 -17 0 -30 -8 -39 -25 -12 -22
-11 -30 8 -64 12 -21 22 -53 22 -71 0 -31 0 -31 46 -27 25 3 47 7 50 9 6 7 7
47 1 112 -6 64 -23 91 -47 76z"/>
<path d="M31860 28455 c-19 -14 -40 -25 -47 -25 -7 0 -13 -9 -13 -19 0 -11 -9
-26 -20 -34 l-21 -14 21 -6 c11 -3 20 -13 20 -22 0 -12 5 -15 18 -10 9 4 89 9
177 12 88 3 169 10 180 17 19 10 19 11 -5 14 -14 2 -28 9 -32 16 -6 8 -12 8
-27 -1 -23 -14 -35 -5 -20 14 9 10 5 13 -19 13 -17 0 -34 5 -37 10 -3 6 -17
10 -30 10 -13 0 -41 11 -61 25 -20 14 -40 25 -43 25 -3 -1 -22 -12 -41 -25z"/>
<path d="M31633 28329 c-1 -41 2 -49 14 -45 8 3 35 6 59 6 26 0 44 5 44 11 0
7 -12 9 -31 7 -27 -4 -32 0 -50 34 -11 21 -23 38 -27 38 -4 0 -8 -23 -9 -51z"/>
<path d="M30887 28102 c-22 -24 -22 -71 -1 -79 29 -11 49 11 49 53 0 45 -21
56 -48 26z"/>
<path d="M32192 28107 c-11 -40 -4 -92 14 -108 26 -22 44 63 24 115 -13 35
-27 33 -38 -7z"/>
<path d="M30412 28148 c-7 -7 -12 -18 -12 -25 0 -23 49 6 50 30 0 11 -25 8
-38 -5z"/>
<path d="M31368 28039 c-17 -9 -26 -39 -12 -39 16 0 44 23 44 35 0 17 -8 18
-32 4z"/>
<path d="M31060 27619 c-14 -26 -11 -29 18 -18 24 9 30 39 7 39 -8 0 -19 -9
-25 -21z"/>
<path d="M31636 27511 c-10 -10 -14 -21 -9 -24 14 -8 53 12 53 28 0 21 -23 19
-44 -4z"/>
<path d="M22020 28880 c-426 -28 -838 -136 -1705 -448 -137 -49 -421 -146
-630 -215 -575 -189 -890 -313 -1155 -454 -594 -317 -936 -717 -1040 -1217
-63 -298 -42 -637 57 -920 242 -698 989 -1287 1918 -1511 319 -77 531 -104
875 -112 373 -8 635 14 969 83 161 33 443 107 470 123 11 7 9 14 -8 37 -11 16
-35 58 -54 94 -22 43 -38 64 -48 61 -7 -2 -45 -6 -84 -8 -63 -4 -75 -1 -122
26 -71 42 -106 102 -108 187 -2 56 1 67 27 98 22 27 29 48 33 94 6 77 16 102
72 178 35 48 59 69 100 89 29 14 57 25 62 25 5 0 9 22 9 50 0 33 7 62 21 86
18 30 19 39 9 46 -66 43 -161 -17 -175 -109 -9 -67 -34 -113 -60 -113 -28 0
-75 47 -104 102 -36 71 4 153 96 198 59 29 96 26 131 -10 22 -22 38 -30 67
-30 42 0 87 -24 87 -47 0 -7 -8 -30 -18 -51 -10 -20 -17 -50 -17 -67 l0 -30
76 -1 c46 -1 87 -8 105 -17 58 -31 149 -146 182 -232 6 -16 18 -69 27 -116 22
-125 80 -266 134 -328 l30 -34 43 17 c143 57 484 252 682 391 l120 83 45 -23
c127 -64 311 -121 486 -152 136 -24 542 -23 735 0 170 21 632 98 643 107 4 3
-66 28 -155 54 -546 161 -828 320 -986 553 -64 96 -76 122 -60 142 7 10 45 60
84 112 264 349 434 703 512 1069 23 112 26 146 27 335 0 232 -14 326 -77 504
-289 820 -1275 1371 -2328 1301z m1131 -416 c65 -21 95 -57 113 -134 27 -113
49 -358 50 -565 1 -193 0 -201 -22 -232 -50 -70 -200 -103 -279 -60 -64 34
-67 51 -68 353 0 253 -1 273 -19 293 -11 12 -31 21 -47 21 -61 0 -113 122 -89
212 20 73 68 111 162 127 62 11 135 5 199 -15z m-642 -80 c188 -60 311 -260
311 -503 0 -48 -7 -114 -16 -146 -57 -221 -290 -374 -493 -325 -73 17 -162 80
-217 153 -161 213 -190 476 -74 657 96 150 310 222 489 164z m-913 -65 c61
-57 90 -161 129 -463 15 -110 28 -203 31 -207 2 -4 23 1 47 11 76 35 144 19
193 -46 25 -33 29 -46 29 -105 0 -53 -5 -74 -21 -96 -53 -71 -172 -123 -299
-131 -68 -4 -89 -1 -133 18 -29 12 -65 37 -80 55 l-29 32 5 -46 c3 -40 0 -52
-22 -78 -33 -39 -114 -74 -185 -80 -96 -7 -131 27 -165 159 -25 99 -26 99
-153 68 -111 -28 -191 -25 -229 11 -39 36 -56 76 -119 274 -81 258 -82 314 -6
359 41 24 145 28 185 7 31 -17 73 -100 106 -209 12 -40 29 -79 37 -87 37 -37
93 1 93 63 0 20 -9 66 -20 102 -31 103 -34 150 -11 186 35 57 159 100 219 75
36 -15 48 -35 94 -161 25 -68 37 -91 33 -65 -3 22 -8 86 -12 141 -5 91 -4 106
15 146 33 66 99 100 190 94 39 -2 59 -9 78 -27z m-1187 -415 c62 -31 104 -84
126 -157 37 -124 6 -224 -129 -421 -26 -38 -45 -76 -44 -85 6 -26 56 -17 159
28 52 23 106 43 122 43 54 2 117 -87 117 -165 0 -34 -6 -49 -27 -69 -82 -76
-408 -186 -563 -189 -75 -2 -106 15 -135 75 -14 28 -28 79 -31 112 -6 53 -3
69 19 118 14 30 47 85 72 121 59 81 85 150 85 218 0 61 -20 97 -54 97 -33 0
-45 -19 -56 -86 -11 -71 -34 -94 -92 -94 -173 0 -201 201 -49 343 91 85 220
135 352 136 62 1 84 -4 128 -25z m-732 -101 c32 -21 63 -92 63 -144 0 -42 -4
-48 -71 -112 l-72 -67 13 -45 c15 -54 28 -56 80 -15 72 57 167 33 209 -52 51
-106 13 -206 -99 -258 -28 -13 -50 -27 -50 -31 0 -4 25 -58 55 -120 74 -150
73 -204 -5 -248 -87 -49 -185 -36 -254 32 -54 54 -70 85 -214 394 -122 262
-152 342 -152 397 1 46 32 107 74 144 64 56 225 129 311 141 56 8 80 4 112
-16z m-616 -305 c71 -33 131 -94 173 -179 43 -86 52 -152 31 -239 -9 -36 -18
-74 -20 -85 -4 -16 8 -26 67 -55 91 -44 181 -129 198 -187 20 -67 6 -110 -55
-170 -35 -34 -65 -54 -88 -58 -51 -10 -135 18 -212 70 -42 28 -64 38 -60 27
60 -140 39 -212 -80 -268 -87 -41 -167 -27 -216 37 -16 22 -17 20 -15 -42 1
-78 -22 -123 -80 -157 -30 -18 -50 -22 -90 -19 -67 5 -122 33 -223 114 -46 38
-97 79 -114 93 -30 24 -30 24 7 -25 21 -27 54 -84 74 -125 31 -63 36 -86 37
-141 0 -53 -4 -72 -20 -89 -26 -30 -92 -60 -130 -60 -73 0 -159 68 -240 190
-63 95 -193 331 -239 435 -76 171 -55 314 55 370 84 44 186 2 368 -154 l52
-43 -67 88 c-79 105 -103 154 -104 210 0 107 142 190 238 140 44 -24 106 -94
187 -216 43 -63 80 -117 82 -120 3 -3 -5 20 -17 50 -107 268 -117 317 -81 388
52 102 200 204 350 242 63 16 172 6 232 -22z m3667 -340 c2 -10 -6 -31 -17
-47 -26 -36 -20 -53 24 -74 38 -18 50 -44 41 -92 -12 -65 -95 -125 -131 -95
-23 19 -18 38 15 69 21 18 29 33 24 44 -3 9 -9 17 -13 17 -4 0 -21 13 -39 29
-46 42 -45 90 3 138 38 38 87 44 93 11z m-160 -50 c2 -10 -6 -30 -17 -44 -29
-37 -26 -52 13 -71 33 -15 56 -48 56 -80 0 -31 -44 -93 -77 -108 -40 -19 -60
-14 -73 17 -5 13 -9 18 -9 11 -2 -25 -53 -73 -85 -79 -122 -22 -204 189 -111
282 54 54 145 15 145 -62 0 -42 -24 -87 -56 -105 -13 -6 -21 -16 -18 -21 10
-15 31 -8 63 23 35 33 50 34 66 2 10 -20 11 -20 33 -3 31 25 28 39 -18 81 -34
31 -40 43 -40 77 0 54 47 105 94 100 20 -2 32 -9 34 -20z m-424 -60 c8 -13 21
-50 30 -83 8 -33 27 -93 41 -134 28 -83 31 -111 13 -129 -20 -20 -37 -14 -63
27 -57 86 -101 272 -76 319 15 28 37 28 55 0z m-109 -123 c42 -42 23 -134 -35
-165 -11 -6 -18 -15 -15 -21 10 -15 22 -11 60 22 41 37 65 33 65 -10 0 -36
-49 -96 -85 -105 -16 -4 -40 0 -61 10 -96 46 -125 213 -47 274 36 28 88 26
118 -5z m-452 -39 c3 -8 -3 -22 -13 -31 -21 -19 -50 -14 -50 8 0 32 52 51 63
23z m258 -26 c21 -12 26 -55 8 -66 -7 -4 -24 -7 -38 -8 -43 -2 -56 -43 -35
-116 19 -68 13 -110 -15 -110 -30 0 -53 38 -85 137 -33 105 -31 143 10 143 13
0 27 -6 30 -14 4 -10 13 -6 34 15 30 30 58 36 91 19z m-232 -72 c22 -35 61
-171 61 -210 0 -30 -23 -53 -45 -44 -38 14 -97 216 -77 261 16 34 38 32 61 -7z
m-108 -20 c17 -31 24 -225 10 -260 -17 -45 -53 -37 -96 18 -19 26 -35 52 -36
58 0 6 -8 -20 -18 -57 -10 -37 -27 -77 -38 -88 -18 -18 -23 -19 -42 -7 -28 17
-101 161 -108 214 -4 29 -1 43 10 53 24 20 55 -3 82 -61 l23 -50 7 58 c14 110
32 118 98 44 l44 -51 -5 56 c-4 44 -1 60 13 75 24 26 41 25 56 -2z m-478 -147
c53 -20 42 -81 -14 -81 -42 0 -56 -34 -41 -101 26 -111 4 -162 -44 -106 -28
33 -85 206 -77 235 7 30 43 39 60 16 13 -17 14 -17 29 5 13 18 31 30 61 40 1
1 13 -3 26 -8z m-428 -25 c41 -41 45 -99 9 -113 -12 -4 -25 3 -40 22 -28 35
-39 28 -30 -19 6 -32 9 -35 34 -30 19 4 33 0 42 -10 11 -14 9 -21 -14 -45
l-28 -29 21 -67 c23 -72 17 -105 -18 -105 -24 0 -34 14 -59 80 -18 49 -23 56
-53 60 -42 6 -49 30 -17 60 20 18 22 29 19 86 -3 71 12 108 52 124 37 15 57
11 82 -14z m1957 -54 c39 -33 70 -206 46 -251 -7 -14 -18 -26 -25 -28 -19 -7
-42 39 -53 103 -12 69 -26 104 -40 104 -14 0 -12 -60 5 -125 16 -65 7 -105
-24 -105 -26 0 -44 35 -81 156 -22 72 -27 100 -20 119 11 28 32 32 51 9 11
-14 13 -14 22 1 11 21 66 45 86 37 9 -3 24 -12 33 -20z m-1757 -4 c58 -45 84
-171 50 -237 -17 -34 -62 -55 -98 -46 -30 8 -83 64 -98 102 -5 13 -9 51 -9 84
0 54 3 64 29 90 36 36 86 39 126 7z m1275 -48 c0 -21 -34 -45 -50 -35 -11 7
-13 38 -3 48 3 4 17 7 30 7 16 0 23 -6 23 -20z m227 -20 c36 -21 68 -76 78
-133 16 -86 -25 -157 -91 -157 -91 0 -167 158 -119 250 31 59 77 74 132 40z
m-389 -13 c6 -6 13 -24 17 -39 6 -22 13 -27 43 -30 19 -2 37 -8 39 -15 4 -12
-26 -48 -47 -55 -10 -3 -10 -16 0 -63 15 -75 24 -86 68 -83 76 6 61 -59 -19
-84 -32 -9 -42 -8 -64 6 -31 20 -61 82 -71 144 -6 38 -9 42 -36 42 -41 0 -48
27 -15 56 22 18 27 32 27 67 0 58 31 87 58 54z m-1882 -42 c8 -21 -15 -47 -39
-43 -27 4 -32 22 -12 42 21 20 44 21 51 1z m2075 -20 c10 -17 28 -69 40 -117
18 -71 20 -93 11 -113 -14 -31 -36 -32 -57 -2 -22 31 -65 171 -65 211 0 61 41
73 71 21z m-2179 -35 c67 -215 90 -300 85 -314 -7 -18 -42 -22 -52 -6 -3 6
-18 -3 -32 -20 -31 -37 -62 -38 -104 -3 -67 56 -92 181 -47 238 18 23 26 26
56 22 31 -6 34 -4 28 16 -26 93 -19 130 21 125 24 -3 30 -10 45 -58z m358 2
c66 -65 77 -195 22 -245 -111 -101 -264 152 -157 259 38 38 88 33 135 -14z
m-223 -51 c29 -43 65 -195 53 -227 -5 -13 -18 -24 -28 -24 -50 0 -119 239 -80
278 17 17 29 11 55 -27z m1713 -10 c53 -38 117 -213 90 -246 -16 -19 -49 -19
-56 0 -5 12 -12 10 -36 -10 -17 -14 -42 -25 -59 -25 -35 0 -79 39 -79 71 0 32
30 76 72 106 30 20 36 29 27 39 -17 20 -33 17 -59 -11 -31 -33 -64 -30 -68 6
-4 33 31 76 71 88 38 11 63 6 97 -18z m-455 -42 c0 -19 -6 -25 -27 -27 -22 -3
-28 1 -28 17 0 20 27 43 45 37 6 -1 10 -14 10 -27z m226 -2 c30 -23 51 -66 45
-91 -9 -37 -37 -42 -62 -11 -26 32 -34 24 -34 -36 0 -32 6 -54 19 -70 l20 -24
29 35 c26 30 32 33 46 21 26 -22 20 -69 -13 -102 -95 -95 -232 72 -176 216 24
63 85 94 126 62z m-2104 -32 c11 -8 29 -35 39 -61 16 -43 17 -51 3 -89 l-15
-41 38 -50 c41 -53 51 -107 22 -118 -22 -8 -47 8 -84 54 -18 23 -37 39 -44 37
-7 -2 -11 -29 -11 -68 0 -57 -2 -64 -21 -67 -34 -5 -54 31 -95 165 -48 160
-49 175 -6 207 72 55 122 64 174 31z m241 -30 c41 -34 86 -138 86 -200 1 -45
-1 -50 -23 -53 -13 -2 -27 2 -32 9 -6 11 -11 10 -26 -3 -53 -46 -111 -41 -138
13 -25 48 3 94 94 156 2 1 -2 9 -9 18 -10 12 -16 12 -34 3 -11 -6 -26 -18 -32
-26 -5 -7 -21 -12 -35 -10 -39 5 -37 42 4 83 44 44 100 48 145 10z m1674 -31
c25 -43 61 -190 54 -219 -8 -33 -32 -38 -56 -13 -23 25 -70 164 -70 208 0 67
39 80 72 24z m-97 -66 c34 -82 30 -238 -5 -238 -18 0 -48 62 -56 114 -8 61
-20 96 -33 96 -18 0 -22 -56 -6 -99 25 -72 18 -131 -16 -131 -26 0 -42 30 -78
143 -35 111 -36 116 -17 142 13 17 15 18 37 3 23 -14 25 -14 42 8 37 49 104
30 132 -38z m-255 -47 c30 -42 50 -107 50 -158 0 -38 -5 -50 -34 -79 -28 -28
-42 -34 -76 -34 -77 0 -130 83 -130 202 0 121 67 98 85 -30 4 -28 15 -62 24
-73 16 -20 18 -20 34 -4 19 19 16 43 -15 115 -10 25 -16 55 -13 67 8 34 48 30
75 -6z m-257 -51 c44 -52 88 -212 68 -249 -26 -48 -54 -15 -86 101 -9 32 -21
61 -27 64 -11 7 -10 -9 8 -163 6 -45 4 -54 -11 -59 -26 -10 -50 24 -76 107
-25 79 -35 91 -45 54 -4 -16 1 -47 15 -81 26 -69 26 -90 1 -104 -26 -14 -53
16 -81 89 -46 123 -49 201 -9 201 10 0 21 -4 24 -9 4 -5 19 4 35 20 33 33 40
34 66 15 17 -12 22 -11 46 15 34 36 41 36 72 -1z m-316 -109 c29 -43 63 -151
63 -201 0 -22 -7 -43 -16 -50 -23 -20 -42 6 -68 94 -24 84 -43 97 -37 26 8
-95 6 -163 -5 -167 -21 -7 -42 26 -69 107 -15 44 -31 80 -36 80 -16 0 -10 -67
12 -124 23 -60 17 -86 -21 -86 -38 0 -104 163 -98 242 3 41 5 43 33 42 20 0
36 8 48 23 22 27 44 29 75 7 12 -8 22 -11 22 -6 0 17 42 53 58 50 9 -2 27 -18
39 -37z m-327 -119 c66 -65 77 -195 22 -245 -111 -101 -264 152 -157 259 38
38 88 33 135 -14z m-239 -25 c30 -23 51 -66 45 -91 -9 -37 -37 -42 -62 -11
-26 32 -34 24 -34 -36 0 -32 6 -54 19 -70 l20 -24 29 35 c26 30 32 33 46 21
26 -22 20 -69 -13 -102 -95 -95 -232 72 -176 216 24 63 85 94 126 62z m1221
-225 c-144 -183 -143 -426 2 -615 20 -26 34 -53 30 -58 -17 -28 -111 108 -145
209 -55 161 -15 361 96 490 54 62 69 39 17 -26z m133 -42 c4 -6 -10 -29 -30
-52 -40 -47 -75 -146 -75 -213 0 -64 35 -164 75 -214 26 -32 32 -47 25 -55
-16 -15 -53 31 -93 114 -29 58 -32 74 -32 155 0 76 4 99 27 147 28 61 75 128
89 128 4 0 11 -5 14 -10z m98 -96 c4 -4 -5 -20 -18 -36 -59 -70 -59 -184 1
-265 15 -20 20 -34 14 -38 -31 -19 -90 93 -90 170 1 83 64 198 93 169z"/>
<path d="M22314 28037 c-22 -19 -28 -34 -32 -82 -11 -128 85 -186 178 -108 26
21 30 32 30 72 0 109 -105 179 -176 118z"/>
<path d="M21331 27904 c0 -11 3 -14 6 -6 3 7 2 16 -1 19 -3 4 -6 -2 -5 -13z"/>
<path d="M18842 27170 c-17 -11 -32 -24 -32 -30 0 -12 88 -190 94 -190 2 0 12
12 21 27 26 39 36 93 25 133 -19 71 -56 91 -108 60z"/>
<path d="M22307 26958 c-4 -12 -4 -24 -2 -26 7 -8 35 20 35 34 0 23 -27 16
-33 -8z"/>
<path d="M21962 26868 c-7 -7 -12 -20 -12 -30 0 -16 3 -17 20 -8 11 6 20 20
20 30 0 23 -10 26 -28 8z"/>
<path d="M20727 26473 c-22 -21 11 -133 39 -133 22 0 27 20 14 65 -12 44 -41
81 -53 68z"/>
<path d="M22235 26390 c-16 -25 25 -130 50 -130 21 0 19 56 -3 99 -18 37 -36
49 -47 31z"/>
<path d="M19830 26157 c0 -20 8 -45 19 -58 l20 -24 20 20 c20 20 20 21 3 55
-10 22 -26 36 -39 38 -20 3 -23 -1 -23 -31z"/>
<path d="M20195 26301 c-13 -42 36 -147 58 -124 13 13 7 69 -11 103 -23 41
-38 48 -47 21z"/>
<path d="M21737 26142 c-18 -20 -23 -42 -9 -42 17 0 41 35 33 48 -6 9 -12 8
-24 -6z"/>
<path d="M19346 26127 c-13 -9 -16 -20 -11 -40 10 -38 21 -42 40 -13 28 43 8
80 -29 53z"/>
<path d="M19630 26029 c-7 -11 -9 -24 -5 -27 9 -9 40 13 43 32 5 23 -25 20
-38 -5z"/>
<path d="M20015 25711 c-13 -42 36 -147 58 -124 13 13 7 69 -11 103 -23 41
-38 48 -47 21z"/>
<path d="M21435 25321 c-53 -32 -70 -59 -70 -110 0 -37 7 -56 34 -94 34 -47
66 -59 66 -25 0 9 4 20 8 24 4 4 7 15 7 25 0 31 37 103 69 136 l32 31 -23 16
c-30 21 -86 20 -123 -3z"/>
<path d="M21680 25076 c-117 -33 -204 -112 -235 -216 l-7 -25 24 23 c13 12 31
22 40 22 25 0 48 -46 51 -101 2 -50 2 -50 -38 -65 -22 -8 -55 -13 -73 -12 -31
3 -35 0 -48 -37 -14 -41 -12 -71 5 -60 15 8 24 -34 11 -50 -20 -24 29 -94 87
-124 41 -21 126 -13 179 16 50 28 97 71 108 98 3 9 10 14 15 11 16 -10 0 -43
-40 -83 -23 -22 -39 -48 -39 -62 0 -27 39 -107 76 -156 l26 -34 121 43 c130
46 277 105 277 112 0 2 -15 23 -33 47 -18 24 -44 70 -56 103 -13 32 -28 70
-33 84 -21 51 -26 66 -38 115 -37 152 -63 217 -104 268 -64 78 -97 97 -170 96
-34 0 -81 -6 -106 -13z m106 -167 c27 -14 55 -68 57 -110 2 -33 1 -34 -48 -40
-28 -3 -62 -10 -75 -15 -31 -10 -63 -6 -72 10 -11 17 -9 115 2 136 6 11 23 26
37 34 27 14 48 11 99 -15z m-266 -325 c0 -16 -16 -19 -25 -4 -8 13 4 32 16 25
5 -4 9 -13 9 -21z"/>
<path d="M21704 24895 c15 -16 11 -44 -8 -57 -5 -4 -16 1 -23 10 -11 15 -13
10 -11 -33 3 -49 4 -50 33 -48 83 7 135 16 135 23 0 4 -7 23 -15 43 -18 45
-59 77 -97 77 -26 0 -28 -2 -14 -15z"/>
<path d="M21456 24807 c-9 -23 -16 -53 -16 -66 0 -20 4 -22 25 -17 64 16 72
23 67 55 -2 17 -8 29 -12 26 -11 -7 -41 24 -35 36 4 5 2 9 -3 9 -5 0 -17 -19
-26 -43z"/>
<path d="M21215 21639 c-1371 -98 -2595 -711 -3390 -1699 -228 -283 -373 -566
-421 -818 -24 -127 -15 -333 20 -466 28 -109 109 -285 182 -398 169 -262 455
-513 800 -703 l115 -63 -63 -93 c-84 -124 -257 -303 -382 -394 -56 -40 -164
-106 -240 -146 -77 -40 -135 -74 -128 -77 13 -4 253 39 407 74 295 67 671 213
934 364 l89 50 103 -25 c414 -99 972 -135 1639 -105 124 6 630 37 1125 70
2547 169 2599 174 2850 225 735 152 1123 448 1263 964 24 88 26 112 26 301 0
187 -2 214 -26 315 -68 283 -201 542 -421 815 -227 282 -584 606 -942 853
-804 557 -1784 891 -2804 957 -174 11 -568 11 -736 -1z m516 -416 c93 -42 172
-134 209 -244 42 -122 13 -297 -75 -454 -80 -144 -208 -291 -280 -321 -134
-55 -298 66 -242 180 8 17 54 73 102 124 l87 92 -34 0 c-67 0 -110 20 -169 79
-67 68 -89 125 -89 236 0 96 21 162 70 218 79 89 152 118 285 114 64 -2 103
-9 136 -24z m817 -28 c46 -16 100 -40 121 -56 123 -89 116 -330 -12 -395 -18
-9 -34 -18 -36 -20 -2 -2 10 -15 27 -29 17 -14 41 -42 53 -62 l22 -36 33 149
c65 292 103 379 191 435 155 97 275 -1 313 -256 18 -119 23 -120 31 -5 9 119
27 174 69 215 26 25 40 30 93 32 77 5 130 -22 161 -82 26 -50 27 -173 2 -345
-59 -405 -137 -615 -246 -660 -42 -17 -121 -8 -158 19 -52 36 -91 132 -117
283 -13 73 -24 129 -24 123 -16 -158 -50 -263 -105 -321 -37 -38 -48 -44 -85
-44 -51 0 -112 30 -140 69 -12 16 -27 52 -34 79 -12 46 -14 49 -25 32 -20 -33
-92 -79 -146 -95 -67 -21 -233 -20 -311 0 -133 35 -237 114 -263 203 -39 129
17 265 131 318 l49 22 -28 15 c-150 78 -134 299 27 403 58 36 97 44 214 40 87
-3 127 -9 193 -31z m-1490 -89 c91 -51 139 -148 129 -263 -9 -97 -55 -175
-186 -316 -40 -43 -70 -84 -68 -90 6 -19 94 -13 187 13 98 27 129 23 160 -20
31 -44 47 -129 31 -168 -15 -36 -75 -68 -176 -95 -171 -47 -439 -62 -505 -29
l-35 17 -27 -37 c-75 -102 -312 -170 -426 -122 -114 47 -154 136 -267 594 -65
263 -57 363 33 409 92 47 166 45 215 -6 54 -57 89 -166 153 -468 20 -93 38
-173 40 -177 3 -4 21 4 42 18 31 22 45 25 94 22 35 -3 65 -11 76 -21 24 -22
32 -21 32 1 1 39 42 104 120 186 45 48 90 106 100 129 40 90 32 168 -18 175
-33 5 -50 -14 -68 -75 -19 -65 -50 -85 -115 -73 -52 10 -83 32 -103 73 -60
127 66 284 274 342 36 10 89 14 155 12 89 -2 106 -6 153 -31z m909 -1117 c27
-10 93 -25 163 -36 19 -3 40 -10 45 -17 10 -12 134 -96 142 -96 2 0 28 -18 58
-40 30 -22 58 -40 62 -40 16 0 215 -187 268 -251 20 -25 82 -114 149 -214 22
-33 46 -66 53 -73 7 -7 13 -19 13 -26 0 -7 15 -42 33 -77 46 -89 67 -149 67
-190 0 -19 5 -40 11 -46 6 -6 13 -39 16 -74 3 -35 9 -69 14 -74 4 -6 11 -30
15 -53 4 -23 11 -45 15 -48 5 -3 9 -18 9 -34 0 -16 5 -32 10 -35 13 -8 13 -42
1 -49 -13 -9 -51 57 -51 87 0 14 -4 28 -9 32 -6 3 -13 26 -17 50 -3 25 -10 48
-15 51 -5 3 -9 32 -9 64 0 32 -4 61 -9 64 -5 4 -12 29 -16 58 -4 29 -11 59
-16 68 -4 8 -28 58 -54 110 -25 52 -52 104 -58 114 -57 93 -78 124 -96 145
-12 13 -21 27 -21 30 0 3 -10 18 -23 33 -12 14 -29 36 -37 49 -25 38 -144 160
-170 174 -14 8 -47 35 -75 60 -27 24 -55 45 -60 45 -6 0 -22 10 -36 23 -28 25
-85 57 -101 57 -6 0 -21 11 -34 25 -13 14 -27 25 -32 25 -5 0 -29 11 -54 24
-25 13 -63 27 -86 31 -23 4 -44 11 -48 16 -7 12 -151 12 -158 0 -3 -4 -42 -12
-86 -15 -44 -4 -82 -12 -85 -17 -4 -5 -30 -9 -59 -9 -35 0 -58 -5 -66 -15 -7
-8 -21 -15 -31 -15 -10 0 -21 -5 -24 -10 -3 -6 -25 -19 -48 -30 -48 -23 -76
-40 -95 -57 -7 -7 -20 -13 -27 -13 -22 0 -202 -182 -209 -211 -3 -15 -22 -38
-41 -53 -19 -15 -35 -33 -35 -40 0 -6 -5 -17 -11 -23 -18 -18 -48 -114 -49
-155 0 -48 26 -65 67 -44 62 31 303 30 303 -2 0 -5 -57 -12 -127 -16 -70 -3
-132 -11 -137 -16 -6 -6 -16 -10 -24 -10 -14 0 -75 -24 -102 -41 -8 -5 -25
-13 -37 -19 -28 -12 -77 -85 -70 -104 3 -8 21 -16 39 -18 28 -2 34 -7 36 -30
3 -22 -1 -28 -17 -28 -10 0 -22 6 -24 13 -3 6 -6 -3 -6 -20 -1 -21 13 -55 39
-98 22 -36 40 -68 40 -71 0 -12 66 -101 102 -138 62 -62 119 -85 237 -93 68
-5 68 -5 282 103 34 18 64 24 110 24 39 1 71 6 82 15 18 13 17 15 -12 42 -22
20 -28 32 -22 42 11 17 48 9 76 -16 11 -10 39 -30 63 -46 34 -22 42 -33 42
-57 0 -29 2 -30 43 -30 23 0 59 -5 80 -11 40 -11 37 -12 114 51 7 6 59 10 117
10 59 0 108 4 111 10 11 17 48 11 90 -15 22 -13 51 -25 65 -25 31 0 110 -30
110 -41 0 -5 7 -9 16 -9 8 0 30 -11 48 -25 18 -14 36 -25 39 -25 14 0 107 -72
107 -83 0 -7 12 -20 26 -30 21 -16 35 -18 84 -12 56 6 61 5 85 -21 31 -33 33
-81 4 -118 -24 -31 -69 -56 -99 -56 -13 0 -20 -5 -17 -12 4 -13 38 -14 94 -2
60 12 53 -48 -10 -86 -65 -40 -141 -15 -167 55 -16 41 -12 112 8 154 16 32 16
39 4 50 -12 12 -20 11 -48 -3 -46 -22 -51 -40 -20 -77 33 -39 33 -79 1 -117
-30 -36 -72 -54 -115 -50 -65 6 -66 64 -1 80 42 11 48 30 22 71 -23 38 -27 87
-10 119 14 25 -6 42 -31 26 -12 -8 -16 -26 -15 -87 0 -60 -5 -86 -24 -124 -55
-113 -174 -98 -201 26 -11 46 -9 59 8 112 l21 60 -22 17 c-32 25 -50 23 -40
-4 20 -55 -6 -225 -38 -254 -18 -16 -21 -16 -36 -2 -12 13 -15 35 -14 102 2
86 1 86 -24 86 -19 0 -26 -6 -30 -27 -4 -16 -14 -53 -23 -83 -15 -47 -21 -55
-44 -58 -22 -3 -29 2 -34 23 -6 26 -1 120 13 199 l6 38 -44 -7 c-24 -4 -47 -9
-50 -11 -4 -2 -12 -33 -19 -69 -14 -74 -7 -92 38 -97 21 -2 28 -9 30 -30 3
-23 -2 -30 -25 -39 -38 -14 -90 -3 -120 28 -24 23 -25 30 -20 91 3 37 9 81 12
98 6 26 4 32 -14 37 -48 12 -32 67 20 67 22 0 29 5 29 20 0 24 -35 40 -89 40
-20 0 -42 5 -49 12 -14 14 -240 18 -285 5 -23 -6 -27 -10 -17 -22 17 -21 5
-62 -46 -151 -53 -94 -90 -134 -121 -134 -38 0 -59 45 -89 188 -6 30 -24 18
-24 -15 0 -65 -70 -153 -122 -153 -79 0 -134 121 -98 216 7 19 7 30 -1 40 -19
23 -26 8 -32 -66 -7 -85 -33 -144 -64 -148 -30 -4 -37 27 -24 108 6 36 11 76
11 90 0 47 -28 -1 -48 -80 -22 -89 -37 -120 -58 -120 -28 0 -37 43 -26 126 6
43 7 85 2 93 -14 25 -40 -42 -40 -102 0 -66 -27 -109 -56 -91 -10 6 -22 24
-26 40 -8 27 4 169 18 222 6 21 4 22 -68 22 -44 0 -79 -5 -86 -12 -7 -7 -12
-30 -12 -52 0 -61 -18 -113 -51 -150 -36 -41 -68 -51 -112 -32 -88 36 -90 216
-3 295 50 46 23 68 -52 41 -50 -17 -54 -29 -73 -180 -12 -102 -28 -140 -59
-140 -37 0 -43 33 -30 154 6 61 14 120 16 132 4 17 -2 23 -34 32 -39 12 -58
34 -46 53 31 51 250 62 276 15 10 -19 28 -21 28 -4 0 15 60 68 77 68 8 0 24 6
36 14 13 8 82 19 165 27 l144 13 -7 25 c-16 64 -16 84 -4 127 9 30 22 50 37
57 12 6 22 14 22 19 0 4 6 8 13 8 6 1 21 8 32 18 16 14 20 31 22 87 3 134 11
162 69 241 30 40 54 77 54 82 0 4 30 35 66 68 37 32 78 71 92 87 14 15 31 27
39 27 7 0 13 5 13 10 0 6 5 10 11 10 7 0 40 18 75 40 35 22 70 40 78 40 7 0
19 7 26 15 7 8 22 15 34 15 12 0 27 5 33 11 9 9 63 21 168 36 22 3 49 12 60
19 24 17 171 19 212 3z m-229 -453 c12 -12 -22 -26 -63 -26 -23 0 -45 -4 -50
-8 -43 -38 -190 -54 -190 -22 0 11 14 16 50 18 28 2 54 7 60 13 5 5 18 9 30 9
11 1 31 7 45 16 25 14 103 14 118 0z m-510 -22 c21 -6 3 -24 -23 -24 -36 0
-55 10 -55 30 0 16 4 17 33 8 17 -6 38 -13 45 -14z m16 -134 c19 -19 -33 -28
-129 -22 -105 7 -133 23 -55 32 60 7 173 1 184 -10z m303 -27 c24 -11 59 -14
143 -11 97 3 110 1 110 -13 0 -9 -7 -20 -16 -23 -28 -11 -205 -6 -227 6 -12 6
-37 14 -56 17 -20 4 -40 16 -50 30 l-15 24 39 -7 c22 -4 54 -14 72 -23z m-493
-346 c18 -33 17 -67 -2 -67 -20 0 -52 43 -52 69 0 54 25 53 54 -2z m683 -427
c55 -33 56 -98 4 -151 -15 -15 -44 -31 -64 -34 -21 -4 -37 -11 -37 -15 0 -18
38 -20 75 -4 33 13 40 14 52 1 51 -50 -88 -135 -152 -93 -92 60 -84 227 15
294 41 27 65 28 107 2z m-432 -401 c4 -5 7 -41 6 -80 0 -65 1 -69 19 -59 47
25 91 3 105 -51 8 -31 -21 -207 -37 -226 -13 -16 -44 -17 -54 -2 -3 6 -6 51
-5 100 1 81 0 89 -17 89 -28 0 -37 -17 -51 -85 -22 -114 -83 -130 -89 -23 -3
64 31 244 58 306 19 41 50 57 65 31z m-425 -60 c6 -10 10 -44 10 -76 l0 -58
29 50 c16 28 39 59 51 70 l22 20 19 -23 c20 -26 39 -82 39 -122 1 -16 8 -2 20
35 27 83 76 120 100 76 17 -32 -50 -219 -98 -273 -37 -42 -77 -1 -91 91 l-6
45 -39 -52 c-21 -29 -51 -59 -66 -67 -26 -13 -30 -13 -44 1 -40 40 -41 271 -1
300 20 15 42 8 55 -17z m1197 -56 c4 -9 1 -55 -6 -102 -6 -47 -16 -126 -21
-174 -9 -93 -20 -117 -51 -117 -31 0 -43 39 -41 140 1 98 25 202 57 248 19 26
53 29 62 5z m-414 -34 c15 -16 27 -38 27 -50 0 -53 -65 -119 -118 -119 -15 0
-22 -5 -19 -12 4 -14 30 -15 88 -3 29 6 37 4 42 -10 16 -39 -51 -95 -113 -95
-68 0 -110 53 -110 140 0 83 36 150 95 176 40 17 74 8 108 -27z m238 -28 c63
-63 28 -132 -91 -179 -22 -9 -23 -11 -7 -17 10 -4 36 -2 57 5 71 23 94 -13 42
-63 -88 -84 -202 -26 -202 103 0 43 24 107 52 141 40 48 106 52 149 10z m357
-23 c22 -22 13 -48 -22 -63 -45 -19 -49 -36 -20 -76 13 -18 24 -47 24 -64 0
-61 -97 -127 -155 -105 -52 20 -43 64 16 80 45 12 48 24 19 80 -29 57 -26 86
14 126 27 27 42 34 73 34 21 0 44 -5 51 -12z"/>
<path d="M21556 20949 c-32 -38 -36 -107 -8 -132 28 -26 88 -22 117 8 29 28
32 63 10 105 -30 57 -80 65 -119 19z"/>
<path d="M22312 20984 c-31 -22 -30 -82 3 -118 46 -50 110 -26 121 45 12 70
-64 115 -124 73z"/>
<path d="M22320 20613 c-52 -19 -63 -66 -30 -120 45 -75 130 -40 130 53 0 47
-55 84 -100 67z"/>
<path d="M20676 18865 c-3 -8 -16 -15 -28 -16 -13 0 -36 -9 -53 -18 -26 -16
-30 -24 -28 -55 1 -20 9 -44 18 -52 19 -19 77 -29 99 -17 14 8 12 14 -15 51
-17 23 -26 42 -20 42 6 0 29 18 51 40 l40 40 -29 0 c-16 0 -31 -6 -35 -15z"/>
<path d="M20483 18837 c-7 -7 -19 -18 -28 -25 -8 -7 -15 -28 -15 -47 0 -28 4
-35 20 -35 11 0 20 -3 20 -7 0 -5 11 -13 25 -20 20 -9 25 -8 25 2 0 7 -7 18
-15 25 -18 15 -20 91 -3 108 9 9 9 12 -2 12 -8 -1 -20 -6 -27 -13z"/>
<path d="M20757 18820 l-26 -29 28 -28 c15 -15 41 -34 57 -41 16 -8 42 -20 58
-28 26 -13 31 -13 44 0 14 14 14 17 -1 34 -9 10 -17 22 -17 26 0 4 -11 22 -25
40 -14 18 -25 38 -25 44 0 7 -15 12 -33 12 -25 0 -41 -8 -60 -30z"/>
<path d="M20785 18680 c3 -5 8 -10 11 -10 2 0 4 5 4 10 0 6 -5 10 -11 10 -5 0
-7 -4 -4 -10z"/>
<path d="M20410 18630 c-6 -11 -10 -44 -8 -73 4 -64 27 -71 46 -13 23 70 -9
141 -38 86z"/>
<path d="M22160 18622 c-35 -24 -37 -27 -31 -75 l6 -42 49 -3 c30 -2 61 3 82
13 28 13 34 21 34 48 0 69 -7 77 -64 76 -30 0 -61 -7 -76 -17z"/>
<path d="M22358 18608 c-11 -69 22 -118 77 -118 21 0 30 88 11 109 -9 10 -16
23 -16 29 0 7 -15 12 -34 12 -30 0 -34 -3 -38 -32z"/>
<path d="M21490 18579 c0 -5 5 -7 10 -4 6 3 10 8 10 11 0 2 -4 4 -10 4 -5 0
-10 -5 -10 -11z"/>
<path d="M22526 18583 c-3 -3 -6 -30 -6 -58 0 -51 19 -85 48 -85 12 0 42 55
42 77 0 26 -69 81 -84 66z"/>
<path d="M21433 18546 c-33 -17 -42 -27 -43 -48 -1 -60 11 -59 52 3 21 34 38
62 36 64 -2 1 -22 -7 -45 -19z"/>
<path d="M21134 18516 c-3 -8 -4 -33 -2 -57 4 -59 32 -66 47 -12 15 53 14 58
-14 71 -21 10 -27 9 -31 -2z"/>
<path d="M22655 18519 c-9 -13 4 -29 24 -29 9 0 22 -5 28 -11 6 -6 20 -9 32
-7 18 2 13 8 -28 30 -28 15 -53 23 -56 17z"/>
<path d="M22298 18473 c12 -2 30 -2 40 0 9 3 -1 5 -23 4 -22 0 -30 -2 -17 -4z"/>
<path d="M22512 18373 c-18 -33 -24 -88 -12 -118 l12 -30 19 24 c16 19 19 36
17 79 -3 57 -19 77 -36 45z"/>
<path d="M22937 18334 c-13 -13 -7 -24 14 -24 11 0 19 5 17 12 -5 14 -22 21
-31 12z"/>
<path d="M21666 18504 c-18 -17 -21 -34 -7 -34 23 0 41 14 41 31 0 23 -13 24
-34 3z"/>
<path d="M21566 17964 c-4 -9 -4 -19 -2 -21 9 -10 46 9 46 23 0 19 -36 18 -44
-2z"/>
<path d="M21810 17935 c-6 -8 -10 -18 -8 -23 5 -15 48 6 48 23 0 19 -24 20
-40 0z"/>
<path d="M39495 18741 c-41 -25 -52 -38 -138 -178 -123 -199 -239 -347 -381
-488 -145 -143 -231 -208 -381 -283 -198 -100 -353 -132 -670 -139 -255 -6
-280 -4 -900 72 -1449 178 -2188 178 -2897 -1 -555 -139 -973 -380 -1404 -809
-317 -315 -538 -624 -724 -1007 -129 -267 -210 -508 -256 -763 -25 -138 -30
-462 -10 -605 83 -570 408 -1071 991 -1525 214 -167 461 -319 790 -485 803
-406 1708 -670 2780 -810 823 -107 1501 -108 2085 -4 637 114 1394 433 1860
785 584 441 958 1073 1075 1814 22 139 30 487 16 660 -37 439 -144 817 -342
1215 -230 460 -545 821 -944 1082 -66 43 -161 100 -211 126 l-92 46 -5 401
c-2 245 -9 441 -17 506 -14 105 -14 106 10 144 35 56 34 128 -2 182 -49 74
-165 106 -233 64z m-3539 -1291 c71 -35 101 -93 128 -250 44 -252 20 -498 -65
-676 -35 -73 -105 -155 -163 -189 -124 -72 -345 -45 -462 57 -45 39 -98 130
-118 199 -60 205 -60 594 -2 694 62 105 193 137 264 64 49 -50 54 -86 47 -332
-6 -203 -5 -225 12 -256 23 -43 43 -56 76 -47 49 12 69 80 56 193 -15 131 -12
361 6 420 25 85 87 142 154 143 14 0 44 -9 67 -20z m677 -105 c56 -23 106 -72
113 -111 9 -51 -11 -90 -94 -176 l-74 -77 28 -6 c51 -10 117 -49 147 -86 16
-20 39 -65 53 -100 l23 -64 -5 80 c-23 317 205 551 492 507 219 -34 352 -190
370 -434 20 -287 -147 -520 -400 -560 -64 -10 -83 -9 -140 6 -135 37 -225 133
-283 306 l-33 95 0 -71 c0 -99 -23 -158 -84 -219 -71 -69 -131 -90 -261 -89
-79 0 -112 5 -156 22 -194 76 -265 286 -178 526 62 171 227 400 324 450 38 20
112 20 158 1z m-1650 -70 c74 -37 155 -123 199 -212 31 -63 33 -74 33 -168 0
-95 -2 -103 -34 -163 -54 -99 -146 -171 -260 -202 -34 -9 -41 -15 -36 -28 64
-158 53 -269 -29 -317 -85 -50 -183 -45 -246 12 -36 31 -40 33 -46 17 -18 -58
-30 -77 -60 -104 -89 -78 -209 -49 -259 64 -13 28 -30 100 -39 159 -22 151
-32 161 -41 41 -8 -115 -25 -177 -56 -210 -57 -61 -142 -3 -240 164 -35 59
-39 63 -33 32 4 -19 26 -96 50 -171 54 -166 55 -190 11 -234 -55 -55 -140 -69
-208 -35 -96 49 -165 205 -244 550 -47 202 -52 252 -31 321 45 157 174 219
300 145 40 -24 135 -117 168 -166 17 -24 17 -23 17 66 1 158 45 249 142 298
160 79 269 -17 364 -321 19 -59 34 -103 34 -98 1 6 -8 60 -19 120 -28 149 -28
269 -1 329 18 42 27 50 87 77 115 53 196 69 314 66 92 -3 112 -6 163 -32z
m3120 -19 c112 -18 208 -51 240 -80 36 -33 53 -122 33 -170 -21 -50 -47 -54
-202 -27 -140 24 -184 20 -184 -17 0 -27 20 -42 56 -42 73 0 186 -75 224 -150
52 -101 47 -248 -11 -367 -79 -162 -261 -219 -434 -134 -168 83 -213 255 -94
355 25 22 40 26 73 24 38 -3 43 -7 68 -52 30 -56 53 -69 98 -56 47 13 60 28
60 67 0 48 -42 88 -101 97 -118 18 -151 29 -184 57 -28 25 -35 39 -41 87 -14
111 26 313 74 372 40 49 161 62 325 36z m789 -186 c73 -22 161 -81 202 -134
116 -153 122 -394 14 -598 -64 -120 -197 -214 -336 -238 -265 -44 -452 161
-452 497 0 225 109 402 290 471 74 28 195 29 282 2z m-970 -896 c24 -9 52 -20
63 -25 11 -4 45 -15 75 -23 30 -8 80 -23 110 -34 30 -11 81 -27 113 -37 31 -9
57 -21 57 -26 0 -5 9 -9 19 -9 11 0 22 -4 25 -9 3 -5 27 -12 53 -16 81 -11
124 -28 141 -53 17 -26 27 -81 41 -217 18 -175 41 -265 67 -265 7 0 23 -15 36
-32 35 -50 51 -70 78 -97 14 -15 39 -43 54 -64 28 -36 28 -38 11 -57 -13 -14
-31 -20 -60 -20 -22 0 -45 -4 -51 -10 -5 -5 -70 -11 -144 -14 -163 -4 -174 -8
-165 -50 3 -17 9 -49 12 -71 3 -22 15 -53 26 -69 23 -33 33 -71 52 -211 17
-118 19 -261 5 -270 -5 -3 -10 -15 -10 -25 0 -22 -31 -93 -42 -98 -5 -2 -8
-12 -8 -22 0 -10 -4 -21 -10 -25 -5 -3 -7 -12 -3 -20 6 -17 123 -22 123 -5 0
6 7 10 15 10 9 0 41 16 71 35 30 19 58 35 63 35 5 0 11 3 13 8 2 4 26 25 53
47 63 50 191 178 229 230 17 22 32 42 35 45 4 3 12 16 19 30 7 14 28 43 47 65
l35 40 20 -24 c12 -14 20 -37 20 -60 -1 -67 -20 -183 -35 -214 -8 -16 -15 -38
-15 -48 0 -10 -4 -21 -10 -24 -5 -3 -10 -15 -10 -25 0 -10 -8 -33 -17 -52 -29
-59 -33 -68 -33 -78 0 -33 -159 -305 -212 -361 -7 -8 -33 -39 -58 -69 -25 -30
-67 -78 -94 -107 -26 -28 -55 -61 -63 -72 -17 -26 -50 -27 -56 -3 -4 13 -5 11
-6 -5 -1 -17 5 -23 19 -23 43 0 51 -73 24 -224 -19 -112 -45 -166 -79 -166
-39 0 -49 31 -42 134 3 50 13 117 21 149 12 44 15 95 12 220 -4 185 -19 270
-64 367 -11 25 -22 54 -24 65 -5 28 -32 30 -45 3 -46 -99 -67 -138 -74 -138
-5 0 -9 -7 -9 -15 0 -9 -27 -42 -60 -75 -33 -33 -60 -65 -60 -73 0 -23 -12
-28 -34 -13 -12 7 -39 16 -61 19 -90 14 -115 20 -115 28 0 5 -7 9 -16 9 -23 0
-144 66 -175 96 -14 13 -28 24 -32 24 -13 0 -47 35 -47 48 0 7 12 44 26 80 36
93 39 102 58 145 9 21 16 44 16 52 0 7 4 15 8 17 4 2 18 23 30 48 39 77 64
110 152 199 47 47 99 104 115 126 45 62 123 137 135 130 19 -12 10 -30 -49
-96 -32 -37 -68 -81 -80 -98 -12 -17 -49 -57 -83 -88 -87 -84 -168 -206 -209
-318 -4 -11 -14 -39 -23 -63 -9 -23 -16 -45 -16 -47 0 -3 23 -5 50 -5 37 0 61
-7 90 -25 22 -14 42 -25 45 -25 2 0 31 -17 62 -37 60 -37 113 -89 113 -109 0
-7 7 -15 16 -18 18 -7 40 9 86 59 28 31 98 161 98 183 0 6 5 12 10 12 6 0 10
6 10 13 0 6 16 46 36 87 20 41 40 84 45 95 11 28 29 146 24 155 -3 4 -9 54
-15 111 -16 158 -21 182 -43 199 -19 15 -26 41 -46 162 -4 26 -10 50 -13 53
-3 3 -57 6 -119 6 -114 0 -114 0 -139 29 -14 16 -34 46 -44 67 -10 21 -22 46
-27 55 -5 10 -9 27 -9 37 0 11 -5 23 -11 26 -5 4 -22 32 -36 63 -54 122 -51
119 -75 65 -10 -21 -34 -67 -54 -102 -30 -53 -37 -77 -44 -151 -5 -48 -13 -96
-18 -106 -28 -53 -62 -133 -62 -147 0 -8 -3 -17 -7 -19 -5 -1 -17 -21 -29 -43
-16 -31 -18 -46 -11 -63 7 -16 7 -26 -2 -35 -9 -9 -35 12 -119 100 -95 99
-201 183 -232 183 -5 0 -10 5 -10 10 0 6 -6 10 -14 10 -8 0 -31 9 -50 21 -46
27 -129 49 -186 49 -42 0 -43 -1 -23 -15 12 -8 29 -29 37 -47 18 -35 21 -113
6 -123 -5 -3 -10 -15 -10 -27 0 -21 -49 -120 -62 -126 -5 -2 -8 -9 -8 -16 0
-17 -69 -80 -114 -104 l-37 -20 43 -40 c69 -66 174 -102 295 -102 65 0 101 -8
174 -37 33 -14 39 -13 63 2 26 18 76 14 76 -5 0 -6 -17 -18 -39 -27 l-38 -17
-7 -82 c-7 -89 0 -219 14 -274 5 -19 17 -66 26 -105 9 -38 21 -74 26 -79 4 -6
8 -20 8 -32 0 -13 5 -26 10 -29 6 -3 10 -17 10 -30 0 -19 6 -24 33 -27 24 -2
33 -8 35 -25 3 -23 3 -23 30 -3 50 35 98 30 118 -14 l17 -34 35 24 c43 29 63
30 87 4 50 -55 11 -346 -51 -387 -20 -13 -27 -13 -40 -2 -17 14 -17 41 2 222
4 38 3 57 -4 57 -18 0 -33 -36 -57 -136 -34 -137 -65 -173 -101 -119 -15 23
-16 36 -5 108 14 102 14 157 1 157 -16 0 -24 -30 -11 -43 20 -20 13 -40 -14
-35 -24 5 -25 3 -25 -46 0 -60 -14 -116 -32 -128 -42 -26 -78 19 -78 99 0 26
7 91 16 143 17 100 19 157 5 175 -12 14 -52 132 -62 180 -48 233 -50 251 -45
352 l6 102 -33 14 c-34 16 -132 33 -232 42 -57 5 -127 24 -141 38 -4 4 -14 7
-23 7 -9 1 -36 21 -61 45 -25 25 -53 48 -62 51 -10 3 -18 10 -18 15 0 5 -9 9
-20 9 -11 0 -24 8 -27 18 -4 9 -15 25 -24 35 -19 21 -49 130 -49 179 1 101 49
200 115 236 17 9 32 20 33 25 2 4 19 7 38 7 19 0 45 6 57 14 12 8 39 17 59 20
39 7 198 -9 226 -23 9 -4 28 -14 42 -21 14 -7 54 -28 89 -47 36 -18 79 -45 97
-58 18 -14 36 -25 41 -25 4 0 37 -31 72 -70 36 -38 69 -70 76 -70 13 0 45 52
45 74 0 9 5 16 10 16 6 0 10 6 10 13 0 7 11 36 24 63 13 27 26 63 28 79 3 27
0 30 -32 33 -38 5 -262 5 -349 0 -43 -2 -56 1 -65 15 -9 14 -8 21 4 30 8 7 36
55 62 107 l47 95 5 135 c3 74 9 207 12 295 6 172 13 195 61 195 12 0 23 5 23
10 0 6 6 10 14 10 8 0 27 6 43 14 41 20 73 32 118 44 49 13 126 33 140 37 19
6 25 5 67 -11z m-3983 -1710 c36 -30 48 -80 32 -135 -21 -70 -87 -64 -93 9 -4
48 -27 49 -44 2 -19 -52 -17 -70 7 -70 58 0 82 -56 34 -78 -14 -7 -34 -12 -45
-12 -19 0 -23 -12 -35 -105 -10 -82 -24 -114 -51 -121 -17 -4 -31 0 -45 12
-19 17 -20 26 -14 99 3 44 8 87 11 95 3 11 -6 19 -28 25 -68 21 -62 73 9 89
37 8 42 13 47 45 21 134 136 211 215 145z m1079 -146 c11 -24 10 -43 -3 -120
-9 -51 -25 -156 -35 -233 -15 -119 -21 -142 -40 -157 -25 -20 -59 -9 -67 22
-5 18 -6 18 -26 -1 -27 -25 -98 -26 -119 -1 -46 51 -64 134 -47 214 24 111 77
174 138 164 19 -3 44 -14 56 -26 l22 -20 12 66 c17 94 35 126 69 122 18 -2 31
-12 40 -30z m-877 -25 c41 -35 59 -79 59 -146 0 -85 -26 -155 -75 -204 -38
-39 -47 -43 -90 -43 -40 0 -52 5 -80 33 -63 63 -71 181 -18 286 49 99 137 130
204 74z m204 -59 l10 -32 24 19 c55 45 151 9 151 -57 0 -44 -33 -60 -82 -40
-28 12 -37 12 -59 1 -31 -17 -45 -47 -60 -137 -12 -73 -39 -118 -69 -118 -35
0 -43 36 -36 160 8 142 18 195 42 221 27 30 67 22 79 -17z m1186 -16 c7 -12 9
-41 6 -70 -5 -41 -4 -48 11 -48 30 0 63 -30 60 -53 -3 -21 -19 -30 -79 -42
-24 -4 -29 -13 -43 -76 -25 -111 -19 -139 30 -139 38 0 54 -11 54 -38 0 -61
-73 -81 -156 -43 -57 26 -69 64 -54 168 6 43 15 93 20 111 7 28 6 32 -11 32
-10 0 -28 9 -38 19 -19 19 -19 18 -25 -11 -9 -45 -66 -94 -126 -108 -27 -7
-50 -16 -50 -21 0 -18 54 -22 98 -6 109 41 107 -64 -2 -114 -53 -24 -93 -24
-133 1 -106 64 -98 282 14 368 71 53 174 28 199 -48 8 -24 12 -28 17 -17 3 9
26 22 50 28 40 10 46 15 56 50 22 72 77 103 102 57z m863 -114 c18 -18 21 -60
6 -98 -8 -23 -7 -26 13 -26 26 0 67 -26 67 -42 0 -24 -34 -48 -66 -48 -40 0
-47 -11 -64 -101 -18 -90 -9 -119 33 -119 39 0 57 -15 57 -46 0 -78 -169 -69
-207 10 -15 32 -15 46 -4 123 6 49 14 99 17 113 5 21 0 27 -25 37 -27 10 -31
9 -31 -6 0 -27 -29 -61 -54 -61 -31 0 -46 18 -46 57 0 48 -22 41 -53 -16 -35
-64 -36 -151 -2 -151 8 0 29 9 48 20 39 23 65 18 73 -15 13 -52 -52 -108 -127
-109 -39 -1 -53 4 -77 27 -63 60 -68 181 -11 287 36 68 92 110 147 110 34 0
92 -42 92 -67 0 -8 6 -12 13 -9 6 2 31 10 53 16 33 9 43 18 48 38 9 43 44 92
65 92 11 0 27 -7 35 -16z m-568 -20 c90 -43 81 -168 -16 -222 -19 -11 -50 -23
-68 -27 -18 -4 -31 -12 -29 -18 6 -19 55 -20 98 -3 99 40 99 -58 0 -111 -54
-28 -96 -29 -138 -3 -40 24 -58 52 -74 112 -32 118 65 288 164 288 16 0 44 -7
63 -16z m797 -26 c15 -23 -8 -48 -43 -48 -39 0 -53 21 -34 49 19 26 61 26 77
-1z m-26 -118 c17 -33 16 -76 -3 -185 -18 -108 -50 -179 -81 -183 -37 -5 -46
29 -40 142 11 192 79 316 124 226z m151 -9 c16 -27 19 -28 42 -15 50 27 119
11 139 -33 51 -111 -63 -422 -134 -363 -21 17 -19 66 6 162 21 84 22 129 3
135 -19 6 -51 -58 -57 -114 -13 -118 -50 -178 -95 -154 -11 6 -23 22 -26 36
-7 28 19 261 35 313 21 65 58 80 87 33z m448 -56 c21 -21 28 -23 49 -13 40 18
50 -1 48 -85 -2 -81 -34 -253 -64 -336 -24 -69 -64 -120 -114 -145 -33 -17
-46 -18 -89 -9 -28 6 -51 10 -52 9 -1 0 -4 -22 -7 -47 -6 -45 -5 -47 21 -54
62 -15 71 -58 17 -81 -19 -7 -43 -14 -53 -14 -16 0 -22 -14 -37 -81 -20 -96
-15 -129 21 -129 41 0 64 -18 64 -50 0 -36 -23 -50 -80 -50 -63 0 -108 23
-126 65 -12 30 -13 50 -4 118 6 45 15 96 19 112 8 29 6 32 -24 41 l-32 10 -12
-73 c-16 -95 -72 -210 -107 -219 -54 -14 -61 41 -24 184 22 84 21 112 -3 112
-22 0 -46 -55 -57 -131 -12 -86 -36 -133 -70 -137 -53 -8 -60 41 -34 228 19
140 36 182 72 178 20 -2 39 -20 48 -46 0 -1 17 5 38 13 21 9 47 13 64 9 31 -8
72 -42 72 -60 0 -10 6 -10 28 2 15 7 39 14 53 14 23 0 28 6 37 43 6 23 22 53
36 66 19 18 24 30 19 52 -10 52 38 78 83 44 46 -35 108 -8 133 56 10 27 9 27
-28 22 -48 -7 -107 20 -125 56 -25 48 -28 88 -11 153 40 156 159 245 231 173z
m1258 -118 c-1 -55 -1 -55 37 -70 65 -26 48 -74 -29 -84 l-39 -5 -17 -74 c-25
-117 -21 -133 40 -143 35 -6 39 -10 42 -37 4 -41 -18 -58 -76 -58 -62 1 -110
27 -128 70 -15 36 -15 35 13 227 5 32 3 37 -14 37 -24 0 -43 18 -43 41 0 23
38 49 71 49 23 0 28 6 39 45 7 26 24 54 38 66 22 17 28 18 46 5 17 -11 21 -24
20 -69z m-279 -21 c89 -58 76 -280 -22 -366 -33 -29 -51 -34 -103 -30 -123 9
-154 252 -47 369 47 50 119 62 172 27z m738 -100 c42 -26 62 -77 62 -161 0
-67 -4 -89 -28 -137 -34 -70 -77 -103 -132 -103 -90 0 -141 77 -133 201 11
161 128 263 231 200z m202 -36 c15 -29 17 -30 38 -15 12 8 36 15 55 15 95 0
122 -77 83 -233 -31 -121 -77 -193 -117 -185 -33 6 -35 55 -7 175 21 91 24
116 14 126 -20 19 -58 -37 -66 -97 -11 -82 -25 -129 -48 -153 -25 -27 -35 -28
-59 -6 -22 20 -23 67 -3 213 8 58 15 110 15 115 0 6 9 25 20 43 25 41 54 42
75 2z m-3935 1 c14 -27 13 -77 -5 -161 -8 -39 -22 -127 -30 -197 -15 -131 -31
-173 -65 -173 -10 0 -25 9 -33 21 -14 19 -17 20 -45 5 -49 -25 -86 -21 -116
14 -50 60 -60 162 -24 257 40 108 111 144 172 88 14 -13 26 -22 26 -20 0 30
35 154 47 167 21 24 60 23 73 -1z m-781 -39 c68 -34 76 -57 76 -210 0 -111 -3
-143 -17 -169 -22 -40 -33 -46 -63 -39 -15 4 -27 16 -31 32 -5 19 -11 23 -23
18 -35 -16 -101 -16 -126 0 -36 24 -58 72 -51 112 11 55 68 92 168 109 41 6
51 16 42 39 -9 24 -47 29 -89 12 -21 -9 -46 -14 -56 -11 -27 9 -33 42 -14 71
33 51 121 69 184 36z m236 -40 c7 -17 15 -21 30 -16 134 44 190 -30 151 -199
-30 -128 -87 -218 -128 -202 -32 13 -31 53 7 213 14 57 15 76 6 85 -24 23 -57
-33 -70 -119 -14 -94 -37 -138 -74 -142 -45 -5 -53 28 -38 166 16 146 28 202
49 225 21 23 54 18 67 -11z m1466 -82 c44 -24 -1 -81 -52 -65 -28 9 -25 53 4
65 29 11 26 11 48 0z m-521 -49 c40 -28 60 -78 60 -152 0 -194 -149 -317 -248
-205 -57 66 -65 172 -18 271 49 104 130 138 206 86z m205 -57 l10 -31 30 19
c75 47 184 -21 140 -88 -16 -25 -53 -32 -72 -13 -18 18 -65 6 -86 -23 -11 -14
-26 -61 -33 -103 -16 -91 -35 -125 -69 -125 -32 0 -45 26 -45 92 0 69 18 213
31 255 19 60 77 70 94 17z m305 -23 c25 -47 -9 -289 -48 -341 -25 -34 -57 -38
-73 -9 -26 49 6 282 47 347 18 27 59 29 74 3z m276 -10 c107 -65 30 -241 -105
-241 -29 0 -31 -2 -21 -20 13 -24 49 -26 92 -4 70 36 108 -23 51 -79 -147
-140 -321 21 -243 225 46 121 141 171 226 119z m1198 -88 c4 -16 2 -42 -3 -60
-9 -30 -7 -32 19 -38 34 -8 62 -37 55 -57 -7 -19 -48 -38 -80 -38 -28 0 -41
-34 -52 -134 -7 -66 6 -86 58 -86 30 0 45 -26 34 -59 -13 -41 -105 -48 -167
-13 -51 30 -60 89 -33 229 8 43 15 79 15 79 0 1 -14 4 -30 8 -63 12 -49 65 21
82 30 7 45 17 47 30 18 94 100 134 116 57z m207 -3 c26 -15 24 -36 -6 -56 -21
-14 -31 -15 -50 -6 -31 14 -32 36 -3 56 26 19 33 19 59 6z m-507 -53 c44 -29
60 -82 59 -192 0 -111 -14 -176 -43 -205 -25 -25 -60 -15 -73 20 -10 27 -11
27 -45 13 -64 -27 -125 2 -152 71 -13 35 -5 63 28 99 27 28 104 57 155 57 23
0 28 4 25 21 -5 37 -30 44 -93 29 -53 -13 -59 -12 -71 4 -16 23 -5 54 28 79
50 37 129 39 182 4z m499 -97 c12 -48 -18 -247 -47 -303 -16 -31 -28 -43 -48
-45 -42 -5 -53 45 -38 165 20 165 49 227 99 221 19 -2 27 -11 34 -38z m264
-12 c37 -34 53 -79 53 -151 0 -83 -24 -151 -70 -197 -85 -85 -192 -43 -221 86
-23 101 25 225 105 275 40 25 98 20 133 -13z m196 -27 c11 -26 14 -28 32 -15
32 24 102 18 130 -11 22 -21 25 -33 25 -94 0 -141 -86 -326 -137 -295 -26 16
-27 72 -4 164 25 96 27 140 6 140 -25 0 -52 -56 -59 -121 -3 -34 -15 -81 -25
-105 -17 -38 -24 -44 -50 -44 -50 0 -56 40 -32 216 12 82 28 158 36 171 23 34
63 31 78 -6z"/>
<path d="M37193 16948 c-32 -36 -43 -63 -43 -108 0 -76 31 -109 103 -110 41 0
53 5 78 29 24 24 29 38 29 76 0 82 -43 135 -110 135 -25 0 -43 -7 -57 -22z"/>
<path d="M36418 16770 c-27 -16 -41 -74 -28 -115 28 -84 170 -87 170 -4 0 82
-84 152 -142 119z"/>
<path d="M34760 16993 c0 -37 9 -85 31 -168 l11 -39 24 39 c56 91 55 167 -2
191 -54 23 -64 19 -64 -23z"/>
<path d="M38691 16719 c-66 -66 -63 -171 5 -204 76 -36 152 5 161 87 13 116
-93 190 -166 117z"/>
<path d="M37820 16130 c-19 -5 -57 -14 -85 -20 -27 -7 -54 -16 -59 -21 -6 -5
-19 -9 -30 -10 -12 -1 -48 -15 -81 -32 l-60 -32 -8 -274 c-5 -150 -6 -280 -3
-287 4 -11 11 -12 26 -4 11 5 29 15 40 20 11 6 26 10 34 10 8 0 27 6 43 14 15
8 39 19 53 24 14 5 60 26 102 46 42 20 85 36 95 36 10 0 30 10 46 23 l27 22
-10 135 c-16 211 -20 232 -46 288 -13 29 -24 57 -24 62 0 11 -10 11 -60 0z"/>
<path d="M37950 16098 c0 -7 7 -35 16 -63 28 -86 36 -146 41 -292 3 -117 7
-143 19 -143 14 0 23 -3 81 -34 17 -9 47 -16 66 -16 20 0 39 -4 42 -10 3 -5
16 -10 28 -10 12 0 56 -12 97 -25 53 -18 96 -25 152 -25 42 0 80 -4 83 -10 3
-5 13 -10 22 -10 12 0 14 9 9 48 -4 26 -10 81 -16 122 -15 127 -35 238 -43
246 -4 4 -7 14 -7 23 0 20 -44 41 -86 41 -18 0 -36 5 -39 10 -3 6 -16 10 -29
10 -21 0 -22 -3 -18 -55 5 -63 -7 -85 -48 -85 -35 0 -101 27 -117 49 -7 9 -13
30 -13 48 0 18 -4 42 -9 55 -5 13 -12 36 -16 51 -4 21 -13 29 -35 34 -17 3
-30 9 -30 14 0 5 -17 9 -37 9 -21 1 -49 7 -63 15 -31 18 -50 19 -50 3z"/>
<path d="M38220 15994 c0 -42 25 -96 48 -105 45 -17 62 -12 62 21 0 16 -5 39
-10 52 -19 40 -100 66 -100 32z"/>
<path d="M37870 15545 c-19 -6 -57 -21 -85 -33 -27 -13 -61 -28 -75 -34 -14
-6 -33 -14 -42 -19 -10 -5 -24 -9 -31 -9 -13 0 -59 -19 -99 -41 -10 -5 -23 -9
-30 -9 -22 -1 -56 -36 -83 -85 -14 -27 -25 -52 -25 -57 0 -9 27 -8 228 8 56 4
87 3 95 -5 20 -20 33 -12 51 32 10 23 29 56 42 74 13 17 24 38 24 46 0 9 3 17
8 19 11 5 64 107 60 116 -2 5 -19 3 -38 -3z"/>
<path d="M37990 15555 c0 -3 4 -13 9 -23 14 -25 96 -200 116 -247 9 -22 22
-51 29 -64 l13 -24 184 3 c254 3 302 6 396 22 77 12 81 14 71 33 -6 11 -17 24
-25 28 -8 5 -34 34 -58 64 -27 35 -53 58 -67 59 -13 2 -50 8 -83 13 -33 6 -98
15 -145 21 -47 6 -94 15 -105 20 -38 15 -127 40 -146 40 -10 0 -21 5 -24 10
-3 6 -17 10 -31 10 -14 0 -44 9 -66 20 -40 19 -68 25 -68 15z"/>
<path d="M36885 15151 c-44 -20 -73 -44 -98 -81 -14 -19 -17 -48 -17 -138 0
-99 3 -118 21 -143 16 -24 28 -29 60 -29 22 0 48 8 61 18 41 32 86 84 98 113
7 16 16 29 21 29 5 0 9 9 9 19 0 11 4 22 9 26 16 9 25 114 12 141 -11 26 -81
64 -116 64 -11 0 -38 -9 -60 -19z"/>
<path d="M39126 14718 c-11 -18 -22 -35 -25 -38 -3 -3 -25 -30 -48 -60 -47
-62 -167 -181 -228 -226 -22 -16 -42 -31 -45 -34 -12 -13 -90 -60 -99 -60 -5
0 -11 -3 -13 -7 -4 -11 -66 -40 -114 -55 -44 -13 -43 -10 -14 -68 6 -11 10
-28 10 -38 0 -10 4 -22 9 -27 14 -15 32 -109 41 -215 4 -52 8 -96 9 -97 1 -2
16 -3 34 -3 27 0 41 10 91 66 93 104 206 254 206 274 0 6 3 10 8 10 4 0 12 10
18 23 6 12 22 45 36 72 15 28 34 68 43 90 9 22 20 49 25 60 13 30 51 137 57
160 2 11 9 29 14 40 6 11 9 53 7 93 l-3 73 -19 -33z"/>
<path d="M37800 14157 c0 -33 94 -103 185 -137 11 -4 37 -15 58 -24 52 -22 97
-21 97 2 0 17 -70 92 -86 92 -3 0 -18 8 -32 19 -72 49 -124 71 -172 71 -45 0
-50 -2 -50 -23z"/>
<path d="M34790 14061 c-17 -32 -13 -131 6 -138 29 -11 63 14 70 53 13 71 -47
139 -76 85z"/>
<path d="M34048 14192 c-24 -26 -41 -96 -34 -135 17 -93 68 -50 74 63 3 49 0
69 -10 78 -12 9 -18 8 -30 -6z"/>
<path d="M35161 14054 c-28 -36 -26 -46 7 -38 32 8 53 30 45 50 -8 22 -29 17
-52 -12z"/>
<path d="M35741 13979 c-12 -13 -21 -29 -21 -36 0 -16 -1 -16 39 -2 24 9 31
16 29 32 -4 29 -23 32 -47 6z"/>
<path d="M37091 13745 c-11 -14 -23 -39 -26 -55 -8 -37 3 -90 18 -91 49 -5 87
35 87 92 0 77 -39 104 -79 54z"/>
<path d="M38067 13605 c-33 -70 -13 -189 26 -156 22 17 41 111 33 155 -9 48
-36 48 -59 1z"/>
<path d="M38823 13528 c-43 -55 -42 -188 1 -188 30 0 59 134 40 184 -7 19 -28
21 -41 4z"/>
<path d="M34951 13319 c-14 -40 -14 -85 -1 -110 24 -44 80 -5 82 58 2 75 -59
114 -81 52z"/>
<path d="M34334 13332 c-12 -2 -30 -12 -39 -22 -16 -18 -16 -20 -1 -26 26 -10
63 4 69 26 6 23 0 27 -29 22z"/>
<path d="M35475 13266 c-15 -36 -20 -121 -9 -150 16 -43 56 3 68 79 14 87 -30
140 -59 71z"/>
<path d="M36267 13202 c-21 -23 -22 -42 -1 -42 27 0 54 20 54 40 0 26 -31 26
-53 2z"/>
<path d="M37153 12928 c-25 -12 -30 -36 -10 -44 24 -9 67 14 67 36 0 22 -21
25 -57 8z"/>
<path d="M37915 12926 c-15 -36 -20 -121 -9 -150 8 -22 31 -20 44 3 18 35 30
115 22 146 -12 44 -39 44 -57 1z"/>
<path d="M26625 14499 c-305 -39 -856 -166 -1210 -279 -49 -16 -301 -94 -560
-174 -2071 -638 -3101 -1013 -3950 -1441 -509 -257 -880 -497 -1202 -780 -121
-105 -123 -108 -118 -143 2 -21 7 -92 10 -159 6 -131 29 -231 65 -276 l20 -25
-106 -56 c-59 -31 -278 -142 -488 -245 -209 -104 -433 -218 -496 -253 -134
-75 -135 -76 -101 -208 21 -84 90 -242 110 -255 9 -5 6 -14 -10 -31 l-22 -23
41 -7 c61 -10 67 -23 36 -78 -14 -25 -33 -50 -42 -55 -10 -5 -69 -11 -132 -14
-139 -6 -210 -26 -470 -130 -102 -40 -215 -82 -252 -93 -38 -10 -68 -23 -68
-28 0 -6 12 -20 28 -32 l27 -22 -25 -10 c-14 -6 -46 -17 -71 -26 -26 -9 -88
-43 -139 -76 -78 -50 -136 -78 -197 -96 -9 -2 -13 -26 -13 -73 0 -79 3 -81 97
-81 51 0 74 -13 56 -31 -6 -6 -45 -19 -89 -30 -99 -25 -124 -41 -124 -79 0
-23 7 -33 30 -45 16 -8 36 -15 44 -15 36 0 97 -34 112 -61 14 -28 13 -30 -25
-71 -37 -40 -45 -57 -42 -84 1 -7 64 -13 189 -18 211 -8 294 -15 287 -26 -2
-4 5 -16 16 -26 15 -13 42 -20 102 -24 l82 -5 -59 -40 c-64 -43 -82 -67 -44
-58 52 11 128 38 213 74 50 21 120 45 155 53 l65 15 -30 -25 c-189 -160 -312
-244 -389 -265 -28 -8 -37 -17 -50 -52 -8 -23 -18 -67 -21 -98 -3 -31 -13 -65
-20 -75 -23 -31 -18 -121 9 -181 33 -70 56 -83 126 -73 78 12 226 12 355 0 96
-9 224 -28 233 -35 2 -2 -7 -21 -18 -43 -14 -26 -19 -49 -15 -63 9 -28 46 -22
144 20 94 42 122 46 160 27 17 -9 31 -20 31 -24 0 -5 -16 -23 -35 -42 -33 -32
-47 -70 -25 -70 6 0 28 9 49 19 89 46 328 143 479 195 216 74 397 122 747 200
266 59 490 110 540 122 11 2 -7 -10 -40 -27 -260 -135 -464 -260 -678 -413
-478 -342 -885 -734 -988 -951 -40 -83 -39 -95 11 -95 48 0 191 -28 203 -40 5
-4 -5 -39 -21 -77 -16 -38 -33 -85 -37 -103 l-7 -33 27 21 c68 53 151 47 179
-13 9 -18 16 -36 16 -39 0 -3 -18 -10 -40 -16 -53 -14 -70 -34 -70 -82 l0 -40
63 5 c34 3 94 11 134 17 65 11 75 10 109 -6 21 -11 39 -24 41 -30 5 -14 -49
-34 -91 -34 -46 0 -76 -11 -76 -26 0 -17 32 -34 64 -34 39 0 31 -13 -18 -33
-83 -34 -134 -76 -174 -141 -20 -35 -42 -61 -49 -59 -41 14 -113 -225 -116
-385 -2 -74 0 -86 19 -101 19 -15 20 -19 6 -40 -21 -31 -4 -41 70 -41 76 0 85
-5 80 -40 -3 -22 5 -41 32 -79 20 -27 36 -54 36 -61 0 -8 18 -10 66 -5 70 8
84 2 84 -37 0 -14 -8 -18 -39 -18 -28 0 -49 -8 -70 -26 -24 -20 -34 -23 -50
-15 -28 15 -63 14 -88 -4 -20 -14 -20 -17 -6 -57 10 -30 13 -60 8 -97 l-7 -53
49 7 c41 5 53 3 76 -15 15 -12 44 -26 65 -32 68 -19 77 -39 37 -86 -14 -17
-25 -32 -25 -35 0 -2 33 -8 73 -12 103 -10 270 -55 437 -118 80 -30 178 -65
218 -77 39 -12 72 -26 72 -31 0 -4 16 -24 35 -43 l34 -35 88 9 c49 5 216 16
373 25 354 19 533 38 725 76 142 28 329 74 349 86 5 3 -4 13 -20 21 -21 11
-67 17 -161 20 -73 2 -133 7 -133 11 0 7 141 61 230 88 48 14 52 17 30 23 -30
7 -45 46 -55 143 -4 37 -11 67 -15 67 -5 0 -15 2 -23 5 -7 3 -27 -7 -43 -24
-26 -26 -41 -31 -144 -46 -105 -16 -123 -22 -133 -49 -4 -11 -210 -45 -276
-45 -25 -1 -52 5 -60 13 -14 12 -35 11 -150 -6 l-135 -20 -36 21 c-20 11 -45
18 -57 15 -14 -4 -26 2 -41 20 -14 18 -29 26 -51 26 -44 0 -109 39 -116 70 -4
14 -17 36 -29 50 -13 14 -26 36 -29 50 -4 15 -25 38 -57 58 -27 18 -50 39 -50
46 0 8 -14 29 -31 47 -26 28 -35 49 -46 113 -7 43 -26 106 -42 140 -40 84 -62
258 -38 308 12 26 13 45 6 90 -8 50 -6 63 11 95 11 21 20 48 20 60 0 13 9 32
20 43 12 12 20 33 20 55 0 22 6 38 15 41 10 4 15 20 15 49 0 26 6 47 16 56 9
8 13 21 10 35 -3 12 0 29 7 36 28 29 77 120 77 143 0 14 6 28 14 31 8 3 17 16
20 30 4 13 11 24 16 24 6 0 10 12 11 28 0 15 22 68 49 117 27 50 63 117 80
150 35 69 35 70 112 185 31 47 93 121 137 164 62 61 82 87 87 115 10 52 49 99
89 107 21 4 36 14 44 30 6 13 15 24 20 24 5 0 11 10 13 22 2 15 17 30 45 43
26 12 59 43 88 80 25 33 56 64 68 70 12 5 30 19 39 31 10 12 35 29 55 37 25
10 47 30 63 56 17 28 36 45 60 52 19 7 45 23 57 35 15 16 33 24 55 24 23 0 41
8 60 29 21 21 40 30 80 35 104 13 119 18 150 52 18 19 40 34 49 34 9 0 24 10
35 21 28 31 46 36 243 64 201 28 253 30 280 13 14 -9 45 -9 129 0 105 12 112
11 146 -9 30 -18 45 -20 101 -14 52 6 70 4 91 -9 21 -14 39 -16 103 -10 67 5
79 4 84 -10 4 -11 19 -16 47 -16 22 0 51 -6 63 -14 17 -11 34 -12 82 -4 51 8
65 7 93 -8 17 -9 32 -21 32 -25 0 -4 15 -3 33 2 18 5 63 10 99 11 51 2 70 -1
85 -15 11 -9 32 -17 47 -17 16 0 48 -13 73 -30 24 -16 57 -30 72 -30 16 0 34
-7 41 -15 7 -8 23 -15 37 -15 30 0 57 -13 110 -56 23 -19 46 -34 52 -34 6 0
11 -5 11 -10 0 -6 11 -15 25 -20 14 -5 25 -14 25 -20 0 -5 11 -10 24 -10 47 0
82 -19 134 -72 9 -10 22 -18 30 -18 7 0 15 -7 18 -15 4 -8 12 -15 18 -15 16 0
52 -39 60 -66 4 -11 27 -35 51 -53 25 -18 45 -35 45 -39 0 -4 9 -65 20 -137
15 -103 23 -132 39 -145 24 -18 41 -60 41 -103 0 -18 13 -60 30 -95 49 -105
58 -142 101 -425 58 -388 59 -404 44 -532 -9 -76 -10 -128 -4 -161 10 -51 2
-378 -9 -404 -6 -14 -10 -160 -5 -160 2 0 74 20 160 45 504 142 1196 271 1668
311 87 7 211 42 263 74 23 14 50 20 90 20 112 0 251 31 565 126 51 15 57 19
50 38 -19 59 -23 57 197 108 251 58 378 97 489 151 l86 41 -42 4 c-28 2 -43 8
-43 17 0 15 40 25 300 75 91 18 201 44 245 58 l80 25 -40 9 c-71 15 -71 16 -9
64 199 156 321 215 516 251 l88 16 0 34 c0 73 41 115 150 154 36 12 68 28 72
33 4 6 -8 24 -28 41 -43 37 -38 62 14 71 202 34 371 125 519 277 88 91 157
180 288 372 143 210 181 254 273 308 98 58 251 124 477 206 286 104 407 165
538 271 67 54 80 70 154 202 45 79 94 170 111 203 77 157 64 276 -40 370 -42
39 -43 41 -43 105 -1 38 -7 76 -16 92 -14 27 -16 28 -134 32 -140 5 -377 41
-603 91 -214 47 -238 56 -234 86 2 13 -5 54 -14 91 -10 37 -15 70 -13 73 3 3
28 9 55 14 27 5 92 30 144 55 107 52 140 59 360 81 176 17 214 26 360 83 261
103 484 241 704 437 l98 89 -5 40 c-3 23 -13 91 -21 151 -17 117 -19 265 -7
353 l7 52 -37 0 c-43 0 -59 18 -59 67 -1 48 -33 125 -95 227 l-59 98 -45 -7
c-108 -15 -338 -74 -654 -166 -659 -193 -799 -229 -1072 -279 -169 -30 -446
-52 -444 -34 0 5 35 34 77 65 317 233 509 500 557 774 20 116 19 122 -12 139
-33 16 -189 38 -219 30 -48 -13 -202 74 -304 171 l-65 62 -64 -7 c-48 -6 -70
-5 -85 5 -34 22 -135 45 -199 45 -32 0 -138 -9 -235 -21 -302 -36 -484 -16
-467 51 3 14 8 57 12 97 9 116 -20 158 -217 315 l-55 44 3 74 c5 106 -20 175
-120 335 -71 115 -86 134 -103 129 -61 -19 -83 -16 -100 10 -13 19 -16 37 -11
67 l6 40 -48 -7 c-53 -7 -103 9 -158 51 -28 21 -37 23 -61 14 -87 -33 -241
-61 -466 -84 -263 -27 -548 -64 -867 -114 -107 -17 -325 -51 -485 -76 -753
-118 -1064 -158 -1385 -179 l-65 -4 41 18 c132 58 458 175 969 347 548 184
804 277 978 357 57 26 78 40 81 58 7 30 11 173 8 266 l-2 72 -182 -1 c-101 -1
-214 -5 -253 -10z m-5831 -2859 c-3 -38 -22 -228 -49 -490 -38 -357 -49 -489
-44 -494 6 -6 242 -36 285 -36 l31 0 7 163 c3 89 11 259 16 377 5 118 12 223
16 233 6 17 18 18 153 11 94 -4 151 -11 159 -19 11 -10 12 -54 3 -241 -6 -126
-12 -305 -13 -399 l-3 -170 27 -3 c45 -5 47 -17 31 -157 -20 -179 -19 -175
-48 -175 -31 0 -33 -11 -40 -250 -3 -102 -10 -277 -16 -389 -6 -112 -6 -208
-2 -212 10 -10 328 -48 653 -78 283 -27 694 -69 748 -77 23 -4 45 -11 48 -16
10 -15 -28 -306 -40 -311 -6 -2 -63 2 -126 9 -63 8 -218 23 -345 34 -282 26
-591 56 -705 69 -47 6 -132 15 -190 20 -229 22 -375 43 -383 54 -4 7 -5 86 -2
177 15 403 35 880 41 931 8 75 -3 84 -103 92 -43 4 -113 12 -155 19 -43 6 -80
9 -82 7 -5 -4 -32 -253 -71 -638 -8 -80 -18 -148 -23 -153 -8 -8 -364 7 -431
18 l-34 5 7 152 c4 84 12 158 18 164 7 9 30 11 78 7 l68 -7 6 44 c3 24 10 87
16 139 5 52 14 136 20 185 15 131 16 125 -29 125 -21 0 -43 6 -49 13 -12 14
12 265 28 305 9 20 16 23 52 20 l43 -3 11 105 c7 58 19 182 29 275 9 94 19
180 22 193 5 22 4 22 -64 16 -51 -5 -72 -3 -78 6 -4 7 -15 77 -25 156 -14 121
-14 146 -3 156 7 6 89 19 181 30 92 10 196 23 232 27 104 14 125 11 124 -19z
m4949 -101 c304 -61 660 -133 792 -160 132 -27 431 -88 665 -135 234 -46 456
-94 493 -105 l68 -20 -7 -37 c-8 -44 -291 -1088 -303 -1117 -5 -11 -13 -32
-20 -47 -14 -37 -29 -36 -181 11 -103 32 -126 43 -128 59 -4 24 27 141 145
560 74 261 84 305 72 317 -8 8 -82 28 -164 45 -121 24 -152 27 -162 17 -12
-12 -423 -1809 -423 -1849 0 -21 33 -31 177 -53 146 -24 140 -26 173 80 114
359 114 360 139 363 26 4 210 -43 254 -65 35 -17 35 -35 -3 -159 -16 -54 -61
-207 -100 -339 -44 -147 -79 -248 -90 -260 -20 -19 -21 -19 -192 8 -95 15
-209 33 -253 41 -44 8 -183 33 -310 55 -299 52 -332 60 -338 74 -6 17 31 264
43 288 10 18 18 19 84 13 l73 -7 11 33 c17 46 412 1804 412 1830 0 12 -10 25
-22 30 -20 9 -290 65 -1238 256 -151 31 -285 62 -297 70 -28 18 -29 34 -2 165
27 133 34 149 60 149 11 0 269 -50 572 -111z m-3450 -14 c263 -41 480 -75 482
-75 2 0 9 -8 14 -18 12 -23 12 -25 -124 -1260 -25 -227 -45 -417 -45 -423 0
-5 17 -17 38 -26 20 -8 40 -20 45 -27 12 -19 -4 -259 -19 -275 -12 -13 -41
-13 -200 -4 -210 11 -220 15 -210 83 21 146 57 563 50 570 -6 6 -78 13 -162
17 -125 5 -152 4 -157 -8 -6 -18 -61 -393 -70 -482 -4 -37 -14 -74 -21 -82
-21 -21 -411 -41 -431 -22 -4 5 -8 75 -8 155 l0 147 77 5 c43 4 82 10 87 15 8
9 41 221 41 266 0 12 -11 24 -27 32 -16 6 -32 16 -36 22 -11 14 2 257 15 272
5 6 24 15 41 19 43 9 56 20 62 58 23 146 96 732 93 758 -3 29 -8 33 -45 43
-77 19 -79 25 -54 171 12 69 24 130 27 135 9 15 48 11 537 -66z m1022 -120
c387 -26 738 -56 793 -66 l52 -10 0 -41 c0 -35 -107 -535 -145 -677 -23 -86
-22 -86 -165 -56 -69 15 -132 31 -142 36 -25 13 -23 39 17 223 20 89 37 169
39 178 9 41 -14 49 -167 61 -108 8 -150 8 -159 -1 -11 -11 -190 -1350 -186
-1386 4 -26 37 -34 184 -42 114 -6 122 -6 132 12 6 11 25 89 42 174 57 279 60
289 96 290 44 0 242 -44 257 -58 23 -21 20 -57 -22 -252 -16 -74 -44 -213 -62
-309 -19 -101 -40 -182 -49 -194 -16 -20 -18 -20 -271 -3 -436 29 -752 56
-793 67 l-39 11 7 123 c3 67 11 137 17 154 11 31 12 31 80 31 56 0 70 3 78 18
10 18 181 1308 181 1363 0 29 -3 31 -101 53 -34 8 -37 21 -27 141 14 179 20
189 98 179 19 -2 134 -11 255 -19z m1194 -236 c119 -28 222 -56 229 -61 15
-13 16 -7 -49 -400 -45 -273 -57 -368 -44 -368 2 0 60 27 128 59 100 48 126
65 135 88 7 15 52 171 101 347 49 175 95 322 102 327 8 5 24 9 37 9 29 0 198
-48 236 -67 26 -14 28 -18 22 -56 -4 -23 -24 -100 -46 -172 -21 -71 -69 -238
-105 -370 -36 -132 -73 -250 -80 -262 -8 -12 -42 -36 -75 -54 -33 -17 -60 -35
-60 -39 0 -8 67 -96 118 -154 65 -73 66 -84 32 -269 -37 -202 -61 -368 -54
-379 7 -11 61 -33 103 -41 70 -14 74 -33 36 -177 -33 -124 -44 -150 -64 -150
-20 0 -386 96 -423 111 -21 9 -28 18 -28 38 0 14 25 172 55 350 48 290 53 327
41 355 -15 33 -106 145 -130 158 -7 4 -42 -7 -83 -26 -52 -25 -73 -41 -81 -62
-6 -16 -37 -182 -68 -369 -43 -265 -60 -344 -74 -359 -19 -19 -21 -19 -151 3
-72 12 -136 24 -140 27 -19 11 -5 108 116 834 69 412 125 765 125 784 0 33 -3
36 -55 55 -31 12 -62 21 -70 21 -23 0 -45 30 -40 53 19 91 58 253 62 260 7 11
12 10 242 -44z m3864 -720 c299 -97 468 -157 478 -169 21 -25 52 96 -310
-1215 -61 -220 -111 -410 -111 -422 0 -14 12 -28 35 -42 19 -11 35 -27 35 -34
0 -24 -40 -221 -50 -244 -12 -29 -27 -29 -181 2 -160 33 -211 48 -223 68 -12
18 -2 62 90 396 38 139 50 199 43 212 -5 11 -30 22 -66 29 -32 6 -86 17 -120
25 -34 8 -76 15 -92 15 l-30 0 -64 -202 c-36 -112 -74 -235 -86 -275 -24 -83
-32 -88 -119 -78 -176 21 -326 45 -335 54 -15 15 19 271 38 290 11 11 24 12
64 4 61 -12 99 -7 110 16 4 9 23 69 42 134 l34 119 -34 27 -34 28 27 124 c15
68 32 130 38 137 6 6 27 12 48 12 22 0 43 7 51 16 7 9 41 109 74 222 34 114
86 286 115 381 37 125 50 179 43 190 -6 9 -27 20 -47 25 -61 14 -65 38 -26
154 44 129 56 152 81 152 11 0 228 -68 482 -151z m854 -220 c57 -16 210 -57
339 -90 129 -32 248 -66 264 -74 33 -17 51 -42 105 -140 21 -38 76 -137 123
-219 61 -108 85 -159 86 -186 0 -29 -15 -63 -71 -156 -39 -65 -98 -172 -133
-236 -80 -152 -105 -174 -192 -168 -35 2 -35 -5 2 -75 37 -71 39 -121 6 -218
-33 -99 -116 -394 -116 -413 0 -9 29 -29 75 -50 96 -44 97 -52 33 -204 -47
-110 -54 -120 -80 -120 -21 0 -325 118 -391 152 -47 24 -52 -5 60 368 103 342
105 360 45 452 -65 100 -81 118 -108 118 -42 0 -36 19 -204 -587 -34 -122 -68
-230 -75 -240 -12 -16 -21 -16 -171 11 -88 15 -183 34 -213 42 l-54 15 7 47
c18 135 40 226 58 244 20 20 22 20 96 1 32 -8 59 20 71 75 5 26 85 317 176
647 92 330 167 620 168 644 l2 44 -64 21 c-35 12 -69 29 -75 38 -8 14 -4 45
18 130 15 62 33 122 39 135 14 31 45 30 174 -8z"/>
<path d="M22151 11198 c-10 -27 -45 -276 -61 -428 -6 -58 -18 -145 -26 -195
-15 -99 -11 -150 14 -161 10 -3 76 -9 148 -12 125 -4 133 -3 143 16 6 11 22
132 36 269 15 136 30 280 35 318 5 39 10 91 10 118 0 57 -3 59 -141 81 -131
22 -148 21 -158 -6z"/>
<path d="M28191 10142 c-13 -25 -106 -324 -131 -423 -12 -46 -34 -123 -51
-170 -31 -92 -37 -153 -16 -166 27 -17 262 -61 279 -52 9 5 26 39 38 77 46
151 163 590 167 628 5 47 16 40 -131 90 -113 39 -141 41 -155 16z"/>
<path d="M29460 9786 c-12 -33 -61 -204 -99 -345 -20 -77 -27 -119 -21 -127
12 -14 287 -26 312 -13 17 9 110 166 123 206 4 17 -8 48 -49 120 -73 131 -88
148 -143 167 -70 24 -111 21 -123 -8z"/>
<path d="M22260 8209 c-114 -18 -119 -20 -125 -40 -4 -10 -30 -31 -58 -46 -29
-14 -62 -34 -74 -43 -15 -12 -58 -22 -124 -30 -88 -11 -106 -16 -134 -41 -18
-16 -41 -29 -50 -29 -10 0 -28 -11 -40 -25 -16 -17 -39 -26 -74 -31 -28 -4
-51 -10 -51 -13 0 -20 -87 -111 -106 -111 -7 0 -29 -22 -49 -50 -22 -30 -44
-50 -56 -50 -20 0 -74 -49 -95 -86 -6 -10 -21 -20 -33 -22 -12 -2 -40 -27 -62
-55 -24 -30 -55 -57 -73 -63 -26 -9 -30 -15 -28 -37 3 -20 -13 -47 -59 -109
-35 -45 -70 -89 -79 -98 -9 -9 -19 -24 -23 -33 -4 -10 -20 -20 -37 -23 -23 -5
-30 -12 -30 -31 0 -26 -26 -84 -43 -94 -5 -4 -7 -17 -4 -29 3 -14 -1 -28 -14
-41 -10 -10 -19 -21 -19 -23 0 -2 -16 -27 -35 -56 -19 -29 -35 -64 -35 -79 0
-16 -9 -36 -21 -46 -39 -36 -97 -134 -92 -155 6 -23 53 -29 53 -6 0 28 49 54
114 61 53 6 65 11 74 30 12 26 19 28 171 50 132 19 157 19 165 -1 5 -14 20
-15 109 -9 94 6 104 5 129 -14 15 -12 41 -21 60 -21 25 0 44 -9 69 -32 33 -31
37 -39 47 -124 19 -143 18 -146 -38 -213 -28 -34 -52 -61 -53 -61 -1 0 -73
-11 -159 -24 -146 -21 -160 -25 -188 -52 -22 -21 -30 -38 -30 -65 0 -47 -15
-58 -96 -75 -41 -9 -72 -22 -82 -34 -13 -15 -41 -24 -112 -35 -88 -13 -97 -13
-119 3 -22 16 -32 16 -137 3 -111 -14 -115 -14 -152 6 -31 18 -40 19 -54 9
-14 -10 -16 -22 -12 -62 5 -39 3 -53 -10 -63 -22 -18 -20 -58 3 -70 25 -14 30
-28 47 -151 13 -96 17 -107 44 -128 17 -13 30 -29 30 -37 0 -7 24 -33 54 -58
34 -30 55 -57 59 -75 4 -18 14 -31 25 -34 12 -4 23 -18 27 -37 6 -27 11 -31
38 -31 19 0 45 -10 62 -24 24 -19 34 -22 54 -14 30 11 69 3 94 -20 16 -14 27
-14 130 0 96 13 116 14 141 2 42 -20 102 -18 118 4 21 30 48 40 127 48 63 6
77 11 106 39 34 31 38 32 256 63 197 27 223 33 236 52 20 29 72 50 122 50 32
0 44 5 57 24 8 14 29 28 46 31 16 4 39 18 51 31 11 13 31 24 44 24 13 0 27 8
30 17 4 9 14 24 22 34 9 10 21 24 26 31 6 7 27 34 48 60 20 25 37 51 37 56 0
5 7 12 15 16 8 3 15 11 15 18 0 8 8 21 18 30 33 32 42 47 48 89 4 26 17 52 31
65 12 12 23 26 23 32 0 11 23 22 48 22 9 0 28 11 42 25 46 44 253 73 281 39
10 -13 24 -15 65 -10 70 8 94 -11 96 -76 3 -72 -7 -78 -182 -104 l-151 -23
-41 -43 c-22 -24 -61 -74 -86 -113 -25 -38 -69 -95 -98 -126 -28 -31 -68 -82
-88 -113 -27 -43 -47 -61 -80 -75 -24 -11 -46 -26 -49 -34 -3 -8 -19 -17 -35
-20 -18 -4 -33 -14 -37 -26 -4 -15 -21 -23 -64 -32 -46 -9 -61 -16 -70 -35
-14 -31 -37 -39 -154 -55 l-97 -12 0 -31 c0 -17 5 -59 10 -94 7 -43 7 -68 0
-82 -12 -23 -8 -24 40 -10 59 17 446 97 605 125 83 14 240 43 350 65 179 34
296 50 770 106 296 35 543 90 724 162 62 24 81 28 109 20 42 -12 80 -4 165 34
64 29 84 48 53 48 -18 0 -27 13 -37 54 -6 22 -7 17 -3 -20 7 -64 -7 -76 -86
-82 -71 -5 -74 -1 -90 122 -10 71 -10 90 1 104 28 34 36 57 28 77 -14 37 -10
107 8 127 15 17 16 28 5 115 -11 83 -10 98 3 113 8 9 15 27 15 40 0 12 -21
172 -47 353 -45 327 -46 331 -26 344 19 13 19 15 -7 198 -24 166 -29 187 -51
207 -22 20 -27 39 -38 128 -11 85 -18 110 -36 130 -13 14 -27 38 -31 54 -4 16
-15 31 -26 34 -10 2 -25 17 -33 32 -8 16 -36 46 -62 67 -27 21 -52 44 -56 51
-4 6 -23 12 -42 12 -19 0 -38 6 -42 13 -4 6 -24 21 -43 31 -19 11 -58 37 -87
58 -29 21 -60 38 -70 38 -10 0 -33 9 -51 20 -18 11 -45 20 -61 20 -16 0 -34 7
-41 15 -7 8 -19 15 -27 15 -7 0 -16 7 -19 15 -4 9 -19 15 -41 15 -19 0 -47 7
-63 16 -23 14 -39 15 -102 7 -82 -10 -126 -3 -145 23 -10 14 -20 14 -88 3 -76
-12 -78 -12 -94 10 -13 17 -23 21 -43 16 -17 -4 -31 -1 -42 10 -14 14 -29 16
-97 10 -68 -6 -83 -5 -99 10 -17 15 -27 16 -110 5 -87 -12 -92 -12 -135 10
-40 20 -49 22 -84 12 -60 -19 -124 -15 -154 8 -14 11 -27 19 -29 19 -1 -1 -28
-5 -58 -10z m270 -524 c8 -10 31 -15 70 -15 53 0 63 -4 118 -44 43 -32 62 -53
67 -75 3 -16 17 -37 31 -45 13 -9 24 -23 24 -30 0 -8 15 -29 34 -48 25 -25 37
-48 46 -93 7 -33 20 -69 30 -80 27 -29 38 -65 45 -147 6 -72 6 -74 -26 -112
-18 -21 -47 -45 -66 -52 -18 -8 -33 -19 -33 -24 0 -6 -12 -16 -27 -22 -16 -7
-39 -22 -53 -34 -21 -19 -112 -43 -162 -44 -5 0 -8 -7 -8 -15 0 -21 -72 -55
-116 -55 -30 0 -44 -7 -68 -34 -26 -28 -40 -34 -91 -40 -43 -6 -67 -15 -86
-32 -36 -34 -160 -55 -187 -31 -9 8 -28 18 -42 22 -32 10 -116 71 -124 90 -4
12 -35 214 -60 402 -3 18 2 39 9 50 8 10 15 28 15 39 0 12 9 41 20 65 11 24
20 52 20 62 0 10 16 38 35 61 25 30 35 53 35 77 0 53 1 54 98 79 25 6 42 17
42 25 0 8 5 15 10 15 6 0 16 11 22 25 14 31 23 34 178 55 160 23 185 23 200 5z"/>
<path d="M22385 7522 c-16 -2 -47 -17 -67 -33 -20 -16 -44 -29 -52 -29 -9 0
-23 -11 -32 -25 -9 -14 -26 -25 -38 -25 -37 0 -126 -121 -126 -170 0 -12 -7
-28 -15 -36 -8 -9 -15 -28 -15 -44 0 -16 -4 -32 -10 -35 -15 -9 -12 -66 10
-200 15 -98 23 -123 41 -138 22 -18 23 -17 43 7 17 21 35 28 99 37 54 8 77 16
77 25 0 22 58 52 114 59 36 5 57 13 71 31 13 15 38 27 70 33 29 6 55 17 64 30
10 13 35 24 64 30 27 5 57 18 68 30 11 11 25 21 32 21 7 0 18 4 26 9 12 8 12
12 -2 26 -17 16 -32 62 -42 128 -3 21 -13 41 -21 44 -14 5 -71 84 -103 142
-26 47 -52 60 -112 59 -30 0 -68 6 -85 14 -16 7 -42 12 -59 10z m106 -255 c26
-20 37 -49 39 -107 4 -84 1 -98 -17 -118 -10 -10 -23 -27 -29 -37 -15 -27 -78
-46 -171 -52 -80 -6 -81 -5 -110 24 -23 23 -32 46 -42 101 -14 76 -7 103 29
122 11 6 20 17 20 25 0 17 21 24 124 40 106 17 138 17 157 2z"/>
<path d="M24633 6780 c4 -19 16 -107 28 -195 21 -159 37 -230 38 -174 2 52
-49 383 -60 393 -8 8 -10 2 -6 -24z"/>
<path d="M20966 6573 c-3 -10 1 -56 8 -103 11 -74 15 -85 32 -83 46 5 237 35
248 39 6 2 19 22 29 44 14 32 15 44 5 59 -21 34 -50 40 -132 29 -76 -10 -136
0 -136 23 0 17 -49 9 -54 -8z"/>
<path d="M20590 6430 c-50 -7 -60 -13 -102 -61 -29 -31 -48 -62 -48 -76 0 -13
-7 -39 -14 -58 -13 -30 -13 -35 -1 -35 8 0 18 -7 23 -17 9 -15 18 -15 118 -2
60 8 120 13 134 12 45 -5 53 3 36 36 -9 16 -22 31 -30 34 -27 11 -49 138 -26
152 15 9 2 25 -18 24 -9 -1 -42 -5 -72 -9z"/>
<path d="M24702 6055 c0 -16 2 -22 5 -12 2 9 2 23 0 30 -3 6 -5 -1 -5 -18z"/>
</g>
</svg>
