<svg xmlns="http://www.w3.org/2000/svg" xmlns:xlink="http://www.w3.org/1999/xlink" width="1920" zoomAndPan="magnify" viewBox="0 0 1440 809.999993" height="1080" preserveAspectRatio="xMidYMid meet" version="1.0"><defs><clipPath id="ecd1055536"><path d="M 687.34375 0 L 1382.65625 0 L 1382.65625 810 L 687.34375 810 Z M 687.34375 0 " clip-rule="nonzero"/></clipPath><clipPath id="e9fb28cc36"><path d="M 1035 0 C 842.996094 0 687.34375 181.324219 687.34375 405 C 687.34375 628.675781 842.996094 810 1035 810 C 1227.003906 810 1382.65625 628.675781 1382.65625 405 C 1382.65625 181.324219 1227.003906 0 1035 0 Z M 1035 0 " clip-rule="nonzero"/></clipPath><clipPath id="667b9b85e2"><path d="M 0 0 L 115.34375 0 L 115.34375 810 L 0 810 Z M 0 0 " clip-rule="nonzero"/></clipPath><clipPath id="22a18e2ecc"><path d="M -342.253906 0 L 55.828125 0 L 115.34375 405 L 55.828125 810 L -342.253906 810 Z M -342.253906 0 " clip-rule="nonzero"/></clipPath><clipPath id="57af06a272"><path d="M 0 0 L 114 0 L 114 50.867188 L 0 50.867188 Z M 0 0 " clip-rule="nonzero"/></clipPath><clipPath id="370530a0af"><path d="M 63.234375 -465.796875 L -353.46875 -465.796875 C -353.46875 -437.949219 -375.988281 -415.191406 -404.074219 -415.191406 L -404.074219 0.261719 C -376.230469 0.261719 -353.46875 22.78125 -353.46875 50.867188 L 63.234375 50.867188 C 63.234375 23.023438 85.753906 0.261719 113.839844 0.261719 L 113.839844 -415.191406 C 85.996094 -415.191406 63.234375 -437.707031 63.234375 -465.796875 Z M 63.234375 -465.796875 " clip-rule="nonzero"/></clipPath><clipPath id="0d041aa45c"><path d="M 0 686.640625 L 46.84375 686.640625 L 46.84375 810 L 0 810 Z M 0 686.640625 " clip-rule="nonzero"/></clipPath><clipPath id="173e6095ab"><path d="M -4.527344 686.640625 L -421.234375 686.640625 C -421.234375 714.488281 -443.75 737.246094 -471.839844 737.246094 L -471.839844 1152.699219 C -443.992188 1152.699219 -421.234375 1175.21875 -421.234375 1203.304688 L -4.527344 1203.304688 C -4.527344 1175.460938 17.992188 1152.699219 46.078125 1152.699219 L 46.078125 737.246094 C 18.234375 737.246094 -4.527344 714.730469 -4.527344 686.640625 Z M -4.527344 686.640625 " clip-rule="nonzero"/></clipPath><clipPath id="fd35102878"><path d="M 0 759.285156 L 114 759.285156 L 114 810 L 0 810 Z M 0 759.285156 " clip-rule="nonzero"/></clipPath><clipPath id="c018a33bfb"><path d="M 63.234375 759.285156 L -353.46875 759.285156 C -353.46875 787.128906 -375.988281 809.886719 -404.074219 809.886719 L -404.074219 1225.34375 C -376.230469 1225.34375 -353.46875 1247.859375 -353.46875 1275.949219 L 63.234375 1275.949219 C 63.234375 1248.101562 85.753906 1225.34375 113.839844 1225.34375 L 113.839844 809.886719 C 85.996094 809.886719 63.234375 787.371094 63.234375 759.285156 Z M 63.234375 759.285156 " clip-rule="nonzero"/></clipPath></defs><g clip-path="url(#ecd1055536)"><g clip-path="url(#e9fb28cc36)"><path fill="#000000" d="M 687.34375 0 L 1382.65625 0 L 1382.65625 809.386719 L 687.34375 809.386719 Z M 687.34375 0 " fill-opacity="1" fill-rule="nonzero"/></g></g><path fill="#000000" d="M 0 0 L 1034.648438 0 L 1034.648438 810 L 0 810 Z M 0 0 " fill-opacity="1" fill-rule="nonzero"/><g clip-path="url(#667b9b85e2)"><g clip-path="url(#22a18e2ecc)"><path fill="#ffffff" d="M -342.253906 810 L -342.253906 0.265625 L 115.34375 0.265625 L 115.34375 810 Z M -342.253906 810 " fill-opacity="1" fill-rule="nonzero"/></g></g><g clip-path="url(#57af06a272)"><g clip-path="url(#370530a0af)"><path fill="#ffffff" d="M -404.074219 -465.796875 L 114.605469 -465.796875 L 114.605469 50.867188 L -404.074219 50.867188 Z M -404.074219 -465.796875 " fill-opacity="1" fill-rule="nonzero"/></g></g><g clip-path="url(#0d041aa45c)"><g clip-path="url(#173e6095ab)"><path fill="#ffffff" d="M -471.839844 686.640625 L 46.84375 686.640625 L 46.84375 1203.304688 L -471.839844 1203.304688 Z M -471.839844 686.640625 " fill-opacity="1" fill-rule="nonzero"/></g></g><g clip-path="url(#fd35102878)"><g clip-path="url(#c018a33bfb)"><path fill="#ffffff" d="M -404.074219 759.285156 L 114.605469 759.285156 L 114.605469 1275.945312 L -404.074219 1275.945312 Z M -404.074219 759.285156 " fill-opacity="1" fill-rule="nonzero"/></g></g></svg>