M48
; DRILL file {KiCad 7.0.11-7.0.11~ubuntu20.04.1} date Sat Aug 17 04:37:03 2024
; FORMAT={-:-/ absolute / metric / decimal}
; #@! TF.CreationDate,2024-08-17T04:37:03+00:00
; #@! TF.GenerationSoftware,Kicad,Pcbnew,7.0.11-7.0.11~ubuntu20.04.1
; #@! TF.FileFunction,MixedPlating,1,2
FMAT,2
METRIC
; #@! TA.AperFunction,Plated,PTH,ComponentDrill
T1C0.200
; #@! TA.AperFunction,Plated,PTH,ComponentDrill
T2C0.300
; #@! TA.AperFunction,NonPlated,NPTH,ComponentDrill
T3C12.000
%
G90
G05
T1
X142.859Y-42.343
X142.859Y-43.743
X143.559Y-41.643
X143.559Y-43.043
X143.559Y-44.443
X144.259Y-42.343
X144.259Y-43.743
X144.959Y-41.643
X144.959Y-43.043
X144.959Y-44.443
X145.659Y-42.343
X145.659Y-43.743
T2
X12.743Y-11.51
X13.402Y-18.978
X16.358Y-125.537
X16.644Y-19.542
X17.133Y-23.667
X17.317Y-117.766
X17.317Y-121.464
X18.015Y-26.474
X18.433Y-31.027
X18.646Y-109.55
X18.646Y-113.106
X18.79Y-42.066
X19.141Y-34.242
X19.315Y-102.193
X19.565Y-38.958
X19.609Y-105.872
X20.575Y-46.824
X20.755Y-97.713
X20.792Y-43.005
X21.071Y-94.096
X21.573Y-50.651
X21.573Y-54.719
X21.901Y-89.821
X22.313Y-86.327
X22.92Y-82.813
X22.987Y-57.958
X23.085Y-78.374
X23.213Y-63.296
X23.729Y-66.063
X24.192Y-70.297
X24.192Y-74.632
X26.032Y-5.384
X26.032Y-20.384
X26.032Y-35.384
X26.032Y-50.384
X26.032Y-65.384
X26.032Y-80.384
X26.032Y-95.384
X26.032Y-110.384
X26.032Y-125.384
X41.032Y-20.384
X41.032Y-35.384
X41.032Y-50.384
X41.032Y-65.384
X41.032Y-80.384
X41.032Y-95.384
X41.032Y-110.384
X56.032Y-20.384
X56.032Y-35.384
X56.032Y-50.384
X56.032Y-65.384
X56.032Y-80.384
X56.032Y-95.384
X56.032Y-110.384
X71.032Y-5.384
X71.032Y-20.384
X71.032Y-35.384
X71.032Y-50.384
X71.032Y-65.384
X71.032Y-80.384
X71.032Y-95.384
X71.032Y-110.384
X71.032Y-125.384
X86.032Y-20.384
X86.032Y-35.384
X86.032Y-50.384
X86.032Y-65.384
X86.032Y-80.384
X86.032Y-95.384
X86.032Y-110.384
X101.032Y-20.384
X101.032Y-35.384
X101.032Y-50.384
X101.032Y-65.384
X101.032Y-80.384
X101.032Y-95.384
X101.032Y-110.384
X101.032Y-125.384
X116.032Y-5.384
X116.032Y-20.384
X116.032Y-35.384
X116.032Y-50.384
X116.032Y-65.384
X116.032Y-80.384
X116.032Y-95.384
X116.032Y-110.384
X116.032Y-125.384
X131.032Y-5.384
X131.032Y-20.384
X131.032Y-35.384
X131.032Y-50.384
X131.032Y-65.384
X131.032Y-80.384
X131.032Y-95.384
X131.032Y-110.384
X131.032Y-125.384
X146.032Y-5.384
X146.032Y-20.384
X146.032Y-35.384
X146.032Y-50.384
X146.032Y-65.384
X146.032Y-80.384
X146.032Y-95.384
X146.032Y-110.384
X146.032Y-125.384
X161.032Y-5.384
X161.032Y-20.384
X161.032Y-35.384
X161.032Y-50.384
X161.032Y-65.384
X161.032Y-80.384
X161.032Y-95.384
X161.032Y-110.384
X161.032Y-125.384
X176.032Y-5.384
X176.032Y-20.384
X176.032Y-35.384
X176.032Y-50.384
X176.032Y-65.384
X176.032Y-80.384
X176.032Y-95.384
X176.032Y-110.384
X176.032Y-125.384
X191.032Y-5.384
X191.032Y-20.384
X191.032Y-35.384
X191.032Y-50.384
X191.032Y-65.384
X191.032Y-80.384
X191.032Y-95.384
X191.032Y-110.384
X191.032Y-125.384
X206.032Y-20.384
X206.032Y-35.384
X206.032Y-50.384
X206.032Y-65.384
X206.032Y-80.384
X206.032Y-95.384
X206.032Y-110.384
X206.032Y-125.384
X221.032Y-35.384
X221.032Y-50.384
X221.032Y-65.384
X221.032Y-80.384
X221.032Y-95.384
X221.032Y-110.384
X236.032Y-50.384
X236.032Y-65.384
X236.032Y-80.384
T3
G00X43.929Y-10.872
M15
G01X43.929Y0.128
M16
G05
G00X43.929Y-140.872
M15
G01X43.929Y-129.872
M16
G05
G00X50.929Y-10.872
M15
G01X43.929Y-10.872
M16
G05
G00X50.929Y-140.872
M15
G01X43.929Y-140.872
M16
G05
G00X50.929Y0.128
M15
G01X43.929Y0.128
M16
G05
G00X50.929Y-129.872
M15
G01X43.929Y-129.872
M16
G05
G00X50.929Y-10.872
M15
G01X50.929Y0.128
M16
G05
G00X50.929Y-140.872
M15
G01X50.929Y-129.872
M16
G05
G00X87.929Y0.128
M15
G01X87.929Y-10.872
M16
G05
G00X87.929Y-129.872
M15
G01X87.929Y-140.872
M16
G05
G00X87.929Y0.128
M15
G01X94.929Y0.128
M16
G05
G00X87.929Y-10.872
M15
G01X94.929Y-10.872
M16
G05
G00X87.929Y-129.872
M15
G01X94.929Y-129.872
M16
G05
G00X87.929Y-140.872
M15
G01X94.929Y-140.872
M16
G05
G00X94.929Y0.128
M15
G01X94.929Y-10.872
M16
G05
G00X94.929Y-129.872
M15
G01X94.929Y-140.872
M16
G05
M30
