%TF.GenerationSoftware,Flux,Pcbnew,7.0.11-7.0.11~ubuntu20.04.1*%
%TF.CreationDate,2024-08-17T04:37:03+00:00*%
%TF.ProjectId,input,696e7075-742e-46b6-9963-61645f706362,rev?*%
%TF.SameCoordinates,Original*%
%TF.FileFunction,Paste,Top*%
%TF.FilePolarity,Positive*%
%FSLAX46Y46*%
G04 Gerber Fmt 4.6, Leading zero omitted, Abs format (unit mm)*
G04 Filename: pcbrobot*
G04 Build it with Flux! Visit our site at: https://www.flux.ai (PCBNEW 7.0.11-7.0.11~ubuntu20.04.1) date 2024-08-17 04:37:03*
%MOMM*%
%LPD*%
G01*
G04 APERTURE LIST*
G04 Aperture macros list*
%AMFreePoly0*
4,1,5,0.750000,-0.450000,-0.750000,-0.450000,-0.750000,0.450000,0.750000,0.450000,0.750000,-0.450000,0.750000,-0.450000,$1*%
%AMFreePoly1*
4,1,5,0.450000,-0.450000,-0.450000,-0.450000,-0.450000,0.450000,0.450000,0.450000,0.450000,-0.450000,0.450000,-0.450000,$1*%
%AMFreePoly2*
4,1,5,0.450000,-0.750000,-0.450000,-0.750000,-0.450000,0.750000,0.450000,0.750000,0.450000,-0.750000,0.450000,-0.750000,$1*%
G04 Aperture macros list end*
%ADD10FreePoly0,82.000000*%
%ADD11FreePoly0,262.000000*%
%ADD12FreePoly0,98.000000*%
%ADD13FreePoly0,278.000000*%
%ADD14FreePoly0,0.000000*%
%ADD15FreePoly1,0.000000*%
%ADD16FreePoly2,0.000000*%
G04 APERTURE END LIST*
D10*
%TO.C,*%
X18463061Y-116069496D03*
X15195178Y-115610216D03*
D11*
X15877139Y-110757904D03*
X19145022Y-111217184D03*
D10*
X21900661Y-92713596D03*
X18632778Y-92254316D03*
D11*
X19314739Y-87402004D03*
X22582622Y-87861284D03*
D12*
X24874427Y-68148712D03*
X21606544Y-68607998D03*
D13*
X20924573Y-63755688D03*
X24192456Y-63296402D03*
D10*
X23046561Y-84928396D03*
X19778678Y-84469116D03*
D11*
X20460639Y-79616804D03*
X23728522Y-80076084D03*
D12*
X22463027Y-52567112D03*
X19195144Y-53026398D03*
D13*
X18513173Y-48174088D03*
X21781056Y-47714802D03*
D14*
X154508600Y-36593200D03*
X154508600Y-40403200D03*
D15*
X145658600Y-41643200D03*
X145658600Y-44443200D03*
D16*
X142583600Y-53083200D03*
D14*
X154508600Y-37863200D03*
X154508600Y-41673200D03*
X154508600Y-49293200D03*
D16*
X145123600Y-53083200D03*
D15*
X142858600Y-44443200D03*
D14*
X137008600Y-42943200D03*
D16*
X141313600Y-53083200D03*
D14*
X137008600Y-50563200D03*
X154508600Y-50563200D03*
X154508600Y-48023200D03*
X137008600Y-36593200D03*
X154508600Y-44213200D03*
D16*
X151473600Y-53083200D03*
D14*
X154508600Y-39133200D03*
X137008600Y-46753200D03*
X154508600Y-51833200D03*
X137008600Y-51833200D03*
D16*
X140043600Y-53083200D03*
X150203600Y-53083200D03*
D15*
X142858600Y-43043200D03*
D14*
X137008600Y-39133200D03*
D16*
X143853600Y-53083200D03*
D14*
X137008600Y-37863200D03*
D16*
X152743600Y-53083200D03*
D14*
X137008600Y-44213200D03*
X137008600Y-45483200D03*
X154508600Y-42943200D03*
D15*
X145658600Y-43043200D03*
D14*
X137008600Y-48023200D03*
X154508600Y-45483200D03*
X137008600Y-49293200D03*
X137008600Y-41673200D03*
D16*
X146393600Y-53083200D03*
D15*
X144258600Y-44443200D03*
D14*
X154508600Y-35323200D03*
D15*
X144258600Y-43043200D03*
D16*
X147663600Y-53083200D03*
D14*
X137008600Y-40403200D03*
X137008600Y-35323200D03*
D16*
X148933600Y-53083200D03*
D15*
X144258600Y-41643200D03*
D16*
X138773600Y-53083200D03*
D15*
X142858600Y-41643200D03*
D14*
X154508600Y-46753200D03*
D10*
X16171261Y-131639996D03*
X12903378Y-131180716D03*
D11*
X13585339Y-126328404D03*
X16853222Y-126787684D03*
D12*
X20051727Y-36985512D03*
X16783844Y-37444798D03*
D13*
X16101873Y-32592488D03*
X19369756Y-32133202D03*
D12*
X23668727Y-60357912D03*
X20400844Y-60817198D03*
D13*
X19718873Y-55964888D03*
X22986756Y-55505602D03*
D10*
X20754761Y-100498896D03*
X17486878Y-100039616D03*
D11*
X18168839Y-95187304D03*
X21436722Y-95646584D03*
D12*
X16434627Y-13613112D03*
X13166744Y-14072398D03*
D13*
X12484773Y-9220088D03*
X15752656Y-8760802D03*
D12*
X17640327Y-21403912D03*
X14372444Y-21863198D03*
D13*
X13690473Y-17010888D03*
X16958356Y-16551602D03*
D10*
X19608961Y-108284196D03*
X16341078Y-107824916D03*
D11*
X17023039Y-102972604D03*
X20290922Y-103431884D03*
D10*
X24192461Y-77143096D03*
X20924578Y-76683816D03*
D11*
X21606539Y-71831504D03*
X24874422Y-72290784D03*
D10*
X17317161Y-123854696D03*
X14049278Y-123395416D03*
D11*
X14731239Y-118543104D03*
X17999122Y-119002384D03*
D12*
X21257327Y-44776312D03*
X17989444Y-45235598D03*
D13*
X17307473Y-40383288D03*
X20575356Y-39924002D03*
D12*
X18846027Y-29194712D03*
X15578144Y-29653998D03*
D13*
X14896173Y-24801688D03*
X18164056Y-24342402D03*
%TD*%
M02*
