%TF.GenerationSoftware,Flux,Pcbnew,7.0.11-7.0.11~ubuntu20.04.1*%
%TF.CreationDate,2024-08-17T04:37:03+00:00*%
%TF.ProjectId,input,696e7075-742e-46b6-9963-61645f706362,rev?*%
%TF.SameCoordinates,Original*%
%TF.FileFunction,Copper,L2,Bot*%
%TF.FilePolarity,Positive*%
%FSLAX46Y46*%
G04 Gerber Fmt 4.6, Leading zero omitted, Abs format (unit mm)*
G04 Filename: pcbrobot*
G04 Build it with Flux! Visit our site at: https://www.flux.ai (PCBNEW 7.0.11-7.0.11~ubuntu20.04.1) date 2024-08-17 04:37:03*
%MOMM*%
%LPD*%
G01*
G04 APERTURE LIST*
G04 Aperture macros list*
%AMFreePoly0*
4,1,129,0.022069,0.299187,0.036723,0.297744,0.051289,0.295583,0.065730,0.292711,0.080014,0.289133,0.094105,0.284858,0.107969,0.279898,0.121572,0.274263,0.134883,0.267967,0.147869,0.261026,0.160499,0.253456,0.172742,0.245275,0.184569,0.236504,0.195952,0.227163,0.206862,0.217274,0.217274,0.206862,0.227163,0.195952,0.236504,0.184569,0.245275,0.172742,0.253456,0.160499,
0.261026,0.147869,0.267967,0.134883,0.274263,0.121572,0.279898,0.107969,0.284858,0.094105,0.289133,0.080014,0.292711,0.065730,0.295583,0.051289,0.297744,0.036723,0.299187,0.022069,0.299910,0.007362,0.299910,-0.007362,0.299187,-0.022069,0.297744,-0.036723,0.295583,-0.051289,0.292711,-0.065730,0.289133,-0.080014,0.284858,-0.094105,0.279898,-0.107969,0.274263,-0.121572,
0.267967,-0.134883,0.261026,-0.147869,0.253456,-0.160499,0.245275,-0.172742,0.236504,-0.184569,0.227163,-0.195952,0.217274,-0.206862,0.206862,-0.217274,0.195952,-0.227163,0.184569,-0.236504,0.172742,-0.245275,0.160499,-0.253456,0.147869,-0.261026,0.134883,-0.267967,0.121572,-0.274263,0.107969,-0.279898,0.094105,-0.284858,0.080014,-0.289133,0.065730,-0.292711,0.051289,-0.295583,
0.036723,-0.297744,0.022069,-0.299187,0.007362,-0.299910,-0.007362,-0.299910,-0.022069,-0.299187,-0.036723,-0.297744,-0.051289,-0.295583,-0.065730,-0.292711,-0.080014,-0.289133,-0.094105,-0.284858,-0.107969,-0.279898,-0.121572,-0.274263,-0.134883,-0.267967,-0.147869,-0.261026,-0.160499,-0.253456,-0.172742,-0.245275,-0.184569,-0.236504,-0.195952,-0.227163,-0.206862,-0.217274,-0.217274,-0.206862,
-0.227163,-0.195952,-0.236504,-0.184569,-0.245275,-0.172742,-0.253456,-0.160499,-0.261026,-0.147869,-0.267967,-0.134883,-0.274263,-0.121572,-0.279898,-0.107969,-0.284858,-0.094105,-0.289133,-0.080014,-0.292711,-0.065730,-0.295583,-0.051289,-0.297744,-0.036723,-0.299187,-0.022069,-0.299910,-0.007362,-0.299910,0.007362,-0.299187,0.022069,-0.297744,0.036723,-0.295583,0.051289,-0.292711,0.065730,
-0.289133,0.080014,-0.284858,0.094105,-0.279898,0.107969,-0.274263,0.121572,-0.267967,0.134883,-0.261026,0.147869,-0.253456,0.160499,-0.245275,0.172742,-0.236504,0.184569,-0.227163,0.195952,-0.217274,0.206862,-0.206862,0.217274,-0.195952,0.227163,-0.184569,0.236504,-0.172742,0.245275,-0.160499,0.253456,-0.147869,0.261026,-0.134883,0.267967,-0.121572,0.274263,-0.107969,0.279898,
-0.094105,0.284858,-0.080014,0.289133,-0.065730,0.292711,-0.051289,0.295583,-0.036723,0.297744,-0.022069,0.299187,-0.007362,0.299910,0.007362,0.299910,0.022069,0.299187,0.022069,0.299187,$1*%
G04 Aperture macros list end*
%TA.AperFunction,ComponentPad*%
%ADD10C,0.400000*%
%TD*%
%TA.AperFunction,ComponentPad*%
%ADD11FreePoly0,0.000000*%
%TD*%
%TA.AperFunction,Conductor*%
%ADD12C,0.254000*%
%TD*%
G04 APERTURE END LIST*
D10*
%TO.P,,5f0ccba1-6e8a-41b0-b373-83e440fd0b24__ee3a696f-ef70-402c-ab0c-7137ed4eee28.defaultFootprint.mounts.183bc2e5b0fd3164e75ded3f1243107f*%
%TO.N,N/C*%
X144958600Y-44443200D03*
%TO.P,,5f0ccba1-6e8a-41b0-b373-83e440fd0b24__ee3a696f-ef70-402c-ab0c-7137ed4eee28.defaultFootprint.mounts.9dc978c55082aad2fafacdbd9f5f57bc*%
X143558600Y-44443200D03*
%TO.P,,5f0ccba1-6e8a-41b0-b373-83e440fd0b24__ee3a696f-ef70-402c-ab0c-7137ed4eee28.defaultFootprint.mounts.a0d68b55a491274f814daab068f0c950*%
X144958600Y-43043200D03*
%TO.P,,5f0ccba1-6e8a-41b0-b373-83e440fd0b24__ee3a696f-ef70-402c-ab0c-7137ed4eee28.defaultFootprint.mounts.afcd757d940930679b843bc1e4386240*%
X143558600Y-43043200D03*
%TO.P,,5f0ccba1-6e8a-41b0-b373-83e440fd0b24__ee3a696f-ef70-402c-ab0c-7137ed4eee28.defaultFootprint.mounts.4504ff15bdcf4818a54146cc7a8e9a0d*%
X144958600Y-41643200D03*
%TO.P,,5f0ccba1-6e8a-41b0-b373-83e440fd0b24__ee3a696f-ef70-402c-ab0c-7137ed4eee28.defaultFootprint.mounts.19f3852e009ba6bfae8a2fce513ef1dd*%
X143558600Y-41643200D03*
%TO.P,,5f0ccba1-6e8a-41b0-b373-83e440fd0b24__ee3a696f-ef70-402c-ab0c-7137ed4eee28.defaultFootprint.mounts.6d4d26d8edc27532900a7c937b5e863d*%
X145658600Y-43743200D03*
%TO.P,,5f0ccba1-6e8a-41b0-b373-83e440fd0b24__ee3a696f-ef70-402c-ab0c-7137ed4eee28.defaultFootprint.mounts.f2ecf32f083cf9b5783a264d7a48b752*%
X144258600Y-43743200D03*
%TO.P,,5f0ccba1-6e8a-41b0-b373-83e440fd0b24__ee3a696f-ef70-402c-ab0c-7137ed4eee28.defaultFootprint.mounts.cf10f8cc0c36fe03b55323802961a88d*%
X142858600Y-43743200D03*
%TO.P,,5f0ccba1-6e8a-41b0-b373-83e440fd0b24__ee3a696f-ef70-402c-ab0c-7137ed4eee28.defaultFootprint.mounts.52e844226e796b1c42a9f7f1323ab2f7*%
X145658600Y-42343200D03*
%TO.P,,5f0ccba1-6e8a-41b0-b373-83e440fd0b24__ee3a696f-ef70-402c-ab0c-7137ed4eee28.defaultFootprint.mounts.a17b4eabb5e4ad17dbcba1ef557d9230*%
X142858600Y-42343200D03*
%TO.P,,5f0ccba1-6e8a-41b0-b373-83e440fd0b24__ee3a696f-ef70-402c-ab0c-7137ed4eee28.defaultFootprint.mounts.fab9ee6953aa1da2d8a8f965443f1f1b*%
X144258600Y-42343200D03*
D11*
%TO.P,,09d41dc0-b1be-431f-86ca-87c4d5b4795b.via9.12*%
%TO.N,GND*%
X191032200Y-5384000D03*
%TO.P,,09d41dc0-b1be-431f-86ca-87c4d5b4795b.via9.11*%
X176032200Y-5384000D03*
%TO.P,,09d41dc0-b1be-431f-86ca-87c4d5b4795b.via9.10*%
X161032200Y-5384000D03*
%TO.P,,09d41dc0-b1be-431f-86ca-87c4d5b4795b.via9.9*%
X146032200Y-5384000D03*
%TO.P,,09d41dc0-b1be-431f-86ca-87c4d5b4795b.via9.8*%
X131032200Y-5384000D03*
%TO.P,,09d41dc0-b1be-431f-86ca-87c4d5b4795b.via9.7*%
X116032200Y-5384000D03*
%TO.P,,09d41dc0-b1be-431f-86ca-87c4d5b4795b.via9.4*%
X71032200Y-5384000D03*
%TO.P,,09d41dc0-b1be-431f-86ca-87c4d5b4795b.via9.1*%
X26032200Y-5384000D03*
%TO.P,,09d41dc0-b1be-431f-86ca-87c4d5b4795b.via8.13*%
X206032200Y-20384000D03*
%TO.P,,09d41dc0-b1be-431f-86ca-87c4d5b4795b.via8.12*%
X191032200Y-20384000D03*
%TO.P,,09d41dc0-b1be-431f-86ca-87c4d5b4795b.via8.11*%
X176032200Y-20384000D03*
%TO.P,,09d41dc0-b1be-431f-86ca-87c4d5b4795b.via8.10*%
X161032200Y-20384000D03*
%TO.P,,09d41dc0-b1be-431f-86ca-87c4d5b4795b.via8.9*%
X146032200Y-20384000D03*
%TO.P,,09d41dc0-b1be-431f-86ca-87c4d5b4795b.via8.8*%
X131032200Y-20384000D03*
%TO.P,,09d41dc0-b1be-431f-86ca-87c4d5b4795b.via8.7*%
X116032200Y-20384000D03*
%TO.P,,09d41dc0-b1be-431f-86ca-87c4d5b4795b.via8.6*%
X101032200Y-20384000D03*
%TO.P,,09d41dc0-b1be-431f-86ca-87c4d5b4795b.via8.5*%
X86032200Y-20384000D03*
%TO.P,,09d41dc0-b1be-431f-86ca-87c4d5b4795b.via8.4*%
X71032200Y-20384000D03*
%TO.P,,09d41dc0-b1be-431f-86ca-87c4d5b4795b.via8.3*%
X56032200Y-20384000D03*
%TO.P,,09d41dc0-b1be-431f-86ca-87c4d5b4795b.via8.2*%
X41032200Y-20384000D03*
%TO.P,,09d41dc0-b1be-431f-86ca-87c4d5b4795b.via8.1*%
X26032200Y-20384000D03*
%TO.P,,09d41dc0-b1be-431f-86ca-87c4d5b4795b.via7.14*%
X221032200Y-35384000D03*
%TO.P,,09d41dc0-b1be-431f-86ca-87c4d5b4795b.via7.13*%
X206032200Y-35384000D03*
%TO.P,,09d41dc0-b1be-431f-86ca-87c4d5b4795b.via7.12*%
X191032200Y-35384000D03*
%TO.P,,09d41dc0-b1be-431f-86ca-87c4d5b4795b.via7.11*%
X176032200Y-35384000D03*
%TO.P,,09d41dc0-b1be-431f-86ca-87c4d5b4795b.via7.10*%
X161032200Y-35384000D03*
%TO.P,,09d41dc0-b1be-431f-86ca-87c4d5b4795b.via7.9*%
X146032200Y-35384000D03*
%TO.P,,09d41dc0-b1be-431f-86ca-87c4d5b4795b.via7.8*%
X131032200Y-35384000D03*
%TO.P,,09d41dc0-b1be-431f-86ca-87c4d5b4795b.via7.7*%
X116032200Y-35384000D03*
%TO.P,,09d41dc0-b1be-431f-86ca-87c4d5b4795b.via7.6*%
X101032200Y-35384000D03*
%TO.P,,09d41dc0-b1be-431f-86ca-87c4d5b4795b.via7.5*%
X86032200Y-35384000D03*
%TO.P,,09d41dc0-b1be-431f-86ca-87c4d5b4795b.via7.4*%
X71032200Y-35384000D03*
%TO.P,,09d41dc0-b1be-431f-86ca-87c4d5b4795b.via7.3*%
X56032200Y-35384000D03*
%TO.P,,09d41dc0-b1be-431f-86ca-87c4d5b4795b.via7.2*%
X41032200Y-35384000D03*
%TO.P,,09d41dc0-b1be-431f-86ca-87c4d5b4795b.via7.1*%
X26032200Y-35384000D03*
%TO.P,,09d41dc0-b1be-431f-86ca-87c4d5b4795b.via6.15*%
X236032200Y-50384000D03*
%TO.P,,09d41dc0-b1be-431f-86ca-87c4d5b4795b.via6.14*%
X221032200Y-50384000D03*
%TO.P,,09d41dc0-b1be-431f-86ca-87c4d5b4795b.via6.13*%
X206032200Y-50384000D03*
%TO.P,,09d41dc0-b1be-431f-86ca-87c4d5b4795b.via6.12*%
X191032200Y-50384000D03*
%TO.P,,09d41dc0-b1be-431f-86ca-87c4d5b4795b.via6.11*%
X176032200Y-50384000D03*
%TO.P,,09d41dc0-b1be-431f-86ca-87c4d5b4795b.via6.10*%
X161032200Y-50384000D03*
%TO.P,,09d41dc0-b1be-431f-86ca-87c4d5b4795b.via6.9*%
X146032200Y-50384000D03*
%TO.P,,09d41dc0-b1be-431f-86ca-87c4d5b4795b.via6.8*%
X131032200Y-50384000D03*
%TO.P,,09d41dc0-b1be-431f-86ca-87c4d5b4795b.via6.7*%
X116032200Y-50384000D03*
%TO.P,,09d41dc0-b1be-431f-86ca-87c4d5b4795b.via6.6*%
X101032200Y-50384000D03*
%TO.P,,09d41dc0-b1be-431f-86ca-87c4d5b4795b.via6.5*%
X86032200Y-50384000D03*
%TO.P,,09d41dc0-b1be-431f-86ca-87c4d5b4795b.via6.4*%
X71032200Y-50384000D03*
%TO.P,,09d41dc0-b1be-431f-86ca-87c4d5b4795b.via6.3*%
X56032200Y-50384000D03*
%TO.P,,09d41dc0-b1be-431f-86ca-87c4d5b4795b.via6.2*%
X41032200Y-50384000D03*
%TO.P,,09d41dc0-b1be-431f-86ca-87c4d5b4795b.via6.1*%
X26032200Y-50384000D03*
%TO.P,,09d41dc0-b1be-431f-86ca-87c4d5b4795b.via5.15*%
X236032200Y-65384000D03*
%TO.P,,09d41dc0-b1be-431f-86ca-87c4d5b4795b.via5.14*%
X221032200Y-65384000D03*
%TO.P,,09d41dc0-b1be-431f-86ca-87c4d5b4795b.via5.13*%
X206032200Y-65384000D03*
%TO.P,,09d41dc0-b1be-431f-86ca-87c4d5b4795b.via5.12*%
X191032200Y-65384000D03*
%TO.P,,09d41dc0-b1be-431f-86ca-87c4d5b4795b.via5.11*%
X176032200Y-65384000D03*
%TO.P,,09d41dc0-b1be-431f-86ca-87c4d5b4795b.via5.10*%
X161032200Y-65384000D03*
%TO.P,,09d41dc0-b1be-431f-86ca-87c4d5b4795b.via5.9*%
X146032200Y-65384000D03*
%TO.P,,09d41dc0-b1be-431f-86ca-87c4d5b4795b.via5.8*%
X131032200Y-65384000D03*
%TO.P,,09d41dc0-b1be-431f-86ca-87c4d5b4795b.via5.7*%
X116032200Y-65384000D03*
%TO.P,,09d41dc0-b1be-431f-86ca-87c4d5b4795b.via5.6*%
X101032200Y-65384000D03*
%TO.P,,09d41dc0-b1be-431f-86ca-87c4d5b4795b.via5.5*%
X86032200Y-65384000D03*
%TO.P,,09d41dc0-b1be-431f-86ca-87c4d5b4795b.via5.4*%
X71032200Y-65384000D03*
%TO.P,,09d41dc0-b1be-431f-86ca-87c4d5b4795b.via5.3*%
X56032200Y-65384000D03*
%TO.P,,09d41dc0-b1be-431f-86ca-87c4d5b4795b.via5.2*%
X41032200Y-65384000D03*
%TO.P,,09d41dc0-b1be-431f-86ca-87c4d5b4795b.via5.1*%
X26032200Y-65384000D03*
%TO.P,,09d41dc0-b1be-431f-86ca-87c4d5b4795b.via4.15*%
X236032200Y-80384000D03*
%TO.P,,09d41dc0-b1be-431f-86ca-87c4d5b4795b.via4.14*%
X221032200Y-80384000D03*
%TO.P,,09d41dc0-b1be-431f-86ca-87c4d5b4795b.via4.13*%
X206032200Y-80384000D03*
%TO.P,,09d41dc0-b1be-431f-86ca-87c4d5b4795b.via4.12*%
X191032200Y-80384000D03*
%TO.P,,09d41dc0-b1be-431f-86ca-87c4d5b4795b.via4.11*%
X176032200Y-80384000D03*
%TO.P,,09d41dc0-b1be-431f-86ca-87c4d5b4795b.via4.10*%
X161032200Y-80384000D03*
%TO.P,,09d41dc0-b1be-431f-86ca-87c4d5b4795b.via4.9*%
X146032200Y-80384000D03*
%TO.P,,09d41dc0-b1be-431f-86ca-87c4d5b4795b.via4.8*%
X131032200Y-80384000D03*
%TO.P,,09d41dc0-b1be-431f-86ca-87c4d5b4795b.via4.7*%
X116032200Y-80384000D03*
%TO.P,,09d41dc0-b1be-431f-86ca-87c4d5b4795b.via4.6*%
X101032200Y-80384000D03*
%TO.P,,09d41dc0-b1be-431f-86ca-87c4d5b4795b.via4.5*%
X86032200Y-80384000D03*
%TO.P,,09d41dc0-b1be-431f-86ca-87c4d5b4795b.via4.4*%
X71032200Y-80384000D03*
%TO.P,,09d41dc0-b1be-431f-86ca-87c4d5b4795b.via4.3*%
X56032200Y-80384000D03*
%TO.P,,09d41dc0-b1be-431f-86ca-87c4d5b4795b.via4.2*%
X41032200Y-80384000D03*
%TO.P,,09d41dc0-b1be-431f-86ca-87c4d5b4795b.via4.1*%
X26032200Y-80384000D03*
%TO.P,,09d41dc0-b1be-431f-86ca-87c4d5b4795b.via3.14*%
X221032200Y-95384000D03*
%TO.P,,09d41dc0-b1be-431f-86ca-87c4d5b4795b.via3.13*%
X206032200Y-95384000D03*
%TO.P,,09d41dc0-b1be-431f-86ca-87c4d5b4795b.via3.12*%
X191032200Y-95384000D03*
%TO.P,,09d41dc0-b1be-431f-86ca-87c4d5b4795b.via3.11*%
X176032200Y-95384000D03*
%TO.P,,09d41dc0-b1be-431f-86ca-87c4d5b4795b.via3.10*%
X161032200Y-95384000D03*
%TO.P,,09d41dc0-b1be-431f-86ca-87c4d5b4795b.via3.9*%
X146032200Y-95384000D03*
%TO.P,,09d41dc0-b1be-431f-86ca-87c4d5b4795b.via3.8*%
X131032200Y-95384000D03*
%TO.P,,09d41dc0-b1be-431f-86ca-87c4d5b4795b.via3.7*%
X116032200Y-95384000D03*
%TO.P,,09d41dc0-b1be-431f-86ca-87c4d5b4795b.via3.6*%
X101032200Y-95384000D03*
%TO.P,,09d41dc0-b1be-431f-86ca-87c4d5b4795b.via3.5*%
X86032200Y-95384000D03*
%TO.P,,09d41dc0-b1be-431f-86ca-87c4d5b4795b.via3.4*%
X71032200Y-95384000D03*
%TO.P,,09d41dc0-b1be-431f-86ca-87c4d5b4795b.via3.3*%
X56032200Y-95384000D03*
%TO.P,,09d41dc0-b1be-431f-86ca-87c4d5b4795b.via3.2*%
X41032200Y-95384000D03*
%TO.P,,09d41dc0-b1be-431f-86ca-87c4d5b4795b.via3.1*%
X26032200Y-95384000D03*
%TO.P,,09d41dc0-b1be-431f-86ca-87c4d5b4795b.via2.14*%
X221032200Y-110384000D03*
%TO.P,,09d41dc0-b1be-431f-86ca-87c4d5b4795b.via2.13*%
X206032200Y-110384000D03*
%TO.P,,09d41dc0-b1be-431f-86ca-87c4d5b4795b.via2.12*%
X191032200Y-110384000D03*
%TO.P,,09d41dc0-b1be-431f-86ca-87c4d5b4795b.via2.11*%
X176032200Y-110384000D03*
%TO.P,,09d41dc0-b1be-431f-86ca-87c4d5b4795b.via2.10*%
X161032200Y-110384000D03*
%TO.P,,09d41dc0-b1be-431f-86ca-87c4d5b4795b.via2.9*%
X146032200Y-110384000D03*
%TO.P,,09d41dc0-b1be-431f-86ca-87c4d5b4795b.via2.8*%
X131032200Y-110384000D03*
%TO.P,,09d41dc0-b1be-431f-86ca-87c4d5b4795b.via2.7*%
X116032200Y-110384000D03*
%TO.P,,09d41dc0-b1be-431f-86ca-87c4d5b4795b.via2.6*%
X101032200Y-110384000D03*
%TO.P,,09d41dc0-b1be-431f-86ca-87c4d5b4795b.via2.5*%
X86032200Y-110384000D03*
%TO.P,,09d41dc0-b1be-431f-86ca-87c4d5b4795b.via2.4*%
X71032200Y-110384000D03*
%TO.P,,09d41dc0-b1be-431f-86ca-87c4d5b4795b.via2.3*%
X56032200Y-110384000D03*
%TO.P,,09d41dc0-b1be-431f-86ca-87c4d5b4795b.via2.2*%
X41032200Y-110384000D03*
%TO.P,,09d41dc0-b1be-431f-86ca-87c4d5b4795b.via2.1*%
X26032200Y-110384000D03*
%TO.P,,09d41dc0-b1be-431f-86ca-87c4d5b4795b.via1.13*%
X206032200Y-125384000D03*
%TO.P,,09d41dc0-b1be-431f-86ca-87c4d5b4795b.via1.12*%
X191032200Y-125384000D03*
%TO.P,,09d41dc0-b1be-431f-86ca-87c4d5b4795b.via1.11*%
X176032200Y-125384000D03*
%TO.P,,09d41dc0-b1be-431f-86ca-87c4d5b4795b.via1.10*%
X161032200Y-125384000D03*
%TO.P,,09d41dc0-b1be-431f-86ca-87c4d5b4795b.via1.9*%
X146032200Y-125384000D03*
%TO.P,,09d41dc0-b1be-431f-86ca-87c4d5b4795b.via1.8*%
X131032200Y-125384000D03*
%TO.P,,09d41dc0-b1be-431f-86ca-87c4d5b4795b.via1.7*%
X116032200Y-125384000D03*
%TO.P,,09d41dc0-b1be-431f-86ca-87c4d5b4795b.via1.6*%
X101032200Y-125384000D03*
%TO.P,,09d41dc0-b1be-431f-86ca-87c4d5b4795b.via1.4*%
X71032200Y-125384000D03*
%TO.P,,09d41dc0-b1be-431f-86ca-87c4d5b4795b.via1.1*%
X26032200Y-125384000D03*
%TO.P,,09d41dc0-b1be-431f-86ca-87c4d5b4795b.via.island.2*%
X12743200Y-11510300D03*
%TO.P,,09d41dc0-b1be-431f-86ca-87c4d5b4795b.via.island.1*%
X13402400Y-18978200D03*
%TO.P,,09d41dc0-b1be-431f-86ca-87c4d5b4795b.via.island.0*%
X18790500Y-42066000D03*
%TO.P,,0353831f-53bd-483d-9fc7-5e2adcd1d2e7*%
%TO.N,Net 1*%
X22313500Y-86327300D03*
%TO.P,,09855cc5-b385-4532-b6d1-b2a0eebd562b*%
X22986800Y-57958200D03*
%TO.P,,18b6fb24-8d2c-4eaa-9897-9315de20b38b*%
X17133400Y-23667100D03*
%TO.P,,19e34c1c-2cdb-46f5-9ca3-934897c9ae15*%
X21572600Y-50650600D03*
%TO.P,,30f5a4e6-5462-4ce2-a9da-8c73c2b237d1*%
X21572600Y-54719400D03*
%TO.P,,31cdcfbf-9c69-4631-aed7-53b2b292018c*%
X18014600Y-26474000D03*
%TO.P,,361278ad-d36e-487f-a57a-e9af41438982*%
X17317200Y-121463800D03*
%TO.P,,39c2df4b-0fcb-4e96-a11a-27c3a5c78b1b*%
X18646100Y-113105900D03*
%TO.P,,47ae4275-7334-4780-a281-e789cd678624*%
X19314700Y-102193000D03*
%TO.P,,6bc14e84-bfff-4297-b599-6b3e203c13c1*%
X16643800Y-19541900D03*
%TO.P,,74bd0c1b-05bd-43cc-8832-30f2b356582a*%
X19140600Y-34241800D03*
%TO.P,,774db1a2-e602-4e12-b48a-2d033318c3c9*%
X22920200Y-82812900D03*
%TO.P,,77e49d28-a2e1-48cc-9f0d-9ffdc2c011f6*%
X23085200Y-78373800D03*
%TO.P,,7f1b3490-72a3-41d2-8813-df2085377df0*%
X24192500Y-74631800D03*
%TO.P,,8a670d45-9b19-49bc-ae39-9c5178cc38f9*%
X20792400Y-43005000D03*
%TO.P,,9e5523d6-0325-4852-b9ac-8456d9243509*%
X21900700Y-89821000D03*
%TO.P,,a129fdb2-8be6-460a-8dd0-0a16e87bf1b3*%
X24192500Y-70297100D03*
%TO.P,,a13925a8-3aef-46f4-a3c0-b0082aa2a16b*%
X23212600Y-63296400D03*
%TO.P,,a5a70ac1-a477-441a-9940-6248a4277d04*%
X18646000Y-109550500D03*
%TO.P,,a8582d9b-f0c2-42ef-bf48-76f32fb4208c*%
X17317200Y-117766100D03*
%TO.P,,bbfdcba2-84b0-4537-a810-8a0b2870f5d7*%
X23728600Y-66063500D03*
%TO.P,,c0fe2b02-9ac1-46ec-801e-4cf5ba416742*%
X19608900Y-105871800D03*
%TO.P,,c8f86e83-b9a9-4a37-b17f-84ef2988baed*%
X19564900Y-38957900D03*
%TO.P,,d033b0c1-c2ef-4f03-9a64-afeab4b7ae8a*%
X20575400Y-46823600D03*
%TO.P,,d3c0c5fa-5510-4d3a-95b9-d9a38123a67e*%
X21071100Y-94095700D03*
%TO.P,,da018cf8-4b43-4ee6-be5d-6b8564e33bbe*%
X20754800Y-97712800D03*
%TO.P,,e8e01376-498c-4da2-823e-3908b996eb5e*%
X18433100Y-31026900D03*
%TO.P,,f0154003-90e8-499e-b13f-7988aa7e59c0*%
X16358200Y-125536900D03*
%TD*%
D12*
%TO.N,Net 1*%
X21572600Y-50650600D02*
X21572600Y-54719400D01*
X20380800Y-44147300D02*
X20380800Y-46629100D01*
X20460600Y-91702900D02*
X20460600Y-93485300D01*
X24192400Y-75576600D02*
X23085200Y-76683800D01*
X20792400Y-43735700D02*
X20380800Y-44147300D01*
X17071400Y-117520400D02*
X17317200Y-117766200D01*
X21900700Y-89821000D02*
X21900700Y-90262800D01*
X16958400Y-23667100D02*
X17133400Y-23667100D01*
X23728600Y-66063400D02*
X23728600Y-69833200D01*
X21900600Y-90262800D02*
X20460600Y-91702800D01*
X15195200Y-124373900D02*
X16358200Y-125536900D01*
X18646100Y-113105900D02*
X18646100Y-113413500D01*
X18014600Y-26474000D02*
X18014600Y-30608400D01*
X21606500Y-84928400D02*
X21606500Y-85620200D01*
X20792400Y-43005000D02*
X20792400Y-43735800D01*
X18014700Y-30608500D02*
X18433100Y-31026900D01*
X22920200Y-82812900D02*
X22920200Y-83614700D01*
X21606500Y-85620300D02*
X22313500Y-86327300D01*
X22920300Y-83614700D02*
X21606500Y-84928500D01*
X23728600Y-69833100D02*
X24192600Y-70297000D01*
X20460600Y-93485200D02*
X21071200Y-94095800D01*
X23212600Y-63296400D02*
X24192400Y-63296400D01*
X17999100Y-108903500D02*
X18646100Y-109550500D01*
X23085200Y-76683800D02*
X23085200Y-78373800D01*
X16643800Y-21787700D02*
X16958400Y-22102300D01*
X18966300Y-101844600D02*
X19314700Y-102193000D01*
X19608900Y-106461000D02*
X17999100Y-108070800D01*
X17317200Y-121463800D02*
X17122000Y-121463800D01*
X17999100Y-108070700D02*
X17999100Y-108903500D01*
X17122000Y-121463900D02*
X15195200Y-123390700D01*
X16643800Y-19541900D02*
X16643800Y-21787700D01*
X22986800Y-57958200D02*
X22986800Y-59291200D01*
X15195200Y-123390700D02*
X15195200Y-124373900D01*
X16958400Y-22102300D02*
X16958400Y-23667100D01*
X22617600Y-62701400D02*
X23212600Y-63296400D01*
X19140700Y-38533700D02*
X19564900Y-38957900D01*
X19608900Y-105871800D02*
X19608900Y-106461000D01*
X20754800Y-97712800D02*
X20754800Y-97780600D01*
X20380800Y-46629100D02*
X20575400Y-46823700D01*
X22986800Y-59291200D02*
X22617600Y-59660400D01*
X18646100Y-113413600D02*
X17071500Y-114988200D01*
X20754700Y-97780600D02*
X18966300Y-99569000D01*
X24192500Y-74631800D02*
X24192500Y-75576600D01*
X19140600Y-34241800D02*
X19140600Y-38533600D01*
X17071500Y-114988200D02*
X17071500Y-117520400D01*
X18966300Y-99569000D02*
X18966300Y-101844600D01*
X19564900Y-38957900D02*
X19565100Y-38957700D01*
X22617600Y-59660400D02*
X22617600Y-62701400D01*
%TD*%
%TA.AperFunction,Conductor*%
%TO.N,GND*%
G36*
X98888000Y-16033000D02*
G01*
X100090000Y-14831000D01*
X100937000Y-13362000D01*
X101378000Y-11718000D01*
X101378000Y-352000D01*
X101466000Y-264000D01*
X120290000Y-271000D01*
X139367000Y-283000D01*
X156250000Y-301000D01*
X169833000Y-323000D01*
X179000000Y-349000D01*
X182632000Y-380000D01*
X182637000Y-380000D01*
X184284000Y-512000D01*
X184287000Y-509000D01*
X186036000Y-708000D01*
X186039000Y-708000D01*
X187727000Y-956000D01*
X187729000Y-956000D01*
X189415000Y-1261000D01*
X189417000Y-1261000D01*
X191077000Y-1618000D01*
X191079000Y-1618000D01*
X192733000Y-2032000D01*
X192735000Y-2032000D01*
X194400000Y-2508000D01*
X194403000Y-2509000D01*
X196039000Y-3034000D01*
X196041000Y-3034000D01*
X197623000Y-3600000D01*
X197627000Y-3597000D01*
X199374000Y-4282000D01*
X199377000Y-4286000D01*
X200986000Y-4976000D01*
X200988000Y-4976000D01*
X202630000Y-5739000D01*
X202632000Y-5740000D01*
X204056000Y-6453000D01*
X204058000Y-6454000D01*
X205479000Y-7217000D01*
X205481000Y-7221000D01*
X206828000Y-7997000D01*
X206830000Y-7998000D01*
X208179000Y-8828000D01*
X208180000Y-8829000D01*
X209498000Y-9695000D01*
X209500000Y-9697000D01*
X210819000Y-10621000D01*
X210821000Y-10622000D01*
X212114000Y-11584000D01*
X212116000Y-11586000D01*
X213387000Y-12588000D01*
X213388000Y-12589000D01*
X214664000Y-13656000D01*
X214665000Y-13657000D01*
X215925000Y-14765000D01*
X215926000Y-14766000D01*
X217168000Y-15921000D01*
X217169000Y-15922000D01*
X218420000Y-17144000D01*
X218421000Y-17145000D01*
X219442000Y-18182000D01*
X219442000Y-18185000D01*
X220361000Y-19159000D01*
X220362000Y-19160000D01*
X221290000Y-20185000D01*
X221291000Y-20186000D01*
X222189000Y-21220000D01*
X222190000Y-21221000D01*
X223074000Y-22285000D01*
X223075000Y-22286000D01*
X223930000Y-23359000D01*
X223931000Y-23360000D01*
X224758000Y-24447000D01*
X224759000Y-24448000D01*
X225574000Y-25565000D01*
X225575000Y-25567000D01*
X226363000Y-26698000D01*
X226363000Y-26699000D01*
X227132000Y-27850000D01*
X227133000Y-27852000D01*
X227882000Y-29027000D01*
X227883000Y-29028000D01*
X228608000Y-30217000D01*
X228609000Y-30219000D01*
X230011000Y-32672000D01*
X230012000Y-32674000D01*
X231298000Y-35127000D01*
X231299000Y-35129000D01*
X232498000Y-37638000D01*
X232499000Y-37640000D01*
X233586000Y-40159000D01*
X233587000Y-40161000D01*
X234590000Y-42747000D01*
X234591000Y-42750000D01*
X235490000Y-45355000D01*
X235491000Y-45358000D01*
X236306000Y-48046000D01*
X236307000Y-48048000D01*
X237026000Y-50782000D01*
X237027000Y-50785000D01*
X237657000Y-53569000D01*
X237657000Y-53572000D01*
X238205000Y-56454000D01*
X238205000Y-56457000D01*
X238663000Y-59390000D01*
X238664000Y-59392000D01*
X239041000Y-62417000D01*
X239041000Y-62420000D01*
X239113000Y-63261000D01*
X239116000Y-63264000D01*
X239186000Y-64486000D01*
X239184000Y-64488000D01*
X239231000Y-65718000D01*
X239231000Y-65719000D01*
X239266000Y-67139000D01*
X239266000Y-67140000D01*
X239287000Y-68648000D01*
X239287000Y-68649000D01*
X239295000Y-70202000D01*
X239287000Y-71755000D01*
X239287000Y-71756000D01*
X239266000Y-73264000D01*
X239266000Y-73265000D01*
X239231000Y-74686000D01*
X239231000Y-74687000D01*
X239184000Y-75912000D01*
X239186000Y-75914000D01*
X239116000Y-77136000D01*
X239113000Y-77139000D01*
X239047000Y-77912000D01*
X239050000Y-77916000D01*
X238884000Y-79351000D01*
X238883000Y-79352000D01*
X238722000Y-80602000D01*
X238722000Y-80603000D01*
X238540000Y-81883000D01*
X238540000Y-81884000D01*
X238344000Y-83142000D01*
X238344000Y-83143000D01*
X238134000Y-84384000D01*
X238134000Y-84385000D01*
X237908000Y-85605000D01*
X237908000Y-85606000D01*
X237667000Y-86810000D01*
X237667000Y-86811000D01*
X237411000Y-87999000D01*
X237410000Y-88000000D01*
X237138000Y-89172000D01*
X237138000Y-89174000D01*
X236852000Y-90326000D01*
X236852000Y-90327000D01*
X236548000Y-91477000D01*
X236548000Y-91478000D01*
X236233000Y-92596000D01*
X236232000Y-92599000D01*
X234841000Y-96922000D01*
X234840000Y-96926000D01*
X233227000Y-101082000D01*
X233225000Y-101086000D01*
X231373000Y-105129000D01*
X231371000Y-105133000D01*
X229320000Y-108982000D01*
X229318000Y-108986000D01*
X227052000Y-112677000D01*
X227049000Y-112681000D01*
X224587000Y-116185000D01*
X224585000Y-116189000D01*
X221933000Y-119502000D01*
X221929000Y-119505000D01*
X219086000Y-122623000D01*
X219083000Y-122626000D01*
X216075000Y-125521000D01*
X216071000Y-125524000D01*
X212897000Y-128193000D01*
X212893000Y-128197000D01*
X209553000Y-130637000D01*
X209549000Y-130640000D01*
X206045000Y-132844000D01*
X206042000Y-132846000D01*
X204408000Y-133761000D01*
X204406000Y-133762000D01*
X202766000Y-134609000D01*
X202763000Y-134610000D01*
X201096000Y-135400000D01*
X201094000Y-135401000D01*
X199408000Y-136129000D01*
X199406000Y-136130000D01*
X197685000Y-136802000D01*
X197683000Y-136803000D01*
X195950000Y-137410000D01*
X195948000Y-137411000D01*
X194189000Y-137958000D01*
X194187000Y-137958000D01*
X192387000Y-138449000D01*
X192385000Y-138450000D01*
X190566000Y-138880000D01*
X190564000Y-138881000D01*
X188680000Y-139261000D01*
X188677000Y-139262000D01*
X186769000Y-139584000D01*
X186767000Y-139584000D01*
X184808000Y-139853000D01*
X184804000Y-139853000D01*
X184283000Y-139902000D01*
X184280000Y-139902000D01*
X183363000Y-139945000D01*
X183361000Y-139945000D01*
X181845000Y-139981000D01*
X181844000Y-139981000D01*
X179470000Y-140011000D01*
X176003000Y-140036000D01*
X176002000Y-140036000D01*
X171202000Y-140056000D01*
X164829000Y-140072000D01*
X156641000Y-140085000D01*
X146400000Y-140096000D01*
X133864000Y-140106000D01*
X118793000Y-140115000D01*
X101466000Y-140124000D01*
X101378000Y-140036000D01*
X101378000Y-129026000D01*
X100937000Y-127382000D01*
X100936000Y-127379000D01*
X100090000Y-125914000D01*
X100089000Y-125913000D01*
X98889000Y-124712000D01*
X98888000Y-124711000D01*
X97419000Y-123864000D01*
X97420000Y-123864000D01*
X95775000Y-123423000D01*
X87083000Y-123423000D01*
X85439000Y-123864000D01*
X83970000Y-124711000D01*
X83969000Y-124712000D01*
X82769000Y-125913000D01*
X82768000Y-125914000D01*
X81922000Y-127379000D01*
X81921000Y-127382000D01*
X81480000Y-129026000D01*
X81480000Y-140042000D01*
X81392000Y-140130000D01*
X68648000Y-140133000D01*
X57466000Y-140134000D01*
X57378000Y-140046000D01*
X57378000Y-129026000D01*
X56937000Y-127382000D01*
X56936000Y-127379000D01*
X56090000Y-125914000D01*
X56089000Y-125913000D01*
X54889000Y-124712000D01*
X54888000Y-124711000D01*
X53419000Y-123864000D01*
X53420000Y-123864000D01*
X51775000Y-123423000D01*
X43083000Y-123423000D01*
X41439000Y-123864000D01*
X39970000Y-124711000D01*
X39969000Y-124712000D01*
X38769000Y-125913000D01*
X38768000Y-125914000D01*
X37922000Y-127379000D01*
X37921000Y-127382000D01*
X37480000Y-129026000D01*
X37480000Y-140037000D01*
X37392000Y-140125000D01*
X31472000Y-140116000D01*
X26610000Y-140101000D01*
X23085000Y-140082000D01*
X20678000Y-140056000D01*
X20677000Y-140056000D01*
X19172000Y-140025000D01*
X19170000Y-140025000D01*
X18334000Y-139987000D01*
X18329000Y-139986000D01*
X17993000Y-139946000D01*
X17982000Y-139944000D01*
X17119000Y-139713000D01*
X17112000Y-139710000D01*
X16294000Y-139396000D01*
X16287000Y-139393000D01*
X15506000Y-138999000D01*
X15499000Y-138995000D01*
X14776000Y-138533000D01*
X14770000Y-138529000D01*
X14102000Y-137998000D01*
X14096000Y-137993000D01*
X13484000Y-137399000D01*
X13478000Y-137393000D01*
X12930000Y-136736000D01*
X12925000Y-136730000D01*
X12456000Y-136040000D01*
X12452000Y-136033000D01*
X12045000Y-135272000D01*
X12042000Y-135266000D01*
X11718000Y-134479000D01*
X11715000Y-134472000D01*
X11471000Y-133639000D01*
X11469000Y-133632000D01*
X11312000Y-132764000D01*
X11311000Y-132755000D01*
X11298000Y-132545000D01*
X11298000Y-132538000D01*
X11312000Y-132140000D01*
X11312000Y-132136000D01*
X11366000Y-131527000D01*
X11366000Y-131525000D01*
X11482000Y-130518000D01*
X11483000Y-130517000D01*
X11641000Y-129284000D01*
X11640000Y-129282000D01*
X11901000Y-127376000D01*
X12240000Y-124964000D01*
X12474982Y-123325000D01*
X14567000Y-123325000D01*
X14568000Y-123354000D01*
X14568000Y-124283000D01*
X14567000Y-124296000D01*
X14568000Y-124331000D01*
X14568000Y-124419000D01*
X14569000Y-124427000D01*
X14568000Y-124427000D01*
X14570000Y-124436000D01*
X14571000Y-124445000D01*
X14572000Y-124478000D01*
X14592000Y-124543000D01*
X14595000Y-124553000D01*
X14604000Y-124599000D01*
X14616000Y-124620000D01*
X14622000Y-124634000D01*
X14629000Y-124657000D01*
X14631000Y-124660000D01*
X14663000Y-124705000D01*
X14700000Y-124770000D01*
X14702000Y-124773000D01*
X14756000Y-124821000D01*
X14760000Y-124824000D01*
X15540000Y-125606000D01*
X15560000Y-125640000D01*
X15613000Y-125840000D01*
X15720000Y-126027000D01*
X15721000Y-126028000D01*
X15869000Y-126175000D01*
X16049000Y-126279000D01*
X16050000Y-126280000D01*
X16255000Y-126334000D01*
X16464000Y-126334000D01*
X16661000Y-126282000D01*
X16848000Y-126175000D01*
X16996000Y-126027000D01*
X17099000Y-125848000D01*
X17156000Y-125641000D01*
X17156000Y-125433000D01*
X17099000Y-125227000D01*
X16996000Y-125047000D01*
X16848000Y-124899000D01*
X16668000Y-124796000D01*
X16461000Y-124738000D01*
X16428000Y-124719000D01*
X15845000Y-124135000D01*
X15822000Y-124080000D01*
X15822000Y-123683000D01*
X15845000Y-123628000D01*
X17190000Y-122284000D01*
X17245000Y-122261000D01*
X17423000Y-122261000D01*
X17620000Y-122209000D01*
X17807000Y-122102000D01*
X17808000Y-122101000D01*
X17956000Y-121952000D01*
X17957000Y-121951000D01*
X18058000Y-121778000D01*
X18115000Y-121568000D01*
X18115000Y-121360000D01*
X18058000Y-121154000D01*
X17955000Y-120974000D01*
X17807000Y-120826000D01*
X17627000Y-120723000D01*
X17628000Y-120723000D01*
X17421000Y-120666000D01*
X17213000Y-120666000D01*
X17003000Y-120723000D01*
X16830000Y-120824000D01*
X16829000Y-120825000D01*
X16680000Y-120973000D01*
X16679000Y-120974000D01*
X16622000Y-121073000D01*
X16610000Y-121089000D01*
X14718000Y-122980000D01*
X14717000Y-122982000D01*
X14705000Y-122998000D01*
X14678000Y-123026000D01*
X14676000Y-123028000D01*
X14647000Y-123084000D01*
X14644000Y-123090000D01*
X14619000Y-123129000D01*
X14617000Y-123133000D01*
X14611000Y-123157000D01*
X14606000Y-123170000D01*
X14594000Y-123195000D01*
X14592000Y-123200000D01*
X14582000Y-123270000D01*
X14580000Y-123279000D01*
X14567000Y-123325000D01*
X12474982Y-123325000D01*
X12680000Y-121895000D01*
X13232000Y-118085000D01*
X13693267Y-114923000D01*
X16443000Y-114923000D01*
X16445000Y-114968000D01*
X16445000Y-117422000D01*
X16443000Y-117440000D01*
X16445000Y-117515000D01*
X16445000Y-117568000D01*
X16447000Y-117583000D01*
X16447000Y-117593000D01*
X16448000Y-117622000D01*
X16449000Y-117630000D01*
X16469000Y-117694000D01*
X16471000Y-117701000D01*
X16478000Y-117736000D01*
X16486000Y-117749000D01*
X16491000Y-117762000D01*
X16508000Y-117811000D01*
X16512000Y-117819000D01*
X16520000Y-117853000D01*
X16520000Y-117872000D01*
X16572000Y-118069000D01*
X16679000Y-118256000D01*
X16680000Y-118257000D01*
X16829000Y-118405000D01*
X16830000Y-118406000D01*
X17003000Y-118507000D01*
X17213000Y-118564000D01*
X17421000Y-118564000D01*
X17628000Y-118507000D01*
X17627000Y-118507000D01*
X17807000Y-118404000D01*
X17955000Y-118256000D01*
X18058000Y-118077000D01*
X18115000Y-117870000D01*
X18115000Y-117662000D01*
X18058000Y-117456000D01*
X17955000Y-117276000D01*
X17807000Y-117128000D01*
X17739000Y-117089000D01*
X17699000Y-117019000D01*
X17699000Y-115280000D01*
X17722000Y-115225000D01*
X19124000Y-113824000D01*
X19126000Y-113820000D01*
X19139000Y-113803000D01*
X19164000Y-113779000D01*
X19164000Y-113778000D01*
X19189000Y-113727000D01*
X19194000Y-113719000D01*
X19228000Y-113667000D01*
X19235000Y-113652000D01*
X19248000Y-113633000D01*
X19285000Y-113594000D01*
X19387000Y-113416000D01*
X19444000Y-113210000D01*
X19444000Y-113002000D01*
X19387000Y-112796000D01*
X19284000Y-112616000D01*
X19136000Y-112468000D01*
X18956000Y-112365000D01*
X18957000Y-112365000D01*
X18750000Y-112308000D01*
X18542000Y-112308000D01*
X18336000Y-112365000D01*
X18156000Y-112468000D01*
X18008000Y-112616000D01*
X17900000Y-112803000D01*
X17900000Y-112805000D01*
X17849000Y-113000000D01*
X17849000Y-113207000D01*
X17861000Y-113257000D01*
X17840000Y-113333000D01*
X16594000Y-114578000D01*
X16592000Y-114582000D01*
X16579000Y-114599000D01*
X16554000Y-114624000D01*
X16529000Y-114675000D01*
X16524000Y-114683000D01*
X16496000Y-114727000D01*
X16493000Y-114734000D01*
X16486000Y-114760000D01*
X16481000Y-114775000D01*
X16469000Y-114798000D01*
X16469000Y-114799000D01*
X16461000Y-114855000D01*
X16459000Y-114865000D01*
X16443000Y-114923000D01*
X13693267Y-114923000D01*
X13908000Y-113451000D01*
X14705644Y-108006000D01*
X17370000Y-108006000D01*
X17372000Y-108051000D01*
X17372000Y-108813000D01*
X17371000Y-108826000D01*
X17372000Y-108861000D01*
X17372000Y-108948000D01*
X17373000Y-108956000D01*
X17372000Y-108956000D01*
X17374000Y-108965000D01*
X17375000Y-108974000D01*
X17376000Y-109008000D01*
X17393000Y-109064000D01*
X17395000Y-109071000D01*
X17406000Y-109122000D01*
X17417000Y-109143000D01*
X17423000Y-109156000D01*
X17433000Y-109187000D01*
X17469000Y-109236000D01*
X17474000Y-109245000D01*
X17505000Y-109300000D01*
X17552000Y-109343000D01*
X17829000Y-109620000D01*
X17849000Y-109654000D01*
X17904000Y-109859000D01*
X17905000Y-109861000D01*
X18005000Y-110036000D01*
X18007000Y-110039000D01*
X18155000Y-110188000D01*
X18156000Y-110189000D01*
X18343000Y-110296000D01*
X18540000Y-110348000D01*
X18752000Y-110348000D01*
X18949000Y-110296000D01*
X19136000Y-110189000D01*
X19137000Y-110188000D01*
X19285000Y-110039000D01*
X19287000Y-110036000D01*
X19387000Y-109861000D01*
X19388000Y-109859000D01*
X19443000Y-109654000D01*
X19443000Y-109448000D01*
X19389000Y-109246000D01*
X19387000Y-109240000D01*
X19287000Y-109065000D01*
X19287000Y-109064000D01*
X19137000Y-108913000D01*
X19136000Y-108912000D01*
X18949000Y-108805000D01*
X18752000Y-108753000D01*
X18717000Y-108733000D01*
X18649000Y-108665000D01*
X18626000Y-108610000D01*
X18626000Y-108363000D01*
X18649000Y-108308000D01*
X20087000Y-106871000D01*
X20089000Y-106867000D01*
X20102000Y-106850000D01*
X20127000Y-106825000D01*
X20152000Y-106774000D01*
X20157000Y-106766000D01*
X20186000Y-106720000D01*
X20194000Y-106690000D01*
X20200000Y-106674000D01*
X20212000Y-106651000D01*
X20220000Y-106594000D01*
X20222000Y-106584000D01*
X20238000Y-106526000D01*
X20236000Y-106481000D01*
X20236000Y-106401000D01*
X20246000Y-106363000D01*
X20351000Y-106181000D01*
X20352000Y-106180000D01*
X20406000Y-105975000D01*
X20406000Y-105766000D01*
X20355000Y-105571000D01*
X20355000Y-105569000D01*
X20247000Y-105382000D01*
X20099000Y-105234000D01*
X19919000Y-105131000D01*
X19920000Y-105131000D01*
X19713000Y-105074000D01*
X19505000Y-105074000D01*
X19299000Y-105131000D01*
X19119000Y-105234000D01*
X18971000Y-105382000D01*
X18868000Y-105562000D01*
X18811000Y-105768000D01*
X18811000Y-105976000D01*
X18869000Y-106188000D01*
X18885000Y-106228000D01*
X18867000Y-106316000D01*
X17521000Y-107661000D01*
X17519000Y-107665000D01*
X17506000Y-107682000D01*
X17481000Y-107707000D01*
X17456000Y-107758000D01*
X17451000Y-107766000D01*
X17423000Y-107810000D01*
X17420000Y-107817000D01*
X17413000Y-107843000D01*
X17408000Y-107858000D01*
X17396000Y-107881000D01*
X17396000Y-107882000D01*
X17388000Y-107938000D01*
X17386000Y-107948000D01*
X17370000Y-108006000D01*
X14705644Y-108006000D01*
X14720000Y-107908000D01*
X15679000Y-101371000D01*
X15953815Y-99498000D01*
X18339000Y-99498000D01*
X18340000Y-99519000D01*
X18339000Y-99537000D01*
X18339000Y-101890000D01*
X18340000Y-101900000D01*
X18341000Y-101907000D01*
X18343000Y-101919000D01*
X18344000Y-101950000D01*
X18361000Y-102005000D01*
X18364000Y-102014000D01*
X18373000Y-102064000D01*
X18389000Y-102095000D01*
X18395000Y-102109000D01*
X18402000Y-102130000D01*
X18431000Y-102170000D01*
X18436000Y-102179000D01*
X18470000Y-102241000D01*
X18496000Y-102265000D01*
X18517000Y-102300000D01*
X18574000Y-102504000D01*
X18677000Y-102683000D01*
X18825000Y-102831000D01*
X19012000Y-102938000D01*
X19209000Y-102990000D01*
X19418000Y-102990000D01*
X19623000Y-102936000D01*
X19624000Y-102935000D01*
X19804000Y-102831000D01*
X19952000Y-102684000D01*
X19953000Y-102683000D01*
X20060000Y-102496000D01*
X20112000Y-102300000D01*
X20112000Y-102087000D01*
X20060000Y-101890000D01*
X19953000Y-101703000D01*
X19952000Y-101702000D01*
X19804000Y-101555000D01*
X19633000Y-101456000D01*
X19593000Y-101386000D01*
X19593000Y-99862000D01*
X19616000Y-99807000D01*
X20919000Y-98504000D01*
X20954000Y-98484000D01*
X21062000Y-98456000D01*
X21064000Y-98455000D01*
X21246000Y-98349000D01*
X21391000Y-98204000D01*
X21497000Y-98022000D01*
X21499000Y-98017000D01*
X21552000Y-97816000D01*
X21552000Y-97607000D01*
X21501000Y-97412000D01*
X21501000Y-97410000D01*
X21393000Y-97223000D01*
X21392000Y-97222000D01*
X21243000Y-97074000D01*
X21242000Y-97073000D01*
X21069000Y-96972000D01*
X20859000Y-96915000D01*
X20651000Y-96915000D01*
X20445000Y-96972000D01*
X20265000Y-97075000D01*
X20117000Y-97223000D01*
X20014000Y-97403000D01*
X19957000Y-97609000D01*
X19957000Y-97660000D01*
X19934000Y-97715000D01*
X18489000Y-99159000D01*
X18488000Y-99161000D01*
X18476000Y-99177000D01*
X18448000Y-99205000D01*
X18447000Y-99207000D01*
X18418000Y-99263000D01*
X18415000Y-99269000D01*
X18390000Y-99308000D01*
X18388000Y-99313000D01*
X18382000Y-99335000D01*
X18378000Y-99348000D01*
X18363000Y-99379000D01*
X18354000Y-99442000D01*
X18352000Y-99451000D01*
X18339000Y-99498000D01*
X15953815Y-99498000D01*
X16286000Y-97234000D01*
X16869000Y-93251000D01*
X17104353Y-91638000D01*
X19832000Y-91638000D01*
X19834000Y-91683000D01*
X19834000Y-93394000D01*
X19833000Y-93407000D01*
X19834000Y-93458000D01*
X19834000Y-93530000D01*
X19835000Y-93538000D01*
X19834000Y-93538000D01*
X19836000Y-93547000D01*
X19837000Y-93556000D01*
X19838000Y-93590000D01*
X19855000Y-93646000D01*
X19857000Y-93653000D01*
X19868000Y-93704000D01*
X19879000Y-93725000D01*
X19885000Y-93738000D01*
X19895000Y-93769000D01*
X19931000Y-93818000D01*
X19936000Y-93827000D01*
X19967000Y-93882000D01*
X20014000Y-93925000D01*
X20255000Y-94166000D01*
X20275000Y-94201000D01*
X20328000Y-94404000D01*
X20329000Y-94405000D01*
X20433000Y-94585000D01*
X20580000Y-94733000D01*
X20581000Y-94734000D01*
X20768000Y-94841000D01*
X20965000Y-94893000D01*
X21177000Y-94893000D01*
X21374000Y-94841000D01*
X21561000Y-94734000D01*
X21562000Y-94733000D01*
X21710000Y-94584000D01*
X21711000Y-94583000D01*
X21812000Y-94410000D01*
X21869000Y-94201000D01*
X21869000Y-93992000D01*
X21812000Y-93786000D01*
X21709000Y-93606000D01*
X21561000Y-93458000D01*
X21381000Y-93355000D01*
X21149000Y-93290000D01*
X21088000Y-93210000D01*
X21088000Y-91995000D01*
X21111000Y-91940000D01*
X22379000Y-90673000D01*
X22381000Y-90669000D01*
X22394000Y-90652000D01*
X22419000Y-90628000D01*
X22419000Y-90627000D01*
X22444000Y-90576000D01*
X22449000Y-90568000D01*
X22478000Y-90522000D01*
X22486000Y-90492000D01*
X22492000Y-90476000D01*
X22504000Y-90453000D01*
X22512000Y-90396000D01*
X22514000Y-90387000D01*
X22527000Y-90335000D01*
X22535000Y-90317000D01*
X22646000Y-90124000D01*
X22698000Y-89927000D01*
X22698000Y-89715000D01*
X22647000Y-89520000D01*
X22647000Y-89518000D01*
X22539000Y-89331000D01*
X22538000Y-89330000D01*
X22390000Y-89183000D01*
X22209000Y-89078000D01*
X22004000Y-89024000D01*
X21795000Y-89024000D01*
X21597000Y-89076000D01*
X21411000Y-89183000D01*
X21263000Y-89331000D01*
X21160000Y-89511000D01*
X21103000Y-89717000D01*
X21103000Y-89926000D01*
X21143000Y-90076000D01*
X21123000Y-90154000D01*
X19983000Y-91293000D01*
X19981000Y-91297000D01*
X19968000Y-91314000D01*
X19943000Y-91339000D01*
X19918000Y-91390000D01*
X19913000Y-91398000D01*
X19885000Y-91442000D01*
X19882000Y-91449000D01*
X19875000Y-91475000D01*
X19870000Y-91490000D01*
X19858000Y-91513000D01*
X19858000Y-91514000D01*
X19850000Y-91570000D01*
X19848000Y-91580000D01*
X19832000Y-91638000D01*
X17104353Y-91638000D01*
X17422000Y-89461000D01*
X17940000Y-85901000D01*
X18090357Y-84863000D01*
X20977000Y-84863000D01*
X20980000Y-84931000D01*
X20980000Y-85522000D01*
X20978000Y-85540000D01*
X20980000Y-85615000D01*
X20980000Y-85668000D01*
X20982000Y-85683000D01*
X20982000Y-85693000D01*
X20983000Y-85722000D01*
X20984000Y-85728000D01*
X21004000Y-85793000D01*
X21006000Y-85801000D01*
X21013000Y-85839000D01*
X21024000Y-85859000D01*
X21030000Y-85873000D01*
X21042000Y-85908000D01*
X21084000Y-85967000D01*
X21088000Y-85974000D01*
X21110000Y-86015000D01*
X21112000Y-86017000D01*
X21150000Y-86051000D01*
X21154000Y-86054000D01*
X21495000Y-86396000D01*
X21515000Y-86430000D01*
X21568000Y-86630000D01*
X21675000Y-86817000D01*
X21676000Y-86818000D01*
X21825000Y-86966000D01*
X22003000Y-87068000D01*
X22208000Y-87125000D01*
X22419000Y-87125000D01*
X22625000Y-87068000D01*
X22624000Y-87068000D01*
X22802000Y-86966000D01*
X22951000Y-86818000D01*
X22952000Y-86817000D01*
X23059000Y-86630000D01*
X23111000Y-86433000D01*
X23111000Y-86224000D01*
X23058000Y-86023000D01*
X23056000Y-86018000D01*
X22950000Y-85836000D01*
X22803000Y-85689000D01*
X22621000Y-85585000D01*
X22622000Y-85585000D01*
X22418000Y-85530000D01*
X22384000Y-85510000D01*
X22257000Y-85383000D01*
X22234000Y-85328000D01*
X22234000Y-85220000D01*
X22257000Y-85165000D01*
X23398000Y-84025000D01*
X23400000Y-84021000D01*
X23413000Y-84004000D01*
X23438000Y-83979000D01*
X23463000Y-83928000D01*
X23468000Y-83920000D01*
X23497000Y-83874000D01*
X23505000Y-83844000D01*
X23511000Y-83828000D01*
X23523000Y-83805000D01*
X23531000Y-83748000D01*
X23533000Y-83738000D01*
X23549000Y-83680000D01*
X23547000Y-83635000D01*
X23547000Y-83342000D01*
X23557000Y-83304000D01*
X23661000Y-83124000D01*
X23718000Y-82917000D01*
X23718000Y-82709000D01*
X23661000Y-82503000D01*
X23558000Y-82323000D01*
X23410000Y-82175000D01*
X23230000Y-82072000D01*
X23231000Y-82072000D01*
X23024000Y-82015000D01*
X22816000Y-82015000D01*
X22606000Y-82072000D01*
X22433000Y-82173000D01*
X22432000Y-82174000D01*
X22283000Y-82322000D01*
X22282000Y-82323000D01*
X22174000Y-82510000D01*
X22174000Y-82512000D01*
X22123000Y-82707000D01*
X22123000Y-82919000D01*
X22175000Y-83116000D01*
X22273000Y-83287000D01*
X22260000Y-83388000D01*
X21130000Y-84517000D01*
X21126000Y-84522000D01*
X21119000Y-84531000D01*
X21115000Y-84536000D01*
X21090000Y-84564000D01*
X21084000Y-84572000D01*
X21060000Y-84620000D01*
X21027000Y-84673000D01*
X21018000Y-84706000D01*
X21013000Y-84720000D01*
X21004000Y-84737000D01*
X20997000Y-84788000D01*
X20995000Y-84798000D01*
X20977000Y-84863000D01*
X18090357Y-84863000D01*
X18417000Y-82608000D01*
X18848000Y-79622000D01*
X19042087Y-78268000D01*
X22288000Y-78268000D01*
X22288000Y-78477000D01*
X22341000Y-78678000D01*
X22343000Y-78683000D01*
X22449000Y-78865000D01*
X22594000Y-79010000D01*
X22776000Y-79116000D01*
X22778000Y-79117000D01*
X22982000Y-79171000D01*
X23191000Y-79171000D01*
X23388000Y-79119000D01*
X23575000Y-79012000D01*
X23576000Y-79011000D01*
X23724000Y-78862000D01*
X23725000Y-78861000D01*
X23826000Y-78688000D01*
X23883000Y-78478000D01*
X23883000Y-78270000D01*
X23826000Y-78064000D01*
X23722000Y-77883000D01*
X23712000Y-77845000D01*
X23712000Y-76976000D01*
X23735000Y-76921000D01*
X24671000Y-75986000D01*
X24673000Y-75982000D01*
X24686000Y-75965000D01*
X24711000Y-75941000D01*
X24711000Y-75940000D01*
X24736000Y-75889000D01*
X24741000Y-75881000D01*
X24770000Y-75835000D01*
X24772000Y-75831000D01*
X24779000Y-75806000D01*
X24783000Y-75793000D01*
X24798000Y-75760000D01*
X24807000Y-75700000D01*
X24809000Y-75691000D01*
X24822000Y-75643000D01*
X24819000Y-75574000D01*
X24819000Y-75162000D01*
X24829000Y-75124000D01*
X24935000Y-74941000D01*
X24937000Y-74936000D01*
X24990000Y-74735000D01*
X24990000Y-74526000D01*
X24938000Y-74329000D01*
X24831000Y-74142000D01*
X24830000Y-74141000D01*
X24681000Y-73993000D01*
X24503000Y-73891000D01*
X24504000Y-73891000D01*
X24298000Y-73834000D01*
X24087000Y-73834000D01*
X23882000Y-73891000D01*
X23704000Y-73993000D01*
X23555000Y-74141000D01*
X23554000Y-74142000D01*
X23447000Y-74329000D01*
X23395000Y-74526000D01*
X23395000Y-74735000D01*
X23448000Y-74936000D01*
X23450000Y-74941000D01*
X23556000Y-75124000D01*
X23566000Y-75162000D01*
X23566000Y-75284000D01*
X23543000Y-75339000D01*
X22607000Y-76274000D01*
X22605000Y-76278000D01*
X22592000Y-76295000D01*
X22567000Y-76320000D01*
X22542000Y-76371000D01*
X22537000Y-76379000D01*
X22509000Y-76423000D01*
X22506000Y-76430000D01*
X22499000Y-76456000D01*
X22494000Y-76471000D01*
X22482000Y-76494000D01*
X22482000Y-76495000D01*
X22474000Y-76551000D01*
X22472000Y-76561000D01*
X22456000Y-76619000D01*
X22458000Y-76664000D01*
X22458000Y-77845000D01*
X22448000Y-77883000D01*
X22339000Y-78071000D01*
X22339000Y-78073000D01*
X22288000Y-78268000D01*
X19042087Y-78268000D01*
X19227000Y-76978000D01*
X19550000Y-74717000D01*
X19549000Y-74717000D01*
X19810000Y-72873000D01*
X20002000Y-71486000D01*
X20123000Y-70592000D01*
X20168000Y-70202000D01*
X20123000Y-69811000D01*
X20001000Y-68912000D01*
X20002000Y-68912000D01*
X19809000Y-67524000D01*
X19587002Y-65959000D01*
X22931000Y-65959000D01*
X22931000Y-66168000D01*
X22986000Y-66374000D01*
X22988000Y-66379000D01*
X23091000Y-66553000D01*
X23102000Y-66592000D01*
X23102000Y-69742000D01*
X23101000Y-69755000D01*
X23102000Y-69807000D01*
X23102000Y-69878000D01*
X23103000Y-69886000D01*
X23102000Y-69886000D01*
X23104000Y-69895000D01*
X23105000Y-69904000D01*
X23106000Y-69938000D01*
X23123000Y-69994000D01*
X23125000Y-70001000D01*
X23136000Y-70052000D01*
X23147000Y-70073000D01*
X23153000Y-70086000D01*
X23163000Y-70117000D01*
X23199000Y-70166000D01*
X23204000Y-70175000D01*
X23235000Y-70230000D01*
X23282000Y-70273000D01*
X23374000Y-70365000D01*
X23394000Y-70400000D01*
X23447000Y-70600000D01*
X23554000Y-70787000D01*
X23555000Y-70788000D01*
X23704000Y-70936000D01*
X23882000Y-71038000D01*
X24087000Y-71095000D01*
X24298000Y-71095000D01*
X24504000Y-71038000D01*
X24503000Y-71038000D01*
X24681000Y-70936000D01*
X24830000Y-70788000D01*
X24831000Y-70787000D01*
X24938000Y-70600000D01*
X24990000Y-70403000D01*
X24990000Y-70191000D01*
X24938000Y-69994000D01*
X24830000Y-69807000D01*
X24681000Y-69658000D01*
X24678000Y-69656000D01*
X24503000Y-69556000D01*
X24501000Y-69555000D01*
X24418000Y-69533000D01*
X24356000Y-69452000D01*
X24356000Y-66592000D01*
X24366000Y-66554000D01*
X24471000Y-66371000D01*
X24526000Y-66166000D01*
X24526000Y-65961000D01*
X24471000Y-65756000D01*
X24367000Y-65574000D01*
X24218000Y-65425000D01*
X24036000Y-65321000D01*
X24037000Y-65321000D01*
X23831000Y-65266000D01*
X23626000Y-65266000D01*
X23421000Y-65321000D01*
X23236000Y-65427000D01*
X23094000Y-65572000D01*
X23093000Y-65574000D01*
X22985000Y-65754000D01*
X22931000Y-65959000D01*
X19587002Y-65959000D01*
X19547000Y-65677000D01*
X19222000Y-63411000D01*
X18841000Y-60763000D01*
X18672390Y-59596000D01*
X21988000Y-59596000D01*
X21991000Y-59663000D01*
X21991000Y-62602000D01*
X21989000Y-62620000D01*
X21991000Y-62705000D01*
X21991000Y-62749000D01*
X21993000Y-62764000D01*
X21993000Y-62774000D01*
X21994000Y-62803000D01*
X21995000Y-62809000D01*
X22015000Y-62874000D01*
X22017000Y-62882000D01*
X22025000Y-62921000D01*
X22035000Y-62940000D01*
X22041000Y-62954000D01*
X22053000Y-62989000D01*
X22095000Y-63048000D01*
X22099000Y-63055000D01*
X22121000Y-63096000D01*
X22123000Y-63098000D01*
X22161000Y-63132000D01*
X22165000Y-63135000D01*
X22395000Y-63366000D01*
X22415000Y-63400000D01*
X22469000Y-63606000D01*
X22573000Y-63782000D01*
X22579000Y-63790000D01*
X22720000Y-63931000D01*
X22725000Y-63934000D01*
X22903000Y-64040000D01*
X23108000Y-64094000D01*
X23317000Y-64094000D01*
X23523000Y-64039000D01*
X23525000Y-64039000D01*
X23702000Y-63934000D01*
X23741000Y-63923000D01*
X24238000Y-63923000D01*
X24247000Y-63922000D01*
X24412000Y-63890000D01*
X24590000Y-63791000D01*
X24593000Y-63789000D01*
X24719000Y-63646000D01*
X24723000Y-63640000D01*
X24801000Y-63470000D01*
X24826000Y-63275000D01*
X24826000Y-63274000D01*
X24791000Y-63088000D01*
X24790000Y-63085000D01*
X24696000Y-62912000D01*
X24557000Y-62778000D01*
X24557000Y-62777000D01*
X24385000Y-62694000D01*
X24383000Y-62693000D01*
X24232000Y-62669000D01*
X23741000Y-62669000D01*
X23703000Y-62659000D01*
X23520000Y-62554000D01*
X23521000Y-62554000D01*
X23307000Y-62497000D01*
X23245000Y-62416000D01*
X23245000Y-59952000D01*
X23268000Y-59896000D01*
X23463000Y-59703000D01*
X23467000Y-59697000D01*
X23480000Y-59680000D01*
X23505000Y-59656000D01*
X23505000Y-59655000D01*
X23530000Y-59604000D01*
X23535000Y-59596000D01*
X23564000Y-59550000D01*
X23572000Y-59520000D01*
X23578000Y-59504000D01*
X23590000Y-59481000D01*
X23598000Y-59424000D01*
X23600000Y-59414000D01*
X23616000Y-59356000D01*
X23614000Y-59311000D01*
X23614000Y-58487000D01*
X23624000Y-58449000D01*
X23732000Y-58261000D01*
X23784000Y-58064000D01*
X23784000Y-57855000D01*
X23731000Y-57654000D01*
X23729000Y-57649000D01*
X23623000Y-57467000D01*
X23478000Y-57322000D01*
X23296000Y-57216000D01*
X23294000Y-57215000D01*
X23090000Y-57161000D01*
X22881000Y-57161000D01*
X22684000Y-57213000D01*
X22497000Y-57320000D01*
X22496000Y-57321000D01*
X22348000Y-57470000D01*
X22347000Y-57471000D01*
X22246000Y-57644000D01*
X22189000Y-57854000D01*
X22189000Y-58062000D01*
X22246000Y-58269000D01*
X22350000Y-58449000D01*
X22360000Y-58487000D01*
X22360000Y-58999000D01*
X22337000Y-59054000D01*
X22141000Y-59249000D01*
X22137000Y-59254000D01*
X22130000Y-59263000D01*
X22126000Y-59268000D01*
X22101000Y-59296000D01*
X22095000Y-59304000D01*
X22071000Y-59352000D01*
X22038000Y-59405000D01*
X22029000Y-59438000D01*
X22024000Y-59452000D01*
X22015000Y-59469000D01*
X22008000Y-59520000D01*
X22006000Y-59530000D01*
X21988000Y-59596000D01*
X18672390Y-59596000D01*
X18409000Y-57773000D01*
X17930000Y-54476000D01*
X17411000Y-50912000D01*
X17357557Y-50546000D01*
X20775000Y-50546000D01*
X20775000Y-50755000D01*
X20830000Y-50961000D01*
X20832000Y-50966000D01*
X20935000Y-51140000D01*
X20946000Y-51179000D01*
X20946000Y-54191000D01*
X20935000Y-54230000D01*
X20830000Y-54407000D01*
X20830000Y-54409000D01*
X20775000Y-54615000D01*
X20775000Y-54824000D01*
X20829000Y-55029000D01*
X20933000Y-55205000D01*
X20939000Y-55213000D01*
X21080000Y-55354000D01*
X21085000Y-55357000D01*
X21263000Y-55463000D01*
X21468000Y-55517000D01*
X21677000Y-55517000D01*
X21882000Y-55463000D01*
X22062000Y-55355000D01*
X22064000Y-55354000D01*
X22209000Y-55212000D01*
X22315000Y-55027000D01*
X22370000Y-54822000D01*
X22370000Y-54617000D01*
X22315000Y-54412000D01*
X22210000Y-54229000D01*
X22200000Y-54191000D01*
X22200000Y-51179000D01*
X22210000Y-51141000D01*
X22315000Y-50958000D01*
X22370000Y-50753000D01*
X22370000Y-50548000D01*
X22315000Y-50343000D01*
X22209000Y-50158000D01*
X22064000Y-50016000D01*
X22062000Y-50015000D01*
X21882000Y-49907000D01*
X21677000Y-49853000D01*
X21468000Y-49853000D01*
X21263000Y-49907000D01*
X21085000Y-50013000D01*
X21080000Y-50017000D01*
X20939000Y-50158000D01*
X20933000Y-50165000D01*
X20829000Y-50341000D01*
X20775000Y-50546000D01*
X17357557Y-50546000D01*
X16857000Y-47118000D01*
X16412152Y-44081000D01*
X19752000Y-44081000D01*
X19754000Y-44134000D01*
X19754000Y-46539000D01*
X19753000Y-46552000D01*
X19754000Y-46587000D01*
X19754000Y-46674000D01*
X19755000Y-46682000D01*
X19754000Y-46682000D01*
X19756000Y-46691000D01*
X19757000Y-46700000D01*
X19758000Y-46735000D01*
X19775000Y-46789000D01*
X19778000Y-46811000D01*
X19778000Y-46926000D01*
X19833000Y-47131000D01*
X19937000Y-47313000D01*
X20086000Y-47462000D01*
X20268000Y-47566000D01*
X20473000Y-47621000D01*
X20678000Y-47621000D01*
X20884000Y-47566000D01*
X20883000Y-47566000D01*
X21068000Y-47460000D01*
X21067000Y-47460000D01*
X21210000Y-47315000D01*
X21211000Y-47313000D01*
X21319000Y-47133000D01*
X21373000Y-46928000D01*
X21373000Y-46721000D01*
X21319000Y-46514000D01*
X21215000Y-46338000D01*
X21210000Y-46331000D01*
X21067000Y-46188000D01*
X21035000Y-46161000D01*
X21008000Y-46101000D01*
X21008000Y-44439000D01*
X21031000Y-44384000D01*
X21273000Y-44143000D01*
X21280000Y-44132000D01*
X21289000Y-44120000D01*
X21311000Y-44097000D01*
X21313000Y-44095000D01*
X21332000Y-44054000D01*
X21337000Y-44045000D01*
X21371000Y-43995000D01*
X21380000Y-43959000D01*
X21385000Y-43944000D01*
X21395000Y-43925000D01*
X21404000Y-43872000D01*
X21405000Y-43866000D01*
X21422000Y-43802000D01*
X21419000Y-43746000D01*
X21419000Y-43533000D01*
X21430000Y-43494000D01*
X21533000Y-43320000D01*
X21535000Y-43315000D01*
X21590000Y-43110000D01*
X21590000Y-42900000D01*
X21535000Y-42695000D01*
X21535000Y-42694000D01*
X21427000Y-42513000D01*
X21427000Y-42512000D01*
X21282000Y-42367000D01*
X21100000Y-42263000D01*
X21101000Y-42263000D01*
X21041073Y-42247000D01*
X142160000Y-42247000D01*
X142160000Y-42433000D01*
X142210000Y-42617000D01*
X142301000Y-42773000D01*
X142430000Y-42902000D01*
X142433000Y-42904000D01*
X142525000Y-42958000D01*
X142525000Y-43129000D01*
X142431000Y-43186000D01*
X142428000Y-43188000D01*
X142300000Y-43313000D01*
X142299000Y-43314000D01*
X142211000Y-43469000D01*
X142206000Y-43482000D01*
X142160000Y-43647000D01*
X142160000Y-43833000D01*
X142211000Y-44018000D01*
X142302000Y-44174000D01*
X142431000Y-44303000D01*
X142594000Y-44397000D01*
X142795000Y-44448000D01*
X142852000Y-44505000D01*
X142910000Y-44716000D01*
X143001000Y-44873000D01*
X143131000Y-45003000D01*
X143293000Y-45096000D01*
X143466000Y-45141000D01*
X143651000Y-45141000D01*
X143824000Y-45096000D01*
X143986000Y-45003000D01*
X144116000Y-44873000D01*
X144118000Y-44870000D01*
X144175000Y-44776000D01*
X144347000Y-44778000D01*
X144399000Y-44870000D01*
X144401000Y-44873000D01*
X144531000Y-45003000D01*
X144693000Y-45096000D01*
X144866000Y-45141000D01*
X145051000Y-45141000D01*
X145224000Y-45096000D01*
X145386000Y-45003000D01*
X145516000Y-44873000D01*
X145607000Y-44716000D01*
X145665000Y-44505000D01*
X145722000Y-44448000D01*
X145923000Y-44397000D01*
X146086000Y-44303000D01*
X146215000Y-44174000D01*
X146306000Y-44018000D01*
X146357000Y-43833000D01*
X146357000Y-43647000D01*
X146311000Y-43482000D01*
X146306000Y-43469000D01*
X146218000Y-43314000D01*
X146217000Y-43313000D01*
X146089000Y-43188000D01*
X146086000Y-43186000D01*
X145992000Y-43129000D01*
X145992000Y-42958000D01*
X146084000Y-42904000D01*
X146087000Y-42902000D01*
X146216000Y-42773000D01*
X146307000Y-42617000D01*
X146357000Y-42433000D01*
X146357000Y-42247000D01*
X146311000Y-42082000D01*
X146306000Y-42069000D01*
X146218000Y-41914000D01*
X146217000Y-41913000D01*
X146089000Y-41788000D01*
X146086000Y-41786000D01*
X145930000Y-41692000D01*
X145925000Y-41690000D01*
X145724000Y-41638000D01*
X145666000Y-41582000D01*
X145609000Y-41378000D01*
X145606000Y-41369000D01*
X145518000Y-41214000D01*
X145517000Y-41213000D01*
X145389000Y-41088000D01*
X145386000Y-41086000D01*
X145230000Y-40992000D01*
X145225000Y-40990000D01*
X145052000Y-40945000D01*
X144865000Y-40945000D01*
X144692000Y-40990000D01*
X144687000Y-40992000D01*
X144531000Y-41086000D01*
X144528000Y-41088000D01*
X144400000Y-41213000D01*
X144400000Y-41214000D01*
X144348000Y-41308000D01*
X144174000Y-41310000D01*
X144118000Y-41214000D01*
X144117000Y-41213000D01*
X143989000Y-41088000D01*
X143986000Y-41086000D01*
X143830000Y-40992000D01*
X143825000Y-40990000D01*
X143652000Y-40945000D01*
X143465000Y-40945000D01*
X143292000Y-40990000D01*
X143287000Y-40992000D01*
X143131000Y-41086000D01*
X143128000Y-41088000D01*
X143000000Y-41213000D01*
X142999000Y-41214000D01*
X142911000Y-41369000D01*
X142908000Y-41378000D01*
X142851000Y-41582000D01*
X142793000Y-41638000D01*
X142592000Y-41690000D01*
X142587000Y-41692000D01*
X142431000Y-41786000D01*
X142428000Y-41788000D01*
X142300000Y-41913000D01*
X142299000Y-41914000D01*
X142211000Y-42069000D01*
X142206000Y-42082000D01*
X142160000Y-42247000D01*
X21041073Y-42247000D01*
X20895000Y-42208000D01*
X20690000Y-42208000D01*
X20484000Y-42263000D01*
X20482000Y-42264000D01*
X20307000Y-42364000D01*
X20304000Y-42366000D01*
X20155000Y-42514000D01*
X20154000Y-42515000D01*
X20047000Y-42702000D01*
X19995000Y-42899000D01*
X19995000Y-43111000D01*
X20047000Y-43310000D01*
X20119000Y-43435000D01*
X20106000Y-43536000D01*
X19899000Y-43742000D01*
X19896000Y-43746000D01*
X19893000Y-43751000D01*
X19886000Y-43759000D01*
X19863000Y-43783000D01*
X19860000Y-43787000D01*
X19835000Y-43840000D01*
X19831000Y-43848000D01*
X19804000Y-43889000D01*
X19803000Y-43893000D01*
X19794000Y-43923000D01*
X19789000Y-43938000D01*
X19780000Y-43955000D01*
X19778000Y-43961000D01*
X19771000Y-44009000D01*
X19769000Y-44018000D01*
X19752000Y-44081000D01*
X16412152Y-44081000D01*
X16273000Y-43131000D01*
X15666000Y-38990000D01*
X14953285Y-34137000D01*
X18343000Y-34137000D01*
X18343000Y-34348000D01*
X18397000Y-34553000D01*
X18503000Y-34730000D01*
X18514000Y-34770000D01*
X18514000Y-38444000D01*
X18513000Y-38457000D01*
X18514000Y-38492000D01*
X18514000Y-38579000D01*
X18515000Y-38587000D01*
X18514000Y-38587000D01*
X18516000Y-38596000D01*
X18517000Y-38605000D01*
X18518000Y-38639000D01*
X18535000Y-38695000D01*
X18537000Y-38702000D01*
X18548000Y-38753000D01*
X18559000Y-38774000D01*
X18565000Y-38787000D01*
X18575000Y-38818000D01*
X18611000Y-38867000D01*
X18616000Y-38876000D01*
X18648000Y-38933000D01*
X18696000Y-38976000D01*
X18699000Y-38978000D01*
X18746000Y-39026000D01*
X18765000Y-39059000D01*
X18824000Y-39269000D01*
X18927000Y-39448000D01*
X19075000Y-39596000D01*
X19262000Y-39703000D01*
X19459000Y-39755000D01*
X19671000Y-39755000D01*
X19868000Y-39703000D01*
X20055000Y-39596000D01*
X20203000Y-39448000D01*
X20310000Y-39261000D01*
X20362000Y-39064000D01*
X20362000Y-38852000D01*
X20310000Y-38655000D01*
X20204000Y-38469000D01*
X20055000Y-38320000D01*
X19877000Y-38218000D01*
X19836000Y-38210000D01*
X19768000Y-38127000D01*
X19768000Y-34770000D01*
X19778000Y-34732000D01*
X19883000Y-34551000D01*
X19885000Y-34546000D01*
X19938000Y-34345000D01*
X19938000Y-34136000D01*
X19886000Y-33939000D01*
X19779000Y-33752000D01*
X19778000Y-33751000D01*
X19629000Y-33603000D01*
X19451000Y-33501000D01*
X19452000Y-33501000D01*
X19246000Y-33444000D01*
X19035000Y-33444000D01*
X18828000Y-33501000D01*
X18651000Y-33604000D01*
X18506000Y-33749000D01*
X18506000Y-33750000D01*
X18398000Y-33931000D01*
X18398000Y-33932000D01*
X18343000Y-34137000D01*
X14953285Y-34137000D01*
X14707000Y-32460000D01*
X13894000Y-26921000D01*
X13813440Y-26369000D01*
X17217000Y-26369000D01*
X17217000Y-26579000D01*
X17272000Y-26785000D01*
X17272000Y-26786000D01*
X17377000Y-26963000D01*
X17388000Y-27002000D01*
X17388000Y-30519000D01*
X17387000Y-30532000D01*
X17388000Y-30567000D01*
X17388000Y-30653000D01*
X17389000Y-30661000D01*
X17388000Y-30661000D01*
X17390000Y-30670000D01*
X17391000Y-30679000D01*
X17392000Y-30711000D01*
X17393000Y-30719000D01*
X17411000Y-30776000D01*
X17413000Y-30784000D01*
X17422000Y-30830000D01*
X17434000Y-30852000D01*
X17439000Y-30864000D01*
X17448000Y-30890000D01*
X17452000Y-30897000D01*
X17489000Y-30949000D01*
X17493000Y-30957000D01*
X17519000Y-31004000D01*
X17520000Y-31005000D01*
X17558000Y-31039000D01*
X17562000Y-31042000D01*
X17615000Y-31096000D01*
X17635000Y-31130000D01*
X17688000Y-31330000D01*
X17795000Y-31517000D01*
X17943000Y-31665000D01*
X18130000Y-31772000D01*
X18327000Y-31824000D01*
X18539000Y-31824000D01*
X18736000Y-31772000D01*
X18923000Y-31665000D01*
X19071000Y-31517000D01*
X19174000Y-31338000D01*
X19231000Y-31131000D01*
X19231000Y-30923000D01*
X19174000Y-30717000D01*
X19071000Y-30537000D01*
X18923000Y-30389000D01*
X18737000Y-30283000D01*
X18691000Y-30263000D01*
X18642000Y-30188000D01*
X18642000Y-27003000D01*
X18652000Y-26965000D01*
X18760000Y-26777000D01*
X18812000Y-26580000D01*
X18812000Y-26368000D01*
X18760000Y-26171000D01*
X18653000Y-25984000D01*
X18652000Y-25983000D01*
X18503000Y-25835000D01*
X18500000Y-25833000D01*
X18325000Y-25733000D01*
X18323000Y-25732000D01*
X18117000Y-25677000D01*
X17912000Y-25677000D01*
X17707000Y-25732000D01*
X17525000Y-25836000D01*
X17381000Y-25980000D01*
X17380000Y-25982000D01*
X17272000Y-26163000D01*
X17272000Y-26164000D01*
X17217000Y-26369000D01*
X13813440Y-26369000D01*
X13218000Y-22289000D01*
X12803663Y-19438000D01*
X15846000Y-19438000D01*
X15846000Y-19646000D01*
X15903000Y-19853000D01*
X16007000Y-20033000D01*
X16017000Y-20071000D01*
X16017000Y-21698000D01*
X16016000Y-21711000D01*
X16017000Y-21746000D01*
X16017000Y-21833000D01*
X16018000Y-21841000D01*
X16017000Y-21841000D01*
X16019000Y-21850000D01*
X16020000Y-21859000D01*
X16021000Y-21893000D01*
X16038000Y-21949000D01*
X16040000Y-21956000D01*
X16051000Y-22007000D01*
X16062000Y-22028000D01*
X16068000Y-22041000D01*
X16078000Y-22072000D01*
X16114000Y-22121000D01*
X16119000Y-22130000D01*
X16150000Y-22185000D01*
X16197000Y-22228000D01*
X16308000Y-22339000D01*
X16331000Y-22394000D01*
X16331000Y-23633000D01*
X16330000Y-23642000D01*
X16325000Y-23686000D01*
X16335000Y-23734000D01*
X16336000Y-23749000D01*
X16336000Y-23771000D01*
X16355000Y-23843000D01*
X16356000Y-23850000D01*
X16361000Y-23880000D01*
X16364000Y-23886000D01*
X16367000Y-23894000D01*
X16371000Y-23906000D01*
X16388000Y-23971000D01*
X16495000Y-24157000D01*
X16496000Y-24158000D01*
X16645000Y-24306000D01*
X16823000Y-24408000D01*
X17028000Y-24465000D01*
X17239000Y-24465000D01*
X17446000Y-24408000D01*
X17623000Y-24305000D01*
X17768000Y-24160000D01*
X17876000Y-23978000D01*
X17931000Y-23772000D01*
X17931000Y-23562000D01*
X17877000Y-23360000D01*
X17876000Y-23356000D01*
X17768000Y-23175000D01*
X17768000Y-23174000D01*
X17608000Y-23014000D01*
X17585000Y-22959000D01*
X17585000Y-22194000D01*
X17586000Y-22185000D01*
X17585000Y-22148000D01*
X17585000Y-22058000D01*
X17584000Y-22050000D01*
X17585000Y-22050000D01*
X17583000Y-22041000D01*
X17582000Y-22032000D01*
X17581000Y-22000000D01*
X17581000Y-21997000D01*
X17562000Y-21935000D01*
X17560000Y-21927000D01*
X17551000Y-21881000D01*
X17539000Y-21859000D01*
X17534000Y-21847000D01*
X17526000Y-21822000D01*
X17521000Y-21814000D01*
X17484000Y-21762000D01*
X17480000Y-21754000D01*
X17454000Y-21707000D01*
X17453000Y-21706000D01*
X17415000Y-21672000D01*
X17411000Y-21669000D01*
X17294000Y-21551000D01*
X17271000Y-21496000D01*
X17271000Y-20071000D01*
X17281000Y-20033000D01*
X17389000Y-19845000D01*
X17441000Y-19648000D01*
X17441000Y-19436000D01*
X17390000Y-19241000D01*
X17390000Y-19239000D01*
X17282000Y-19052000D01*
X17281000Y-19051000D01*
X17132000Y-18903000D01*
X17131000Y-18902000D01*
X16958000Y-18801000D01*
X16748000Y-18744000D01*
X16540000Y-18744000D01*
X16334000Y-18801000D01*
X16154000Y-18904000D01*
X16006000Y-19052000D01*
X15903000Y-19232000D01*
X15846000Y-19438000D01*
X12803663Y-19438000D01*
X12664000Y-18477000D01*
X12663000Y-18477000D01*
X12222000Y-15406000D01*
X11882000Y-12992000D01*
X11621000Y-11087000D01*
X11622000Y-11085000D01*
X11464000Y-9856000D01*
X11462000Y-9854000D01*
X11348000Y-8852000D01*
X11348000Y-8850000D01*
X11295000Y-8253000D01*
X11295000Y-8249000D01*
X11283000Y-7876000D01*
X11283000Y-7868000D01*
X11299000Y-7666000D01*
X11300000Y-7659000D01*
X11374000Y-7239000D01*
X11374000Y-7236000D01*
X11458000Y-6847000D01*
X11458000Y-6844000D01*
X11560000Y-6444000D01*
X11561000Y-6441000D01*
X11666000Y-6091000D01*
X11667000Y-6088000D01*
X11794000Y-5723000D01*
X11795000Y-5719000D01*
X11935000Y-5375000D01*
X11936000Y-5372000D01*
X12079000Y-5059000D01*
X12081000Y-5056000D01*
X12248000Y-4734000D01*
X12250000Y-4731000D01*
X12442000Y-4401000D01*
X12444000Y-4398000D01*
X12636000Y-4102000D01*
X12638000Y-4099000D01*
X12866000Y-3779000D01*
X12868000Y-3776000D01*
X13102000Y-3474000D01*
X13104000Y-3471000D01*
X13443000Y-3079000D01*
X13446000Y-3076000D01*
X13822000Y-2692000D01*
X13825000Y-2689000D01*
X14220000Y-2335000D01*
X14223000Y-2332000D01*
X14634000Y-2007000D01*
X14638000Y-2004000D01*
X15073000Y-1702000D01*
X15077000Y-1700000D01*
X15529000Y-1426000D01*
X15533000Y-1423000D01*
X16002000Y-1175000D01*
X16006000Y-1173000D01*
X16509000Y-946000D01*
X16513000Y-945000D01*
X17003000Y-756000D01*
X17007000Y-755000D01*
X17539000Y-585000D01*
X17543000Y-584000D01*
X18071000Y-449000D01*
X18075000Y-448000D01*
X18607000Y-343000D01*
X18621000Y-341000D01*
X21942000Y-312000D01*
X21943000Y-312000D01*
X30866000Y-290000D01*
X37392000Y-282000D01*
X37480000Y-370000D01*
X37480000Y-12155000D01*
X37532000Y-12155000D01*
X37613000Y-12217000D01*
X37921000Y-13362000D01*
X38768000Y-14831000D01*
X39970000Y-16033000D01*
X41439000Y-16880000D01*
X43083000Y-17321000D01*
X52212000Y-17321000D01*
X52212000Y-17269000D01*
X52274000Y-17188000D01*
X53420000Y-16880000D01*
X53419000Y-16880000D01*
X54888000Y-16033000D01*
X56090000Y-14831000D01*
X56937000Y-13362000D01*
X57378000Y-11718000D01*
X57378000Y-354000D01*
X57466000Y-266000D01*
X61006000Y-264000D01*
X80001000Y-261000D01*
X81392000Y-261000D01*
X81480000Y-349000D01*
X81480000Y-11718000D01*
X81921000Y-13362000D01*
X82768000Y-14831000D01*
X83970000Y-16033000D01*
X85439000Y-16880000D01*
X87083000Y-17321000D01*
X95775000Y-17321000D01*
X97420000Y-16880000D01*
X97419000Y-16880000D01*
X98888000Y-16033000D01*
G37*
%TD.AperFunction*%
%TD*%
M02*
