%TF.GenerationSoftware,Flux,Pcbnew,7.0.11-7.0.11~ubuntu20.04.1*%
%TF.CreationDate,2024-08-17T07:39:32+00:00*%
%TF.ProjectId,input,696e7075-742e-46b6-9963-61645f706362,rev?*%
%TF.SameCoordinates,Original*%
%TF.FileFunction,Copper,L2,Bot*%
%TF.FilePolarity,Positive*%
%FSLAX46Y46*%
G04 Gerber Fmt 4.6, Leading zero omitted, Abs format (unit mm)*
G04 Filename: pcbrobot*
G04 Build it with Flux! Visit our site at: https://www.flux.ai (PCBNEW 7.0.11-7.0.11~ubuntu20.04.1) date 2024-08-17 07:39:32*
%MOMM*%
%LPD*%
G01*
G04 APERTURE LIST*
G04 Aperture macros list*
%AMFreePoly0*
4,1,5,0.600000,-0.600000,-0.600000,-0.600000,-0.600000,0.600000,0.600000,0.600000,0.600000,-0.600000,0.600000,-0.600000,$1*%
%AMFreePoly1*
4,1,5,0.810000,-0.810000,-0.810000,-0.810000,-0.810000,0.810000,0.810000,0.810000,0.810000,-0.810000,0.810000,-0.810000,$1*%
%AMFreePoly2*
4,1,5,0.952500,-1.000000,-0.952500,-1.000000,-0.952500,1.000000,0.952500,1.000000,0.952500,-1.000000,0.952500,-1.000000,$1*%
%AMFreePoly3*
4,1,129,0.022069,0.299187,0.036723,0.297744,0.051289,0.295583,0.065730,0.292711,0.080014,0.289133,0.094105,0.284858,0.107969,0.279898,0.121572,0.274263,0.134883,0.267967,0.147869,0.261026,0.160499,0.253456,0.172742,0.245275,0.184569,0.236504,0.195952,0.227163,0.206862,0.217274,0.217274,0.206862,0.227163,0.195952,0.236504,0.184569,0.245275,0.172742,0.253456,0.160499,
0.261026,0.147869,0.267967,0.134883,0.274263,0.121572,0.279898,0.107969,0.284858,0.094105,0.289133,0.080014,0.292711,0.065730,0.295583,0.051289,0.297744,0.036723,0.299187,0.022069,0.299910,0.007362,0.299910,-0.007362,0.299187,-0.022069,0.297744,-0.036723,0.295583,-0.051289,0.292711,-0.065730,0.289133,-0.080014,0.284858,-0.094105,0.279898,-0.107969,0.274263,-0.121572,
0.267967,-0.134883,0.261026,-0.147869,0.253456,-0.160499,0.245275,-0.172742,0.236504,-0.184569,0.227163,-0.195952,0.217274,-0.206862,0.206862,-0.217274,0.195952,-0.227163,0.184569,-0.236504,0.172742,-0.245275,0.160499,-0.253456,0.147869,-0.261026,0.134883,-0.267967,0.121572,-0.274263,0.107969,-0.279898,0.094105,-0.284858,0.080014,-0.289133,0.065730,-0.292711,0.051289,-0.295583,
0.036723,-0.297744,0.022069,-0.299187,0.007362,-0.299910,-0.007362,-0.299910,-0.022069,-0.299187,-0.036723,-0.297744,-0.051289,-0.295583,-0.065730,-0.292711,-0.080014,-0.289133,-0.094105,-0.284858,-0.107969,-0.279898,-0.121572,-0.274263,-0.134883,-0.267967,-0.147869,-0.261026,-0.160499,-0.253456,-0.172742,-0.245275,-0.184569,-0.236504,-0.195952,-0.227163,-0.206862,-0.217274,-0.217274,-0.206862,
-0.227163,-0.195952,-0.236504,-0.184569,-0.245275,-0.172742,-0.253456,-0.160499,-0.261026,-0.147869,-0.267967,-0.134883,-0.274263,-0.121572,-0.279898,-0.107969,-0.284858,-0.094105,-0.289133,-0.080014,-0.292711,-0.065730,-0.295583,-0.051289,-0.297744,-0.036723,-0.299187,-0.022069,-0.299910,-0.007362,-0.299910,0.007362,-0.299187,0.022069,-0.297744,0.036723,-0.295583,0.051289,-0.292711,0.065730,
-0.289133,0.080014,-0.284858,0.094105,-0.279898,0.107969,-0.274263,0.121572,-0.267967,0.134883,-0.261026,0.147869,-0.253456,0.160499,-0.245275,0.172742,-0.236504,0.184569,-0.227163,0.195952,-0.217274,0.206862,-0.206862,0.217274,-0.195952,0.227163,-0.184569,0.236504,-0.172742,0.245275,-0.160499,0.253456,-0.147869,0.261026,-0.134883,0.267967,-0.121572,0.274263,-0.107969,0.279898,
-0.094105,0.284858,-0.080014,0.289133,-0.065730,0.292711,-0.051289,0.295583,-0.036723,0.297744,-0.022069,0.299187,-0.007362,0.299910,0.007362,0.299910,0.022069,0.299187,0.022069,0.299187,$1*%
G04 Aperture macros list end*
%TA.AperFunction,ComponentPad*%
%ADD10FreePoly0,0.000000*%
%TD*%
%TA.AperFunction,ComponentPad*%
%ADD11C,1.200000*%
%TD*%
%TA.AperFunction,ComponentPad*%
%ADD12C,1.620000*%
%TD*%
%TA.AperFunction,ComponentPad*%
%ADD13FreePoly1,180.000000*%
%TD*%
%TA.AperFunction,ComponentPad*%
%ADD14O,2.844800X1.422400*%
%TD*%
%TA.AperFunction,ComponentPad*%
%ADD15C,0.400000*%
%TD*%
%TA.AperFunction,ComponentPad*%
%ADD16O,1.905000X2.000000*%
%TD*%
%TA.AperFunction,ComponentPad*%
%ADD17FreePoly2,0.000000*%
%TD*%
%TA.AperFunction,ComponentPad*%
%ADD18O,1.050000X2.100000*%
%TD*%
%TA.AperFunction,ComponentPad*%
%ADD19FreePoly3,0.000000*%
%TD*%
%TA.AperFunction,Conductor*%
%ADD20C,0.254000*%
%TD*%
%TA.AperFunction,Conductor*%
%ADD21C,0.150000*%
%TD*%
G04 APERTURE END LIST*
D10*
%TO.P,,11dd451d-b724-434b-ae7b-606707503aae__069e37d8-aeec-4689-b924-a539c6a0826c*%
%TO.N,N/C*%
X45231600Y-87592100D03*
D11*
%TO.P,,11dd451d-b724-434b-ae7b-606707503aae__c7aa87eb-2d7b-4b05-9499-11955025c951*%
X50231600Y-87592100D03*
D12*
%TO.P,,3d4fb439-9a18-4c60-baa4-a70e2f1d5308__0041bf39-893d-403b-bf32-5d748c988afa*%
X42598647Y-57528200D03*
%TO.P,,3d4fb439-9a18-4c60-baa4-a70e2f1d5308__31e907fe-b799-443e-a9e1-12bec736ea5f*%
X42598634Y-62608200D03*
D13*
%TO.P,,3d4fb439-9a18-4c60-baa4-a70e2f1d5308__3d236b8d-7dc2-4f27-9f6a-d5ac129cbeee*%
X42598600Y-75308200D03*
D12*
%TO.P,,3d4fb439-9a18-4c60-baa4-a70e2f1d5308__3e2ce5b4-0b03-4a38-abb4-546880fbbcb0*%
X42598607Y-72768200D03*
%TO.P,,3d4fb439-9a18-4c60-baa4-a70e2f1d5308__4d3c38e8-8bf1-4557-837e-e6efb30b13d6*%
X42598620Y-67688200D03*
%TO.P,,3d4fb439-9a18-4c60-baa4-a70e2f1d5308__50f37a7b-065a-4ae4-9a8f-531017cc8614*%
X42598640Y-60068200D03*
%TO.P,,3d4fb439-9a18-4c60-baa4-a70e2f1d5308__7403d676-b909-4059-8d52-5e6c6c17cb13*%
X37518644Y-58798187D03*
%TO.P,,3d4fb439-9a18-4c60-baa4-a70e2f1d5308__9836daf0-5e4d-45c2-b167-878f183ea3d4*%
X37518610Y-71498187D03*
%TO.P,,3d4fb439-9a18-4c60-baa4-a70e2f1d5308__a84dd680-fb21-4979-abb8-4e27cbb38ae9*%
X37518630Y-63878187D03*
%TO.P,,3d4fb439-9a18-4c60-baa4-a70e2f1d5308__ae4a3ac4-5cd6-4d57-83e9-d0a2ef3c5c10*%
X37518624Y-66418187D03*
%TO.P,,3d4fb439-9a18-4c60-baa4-a70e2f1d5308__b65f6948-eab0-4244-a83f-8731517909b9*%
X42598627Y-65148200D03*
%TO.P,,3d4fb439-9a18-4c60-baa4-a70e2f1d5308__cc6eac05-0780-4057-838a-3533a07bd80e*%
X37518637Y-61338187D03*
%TO.P,,3d4fb439-9a18-4c60-baa4-a70e2f1d5308__ebddf6eb-e30f-40ac-a593-5dec744e30d8*%
X37518603Y-74038187D03*
%TO.P,,3d4fb439-9a18-4c60-baa4-a70e2f1d5308__eddd9a3f-838c-4717-beb6-0b8de3e6b6f8*%
X37518617Y-68958187D03*
%TO.P,,3d4fb439-9a18-4c60-baa4-a70e2f1d5308__ef127274-4f96-45d5-a892-edd8f8a8043d*%
X42598613Y-70228200D03*
D14*
%TO.P,,7950b41d-4d9a-49e5-8af3-aa804f3a5f31__0665d034-0e3b-4982-b9f7-27379619e52e*%
X39149995Y-107010400D03*
%TO.P,,7950b41d-4d9a-49e5-8af3-aa804f3a5f31__3851f02c-9e34-4638-9440-794def37075c*%
X39150005Y-109550400D03*
D10*
%TO.P,,81d83770-3d27-43c1-bd38-5f4c3ec441b4__069e37d8-aeec-4689-b924-a539c6a0826c*%
X56799500Y-87361400D03*
D11*
%TO.P,,81d83770-3d27-43c1-bd38-5f4c3ec441b4__c7aa87eb-2d7b-4b05-9499-11955025c951*%
X61799500Y-87361400D03*
D14*
%TO.P,,87cefd8e-180d-49af-bb2f-7a21747308f0__0665d034-0e3b-4982-b9f7-27379619e52e*%
X38044995Y-28865700D03*
%TO.P,,87cefd8e-180d-49af-bb2f-7a21747308f0__3851f02c-9e34-4638-9440-794def37075c*%
X38045005Y-31405700D03*
D15*
%TO.P,,b97e5510-c85f-47e8-81e7-1995856569ba__ee3a696f-ef70-402c-ab0c-7137ed4eee28.defaultFootprint.mounts.183bc2e5b0fd3164e75ded3f1243107f*%
X129438099Y-32105604D03*
%TO.P,,b97e5510-c85f-47e8-81e7-1995856569ba__ee3a696f-ef70-402c-ab0c-7137ed4eee28.defaultFootprint.mounts.9dc978c55082aad2fafacdbd9f5f57bc*%
X129438098Y-30705604D03*
%TO.P,,b97e5510-c85f-47e8-81e7-1995856569ba__ee3a696f-ef70-402c-ab0c-7137ed4eee28.defaultFootprint.mounts.a0d68b55a491274f814daab068f0c950*%
X130838099Y-32105603D03*
%TO.P,,b97e5510-c85f-47e8-81e7-1995856569ba__ee3a696f-ef70-402c-ab0c-7137ed4eee28.defaultFootprint.mounts.afcd757d940930679b843bc1e4386240*%
X130838098Y-30705603D03*
%TO.P,,b97e5510-c85f-47e8-81e7-1995856569ba__ee3a696f-ef70-402c-ab0c-7137ed4eee28.defaultFootprint.mounts.4504ff15bdcf4818a54146cc7a8e9a0d*%
X132238099Y-32105601D03*
%TO.P,,b97e5510-c85f-47e8-81e7-1995856569ba__ee3a696f-ef70-402c-ab0c-7137ed4eee28.defaultFootprint.mounts.19f3852e009ba6bfae8a2fce513ef1dd*%
X132238098Y-30705601D03*
%TO.P,,b97e5510-c85f-47e8-81e7-1995856569ba__ee3a696f-ef70-402c-ab0c-7137ed4eee28.defaultFootprint.mounts.6d4d26d8edc27532900a7c937b5e863d*%
X130138100Y-32805603D03*
%TO.P,,b97e5510-c85f-47e8-81e7-1995856569ba__ee3a696f-ef70-402c-ab0c-7137ed4eee28.defaultFootprint.mounts.f2ecf32f083cf9b5783a264d7a48b752*%
X130138098Y-31405603D03*
%TO.P,,b97e5510-c85f-47e8-81e7-1995856569ba__ee3a696f-ef70-402c-ab0c-7137ed4eee28.defaultFootprint.mounts.cf10f8cc0c36fe03b55323802961a88d*%
X130138097Y-30005603D03*
%TO.P,,b97e5510-c85f-47e8-81e7-1995856569ba__ee3a696f-ef70-402c-ab0c-7137ed4eee28.defaultFootprint.mounts.52e844226e796b1c42a9f7f1323ab2f7*%
X131538100Y-32805602D03*
%TO.P,,b97e5510-c85f-47e8-81e7-1995856569ba__ee3a696f-ef70-402c-ab0c-7137ed4eee28.defaultFootprint.mounts.a17b4eabb5e4ad17dbcba1ef557d9230*%
X131538097Y-30005602D03*
%TO.P,,b97e5510-c85f-47e8-81e7-1995856569ba__ee3a696f-ef70-402c-ab0c-7137ed4eee28.defaultFootprint.mounts.fab9ee6953aa1da2d8a8f965443f1f1b*%
X131538098Y-31405602D03*
D16*
%TO.P,,c3ee3767-9d8e-4543-943a-458ba69a5502__45b10458-e8f4-d6e5-f2f4-e885c335e724*%
X39150000Y-83100500D03*
D17*
%TO.P,,c3ee3767-9d8e-4543-943a-458ba69a5502__6744baca-ddb7-041c-8c73-0da7962a508c*%
X34070000Y-83100500D03*
D16*
%TO.P,,c3ee3767-9d8e-4543-943a-458ba69a5502__f760a348-f9f5-4ab2-96f8-a5d14b52e4af*%
X36610000Y-83100500D03*
D18*
%TO.P,,f6a0527c-b1f4-4070-994c-29a0c8339ca9__2326611f-98f6-a130-ac94-da96fde3ec8f*%
X140402489Y-6789889D03*
%TO.P,,f6a0527c-b1f4-4070-994c-29a0c8339ca9__9415c64b-4f59-a6d9-e7ea-dc5b1de656fb*%
X149042489Y-6789911D03*
%TO.P,,f6a0527c-b1f4-4070-994c-29a0c8339ca9__9b3c6dc7-8e8d-43a0-5d61-3a6777006a6c*%
X149042500Y-2609911D03*
%TO.P,,f6a0527c-b1f4-4070-994c-29a0c8339ca9__e8284091-fcc7-bc14-948c-a2f31e589c00*%
X140402500Y-2609889D03*
D19*
%TO.P,,21097a8c-3322-4314-b54c-ea65b3d3f560*%
%TO.N,Net 22*%
X144193100Y-5202600D03*
%TO.P,,8e07144a-59e2-406a-8c70-4a1831f4b334*%
X144972500Y-6417700D03*
%TO.P,,d7276a7d-1756-4d4e-b1db-77ad6119a7af*%
X144472500Y-18565000D03*
%TO.P,,d90e4ff0-f81e-4c9b-8678-edc017b0cbac*%
X123318100Y-28460600D03*
%TO.P,,271c4f62-d9a9-413c-b752-481002143b35*%
%TO.N,Net 48*%
X145485200Y-29779600D03*
%TO.P,,34bdaef2-84ac-4a3e-99ab-2b194075fe7e*%
X145485200Y-32479000D03*
%TO.P,,a09bfb10-d491-4fce-b151-91fce2e9bd3b*%
X122649200Y-10379900D03*
%TO.P,,e3906037-e450-4234-872c-996dbb8adb8a*%
X122632600Y-38037400D03*
%TO.P,,03a24066-cccd-4dbb-bffc-18b401dcf03b*%
%TO.N,GND*%
X19778700Y-82813000D03*
%TO.P,,03e531b0-d921-4b37-9cc1-aa8f5a849cd3*%
X13690500Y-10168100D03*
%TO.P,,0695d9b0-18d0-4e45-bc03-c39b005aaa71*%
X15332800Y-27874600D03*
%TO.P,,0774190a-54e5-4804-b208-cc1677017957*%
X20283900Y-54503700D03*
%TO.P,,0848497c-6746-4469-865b-efc70120aea0*%
X21272500Y-66774800D03*
%TO.P,,13773a89-e242-4362-8293-240314f29325*%
X17660100Y-43570700D03*
%TO.P,,16780fe7-a314-4ae0-a5a6-246cef701337*%
X148522300Y-19598200D03*
%TO.P,,1a8096bf-b77c-41f8-a21d-c015ba8bfd9c*%
X21109900Y-74866200D03*
%TO.P,,1b99add2-fc13-4789-9da4-95c3b3129560*%
X15752600Y-23926600D03*
%TO.P,,1e6a102d-1c0c-4fd7-9e37-abd06eb5c44e*%
X17989400Y-38533700D03*
%TO.P,,1f2f9fc5-85da-4694-a75e-00580fd3385a*%
X23085200Y-71286300D03*
%TO.P,,1f3e4a2b-b09f-4ce4-b9ab-6be1233666ab*%
X18891300Y-46400800D03*
%TO.P,,21f66e6b-b524-421c-84f7-78e77f0bae56*%
X51455000Y-9103400D03*
%TO.P,,24ef2ddd-3a3f-4b6a-9109-34fb0351bfed*%
X14635800Y-15970700D03*
%TO.P,,28ec12f4-0189-469b-8307-8e7f10284c53*%
X16341100Y-106461000D03*
%TO.P,,2a419ae4-0599-4b01-963e-8f823185ec1d*%
X14731200Y-125709500D03*
%TO.P,,41a450a1-5498-4a00-a8dd-64a94375edc1*%
X14049300Y-121995200D03*
%TO.P,,4d8e6ef1-5df1-45cb-8a5e-ffa871f3277f*%
X13952700Y-19651000D03*
%TO.P,,52df29db-ee6f-4685-8440-5923294b0989*%
X14731200Y-125709500D03*
%TO.P,,5536126f-5bd6-42a8-9f19-43f14ef3df4e*%
X17199000Y-98575800D03*
%TO.P,,56538a78-5fa6-4a30-a2ff-30315644d31a*%
X34920700Y-71608900D03*
%TO.P,,68b776c2-5455-49a7-b716-1c3dda6a66e7*%
X18924600Y-51006500D03*
%TO.P,,6cd1ab35-6b48-4dc2-8b8f-b3eb4cceda72*%
X21482600Y-62289000D03*
%TO.P,,719a1e13-ba7c-4a1c-a2ea-96eb97baf99e*%
X49747200Y-21443400D03*
%TO.P,,72933a7c-8a0a-4892-a446-4305541c8ca6*%
X14896100Y-7374900D03*
%TO.P,,7b1e5c3c-7ea0-49ae-9b50-db0efb30a01c*%
X17071400Y-110975200D03*
%TO.P,,7df85593-2522-412f-8855-4686833657e0*%
X141311000Y-4877000D03*
%TO.P,,7e2598a1-58ca-43d0-891d-baa4dc4e1062*%
X149828400Y-31405600D03*
%TO.P,,7e281cce-3c0f-4f33-93a6-cde97d56b76b*%
X0Y0D03*
%TO.P,,8070cdf5-0c82-4764-9b77-fe112907612d*%
X55321100Y-62608200D03*
%TO.P,,84c8e793-c42a-4680-84d8-f1c4f55de0eb*%
X21606500Y-78479500D03*
%TO.P,,89a3f466-81e0-453e-a843-f9f8d2430899*%
X16783800Y-31463100D03*
%TO.P,,8dad2146-9ab2-4df1-9beb-3475a91a67ed*%
X19097900Y-97982400D03*
%TO.P,,90f2b947-0c0d-427b-a653-3e90ef86496f*%
X135986500Y-1148100D03*
%TO.P,,9a3481c6-3558-4c16-90b0-5e2d8a53544b*%
X18385800Y-102455700D03*
%TO.P,,b2f68bc6-ebc1-47c1-97d7-6b5ca2735888*%
X15901800Y-117663800D03*
%TO.P,,b6a221ed-5c26-4281-8dac-1fbbf5dc0141*%
X20283900Y-57958200D03*
%TO.P,,b7425fac-1456-4cea-b354-e53cecaff7b6*%
X13585300Y-129172100D03*
%TO.P,,bc641573-167b-4bd3-9ebe-e6fc5c324d00*%
X134296200Y-31405600D03*
%TO.P,,d7fd46c1-9247-42ba-900c-87abd7d93b3e*%
X16537000Y-35589900D03*
%TO.P,,e74acd86-69de-4aa5-a0ae-b63017a1a0bc*%
X52811400Y-53755400D03*
%TO.P,,ea9eb722-2d2c-46c5-8268-e109cb1c6279*%
X18741800Y-90726800D03*
%TO.P,,f11cd5a0-b3f9-4682-a3df-2ddbd25ddab1*%
X20640700Y-86734200D03*
%TO.P,,fcf0a238-e9c7-4144-8a94-07b125d66294*%
X15195200Y-114079500D03*
%TO.P,,09d41dc0-b1be-431f-86ca-87c4d5b4795b.via9.12*%
X191032200Y-5384000D03*
%TO.P,,09d41dc0-b1be-431f-86ca-87c4d5b4795b.via9.8*%
X131032200Y-5384000D03*
%TO.P,,09d41dc0-b1be-431f-86ca-87c4d5b4795b.via9.7*%
X116032200Y-5384000D03*
%TO.P,,09d41dc0-b1be-431f-86ca-87c4d5b4795b.via9.6*%
X101032200Y-5384000D03*
%TO.P,,09d41dc0-b1be-431f-86ca-87c4d5b4795b.via9.5*%
X86032200Y-5384000D03*
%TO.P,,09d41dc0-b1be-431f-86ca-87c4d5b4795b.via9.4*%
X71032200Y-5384000D03*
%TO.P,,09d41dc0-b1be-431f-86ca-87c4d5b4795b.via8.13*%
X206032200Y-20384000D03*
%TO.P,,09d41dc0-b1be-431f-86ca-87c4d5b4795b.via8.12*%
X191032200Y-20384000D03*
%TO.P,,09d41dc0-b1be-431f-86ca-87c4d5b4795b.via8.11*%
X176032200Y-20384000D03*
%TO.P,,09d41dc0-b1be-431f-86ca-87c4d5b4795b.via8.7*%
X116032200Y-20384000D03*
%TO.P,,09d41dc0-b1be-431f-86ca-87c4d5b4795b.via8.6*%
X101032200Y-20384000D03*
%TO.P,,09d41dc0-b1be-431f-86ca-87c4d5b4795b.via8.5*%
X86032200Y-20384000D03*
%TO.P,,09d41dc0-b1be-431f-86ca-87c4d5b4795b.via8.4*%
X71032200Y-20384000D03*
%TO.P,,09d41dc0-b1be-431f-86ca-87c4d5b4795b.via8.3*%
X56032200Y-20384000D03*
%TO.P,,09d41dc0-b1be-431f-86ca-87c4d5b4795b.via7.14*%
X221032200Y-35384000D03*
%TO.P,,09d41dc0-b1be-431f-86ca-87c4d5b4795b.via7.13*%
X206032200Y-35384000D03*
%TO.P,,09d41dc0-b1be-431f-86ca-87c4d5b4795b.via7.12*%
X191032200Y-35384000D03*
%TO.P,,09d41dc0-b1be-431f-86ca-87c4d5b4795b.via7.11*%
X176032200Y-35384000D03*
%TO.P,,09d41dc0-b1be-431f-86ca-87c4d5b4795b.via7.10*%
X161032200Y-35384000D03*
%TO.P,,09d41dc0-b1be-431f-86ca-87c4d5b4795b.via7.8*%
X131032200Y-35384000D03*
%TO.P,,09d41dc0-b1be-431f-86ca-87c4d5b4795b.via7.7*%
X116032200Y-35384000D03*
%TO.P,,09d41dc0-b1be-431f-86ca-87c4d5b4795b.via7.6*%
X101032200Y-35384000D03*
%TO.P,,09d41dc0-b1be-431f-86ca-87c4d5b4795b.via7.5*%
X86032200Y-35384000D03*
%TO.P,,09d41dc0-b1be-431f-86ca-87c4d5b4795b.via7.4*%
X71032200Y-35384000D03*
%TO.P,,09d41dc0-b1be-431f-86ca-87c4d5b4795b.via7.3*%
X56032200Y-35384000D03*
%TO.P,,09d41dc0-b1be-431f-86ca-87c4d5b4795b.via7.2*%
X41032200Y-35384000D03*
%TO.P,,09d41dc0-b1be-431f-86ca-87c4d5b4795b.via7.1*%
X26032200Y-35384000D03*
%TO.P,,09d41dc0-b1be-431f-86ca-87c4d5b4795b.via6.15*%
X236032200Y-50384000D03*
%TO.P,,09d41dc0-b1be-431f-86ca-87c4d5b4795b.via6.14*%
X221032200Y-50384000D03*
%TO.P,,09d41dc0-b1be-431f-86ca-87c4d5b4795b.via6.13*%
X206032200Y-50384000D03*
%TO.P,,09d41dc0-b1be-431f-86ca-87c4d5b4795b.via6.12*%
X191032200Y-50384000D03*
%TO.P,,09d41dc0-b1be-431f-86ca-87c4d5b4795b.via6.11*%
X176032200Y-50384000D03*
%TO.P,,09d41dc0-b1be-431f-86ca-87c4d5b4795b.via6.10*%
X161032200Y-50384000D03*
%TO.P,,09d41dc0-b1be-431f-86ca-87c4d5b4795b.via6.9*%
X146032200Y-50384000D03*
%TO.P,,09d41dc0-b1be-431f-86ca-87c4d5b4795b.via6.8*%
X131032200Y-50384000D03*
%TO.P,,09d41dc0-b1be-431f-86ca-87c4d5b4795b.via6.7*%
X116032200Y-50384000D03*
%TO.P,,09d41dc0-b1be-431f-86ca-87c4d5b4795b.via6.6*%
X101032200Y-50384000D03*
%TO.P,,09d41dc0-b1be-431f-86ca-87c4d5b4795b.via6.5*%
X86032200Y-50384000D03*
%TO.P,,09d41dc0-b1be-431f-86ca-87c4d5b4795b.via6.3*%
X56032200Y-50384000D03*
%TO.P,,09d41dc0-b1be-431f-86ca-87c4d5b4795b.via6.1*%
X26032200Y-50384000D03*
%TO.P,,09d41dc0-b1be-431f-86ca-87c4d5b4795b.via5.15*%
X236032200Y-65384000D03*
%TO.P,,09d41dc0-b1be-431f-86ca-87c4d5b4795b.via5.14*%
X221032200Y-65384000D03*
%TO.P,,09d41dc0-b1be-431f-86ca-87c4d5b4795b.via5.13*%
X206032200Y-65384000D03*
%TO.P,,09d41dc0-b1be-431f-86ca-87c4d5b4795b.via5.12*%
X191032200Y-65384000D03*
%TO.P,,09d41dc0-b1be-431f-86ca-87c4d5b4795b.via5.11*%
X176032200Y-65384000D03*
%TO.P,,09d41dc0-b1be-431f-86ca-87c4d5b4795b.via5.10*%
X161032200Y-65384000D03*
%TO.P,,09d41dc0-b1be-431f-86ca-87c4d5b4795b.via5.9*%
X146032200Y-65384000D03*
%TO.P,,09d41dc0-b1be-431f-86ca-87c4d5b4795b.via5.8*%
X131032200Y-65384000D03*
%TO.P,,09d41dc0-b1be-431f-86ca-87c4d5b4795b.via5.7*%
X116032200Y-65384000D03*
%TO.P,,09d41dc0-b1be-431f-86ca-87c4d5b4795b.via5.6*%
X101032200Y-65384000D03*
%TO.P,,09d41dc0-b1be-431f-86ca-87c4d5b4795b.via5.4*%
X71032200Y-65384000D03*
%TO.P,,09d41dc0-b1be-431f-86ca-87c4d5b4795b.via5.3*%
X56032200Y-65384000D03*
%TO.P,,09d41dc0-b1be-431f-86ca-87c4d5b4795b.via5.1*%
X26032200Y-65384000D03*
%TO.P,,09d41dc0-b1be-431f-86ca-87c4d5b4795b.via4.15*%
X236032200Y-80384000D03*
%TO.P,,09d41dc0-b1be-431f-86ca-87c4d5b4795b.via4.14*%
X221032200Y-80384000D03*
%TO.P,,09d41dc0-b1be-431f-86ca-87c4d5b4795b.via4.13*%
X206032200Y-80384000D03*
%TO.P,,09d41dc0-b1be-431f-86ca-87c4d5b4795b.via4.12*%
X191032200Y-80384000D03*
%TO.P,,09d41dc0-b1be-431f-86ca-87c4d5b4795b.via4.11*%
X176032200Y-80384000D03*
%TO.P,,09d41dc0-b1be-431f-86ca-87c4d5b4795b.via4.10*%
X161032200Y-80384000D03*
%TO.P,,09d41dc0-b1be-431f-86ca-87c4d5b4795b.via4.9*%
X146032200Y-80384000D03*
%TO.P,,09d41dc0-b1be-431f-86ca-87c4d5b4795b.via4.8*%
X131032200Y-80384000D03*
%TO.P,,09d41dc0-b1be-431f-86ca-87c4d5b4795b.via4.7*%
X116032200Y-80384000D03*
%TO.P,,09d41dc0-b1be-431f-86ca-87c4d5b4795b.via4.6*%
X101032200Y-80384000D03*
%TO.P,,09d41dc0-b1be-431f-86ca-87c4d5b4795b.via4.5*%
X86032200Y-80384000D03*
%TO.P,,09d41dc0-b1be-431f-86ca-87c4d5b4795b.via4.4*%
X71032200Y-80384000D03*
%TO.P,,09d41dc0-b1be-431f-86ca-87c4d5b4795b.via4.3*%
X56032200Y-80384000D03*
%TO.P,,09d41dc0-b1be-431f-86ca-87c4d5b4795b.via4.1*%
X26032200Y-80384000D03*
%TO.P,,09d41dc0-b1be-431f-86ca-87c4d5b4795b.via3.14*%
X221032200Y-95384000D03*
%TO.P,,09d41dc0-b1be-431f-86ca-87c4d5b4795b.via3.13*%
X206032200Y-95384000D03*
%TO.P,,09d41dc0-b1be-431f-86ca-87c4d5b4795b.via3.12*%
X191032200Y-95384000D03*
%TO.P,,09d41dc0-b1be-431f-86ca-87c4d5b4795b.via3.11*%
X176032200Y-95384000D03*
%TO.P,,09d41dc0-b1be-431f-86ca-87c4d5b4795b.via3.10*%
X161032200Y-95384000D03*
%TO.P,,09d41dc0-b1be-431f-86ca-87c4d5b4795b.via3.9*%
X146032200Y-95384000D03*
%TO.P,,09d41dc0-b1be-431f-86ca-87c4d5b4795b.via3.8*%
X131032200Y-95384000D03*
%TO.P,,09d41dc0-b1be-431f-86ca-87c4d5b4795b.via3.7*%
X116032200Y-95384000D03*
%TO.P,,09d41dc0-b1be-431f-86ca-87c4d5b4795b.via3.6*%
X101032200Y-95384000D03*
%TO.P,,09d41dc0-b1be-431f-86ca-87c4d5b4795b.via3.5*%
X86032200Y-95384000D03*
%TO.P,,09d41dc0-b1be-431f-86ca-87c4d5b4795b.via3.4*%
X71032200Y-95384000D03*
%TO.P,,09d41dc0-b1be-431f-86ca-87c4d5b4795b.via3.1*%
X26032200Y-95384000D03*
%TO.P,,09d41dc0-b1be-431f-86ca-87c4d5b4795b.via2.14*%
X221032200Y-110384000D03*
%TO.P,,09d41dc0-b1be-431f-86ca-87c4d5b4795b.via2.13*%
X206032200Y-110384000D03*
%TO.P,,09d41dc0-b1be-431f-86ca-87c4d5b4795b.via2.12*%
X191032200Y-110384000D03*
%TO.P,,09d41dc0-b1be-431f-86ca-87c4d5b4795b.via2.11*%
X176032200Y-110384000D03*
%TO.P,,09d41dc0-b1be-431f-86ca-87c4d5b4795b.via2.10*%
X161032200Y-110384000D03*
%TO.P,,09d41dc0-b1be-431f-86ca-87c4d5b4795b.via2.9*%
X146032200Y-110384000D03*
%TO.P,,09d41dc0-b1be-431f-86ca-87c4d5b4795b.via2.8*%
X131032200Y-110384000D03*
%TO.P,,09d41dc0-b1be-431f-86ca-87c4d5b4795b.via2.7*%
X116032200Y-110384000D03*
%TO.P,,09d41dc0-b1be-431f-86ca-87c4d5b4795b.via2.6*%
X101032200Y-110384000D03*
%TO.P,,09d41dc0-b1be-431f-86ca-87c4d5b4795b.via2.5*%
X86032200Y-110384000D03*
%TO.P,,09d41dc0-b1be-431f-86ca-87c4d5b4795b.via2.4*%
X71032200Y-110384000D03*
%TO.P,,09d41dc0-b1be-431f-86ca-87c4d5b4795b.via2.3*%
X56032200Y-110384000D03*
%TO.P,,09d41dc0-b1be-431f-86ca-87c4d5b4795b.via2.1*%
X26032200Y-110384000D03*
%TO.P,,09d41dc0-b1be-431f-86ca-87c4d5b4795b.via1.13*%
X206032200Y-125384000D03*
%TO.P,,09d41dc0-b1be-431f-86ca-87c4d5b4795b.via1.12*%
X191032200Y-125384000D03*
%TO.P,,09d41dc0-b1be-431f-86ca-87c4d5b4795b.via1.9*%
X146032200Y-125384000D03*
%TO.P,,09d41dc0-b1be-431f-86ca-87c4d5b4795b.via1.8*%
X131032200Y-125384000D03*
%TO.P,,09d41dc0-b1be-431f-86ca-87c4d5b4795b.via1.7*%
X116032200Y-125384000D03*
%TO.P,,09d41dc0-b1be-431f-86ca-87c4d5b4795b.via1.6*%
X101032200Y-125384000D03*
%TO.P,,09d41dc0-b1be-431f-86ca-87c4d5b4795b.via1.5*%
X86032200Y-125384000D03*
%TO.P,,09d41dc0-b1be-431f-86ca-87c4d5b4795b.via1.4*%
X71032200Y-125384000D03*
%TO.P,,09d41dc0-b1be-431f-86ca-87c4d5b4795b.via1.3*%
X56032200Y-125384000D03*
%TO.P,,20f87be1-8c61-4278-bab1-5a61edf1fdd6*%
%TO.N,Net 58*%
X42598600Y-51399400D03*
%TO.P,,3bd76e90-7534-4afa-a1f0-8a6bd6c29d8c*%
X52178500Y-56984800D03*
%TO.P,,7fe7e173-9363-4f7e-9c6d-463063b9bd67*%
X51485400Y-62289000D03*
%TO.P,,89248ac3-be8f-4adb-8e31-42deb6cfe981*%
X45320700Y-50702800D03*
%TO.P,,8c265a2e-0df4-4ea9-b771-8eda125567e2*%
X41166400Y-47280300D03*
%TO.P,,af1009ec-08d8-4ec2-a43d-9eb13cc4e179*%
X51485400Y-73949800D03*
%TO.P,,5a2d5977-b787-4b00-bc1e-202f1bf1a56c*%
%TO.N,Net 20*%
X123318100Y-8237200D03*
%TO.P,,b1fa56cb-1ccb-46fe-b3c7-e3dc8f481317*%
X136018100Y-29570600D03*
%TO.P,,1526e518-6d58-4f73-af20-a9da6e3b2d3e*%
%TO.N,Net 23*%
X130938100Y-28125100D03*
%TO.P,,1981401f-2a07-41ac-a918-d9b6277c5783*%
X142009300Y-33222400D03*
%TO.P,,6e46ce3f-cd0a-4251-b1d8-5930d6a8e4f6*%
X143099600Y-28455800D03*
%TO.P,,ae86df2a-7b90-4759-8911-7eaa8b2fd739*%
X35822800Y-62467600D03*
%TO.P,,0a8e1b84-dac7-41ad-a163-66e78aab6c3f*%
%TO.N,Net 59*%
X44501000Y-47280300D03*
%TO.P,,65338fcd-714e-4495-a50e-5ddd106d1a0c*%
X46199300Y-67637600D03*
%TO.P,,0353831f-53bd-483d-9fc7-5e2adcd1d2e7*%
%TO.N,Net 1*%
X22313500Y-86327300D03*
%TO.P,,09855cc5-b385-4532-b6d1-b2a0eebd562b*%
X22986800Y-57958200D03*
%TO.P,,0c9edfba-443d-4cbf-8c7c-db0828509ff6*%
X154443500Y-36005600D03*
%TO.P,,0f125b12-a477-4c5a-bd27-c650c9e3f13b*%
X138923900Y-4767900D03*
%TO.P,,18b6fb24-8d2c-4eaa-9897-9315de20b38b*%
X17133400Y-23667100D03*
%TO.P,,19e34c1c-2cdb-46f5-9ca3-934897c9ae15*%
X21572600Y-50650600D03*
%TO.P,,30f5a4e6-5462-4ce2-a9da-8c73c2b237d1*%
X21572600Y-54719400D03*
%TO.P,,31cdcfbf-9c69-4631-aed7-53b2b292018c*%
X18014600Y-26474000D03*
%TO.P,,361278ad-d36e-487f-a57a-e9af41438982*%
X17317200Y-121463800D03*
%TO.P,,39c2df4b-0fcb-4e96-a11a-27c3a5c78b1b*%
X18646100Y-113105900D03*
%TO.P,,47ae4275-7334-4780-a281-e789cd678624*%
X19314700Y-102193000D03*
%TO.P,,5612c19b-73c0-4e3d-9132-fbd36d70b655*%
X151487000Y-33866400D03*
%TO.P,,568b14f9-141e-424f-98ef-8638a34d1538*%
X151487000Y-31405400D03*
%TO.P,,699420ee-6528-450b-80ce-e0b9891247b9*%
X151487000Y-33866400D03*
%TO.P,,6bc14e84-bfff-4297-b599-6b3e203c13c1*%
X16643800Y-19541900D03*
%TO.P,,74bd0c1b-05bd-43cc-8832-30f2b356582a*%
X19140600Y-34241800D03*
%TO.P,,774db1a2-e602-4e12-b48a-2d033318c3c9*%
X22920200Y-82812900D03*
%TO.P,,77e49d28-a2e1-48cc-9f0d-9ffdc2c011f6*%
X23085200Y-78373800D03*
%TO.P,,7f1b3490-72a3-41d2-8813-df2085377df0*%
X24192500Y-74631800D03*
%TO.P,,8a670d45-9b19-49bc-ae39-9c5178cc38f9*%
X20792400Y-43005000D03*
%TO.P,,997eaeff-a98c-4407-a520-64b50ab253de*%
X142477100Y-16380100D03*
%TO.P,,9e5523d6-0325-4852-b9ac-8456d9243509*%
X21900700Y-89821000D03*
%TO.P,,a129fdb2-8be6-460a-8dd0-0a16e87bf1b3*%
X24192500Y-70297100D03*
%TO.P,,a13925a8-3aef-46f4-a3c0-b0082aa2a16b*%
X23212600Y-63296400D03*
%TO.P,,a5a70ac1-a477-441a-9940-6248a4277d04*%
X18646000Y-109550500D03*
%TO.P,,a8582d9b-f0c2-42ef-bf48-76f32fb4208c*%
X17317200Y-117766100D03*
%TO.P,,bbfdcba2-84b0-4537-a810-8a0b2870f5d7*%
X23728600Y-66063500D03*
%TO.P,,c0fe2b02-9ac1-46ec-801e-4cf5ba416742*%
X19608900Y-105871800D03*
%TO.P,,c8f86e83-b9a9-4a37-b17f-84ef2988baed*%
X19564900Y-38957900D03*
%TO.P,,d033b0c1-c2ef-4f03-9a64-afeab4b7ae8a*%
X20575400Y-46823600D03*
%TO.P,,d3c0c5fa-5510-4d3a-95b9-d9a38123a67e*%
X21071100Y-94095700D03*
%TO.P,,da018cf8-4b43-4ee6-be5d-6b8564e33bbe*%
X20754800Y-97712800D03*
%TO.P,,e8e01376-498c-4da2-823e-3908b996eb5e*%
X18433100Y-31026900D03*
%TO.P,,f0154003-90e8-499e-b13f-7988aa7e59c0*%
X16358200Y-125536900D03*
%TO.P,,f9e9638f-9429-4d3a-b634-b1f917d76675*%
X139333200Y-17155100D03*
%TO.P,,f2443844-fa32-4acb-9dd2-595047174adb*%
%TO.N,Net 61*%
X52684900Y-63878200D03*
%TO.P,,ff6a7355-2e08-476c-af07-2882d33de4a7*%
X40740000Y-100498900D03*
%TO.P,,275be19f-0a61-4058-8e8f-4d2fa7404802*%
%TO.N,Net 38*%
X133478100Y-28125100D03*
%TO.P,,4ec22908-51a7-4755-b958-ef9065a8e7a3*%
X144386100Y-33222400D03*
%TO.P,,9aeb99ec-da9a-46d7-a680-84da196744d1*%
X144386100Y-29677900D03*
%TO.P,,c135dd76-8a26-480b-be9e-e8e415de00ae*%
X39150000Y-72891000D03*
%TO.P,,a00b9360-705c-4c80-9b00-77582beed782*%
%TO.N,Net 63*%
X153448200Y-1148300D03*
%TO.P,,fc4415d2-5fbf-4920-a073-87b779b298ed*%
X153638400Y-8889600D03*
%TO.P,,432abc54-5d26-4de6-8c90-7b6a93c6a42c*%
%TO.N,Net 32*%
X144977600Y-18065000D03*
%TO.P,,859fe73b-c86b-449d-8522-59cc5ccc7322*%
X124005600Y-28460600D03*
%TO.P,,13fb7e6c-ffa8-4e2a-9e65-09b0af0884b7*%
%TO.N,Net 70*%
X132208100Y-26156100D03*
%TO.P,,1b1e072b-37cf-4624-abae-81934a6227ad*%
X38769900Y-62608200D03*
%TO.P,,bc6154bb-ca00-4d24-9695-4f24786185c3*%
X43514800Y-68958200D03*
%TO.P,,e6eed792-c0bc-4938-92fa-9083eb350032*%
X140801600Y-33222400D03*
%TO.P,,ee597ead-36a3-471d-a988-f4806a7cd96c*%
X142670500Y-27902200D03*
%TO.P,,f77c85aa-ab2a-4ae7-b884-2fc5945615ef*%
X41226700Y-63668200D03*
%TO.P,,19ac69b3-31ba-4b2f-b3ed-6bd659153d39*%
%TO.N,Net 25*%
X40199200Y-59718800D03*
%TO.P,,84e97349-c2f6-4f19-9e9a-831ef21f01e1*%
X129668100Y-27988500D03*
%TO.P,,a94cac96-6e5b-4448-a436-38ca4b11a1ca*%
X143099600Y-33222400D03*
%TO.P,,be1ec125-a14d-4b42-9db6-ddbb8f1852b6*%
X143744500Y-29037900D03*
%TO.P,,11148aa3-fa6b-44ee-83ff-c77de636a38a*%
%TO.N,Net 67*%
X33772200Y-75573200D03*
%TO.P,,2d9f8970-b1d9-4926-8307-9247c4a327f8*%
X50526200Y-55746900D03*
%TO.P,,5cce07dd-7e91-4248-809f-0a0bcf27eee9*%
X44501100Y-61338200D03*
%TO.P,,63732880-b454-466a-8e8b-f2ae7cc6d52c*%
X45320700Y-72768200D03*
%TO.P,,abc5bc15-f456-4ff7-b5b9-4d8e03291311*%
X51819100Y-49843000D03*
%TO.P,,b153476b-f83d-49f2-9551-d1db8113d152*%
X44942200Y-68274000D03*
%TO.P,,fd97c082-140b-4232-a451-3771d51800b2*%
X45274000Y-58554700D03*
%TO.P,,26e090fa-11b9-4635-bdc3-f763744e601c*%
%TO.N,Net 60*%
X41563200Y-95187300D03*
%TO.P,,6162ada6-9a55-42f2-98e2-d7b639b81683*%
X51906400Y-61516300D03*
%TO.P,,7205a281-eda0-4a24-b76a-a87b6c9f4d22*%
X49426900Y-59384600D03*
%TO.P,,f6a3537f-3e80-414e-80ba-4bea7d98be3e*%
X40199200Y-78228200D03*
%TO.P,,fbd2eb05-44f9-474e-8f73-ddd1a1ca4e0f*%
X45320700Y-80985200D03*
%TO.P,,d30c5451-a9bd-4fb7-aaef-7cb0fbee28e4*%
%TO.N,Net 27*%
X148172000Y-12483500D03*
%TO.P,,dd09e7f6-24d8-4af2-b930-99df6b4a8dec*%
X153014200Y-20597800D03*
%TO.P,,764adf35-da29-4a87-84f2-2223e7694c8a*%
%TO.N,Net 51*%
X137288100Y-32105600D03*
%TO.P,,af714748-295a-4d7e-9aa9-4a9c3b180cff*%
X150506200Y-5737600D03*
%TO.P,,09d41dc0-b1be-431f-86ca-87c4d5b4795b.via.island.27*%
%TO.N,GND*%
X44659000Y-75012800D03*
%TO.P,,09d41dc0-b1be-431f-86ca-87c4d5b4795b.via.island.26*%
X42309900Y-55525600D03*
%TO.P,,09d41dc0-b1be-431f-86ca-87c4d5b4795b.via.island.25*%
X49275800Y-52151200D03*
%TO.P,,09d41dc0-b1be-431f-86ca-87c4d5b4795b.via.island.24*%
X38859000Y-55694800D03*
%TO.P,,09d41dc0-b1be-431f-86ca-87c4d5b4795b.via.island.23*%
X47432000Y-70518100D03*
%TO.P,,09d41dc0-b1be-431f-86ca-87c4d5b4795b.via.island.22*%
X52490400Y-58608100D03*
%TO.P,,09d41dc0-b1be-431f-86ca-87c4d5b4795b.via.island.21*%
X45752600Y-56399100D03*
%TO.P,,09d41dc0-b1be-431f-86ca-87c4d5b4795b.via.island.20*%
X123934500Y-5773500D03*
%TO.P,,09d41dc0-b1be-431f-86ca-87c4d5b4795b.via.island.19*%
X18790500Y-42066000D03*
%TO.P,,09d41dc0-b1be-431f-86ca-87c4d5b4795b.via.island.18*%
X46226100Y-92727900D03*
%TO.P,,09d41dc0-b1be-431f-86ca-87c4d5b4795b.via.island.17*%
X45231800Y-84332700D03*
%TO.P,,09d41dc0-b1be-431f-86ca-87c4d5b4795b.via.island.16*%
X40058000Y-97854800D03*
%TO.P,,09d41dc0-b1be-431f-86ca-87c4d5b4795b.via.island.15*%
X141319000Y-24986200D03*
%TO.P,,09d41dc0-b1be-431f-86ca-87c4d5b4795b.via.island.14*%
X124331100Y-32223100D03*
%TO.P,,09d41dc0-b1be-431f-86ca-87c4d5b4795b.via.island.13*%
X48831700Y-63177700D03*
%TO.P,,09d41dc0-b1be-431f-86ca-87c4d5b4795b.via.island.12*%
X38011000Y-50035000D03*
%TO.P,,09d41dc0-b1be-431f-86ca-87c4d5b4795b.via.island.11*%
X146322500Y-14431200D03*
%TO.P,,09d41dc0-b1be-431f-86ca-87c4d5b4795b.via.island.10*%
X140718300Y-19060700D03*
%TO.P,,09d41dc0-b1be-431f-86ca-87c4d5b4795b.via.island.9*%
X136034000Y-4409900D03*
%TO.P,,09d41dc0-b1be-431f-86ca-87c4d5b4795b.via.island.8*%
X126493000Y-26908000D03*
%TO.P,,09d41dc0-b1be-431f-86ca-87c4d5b4795b.via.island.7*%
X42833700Y-48082700D03*
%TO.P,,09d41dc0-b1be-431f-86ca-87c4d5b4795b.via.island.6*%
X152745000Y-26889000D03*
%TO.P,,09d41dc0-b1be-431f-86ca-87c4d5b4795b.via.island.5*%
X42823800Y-81109800D03*
%TO.P,,09d41dc0-b1be-431f-86ca-87c4d5b4795b.via.island.4*%
X40874500Y-104778200D03*
%TO.P,,09d41dc0-b1be-431f-86ca-87c4d5b4795b.via.island.3*%
X41431700Y-52182300D03*
%TO.P,,09d41dc0-b1be-431f-86ca-87c4d5b4795b.via.island.2*%
X149339000Y-14674500D03*
%TO.P,,09d41dc0-b1be-431f-86ca-87c4d5b4795b.via.island.1*%
X41370800Y-101746700D03*
%TO.P,,09d41dc0-b1be-431f-86ca-87c4d5b4795b.via.island.0*%
X134918200Y-25878100D03*
%TD*%
D20*
%TO.N,Net 22*%
X146337500Y-18565000D02*
X147971900Y-20199400D01*
X144472400Y-18565000D02*
X146337400Y-18565000D01*
D21*
X124217100Y-29359600D02*
X123318100Y-28460600D01*
D20*
X144972500Y-6417700D02*
X144972500Y-5981900D01*
D21*
X132717900Y-29359700D02*
X124217100Y-29359700D01*
X133036200Y-30628300D02*
X133036200Y-29677900D01*
D20*
X147971900Y-20199500D02*
X147971900Y-30969900D01*
X133377800Y-30969900D02*
X133036200Y-30628300D01*
X144972500Y-5982000D02*
X144193100Y-5202600D01*
D21*
X133036200Y-29677900D02*
X132718000Y-29359700D01*
D20*
X147971900Y-30969900D02*
X133377700Y-30969900D01*
%TO.N,Net 48*%
X133036200Y-33222400D02*
X132718000Y-33540600D01*
X122649100Y-11150600D02*
X133568900Y-22070400D01*
X145485200Y-32479000D02*
X133362800Y-32479000D01*
X132718000Y-33540600D02*
X127129400Y-33540600D01*
X146535000Y-22238800D02*
X146535000Y-29564600D01*
X122649200Y-10379900D02*
X122649200Y-11150700D01*
X146320000Y-29779700D02*
X145485200Y-29779700D01*
X127129400Y-33540600D02*
X122632600Y-38037400D01*
X146366600Y-22070400D02*
X146535000Y-22238800D01*
X146535000Y-29564700D02*
X146320000Y-29779700D01*
X122632600Y-38037300D02*
X122632800Y-38037100D01*
X133568900Y-22070400D02*
X146366500Y-22070400D01*
X133362800Y-32479000D02*
X133036200Y-32805600D01*
X133036200Y-32805600D02*
X133036200Y-33222400D01*
%TO.N,GND*%
X14731200Y-128026300D02*
X13585400Y-129172100D01*
X148522300Y-19598100D02*
X148522300Y-30969900D01*
X135986400Y-1148100D02*
X136854400Y-1148100D01*
X149828300Y-31405600D02*
X148086700Y-31405600D01*
X19718900Y-50212100D02*
X18924500Y-51006500D01*
X16341100Y-106461000D02*
X16341300Y-106460800D01*
X14731200Y-125709500D02*
X14731200Y-128026300D01*
X18891300Y-46400800D02*
X18891300Y-46452800D01*
X17307500Y-34819500D02*
X16537100Y-35589900D01*
X22211700Y-63401200D02*
X22211700Y-65835600D01*
X20283900Y-54991500D02*
X21257300Y-55964900D01*
X18385800Y-102455700D02*
X18385800Y-104416300D01*
X21482600Y-62289000D02*
X21482600Y-62672000D01*
X16783900Y-31819000D02*
X17307500Y-32342600D01*
X19718900Y-47280300D02*
X19718900Y-50212100D01*
X55321000Y-56265000D02*
X52811400Y-53755400D01*
X15195100Y-114079500D02*
X15195300Y-114079300D01*
X13690500Y-8580500D02*
X14896100Y-7374900D01*
X49747200Y-10811200D02*
X51455000Y-9103400D01*
X13690500Y-10168100D02*
X13690500Y-8580500D01*
X148086700Y-31405600D02*
X148086900Y-31405400D01*
X16067400Y-118122000D02*
X16067400Y-119977000D01*
X20283900Y-54503700D02*
X20283900Y-54991500D01*
X21257300Y-56984800D02*
X20283900Y-57958200D01*
X49747200Y-21443400D02*
X49747200Y-10811200D01*
X18891300Y-46452700D02*
X19718900Y-47280300D01*
X16067500Y-119977000D02*
X14049300Y-121995200D01*
X21482500Y-62672000D02*
X22211700Y-63401200D01*
X21606500Y-78479400D02*
X21606500Y-80985200D01*
X55321100Y-62608200D02*
X55321100Y-56265000D01*
X141311000Y-4696200D02*
X141311000Y-4877000D01*
X17071400Y-110975100D02*
X17071400Y-112203300D01*
X21257300Y-55964800D02*
X21257300Y-56984800D01*
X148086600Y-31405600D02*
X134296200Y-31405600D01*
X21606500Y-80985200D02*
X19778700Y-82813000D01*
X15752600Y-23926600D02*
X15752600Y-27454800D01*
X15752600Y-27454800D02*
X15332800Y-27874600D01*
X14635800Y-18967800D02*
X13952600Y-19651000D01*
X18385800Y-104416200D02*
X16341000Y-106461000D01*
X19097800Y-97982400D02*
X17792400Y-97982400D01*
X17792400Y-97982400D02*
X17199000Y-98575800D01*
X14635800Y-15970700D02*
X14635800Y-18967900D01*
X18634300Y-42596500D02*
X17660100Y-43570700D01*
X20640700Y-86734300D02*
X20640700Y-88827900D01*
X15901800Y-117663800D02*
X15901800Y-117956400D01*
X148522300Y-30970000D02*
X148086700Y-31405600D01*
X16783800Y-31463100D02*
X16783800Y-31818900D01*
X17307500Y-32342600D02*
X17307500Y-34819400D01*
X18634300Y-40383300D02*
X18634300Y-42596500D01*
X20640700Y-88828000D02*
X18741900Y-90726800D01*
X17989400Y-38533700D02*
X17989400Y-39738500D01*
X15901800Y-117956400D02*
X16067400Y-118122000D01*
X34920700Y-71608900D02*
X34920700Y-81411100D01*
X136854400Y-1148100D02*
X140402400Y-4696300D01*
X22211700Y-65835600D02*
X21272500Y-66774800D01*
X14896100Y-7374900D02*
X14896300Y-7374700D01*
X17989500Y-39738500D02*
X18634300Y-40383300D01*
X140402500Y-4696200D02*
X141311100Y-4696200D01*
X34920600Y-81411100D02*
X36610000Y-83100500D01*
X17071400Y-112203300D02*
X15195100Y-114079500D01*
X23085200Y-72891000D02*
X21110000Y-74866200D01*
X23085200Y-71286300D02*
X23085200Y-72890900D01*
%TO.N,Net 58*%
X41166400Y-49967200D02*
X42598600Y-51399400D01*
X45320700Y-54197200D02*
X49081500Y-57958000D01*
X51205300Y-57958000D02*
X52178500Y-56984800D01*
X51485400Y-62289000D02*
X51485400Y-73949800D01*
X41166400Y-47280300D02*
X41166400Y-49967100D01*
X45320700Y-50702800D02*
X45320700Y-54197200D01*
X49081600Y-57958100D02*
X51205200Y-57958100D01*
%TO.N,Net 20*%
X136710700Y-30263300D02*
X136018100Y-29570600D01*
X147090000Y-29779700D02*
X146606400Y-30263300D01*
X146535000Y-21276600D02*
X147090000Y-21831600D01*
X123318100Y-8237200D02*
X123318100Y-11025800D01*
X133568900Y-21276600D02*
X146535100Y-21276600D01*
X146606400Y-30263300D02*
X136710800Y-30263300D01*
X147090000Y-21831600D02*
X147090000Y-29779600D01*
X123318100Y-11025800D02*
X133568900Y-21276600D01*
%TO.N,Net 23*%
X66998000Y-44147300D02*
X66998000Y-44362500D01*
X120213200Y-69459600D02*
X151635400Y-38037400D01*
X145699100Y-34362500D02*
X143149300Y-34362500D01*
X132220800Y-26842300D02*
X130938000Y-28125100D01*
X137098800Y-28455800D02*
X136341200Y-27698200D01*
X143099600Y-28455800D02*
X137098800Y-28455800D01*
X151635300Y-38037400D02*
X151635300Y-37919400D01*
X39095200Y-44147300D02*
X66998000Y-44147300D01*
X119482600Y-69105200D02*
X119837000Y-69459600D01*
X151635300Y-37919400D02*
X147256500Y-33540600D01*
X143149300Y-34362400D02*
X142009300Y-33222400D01*
X136341100Y-27698200D02*
X134545300Y-27698200D01*
X91740700Y-69105200D02*
X119482700Y-69105200D01*
X134545300Y-27698200D02*
X133689500Y-26842400D01*
X133689400Y-26842400D02*
X132220800Y-26842400D01*
X147256400Y-33540600D02*
X146521000Y-33540600D01*
X35822800Y-62467600D02*
X35822800Y-47419800D01*
X146521000Y-33540600D02*
X145699200Y-34362400D01*
X66997900Y-44362500D02*
X91740700Y-69105300D01*
X119837000Y-69459600D02*
X120213200Y-69459600D01*
X35822800Y-47419700D02*
X39095200Y-44147300D01*
%TO.N,Net 59*%
X44501000Y-47280300D02*
X44501000Y-65939300D01*
X44501000Y-65939400D02*
X46199200Y-67637600D01*
%TO.N,Net 1*%
X21572600Y-50650600D02*
X21572600Y-54719400D01*
X136740900Y-10999700D02*
X136740900Y-16447300D01*
X20380800Y-44147300D02*
X20380800Y-46629100D01*
X20460600Y-91702900D02*
X20460600Y-93485300D01*
X24192400Y-75576600D02*
X23085200Y-76683800D01*
X20792400Y-43735700D02*
X20380800Y-44147300D01*
X17071400Y-117520400D02*
X17317200Y-117766200D01*
X151486800Y-20199600D02*
X151487000Y-31405400D01*
X21900700Y-89821000D02*
X21900700Y-90262800D01*
X16958400Y-23667100D02*
X17133400Y-23667100D01*
X23728600Y-66063400D02*
X23728600Y-69833200D01*
X21900600Y-90262800D02*
X20460600Y-91702800D01*
X152304300Y-33866400D02*
X154443500Y-36005600D01*
X15195200Y-124373900D02*
X16358200Y-125536900D01*
X18646100Y-113105900D02*
X18646100Y-113413500D01*
X18014600Y-26474000D02*
X18014600Y-30608400D01*
X21606500Y-84928400D02*
X21606500Y-85620200D01*
X20792400Y-43005000D02*
X20792400Y-43735800D01*
X18014700Y-30608500D02*
X18433100Y-31026900D01*
X136740900Y-16447200D02*
X137907700Y-17614000D01*
X22920200Y-82812900D02*
X22920200Y-83614700D01*
X21606500Y-85620300D02*
X22313500Y-86327300D01*
X22920300Y-83614700D02*
X21606500Y-84928500D01*
X23728600Y-69833100D02*
X24192600Y-70297000D01*
X20460600Y-93485200D02*
X21071200Y-94095800D01*
X23212600Y-63296400D02*
X24192400Y-63296400D01*
X17999100Y-108903500D02*
X18646100Y-109550500D01*
X23085200Y-76683800D02*
X23085200Y-78373800D01*
X16643800Y-21787700D02*
X16958400Y-22102300D01*
X18966300Y-101844600D02*
X19314700Y-102193000D01*
X19608900Y-106461000D02*
X17999100Y-108070800D01*
X17317200Y-121463800D02*
X17122000Y-121463800D01*
X17999100Y-108070700D02*
X17999100Y-108903500D01*
X17122000Y-121463900D02*
X15195200Y-123390700D01*
X16643800Y-19541900D02*
X16643800Y-21787700D01*
X22986800Y-57958200D02*
X22986800Y-59291200D01*
X15195200Y-123390700D02*
X15195200Y-124373900D01*
X138923900Y-8816700D02*
X136740900Y-10999700D01*
X16958400Y-22102300D02*
X16958400Y-23667100D01*
X22617600Y-62701400D02*
X23212600Y-63296400D01*
X138923900Y-4767900D02*
X138923900Y-8816700D01*
X19140700Y-38533700D02*
X19564900Y-38957900D01*
X19608900Y-105871800D02*
X19608900Y-106461000D01*
X142477100Y-16380100D02*
X147667500Y-16380100D01*
X20754800Y-97712800D02*
X20754800Y-97780600D01*
X137907800Y-17614100D02*
X138874200Y-17614100D01*
X20380800Y-46629100D02*
X20575400Y-46823700D01*
X22986800Y-59291200D02*
X22617600Y-59660400D01*
X147667500Y-16380100D02*
X151486900Y-20199500D01*
X138874200Y-17614100D02*
X139333200Y-17155100D01*
X18646100Y-113413600D02*
X17071500Y-114988200D01*
X20754700Y-97780600D02*
X18966300Y-99569000D01*
X151487000Y-33866400D02*
X152304300Y-33866400D01*
X24192500Y-74631800D02*
X24192500Y-75576600D01*
X19140600Y-34241800D02*
X19140600Y-38533600D01*
X17071500Y-114988200D02*
X17071500Y-117520400D01*
X18966300Y-99569000D02*
X18966300Y-101844600D01*
X19564900Y-38957900D02*
X19565100Y-38957700D01*
X22617600Y-59660400D02*
X22617600Y-62701400D01*
%TO.N,Net 61*%
X53295200Y-92254300D02*
X53295200Y-64488500D01*
X45050600Y-100498900D02*
X53295200Y-92254300D01*
X40740000Y-100498900D02*
X45050600Y-100498900D01*
X53295200Y-64488400D02*
X52685000Y-63878200D01*
%TO.N,Net 38*%
X119837000Y-71831500D02*
X154002800Y-37665700D01*
X41403800Y-82004700D02*
X41403800Y-82849200D01*
X53898000Y-102972600D02*
X85039000Y-71831600D01*
X134176600Y-28823700D02*
X133478000Y-28125100D01*
X145485400Y-33222400D02*
X144386200Y-33222400D01*
X85039100Y-71831500D02*
X119837100Y-71831500D01*
X144386100Y-29677900D02*
X136872500Y-29677900D01*
X145902200Y-32805600D02*
X145485400Y-33222400D01*
X37518600Y-100292000D02*
X40199200Y-102972600D01*
X37518600Y-86734300D02*
X37518600Y-100292100D01*
X153382500Y-37665800D02*
X148522300Y-32805600D01*
X136872500Y-29677900D02*
X136018300Y-28823700D01*
X39150000Y-79750800D02*
X41403800Y-82004600D01*
X39150000Y-72891000D02*
X39150000Y-79750800D01*
X41403800Y-82849100D02*
X37518600Y-86734300D01*
X40199200Y-102972600D02*
X53898000Y-102972600D01*
X154002800Y-37665800D02*
X153382400Y-37665800D01*
X148522300Y-32805600D02*
X145902200Y-32805600D01*
X136018300Y-28823600D02*
X134176500Y-28823600D01*
%TO.N,Net 63*%
X154390900Y-2090900D02*
X153448200Y-1148300D01*
X153638400Y-8889700D02*
X153638400Y-5448700D01*
X154390900Y-4696200D02*
X154390900Y-2091000D01*
X153638400Y-5448600D02*
X154390800Y-4696200D01*
%TO.N,Net 32*%
X133036200Y-29037900D02*
X133568900Y-29570600D01*
X146280800Y-19047800D02*
X146337400Y-19104400D01*
X146337400Y-19104400D02*
X147455000Y-20222000D01*
X147455000Y-20222100D02*
X147455000Y-30263300D01*
X143751200Y-18840400D02*
X143833200Y-18840400D01*
X143751200Y-18472800D02*
X143751200Y-18840400D01*
X124582900Y-29037900D02*
X133036200Y-29037900D01*
X147090000Y-30628300D02*
X133568900Y-30628300D01*
X124582900Y-29037900D02*
X124005600Y-28460600D01*
X144040500Y-19047800D02*
X146280700Y-19047800D01*
X147455000Y-30263300D02*
X147090000Y-30628300D01*
X143833100Y-18840400D02*
X144040500Y-19047800D01*
X133568900Y-29570600D02*
X133568900Y-30628300D01*
X143751200Y-18840400D02*
X143751400Y-18840200D01*
X144159000Y-18065000D02*
X143751200Y-18472800D01*
X144977600Y-18065000D02*
X144159000Y-18065000D01*
%TO.N,Net 70*%
X121587900Y-67151500D02*
X150792900Y-37946500D01*
X132453700Y-26401600D02*
X132208100Y-26156000D01*
X43514700Y-68958200D02*
X41451500Y-68958200D01*
X134805800Y-27322000D02*
X133885400Y-26401600D01*
X150792900Y-37946500D02*
X150792900Y-37745700D01*
X147090000Y-34042800D02*
X146677800Y-34042800D01*
X41451500Y-68958200D02*
X40968900Y-68475600D01*
X37007000Y-62608200D02*
X36754400Y-62608200D01*
X91988100Y-68258100D02*
X119789100Y-68258100D01*
X119789100Y-68258100D02*
X120895700Y-67151500D01*
X136710800Y-27465700D02*
X136710800Y-27460100D01*
X34328100Y-47693200D02*
X39095100Y-42926200D01*
X150793000Y-37745800D02*
X147090000Y-34042800D01*
X40968900Y-63668200D02*
X41226700Y-63668200D01*
X66656200Y-42926300D02*
X68860000Y-45130100D01*
X35484300Y-63623800D02*
X34328100Y-62467600D01*
X146677800Y-34042800D02*
X145902200Y-34818400D01*
X136710800Y-27460000D02*
X136572800Y-27322000D01*
X142397600Y-34818400D02*
X140801600Y-33222400D01*
X142670500Y-27902200D02*
X137147300Y-27902200D01*
X36754400Y-62608200D02*
X35484400Y-63878200D01*
X34328100Y-62467600D02*
X34328100Y-47693200D01*
X137147400Y-27902200D02*
X136710800Y-27465600D01*
X38769900Y-62608200D02*
X37007100Y-62608200D01*
X35484400Y-63878200D02*
X35484400Y-63623800D01*
X40968900Y-68475600D02*
X40968900Y-63668200D01*
X68860000Y-45130100D02*
X91988000Y-68258100D01*
X39095100Y-42926200D02*
X66656100Y-42926200D01*
X120895700Y-67151500D02*
X121587900Y-67151500D01*
X133885400Y-26401600D02*
X132453600Y-26401600D01*
X145902200Y-34818400D02*
X142397600Y-34818400D01*
X136572700Y-27322000D02*
X134805700Y-27322000D01*
%TO.N,Net 25*%
X40199200Y-45449700D02*
X39525800Y-44776300D01*
X119572300Y-70157500D02*
X119837100Y-69892700D01*
X136018100Y-28125100D02*
X134372100Y-28125100D01*
X136930900Y-29037900D02*
X136018100Y-28125100D01*
X120895600Y-69892700D02*
X152841800Y-37946500D01*
X145136300Y-33516600D02*
X144610100Y-34042800D01*
X66359500Y-44776300D02*
X91740700Y-70157500D01*
X132073700Y-28624000D02*
X130303700Y-28624000D01*
X119837100Y-69892700D02*
X120895700Y-69892700D01*
X130303700Y-28624100D02*
X129668100Y-27988500D01*
X133568900Y-27321900D02*
X133375900Y-27321900D01*
X40199200Y-52121300D02*
X40199200Y-45449700D01*
X145902200Y-33516600D02*
X145136200Y-33516600D01*
X91740700Y-70157500D02*
X119572300Y-70157500D01*
X39525800Y-44776300D02*
X66359600Y-44776300D01*
X137036900Y-29037900D02*
X136930900Y-29037900D01*
X40199200Y-59718800D02*
X40199200Y-52121200D01*
X143744500Y-29037900D02*
X137036900Y-29037900D01*
X133375800Y-27322000D02*
X132572600Y-28125200D01*
X143920000Y-34042800D02*
X143099600Y-33222400D01*
X132572500Y-28125200D02*
X132073700Y-28624000D01*
X146196400Y-33222400D02*
X145902200Y-33516600D01*
X152841800Y-37946500D02*
X152423200Y-37946500D01*
X147699200Y-33222400D02*
X146196400Y-33222400D01*
X144610200Y-34042800D02*
X143920000Y-34042800D01*
X134372100Y-28125100D02*
X133568900Y-27321900D01*
X152423200Y-37946400D02*
X147699200Y-33222400D01*
%TO.N,Net 67*%
X51819100Y-54454100D02*
X50526300Y-55746900D01*
X45320700Y-72768200D02*
X45320700Y-68652400D01*
X45320600Y-68652400D02*
X44942200Y-68274000D01*
X45274000Y-58554700D02*
X45274000Y-60565300D01*
X33772200Y-82802700D02*
X34070000Y-83100500D01*
X33772200Y-75573200D02*
X33772200Y-82802600D01*
X51819100Y-49842900D02*
X51819100Y-54454100D01*
X45273900Y-60565400D02*
X44501100Y-61338200D01*
%TO.N,Net 60*%
X41563200Y-95187300D02*
X41563200Y-84742700D01*
X40199200Y-78228200D02*
X40199200Y-62467600D01*
X49426900Y-59384600D02*
X51331900Y-59384600D01*
X52178500Y-60231200D02*
X52178500Y-61516200D01*
X41563200Y-84742700D02*
X45320600Y-80985300D01*
X40199200Y-62467600D02*
X42598600Y-60068200D01*
X51331900Y-59384600D02*
X52178500Y-60231200D01*
X52178600Y-61516300D02*
X51906400Y-61516300D01*
%TO.N,Net 27*%
X148172000Y-15755600D02*
X153014200Y-20597800D01*
X148172000Y-12483500D02*
X148172000Y-15755700D01*
%TO.N,Net 51*%
X150506200Y-17101200D02*
X154002800Y-20597800D01*
X150506200Y-9215600D02*
X150506200Y-17101200D01*
X154002800Y-30408800D02*
X152306000Y-32105600D01*
X150506200Y-5737600D02*
X150506200Y-9215600D01*
X152306100Y-32105600D02*
X137288100Y-32105600D01*
X154002800Y-20597800D02*
X154002800Y-30408800D01*
%TD*%
%TA.AperFunction,Conductor*%
%TO.N,GND*%
G36*
X152386000Y-31137000D02*
G01*
X152239000Y-31117000D01*
X152124000Y-30913000D01*
X152114000Y-30875000D01*
X152114000Y-21087000D01*
X152299000Y-21010000D01*
X152523000Y-21234000D01*
X152705000Y-21340000D01*
X152707000Y-21341000D01*
X152911000Y-21395000D01*
X153119000Y-21395000D01*
X153259000Y-21358000D01*
X153376000Y-21448000D01*
X153376000Y-30116000D01*
X153353000Y-30171000D01*
X152386000Y-31137000D01*
G37*
%TD.AperFunction*%
%TA.AperFunction,Conductor*%
G36*
X146550000Y-17972000D02*
G01*
X146531000Y-17964000D01*
X146521000Y-17960000D01*
X146468000Y-17953000D01*
X146460000Y-17951000D01*
X146404000Y-17936000D01*
X146358000Y-17938000D01*
X145834000Y-17938000D01*
X145753000Y-17875000D01*
X145723000Y-17762000D01*
X145617000Y-17577000D01*
X145615000Y-17574000D01*
X145466000Y-17426000D01*
X145463000Y-17424000D01*
X145288000Y-17324000D01*
X145286000Y-17323000D01*
X145080000Y-17268000D01*
X145114000Y-17007000D01*
X147375000Y-17007000D01*
X147430000Y-17030000D01*
X150837000Y-20438000D01*
X150860000Y-20493000D01*
X150860000Y-30876000D01*
X150850000Y-30913000D01*
X150745000Y-31096000D01*
X150745000Y-31097000D01*
X150690000Y-31303000D01*
X150690000Y-31391000D01*
X150602000Y-31479000D01*
X148576000Y-31479000D01*
X148488000Y-31337000D01*
X148532000Y-31250000D01*
X148572000Y-31166000D01*
X148576000Y-31152000D01*
X148580000Y-31144000D01*
X148590000Y-31062000D01*
X148591000Y-31059000D01*
X148599000Y-31009000D01*
X148599000Y-31005000D01*
X148600000Y-30996000D01*
X148605000Y-30953000D01*
X148605000Y-30951000D01*
X148601000Y-30933000D01*
X148599000Y-30916000D01*
X148599000Y-20294000D01*
X148600000Y-20275000D01*
X148599000Y-20241000D01*
X148599000Y-20155000D01*
X148598000Y-20147000D01*
X148599000Y-20147000D01*
X148597000Y-20138000D01*
X148596000Y-20129000D01*
X148595000Y-20097000D01*
X148594000Y-20091000D01*
X148574000Y-20026000D01*
X148571000Y-20017000D01*
X148564000Y-19978000D01*
X148564000Y-19977000D01*
X148553000Y-19956000D01*
X148548000Y-19944000D01*
X148540000Y-19919000D01*
X148535000Y-19911000D01*
X148498000Y-19859000D01*
X148494000Y-19851000D01*
X148468000Y-19804000D01*
X148467000Y-19803000D01*
X148429000Y-19769000D01*
X148425000Y-19766000D01*
X146748000Y-18087000D01*
X146737000Y-18080000D01*
X146725000Y-18070000D01*
X146700000Y-18046000D01*
X146698000Y-18044000D01*
X146654000Y-18023000D01*
X146645000Y-18018000D01*
X146594000Y-17985000D01*
X146560000Y-17976000D01*
X146550000Y-17972000D01*
G37*
%TD.AperFunction*%
%TA.AperFunction,Conductor*%
G36*
X43237000Y-50910000D02*
G01*
X43088000Y-50761000D01*
X42906000Y-50657000D01*
X42907000Y-50657000D01*
X42704000Y-50603000D01*
X42670000Y-50583000D01*
X41816000Y-49728000D01*
X41793000Y-49673000D01*
X41793000Y-47808000D01*
X41804000Y-47769000D01*
X41909000Y-47592000D01*
X41909000Y-47591000D01*
X41964000Y-47385000D01*
X41964000Y-47174000D01*
X41910000Y-46969000D01*
X41803000Y-46790000D01*
X41802000Y-46789000D01*
X41657000Y-46643000D01*
X41656000Y-46642000D01*
X41474000Y-46538000D01*
X41269000Y-46483000D01*
X41063000Y-46483000D01*
X40943000Y-46515000D01*
X40826000Y-46425000D01*
X40826000Y-45491000D01*
X40914000Y-45403000D01*
X66067000Y-45403000D01*
X66122000Y-45426000D01*
X91333000Y-70638000D01*
X91344000Y-70645000D01*
X91356000Y-70654000D01*
X91379000Y-70676000D01*
X91381000Y-70678000D01*
X91422000Y-70697000D01*
X91431000Y-70702000D01*
X91481000Y-70736000D01*
X91517000Y-70745000D01*
X91532000Y-70750000D01*
X91551000Y-70760000D01*
X91604000Y-70769000D01*
X91611000Y-70770000D01*
X91674000Y-70787000D01*
X91743000Y-70784000D01*
X119483000Y-70784000D01*
X119493000Y-70785000D01*
X119531000Y-70784000D01*
X119621000Y-70784000D01*
X119722000Y-70769000D01*
X119819000Y-70963000D01*
X119600000Y-71181000D01*
X119545000Y-71204000D01*
X85131000Y-71204000D01*
X85122000Y-71203000D01*
X85081000Y-71204000D01*
X84994000Y-71204000D01*
X84986000Y-71205000D01*
X84986000Y-71204000D01*
X84977000Y-71206000D01*
X84968000Y-71207000D01*
X84934000Y-71208000D01*
X84878000Y-71225000D01*
X84871000Y-71227000D01*
X84820000Y-71238000D01*
X84799000Y-71249000D01*
X84786000Y-71255000D01*
X84754000Y-71265000D01*
X84753000Y-71266000D01*
X84706000Y-71301000D01*
X84697000Y-71306000D01*
X84642000Y-71337000D01*
X84599000Y-71384000D01*
X84596000Y-71387000D01*
X53658000Y-102323000D01*
X53603000Y-102346000D01*
X40492000Y-102346000D01*
X40437000Y-102323000D01*
X38169000Y-100054000D01*
X38146000Y-99999000D01*
X38146000Y-87026000D01*
X38169000Y-86971000D01*
X40780000Y-84360000D01*
X40974000Y-84457000D01*
X40952000Y-84611000D01*
X40950000Y-84620000D01*
X40934000Y-84679000D01*
X40936000Y-84723000D01*
X40936000Y-94659000D01*
X40926000Y-94697000D01*
X40821000Y-94878000D01*
X40819000Y-94883000D01*
X40766000Y-95084000D01*
X40766000Y-95293000D01*
X40818000Y-95490000D01*
X40925000Y-95677000D01*
X40926000Y-95678000D01*
X41075000Y-95826000D01*
X41076000Y-95827000D01*
X41249000Y-95928000D01*
X41459000Y-95985000D01*
X41667000Y-95985000D01*
X41874000Y-95928000D01*
X41873000Y-95928000D01*
X42053000Y-95825000D01*
X42201000Y-95677000D01*
X42304000Y-95498000D01*
X42361000Y-95291000D01*
X42361000Y-95083000D01*
X42304000Y-94873000D01*
X42200000Y-94695000D01*
X42190000Y-94657000D01*
X42190000Y-86492000D01*
X44132000Y-86492000D01*
X44132000Y-88692000D01*
X46332000Y-88692000D01*
X46332000Y-87540000D01*
X49810000Y-87540000D01*
X49810000Y-87646000D01*
X49840000Y-87757000D01*
X49841000Y-87759000D01*
X49892000Y-87847000D01*
X49899000Y-87856000D01*
X49972000Y-87928000D01*
X50072000Y-87986000D01*
X50174000Y-88013000D01*
X50289000Y-88013000D01*
X50391000Y-87986000D01*
X50491000Y-87928000D01*
X50564000Y-87856000D01*
X50571000Y-87847000D01*
X50622000Y-87759000D01*
X50623000Y-87757000D01*
X50653000Y-87646000D01*
X50653000Y-87540000D01*
X50623000Y-87428000D01*
X50571000Y-87337000D01*
X50564000Y-87328000D01*
X50491000Y-87256000D01*
X50492000Y-87256000D01*
X50391000Y-87198000D01*
X50289000Y-87171000D01*
X50174000Y-87171000D01*
X50072000Y-87198000D01*
X49972000Y-87256000D01*
X49899000Y-87328000D01*
X49892000Y-87337000D01*
X49840000Y-87428000D01*
X49810000Y-87540000D01*
X46332000Y-87540000D01*
X46332000Y-86492000D01*
X44132000Y-86492000D01*
X42190000Y-86492000D01*
X42190000Y-85035000D01*
X42213000Y-84980000D01*
X45391000Y-81803000D01*
X45425000Y-81783000D01*
X45635000Y-81726000D01*
X45633000Y-81726000D01*
X45808000Y-81625000D01*
X45809000Y-81624000D01*
X45958000Y-81476000D01*
X45959000Y-81475000D01*
X46066000Y-81288000D01*
X46118000Y-81091000D01*
X46118000Y-80884000D01*
X46065000Y-80681000D01*
X46063000Y-80676000D01*
X45957000Y-80494000D01*
X45812000Y-80349000D01*
X45630000Y-80243000D01*
X45628000Y-80242000D01*
X45424000Y-80188000D01*
X45215000Y-80188000D01*
X45018000Y-80240000D01*
X44831000Y-80347000D01*
X44830000Y-80348000D01*
X44682000Y-80497000D01*
X44681000Y-80498000D01*
X44580000Y-80671000D01*
X44521000Y-80884000D01*
X44502000Y-80917000D01*
X42187000Y-83232000D01*
X41993000Y-83135000D01*
X42015000Y-82981000D01*
X42017000Y-82972000D01*
X42033000Y-82914000D01*
X42031000Y-82869000D01*
X42031000Y-82097000D01*
X42032000Y-82088000D01*
X42031000Y-82047000D01*
X42031000Y-81962000D01*
X42028000Y-81945000D01*
X42027000Y-81900000D01*
X42010000Y-81844000D01*
X42008000Y-81837000D01*
X41997000Y-81786000D01*
X41986000Y-81765000D01*
X41980000Y-81752000D01*
X41970000Y-81721000D01*
X41934000Y-81672000D01*
X41899000Y-81609000D01*
X41851000Y-81565000D01*
X41848000Y-81562000D01*
X39800000Y-79513000D01*
X39777000Y-79458000D01*
X39777000Y-79062000D01*
X39895000Y-78972000D01*
X40095000Y-79026000D01*
X40303000Y-79026000D01*
X40510000Y-78969000D01*
X40509000Y-78969000D01*
X40689000Y-78866000D01*
X40837000Y-78718000D01*
X40940000Y-78538000D01*
X40997000Y-78332000D01*
X40997000Y-78124000D01*
X40940000Y-77914000D01*
X40836000Y-77736000D01*
X40826000Y-77698000D01*
X40826000Y-75240000D01*
X42063000Y-75240000D01*
X42063000Y-75377000D01*
X42100000Y-75515000D01*
X42101000Y-75516000D01*
X42171000Y-75638000D01*
X42269000Y-75736000D01*
X42391000Y-75806000D01*
X42392000Y-75807000D01*
X42530000Y-75844000D01*
X42667000Y-75844000D01*
X42805000Y-75807000D01*
X42806000Y-75806000D01*
X42928000Y-75736000D01*
X43026000Y-75638000D01*
X43096000Y-75516000D01*
X43097000Y-75515000D01*
X43134000Y-75377000D01*
X43134000Y-75240000D01*
X43096000Y-75100000D01*
X43095000Y-75098000D01*
X43029000Y-74982000D01*
X42926000Y-74880000D01*
X42806000Y-74810000D01*
X42804000Y-74809000D01*
X42668000Y-74773000D01*
X42529000Y-74773000D01*
X42393000Y-74809000D01*
X42391000Y-74810000D01*
X42271000Y-74880000D01*
X42168000Y-74982000D01*
X42102000Y-75098000D01*
X42101000Y-75100000D01*
X42063000Y-75240000D01*
X40826000Y-75240000D01*
X40826000Y-69477000D01*
X41011000Y-69400000D01*
X41087000Y-69476000D01*
X41089000Y-69477000D01*
X41138000Y-69501000D01*
X41146000Y-69506000D01*
X41192000Y-69535000D01*
X41222000Y-69543000D01*
X41238000Y-69549000D01*
X41263000Y-69562000D01*
X41322000Y-69570000D01*
X41396000Y-69682000D01*
X41296000Y-70059000D01*
X41296000Y-70398000D01*
X41383000Y-70727000D01*
X41384000Y-70728000D01*
X41385000Y-70733000D01*
X41386000Y-70735000D01*
X41555000Y-71027000D01*
X41800000Y-71272000D01*
X42042000Y-71411000D01*
X42042000Y-71584000D01*
X41800000Y-71725000D01*
X41799000Y-71726000D01*
X41557000Y-71967000D01*
X41556000Y-71968000D01*
X41386000Y-72261000D01*
X41384000Y-72266000D01*
X41296000Y-72598000D01*
X41296000Y-72938000D01*
X41383000Y-73267000D01*
X41384000Y-73268000D01*
X41384000Y-73270000D01*
X41386000Y-73275000D01*
X41556000Y-73568000D01*
X41800000Y-73812000D01*
X42092000Y-73981000D01*
X42097000Y-73983000D01*
X42429000Y-74071000D01*
X42768000Y-74071000D01*
X43101000Y-73983000D01*
X43102000Y-73982000D01*
X43399000Y-73811000D01*
X43400000Y-73810000D01*
X43641000Y-73568000D01*
X43811000Y-73276000D01*
X43812000Y-73273000D01*
X43902000Y-72937000D01*
X43902000Y-72599000D01*
X43812000Y-72263000D01*
X43811000Y-72260000D01*
X43642000Y-71969000D01*
X43398000Y-71725000D01*
X43155000Y-71584000D01*
X43155000Y-71411000D01*
X43397000Y-71272000D01*
X43400000Y-71270000D01*
X43641000Y-71028000D01*
X43642000Y-71027000D01*
X43812000Y-70735000D01*
X43902000Y-70397000D01*
X43902000Y-70057000D01*
X43826000Y-69772000D01*
X43865000Y-69678000D01*
X44004000Y-69596000D01*
X44152000Y-69448000D01*
X44260000Y-69261000D01*
X44310000Y-69072000D01*
X44310000Y-69004000D01*
X44459000Y-68917000D01*
X44653000Y-69028000D01*
X44694000Y-69098000D01*
X44694000Y-72238000D01*
X44684000Y-72276000D01*
X44580000Y-72455000D01*
X44523000Y-72664000D01*
X44523000Y-72873000D01*
X44580000Y-73079000D01*
X44683000Y-73258000D01*
X44831000Y-73406000D01*
X45011000Y-73509000D01*
X45217000Y-73566000D01*
X45425000Y-73566000D01*
X45635000Y-73509000D01*
X45808000Y-73408000D01*
X45809000Y-73407000D01*
X45958000Y-73259000D01*
X45959000Y-73258000D01*
X46066000Y-73071000D01*
X46118000Y-72874000D01*
X46118000Y-72666000D01*
X46065000Y-72464000D01*
X46064000Y-72460000D01*
X45958000Y-72278000D01*
X45948000Y-72240000D01*
X45948000Y-68596000D01*
X45942000Y-68533000D01*
X46031000Y-68435000D01*
X46305000Y-68435000D01*
X46502000Y-68383000D01*
X46689000Y-68276000D01*
X46690000Y-68275000D01*
X46838000Y-68126000D01*
X46940000Y-67948000D01*
X46997000Y-67743000D01*
X46997000Y-67532000D01*
X46940000Y-67325000D01*
X46837000Y-67148000D01*
X46693000Y-67004000D01*
X46691000Y-67003000D01*
X46510000Y-66895000D01*
X46509000Y-66895000D01*
X46303000Y-66840000D01*
X46269000Y-66820000D01*
X45151000Y-65701000D01*
X45128000Y-65646000D01*
X45128000Y-61867000D01*
X45138000Y-61829000D01*
X45242000Y-61648000D01*
X45300000Y-61441000D01*
X45319000Y-61408000D01*
X45747000Y-60980000D01*
X45751000Y-60975000D01*
X45756000Y-60968000D01*
X45764000Y-60958000D01*
X45794000Y-60927000D01*
X45814000Y-60886000D01*
X45819000Y-60877000D01*
X45855000Y-60824000D01*
X45865000Y-60784000D01*
X45870000Y-60770000D01*
X45876000Y-60757000D01*
X45877000Y-60754000D01*
X45887000Y-60689000D01*
X45888000Y-60684000D01*
X45902000Y-60625000D01*
X45901000Y-60601000D01*
X45901000Y-59084000D01*
X45911000Y-59046000D01*
X46016000Y-58864000D01*
X46017000Y-58863000D01*
X46071000Y-58658000D01*
X46071000Y-58449000D01*
X46019000Y-58252000D01*
X45913000Y-58066000D01*
X45764000Y-57917000D01*
X45584000Y-57814000D01*
X45585000Y-57814000D01*
X45378000Y-57757000D01*
X45216000Y-57757000D01*
X45128000Y-57669000D01*
X45128000Y-55154000D01*
X45313000Y-55077000D01*
X48670000Y-58435000D01*
X48678000Y-58440000D01*
X48693000Y-58451000D01*
X48717000Y-58476000D01*
X48721000Y-58478000D01*
X48770000Y-58503000D01*
X48777000Y-58507000D01*
X48819000Y-58534000D01*
X48827000Y-58538000D01*
X48913000Y-58563000D01*
X48955000Y-58729000D01*
X48788000Y-58896000D01*
X48686000Y-59072000D01*
X48629000Y-59279000D01*
X48629000Y-59490000D01*
X48686000Y-59696000D01*
X48687000Y-59697000D01*
X48788000Y-59873000D01*
X48937000Y-60023000D01*
X49124000Y-60130000D01*
X49321000Y-60182000D01*
X49533000Y-60182000D01*
X49730000Y-60130000D01*
X49918000Y-60022000D01*
X49956000Y-60012000D01*
X51040000Y-60012000D01*
X51095000Y-60035000D01*
X51529000Y-60470000D01*
X51552000Y-60525000D01*
X51552000Y-60753000D01*
X51512000Y-60822000D01*
X51418000Y-60877000D01*
X51270000Y-61025000D01*
X51164000Y-61207000D01*
X51162000Y-61212000D01*
X51109000Y-61413000D01*
X51109000Y-61538000D01*
X51068000Y-61608000D01*
X51002000Y-61646000D01*
X50999000Y-61648000D01*
X50848000Y-61799000D01*
X50740000Y-61986000D01*
X50688000Y-62183000D01*
X50688000Y-62395000D01*
X50740000Y-62592000D01*
X50848000Y-62780000D01*
X50858000Y-62818000D01*
X50858000Y-73421000D01*
X50848000Y-73459000D01*
X50740000Y-73647000D01*
X50688000Y-73844000D01*
X50688000Y-74054000D01*
X50689000Y-74057000D01*
X50741000Y-74254000D01*
X50743000Y-74260000D01*
X50849000Y-74441000D01*
X50996000Y-74588000D01*
X51178000Y-74692000D01*
X51383000Y-74747000D01*
X51588000Y-74747000D01*
X51794000Y-74692000D01*
X51793000Y-74692000D01*
X51973000Y-74589000D01*
X51976000Y-74587000D01*
X52120000Y-74442000D01*
X52122000Y-74440000D01*
X52229000Y-74261000D01*
X52283000Y-74057000D01*
X52283000Y-73845000D01*
X52228000Y-73640000D01*
X52228000Y-73639000D01*
X52123000Y-73461000D01*
X52112000Y-73422000D01*
X52112000Y-64640000D01*
X52263000Y-64554000D01*
X52377000Y-64620000D01*
X52607000Y-64684000D01*
X52668000Y-64764000D01*
X52668000Y-91963000D01*
X52645000Y-92018000D01*
X44813000Y-99849000D01*
X44758000Y-99872000D01*
X41269000Y-99872000D01*
X41231000Y-99862000D01*
X41050000Y-99758000D01*
X41051000Y-99758000D01*
X40844000Y-99701000D01*
X40636000Y-99701000D01*
X40430000Y-99758000D01*
X40250000Y-99861000D01*
X40102000Y-100009000D01*
X39995000Y-100196000D01*
X39943000Y-100393000D01*
X39943000Y-100605000D01*
X39995000Y-100802000D01*
X40102000Y-100989000D01*
X40250000Y-101137000D01*
X40437000Y-101244000D01*
X40634000Y-101296000D01*
X40846000Y-101296000D01*
X41043000Y-101244000D01*
X41231000Y-101136000D01*
X41269000Y-101126000D01*
X44961000Y-101126000D01*
X44971000Y-101127000D01*
X45009000Y-101126000D01*
X45095000Y-101126000D01*
X45103000Y-101125000D01*
X45103000Y-101126000D01*
X45112000Y-101124000D01*
X45121000Y-101123000D01*
X45153000Y-101122000D01*
X45161000Y-101121000D01*
X45218000Y-101103000D01*
X45226000Y-101101000D01*
X45272000Y-101092000D01*
X45294000Y-101080000D01*
X45306000Y-101075000D01*
X45332000Y-101066000D01*
X45339000Y-101062000D01*
X45391000Y-101025000D01*
X45399000Y-101021000D01*
X45444000Y-100996000D01*
X45448000Y-100993000D01*
X45471000Y-100966000D01*
X45475000Y-100962000D01*
X53775000Y-92663000D01*
X53777000Y-92661000D01*
X53784000Y-92650000D01*
X53792000Y-92640000D01*
X53814000Y-92617000D01*
X53816000Y-92615000D01*
X53837000Y-92571000D01*
X53842000Y-92562000D01*
X53875000Y-92511000D01*
X53884000Y-92477000D01*
X53888000Y-92467000D01*
X53896000Y-92448000D01*
X53900000Y-92438000D01*
X53907000Y-92385000D01*
X53909000Y-92377000D01*
X53924000Y-92321000D01*
X53922000Y-92275000D01*
X53922000Y-86261000D01*
X55699000Y-86261000D01*
X55699000Y-88461000D01*
X57900000Y-88461000D01*
X57900000Y-87308000D01*
X61378000Y-87308000D01*
X61378000Y-87417000D01*
X61407000Y-87524000D01*
X61409000Y-87527000D01*
X61463000Y-87621000D01*
X61540000Y-87698000D01*
X61636000Y-87753000D01*
X61637000Y-87754000D01*
X61746000Y-87783000D01*
X61853000Y-87783000D01*
X61962000Y-87754000D01*
X61963000Y-87753000D01*
X62059000Y-87698000D01*
X62136000Y-87621000D01*
X62190000Y-87527000D01*
X62192000Y-87524000D01*
X62221000Y-87417000D01*
X62221000Y-87308000D01*
X62192000Y-87199000D01*
X62136000Y-87102000D01*
X62059000Y-87025000D01*
X61963000Y-86970000D01*
X61962000Y-86969000D01*
X61853000Y-86940000D01*
X61746000Y-86940000D01*
X61637000Y-86969000D01*
X61636000Y-86970000D01*
X61540000Y-87025000D01*
X61463000Y-87102000D01*
X61407000Y-87199000D01*
X61378000Y-87308000D01*
X57900000Y-87308000D01*
X57900000Y-86261000D01*
X55699000Y-86261000D01*
X53922000Y-86261000D01*
X53922000Y-64580000D01*
X53923000Y-64571000D01*
X53922000Y-64530000D01*
X53922000Y-64443000D01*
X53921000Y-64435000D01*
X53922000Y-64435000D01*
X53920000Y-64426000D01*
X53919000Y-64417000D01*
X53918000Y-64383000D01*
X53901000Y-64327000D01*
X53899000Y-64320000D01*
X53888000Y-64268000D01*
X53876000Y-64247000D01*
X53869000Y-64232000D01*
X53861000Y-64205000D01*
X53861000Y-64204000D01*
X53825000Y-64155000D01*
X53819000Y-64146000D01*
X53790000Y-64091000D01*
X53744000Y-64050000D01*
X53740000Y-64047000D01*
X53501000Y-63807000D01*
X53481000Y-63773000D01*
X53428000Y-63570000D01*
X53427000Y-63569000D01*
X53323000Y-63389000D01*
X53177000Y-63242000D01*
X53175000Y-63240000D01*
X52988000Y-63133000D01*
X52791000Y-63081000D01*
X52579000Y-63081000D01*
X52381000Y-63133000D01*
X52377000Y-63135000D01*
X52261000Y-63201000D01*
X52112000Y-63114000D01*
X52112000Y-62817000D01*
X52123000Y-62778000D01*
X52227000Y-62602000D01*
X52283000Y-62394000D01*
X52283000Y-62266000D01*
X52323000Y-62196000D01*
X52393000Y-62156000D01*
X52396000Y-62154000D01*
X52484000Y-62066000D01*
X52501000Y-62053000D01*
X52560000Y-62021000D01*
X52564000Y-62018000D01*
X52573000Y-62012000D01*
X52575000Y-62011000D01*
X52637000Y-61942000D01*
X52639000Y-61940000D01*
X52696000Y-61882000D01*
X52698000Y-61878000D01*
X52709000Y-61862000D01*
X52742000Y-61789000D01*
X52743000Y-61787000D01*
X52783000Y-61704000D01*
X52786000Y-61693000D01*
X52795000Y-61623000D01*
X52796000Y-61621000D01*
X52806000Y-61558000D01*
X52806000Y-61552000D01*
X52807000Y-61543000D01*
X52812000Y-61497000D01*
X52808000Y-61480000D01*
X52806000Y-61463000D01*
X52806000Y-60183000D01*
X52804000Y-60174000D01*
X52802000Y-60159000D01*
X52801000Y-60126000D01*
X52784000Y-60071000D01*
X52781000Y-60062000D01*
X52772000Y-60012000D01*
X52772000Y-60010000D01*
X52758000Y-59986000D01*
X52753000Y-59974000D01*
X52746000Y-59952000D01*
X52741000Y-59942000D01*
X52715000Y-59907000D01*
X52710000Y-59899000D01*
X52675000Y-59835000D01*
X52620000Y-59786000D01*
X52616000Y-59783000D01*
X51740000Y-58905000D01*
X51738000Y-58903000D01*
X51727000Y-58896000D01*
X51717000Y-58888000D01*
X51694000Y-58866000D01*
X51691000Y-58864000D01*
X51648000Y-58843000D01*
X51639000Y-58838000D01*
X51588000Y-58805000D01*
X51554000Y-58796000D01*
X51545000Y-58793000D01*
X51440000Y-58747000D01*
X51420000Y-58574000D01*
X51539000Y-58488000D01*
X51547000Y-58483000D01*
X51602000Y-58452000D01*
X51645000Y-58405000D01*
X51648000Y-58402000D01*
X52250000Y-57801000D01*
X52284000Y-57781000D01*
X52486000Y-57727000D01*
X52668000Y-57623000D01*
X52814000Y-57477000D01*
X52921000Y-57294000D01*
X52923000Y-57289000D01*
X52975000Y-57092000D01*
X52976000Y-57089000D01*
X52976000Y-56880000D01*
X52924000Y-56682000D01*
X52816000Y-56495000D01*
X52667000Y-56346000D01*
X52489000Y-56244000D01*
X52284000Y-56187000D01*
X52073000Y-56187000D01*
X51868000Y-56244000D01*
X51690000Y-56346000D01*
X51541000Y-56495000D01*
X51433000Y-56682000D01*
X51381000Y-56880000D01*
X51361000Y-56915000D01*
X50967000Y-57308000D01*
X50912000Y-57331000D01*
X49373000Y-57331000D01*
X49318000Y-57308000D01*
X47651498Y-55641000D01*
X49729000Y-55641000D01*
X49729000Y-55853000D01*
X49781000Y-56050000D01*
X49889000Y-56238000D01*
X49891000Y-56240000D01*
X50037000Y-56385000D01*
X50217000Y-56489000D01*
X50218000Y-56490000D01*
X50423000Y-56544000D01*
X50632000Y-56544000D01*
X50829000Y-56492000D01*
X51016000Y-56385000D01*
X51163000Y-56238000D01*
X51267000Y-56058000D01*
X51271000Y-56048000D01*
X51326000Y-55849000D01*
X51345000Y-55816000D01*
X52297000Y-54864000D01*
X52299000Y-54860000D01*
X52312000Y-54843000D01*
X52337000Y-54819000D01*
X52337000Y-54818000D01*
X52359000Y-54773000D01*
X52363000Y-54766000D01*
X52395000Y-54716000D01*
X52396000Y-54713000D01*
X52404000Y-54683000D01*
X52410000Y-54667000D01*
X52422000Y-54644000D01*
X52430000Y-54587000D01*
X52432000Y-54577000D01*
X52448000Y-54519000D01*
X52446000Y-54480000D01*
X52446000Y-50372000D01*
X52456000Y-50334000D01*
X52560000Y-50154000D01*
X52617000Y-49947000D01*
X52617000Y-49739000D01*
X52560000Y-49533000D01*
X52457000Y-49353000D01*
X52309000Y-49205000D01*
X52122000Y-49098000D01*
X51925000Y-49046000D01*
X51713000Y-49046000D01*
X51516000Y-49098000D01*
X51329000Y-49205000D01*
X51181000Y-49353000D01*
X51073000Y-49540000D01*
X51073000Y-49542000D01*
X51022000Y-49737000D01*
X51022000Y-49951000D01*
X51074000Y-50146000D01*
X51182000Y-50334000D01*
X51192000Y-50372000D01*
X51192000Y-54162000D01*
X51169000Y-54217000D01*
X50456000Y-54929000D01*
X50422000Y-54949000D01*
X50213000Y-55006000D01*
X50039000Y-55107000D01*
X50038000Y-55108000D01*
X49889000Y-55256000D01*
X49888000Y-55257000D01*
X49781000Y-55444000D01*
X49729000Y-55641000D01*
X47651498Y-55641000D01*
X45971000Y-53960000D01*
X45948000Y-53905000D01*
X45948000Y-51231000D01*
X45958000Y-51193000D01*
X46063000Y-51012000D01*
X46065000Y-51008000D01*
X46065000Y-51007000D01*
X46118000Y-50806000D01*
X46118000Y-50597000D01*
X46066000Y-50400000D01*
X45960000Y-50215000D01*
X45958000Y-50212000D01*
X45809000Y-50064000D01*
X45808000Y-50063000D01*
X45635000Y-49962000D01*
X45425000Y-49905000D01*
X45216000Y-49905000D01*
X45128000Y-49817000D01*
X45128000Y-47809000D01*
X45138000Y-47771000D01*
X45246000Y-47583000D01*
X45298000Y-47388000D01*
X45298000Y-47178000D01*
X45244000Y-46972000D01*
X45243000Y-46971000D01*
X45139000Y-46791000D01*
X44992000Y-46643000D01*
X44991000Y-46642000D01*
X44805000Y-46535000D01*
X44607000Y-46483000D01*
X44395000Y-46483000D01*
X44197000Y-46535000D01*
X44011000Y-46642000D01*
X44010000Y-46643000D01*
X43863000Y-46791000D01*
X43759000Y-46971000D01*
X43758000Y-46972000D01*
X43704000Y-47178000D01*
X43704000Y-47388000D01*
X43756000Y-47583000D01*
X43864000Y-47771000D01*
X43874000Y-47809000D01*
X43874000Y-59239000D01*
X43689000Y-59316000D01*
X43399000Y-59026000D01*
X43106000Y-58856000D01*
X43103000Y-58855000D01*
X42767000Y-58765000D01*
X42430000Y-58765000D01*
X42094000Y-58855000D01*
X42091000Y-58856000D01*
X41799000Y-59026000D01*
X41556000Y-59268000D01*
X41386000Y-59561000D01*
X41384000Y-59566000D01*
X41296000Y-59899000D01*
X41296000Y-60240000D01*
X41335000Y-60387000D01*
X41315000Y-60465000D01*
X39721000Y-62058000D01*
X39719000Y-62062000D01*
X39706000Y-62079000D01*
X39681000Y-62104000D01*
X39640000Y-62194000D01*
X39458000Y-62204000D01*
X39407000Y-62118000D01*
X39261000Y-61971000D01*
X39073000Y-61863000D01*
X38836000Y-61800000D01*
X38773000Y-61693000D01*
X38822000Y-61509000D01*
X38822000Y-61169000D01*
X38733000Y-60836000D01*
X38731000Y-60830000D01*
X38562000Y-60539000D01*
X38318000Y-60295000D01*
X38075000Y-60154000D01*
X38075000Y-59981000D01*
X38317000Y-59842000D01*
X38320000Y-59840000D01*
X38559000Y-59600000D01*
X38562000Y-59597000D01*
X38731000Y-59306000D01*
X38732000Y-59303000D01*
X38822000Y-58967000D01*
X38822000Y-58629000D01*
X38732000Y-58293000D01*
X38731000Y-58290000D01*
X38562000Y-57999000D01*
X38318000Y-57755000D01*
X38026000Y-57586000D01*
X38023000Y-57585000D01*
X37687000Y-57495000D01*
X37350000Y-57495000D01*
X37014000Y-57585000D01*
X37011000Y-57586000D01*
X36720000Y-57755000D01*
X36635000Y-57840000D01*
X36450000Y-57763000D01*
X36450000Y-47711000D01*
X36473000Y-47656000D01*
X38934000Y-45196000D01*
X39058000Y-45196000D01*
X39549000Y-45687000D01*
X39572000Y-45742000D01*
X39572000Y-59190000D01*
X39562000Y-59228000D01*
X39454000Y-59416000D01*
X39402000Y-59613000D01*
X39402000Y-59823000D01*
X39455000Y-60023000D01*
X39458000Y-60030000D01*
X39563000Y-60210000D01*
X39708000Y-60355000D01*
X39890000Y-60461000D01*
X39892000Y-60462000D01*
X40096000Y-60516000D01*
X40305000Y-60516000D01*
X40502000Y-60464000D01*
X40689000Y-60357000D01*
X40690000Y-60356000D01*
X40838000Y-60207000D01*
X40839000Y-60206000D01*
X40940000Y-60033000D01*
X40997000Y-59824000D01*
X40997000Y-59615000D01*
X40940000Y-59409000D01*
X40836000Y-59228000D01*
X40826000Y-59190000D01*
X40826000Y-57461000D01*
X42063000Y-57461000D01*
X42063000Y-57598000D01*
X42101000Y-57737000D01*
X42171000Y-57858000D01*
X42269000Y-57956000D01*
X42391000Y-58026000D01*
X42392000Y-58027000D01*
X42530000Y-58064000D01*
X42667000Y-58064000D01*
X42805000Y-58027000D01*
X42806000Y-58026000D01*
X42928000Y-57956000D01*
X43026000Y-57858000D01*
X43097000Y-57737000D01*
X43099000Y-57731000D01*
X43133000Y-57602000D01*
X43134000Y-57599000D01*
X43134000Y-57461000D01*
X43098000Y-57322000D01*
X43097000Y-57321000D01*
X43026000Y-57197000D01*
X42928000Y-57101000D01*
X42806000Y-57030000D01*
X42804000Y-57029000D01*
X42668000Y-56993000D01*
X42529000Y-56993000D01*
X42393000Y-57029000D01*
X42391000Y-57030000D01*
X42271000Y-57100000D01*
X42168000Y-57202000D01*
X42166000Y-57205000D01*
X42102000Y-57318000D01*
X42101000Y-57320000D01*
X42063000Y-57461000D01*
X40826000Y-57461000D01*
X40826000Y-50775000D01*
X41011000Y-50698000D01*
X41781000Y-51469000D01*
X41801000Y-51503000D01*
X41855000Y-51709000D01*
X41959000Y-51885000D01*
X41964000Y-51892000D01*
X42105000Y-52033000D01*
X42111000Y-52037000D01*
X42289000Y-52143000D01*
X42494000Y-52197000D01*
X42703000Y-52197000D01*
X42908000Y-52143000D01*
X43088000Y-52035000D01*
X43090000Y-52034000D01*
X43235000Y-51892000D01*
X43341000Y-51707000D01*
X43396000Y-51503000D01*
X43396000Y-51297000D01*
X43341000Y-51092000D01*
X43237000Y-50910000D01*
G37*
%TD.AperFunction*%
%TA.AperFunction,Conductor*%
G36*
X154088000Y-661000D02*
G01*
X153911000Y-484000D01*
X153988000Y-299000D01*
X156250000Y-301000D01*
X169833000Y-323000D01*
X179000000Y-349000D01*
X182632000Y-380000D01*
X182637000Y-380000D01*
X184284000Y-512000D01*
X184287000Y-509000D01*
X186036000Y-708000D01*
X186039000Y-708000D01*
X187727000Y-956000D01*
X187729000Y-956000D01*
X189415000Y-1261000D01*
X189417000Y-1261000D01*
X191077000Y-1618000D01*
X191079000Y-1618000D01*
X192733000Y-2032000D01*
X192735000Y-2032000D01*
X194400000Y-2508000D01*
X194403000Y-2509000D01*
X196039000Y-3034000D01*
X196041000Y-3034000D01*
X197623000Y-3600000D01*
X197627000Y-3597000D01*
X199374000Y-4282000D01*
X199377000Y-4286000D01*
X200986000Y-4976000D01*
X200988000Y-4976000D01*
X202630000Y-5739000D01*
X202632000Y-5740000D01*
X204056000Y-6453000D01*
X204058000Y-6454000D01*
X205479000Y-7217000D01*
X205481000Y-7221000D01*
X206828000Y-7997000D01*
X206830000Y-7998000D01*
X208179000Y-8828000D01*
X208180000Y-8829000D01*
X209498000Y-9695000D01*
X209500000Y-9697000D01*
X210819000Y-10621000D01*
X210821000Y-10622000D01*
X212114000Y-11584000D01*
X212116000Y-11586000D01*
X213387000Y-12588000D01*
X213388000Y-12589000D01*
X214664000Y-13656000D01*
X214665000Y-13657000D01*
X215925000Y-14765000D01*
X215926000Y-14766000D01*
X217168000Y-15921000D01*
X217169000Y-15922000D01*
X218420000Y-17144000D01*
X218421000Y-17145000D01*
X219442000Y-18182000D01*
X219442000Y-18186000D01*
X220361000Y-19159000D01*
X220362000Y-19160000D01*
X221290000Y-20185000D01*
X221291000Y-20186000D01*
X222189000Y-21220000D01*
X222190000Y-21221000D01*
X223074000Y-22285000D01*
X223075000Y-22286000D01*
X223930000Y-23359000D01*
X223931000Y-23360000D01*
X224758000Y-24447000D01*
X224759000Y-24448000D01*
X225574000Y-25565000D01*
X225575000Y-25567000D01*
X226363000Y-26698000D01*
X226363000Y-26699000D01*
X227132000Y-27850000D01*
X227133000Y-27852000D01*
X227882000Y-29027000D01*
X227883000Y-29028000D01*
X228608000Y-30217000D01*
X228609000Y-30219000D01*
X230011000Y-32672000D01*
X230012000Y-32674000D01*
X231298000Y-35127000D01*
X231299000Y-35129000D01*
X232498000Y-37638000D01*
X232499000Y-37640000D01*
X233586000Y-40159000D01*
X233587000Y-40161000D01*
X234590000Y-42747000D01*
X234591000Y-42750000D01*
X235490000Y-45355000D01*
X235491000Y-45358000D01*
X236306000Y-48046000D01*
X236307000Y-48048000D01*
X237026000Y-50782000D01*
X237027000Y-50785000D01*
X237657000Y-53569000D01*
X237657000Y-53572000D01*
X238205000Y-56454000D01*
X238205000Y-56457000D01*
X238663000Y-59390000D01*
X238664000Y-59392000D01*
X239041000Y-62417000D01*
X239041000Y-62420000D01*
X239113000Y-63261000D01*
X239116000Y-63264000D01*
X239186000Y-64486000D01*
X239184000Y-64488000D01*
X239231000Y-65718000D01*
X239231000Y-65719000D01*
X239266000Y-67139000D01*
X239266000Y-67140000D01*
X239287000Y-68648000D01*
X239287000Y-68649000D01*
X239295000Y-70202000D01*
X239287000Y-71755000D01*
X239287000Y-71756000D01*
X239266000Y-73264000D01*
X239266000Y-73265000D01*
X239231000Y-74686000D01*
X239231000Y-74687000D01*
X239184000Y-75912000D01*
X239186000Y-75914000D01*
X239116000Y-77136000D01*
X239113000Y-77139000D01*
X239047000Y-77912000D01*
X239050000Y-77916000D01*
X238884000Y-79351000D01*
X238883000Y-79352000D01*
X238722000Y-80602000D01*
X238722000Y-80603000D01*
X238540000Y-81883000D01*
X238540000Y-81884000D01*
X238344000Y-83142000D01*
X238344000Y-83143000D01*
X238134000Y-84384000D01*
X238134000Y-84385000D01*
X237908000Y-85605000D01*
X237908000Y-85606000D01*
X237667000Y-86810000D01*
X237667000Y-86811000D01*
X237411000Y-87999000D01*
X237410000Y-88000000D01*
X237138000Y-89172000D01*
X237138000Y-89174000D01*
X236852000Y-90326000D01*
X236852000Y-90327000D01*
X236548000Y-91477000D01*
X236548000Y-91478000D01*
X236233000Y-92596000D01*
X236232000Y-92599000D01*
X234841000Y-96922000D01*
X234840000Y-96926000D01*
X233227000Y-101082000D01*
X233225000Y-101086000D01*
X231373000Y-105129000D01*
X231371000Y-105133000D01*
X229320000Y-108982000D01*
X229318000Y-108986000D01*
X227052000Y-112677000D01*
X227049000Y-112681000D01*
X224587000Y-116185000D01*
X224585000Y-116189000D01*
X221933000Y-119502000D01*
X221929000Y-119505000D01*
X219086000Y-122623000D01*
X219083000Y-122626000D01*
X216075000Y-125521000D01*
X216071000Y-125524000D01*
X212897000Y-128193000D01*
X212893000Y-128197000D01*
X209553000Y-130637000D01*
X209549000Y-130640000D01*
X206045000Y-132844000D01*
X206042000Y-132846000D01*
X204408000Y-133761000D01*
X204406000Y-133762000D01*
X202766000Y-134609000D01*
X202763000Y-134610000D01*
X201096000Y-135400000D01*
X201094000Y-135401000D01*
X199408000Y-136129000D01*
X199406000Y-136130000D01*
X197685000Y-136802000D01*
X197683000Y-136803000D01*
X195950000Y-137410000D01*
X195948000Y-137411000D01*
X194189000Y-137958000D01*
X194187000Y-137958000D01*
X192387000Y-138449000D01*
X192385000Y-138450000D01*
X190566000Y-138880000D01*
X190564000Y-138881000D01*
X188680000Y-139261000D01*
X188677000Y-139262000D01*
X186769000Y-139584000D01*
X186767000Y-139584000D01*
X184808000Y-139853000D01*
X184804000Y-139853000D01*
X184283000Y-139902000D01*
X184280000Y-139902000D01*
X183363000Y-139945000D01*
X183361000Y-139945000D01*
X181845000Y-139981000D01*
X181844000Y-139981000D01*
X179470000Y-140011000D01*
X176003000Y-140036000D01*
X176002000Y-140036000D01*
X171202000Y-140056000D01*
X164829000Y-140072000D01*
X156641000Y-140085000D01*
X146400000Y-140096000D01*
X133864000Y-140106000D01*
X118793000Y-140115000D01*
X100946000Y-140124000D01*
X83472000Y-140130000D01*
X68648000Y-140133000D01*
X56255000Y-140134000D01*
X46074000Y-140132000D01*
X37886000Y-140126000D01*
X31472000Y-140116000D01*
X26610000Y-140101000D01*
X23085000Y-140082000D01*
X20678000Y-140056000D01*
X20677000Y-140056000D01*
X19172000Y-140025000D01*
X19170000Y-140025000D01*
X18334000Y-139987000D01*
X18329000Y-139986000D01*
X17993000Y-139946000D01*
X17982000Y-139944000D01*
X17119000Y-139713000D01*
X17112000Y-139710000D01*
X16294000Y-139396000D01*
X16287000Y-139393000D01*
X15506000Y-138999000D01*
X15499000Y-138995000D01*
X14776000Y-138533000D01*
X14770000Y-138529000D01*
X14102000Y-137998000D01*
X14096000Y-137993000D01*
X13484000Y-137399000D01*
X13478000Y-137393000D01*
X12930000Y-136736000D01*
X12925000Y-136730000D01*
X12456000Y-136040000D01*
X12452000Y-136033000D01*
X12045000Y-135272000D01*
X12042000Y-135266000D01*
X11718000Y-134479000D01*
X11715000Y-134472000D01*
X11471000Y-133639000D01*
X11469000Y-133632000D01*
X11312000Y-132764000D01*
X11311000Y-132755000D01*
X11298000Y-132545000D01*
X11298000Y-132538000D01*
X11312000Y-132140000D01*
X11312000Y-132136000D01*
X11366000Y-131527000D01*
X11366000Y-131525000D01*
X11482000Y-130518000D01*
X11483000Y-130517000D01*
X11641000Y-129284000D01*
X11640000Y-129282000D01*
X11901000Y-127376000D01*
X12240000Y-124964000D01*
X12474982Y-123325000D01*
X14567000Y-123325000D01*
X14568000Y-123354000D01*
X14568000Y-124283000D01*
X14567000Y-124296000D01*
X14568000Y-124331000D01*
X14568000Y-124419000D01*
X14569000Y-124427000D01*
X14568000Y-124427000D01*
X14570000Y-124436000D01*
X14571000Y-124445000D01*
X14572000Y-124478000D01*
X14592000Y-124543000D01*
X14595000Y-124553000D01*
X14603000Y-124597000D01*
X14604000Y-124598000D01*
X14616000Y-124620000D01*
X14622000Y-124634000D01*
X14629000Y-124657000D01*
X14631000Y-124660000D01*
X14663000Y-124705000D01*
X14698000Y-124767000D01*
X14703000Y-124773000D01*
X14760000Y-124825000D01*
X14763000Y-124828000D01*
X15540000Y-125606000D01*
X15560000Y-125640000D01*
X15613000Y-125840000D01*
X15720000Y-126027000D01*
X15721000Y-126028000D01*
X15869000Y-126175000D01*
X16049000Y-126279000D01*
X16050000Y-126280000D01*
X16255000Y-126334000D01*
X16464000Y-126334000D01*
X16661000Y-126282000D01*
X16848000Y-126175000D01*
X16996000Y-126027000D01*
X17099000Y-125848000D01*
X17156000Y-125641000D01*
X17156000Y-125433000D01*
X17099000Y-125227000D01*
X16996000Y-125047000D01*
X16848000Y-124899000D01*
X16720427Y-124826000D01*
X20959000Y-124826000D01*
X20959000Y-133518000D01*
X21399000Y-135162000D01*
X22246000Y-136631000D01*
X22247000Y-136632000D01*
X23448000Y-137832000D01*
X23449000Y-137833000D01*
X24914000Y-138679000D01*
X24917000Y-138680000D01*
X26561000Y-139121000D01*
X39690000Y-139121000D01*
X39690000Y-139069000D01*
X39752000Y-138988000D01*
X40898000Y-138680000D01*
X40897000Y-138680000D01*
X42366000Y-137833000D01*
X43568000Y-136631000D01*
X44415000Y-135165000D01*
X44416000Y-135162000D01*
X44856000Y-133518000D01*
X44856000Y-124826000D01*
X153483000Y-124826000D01*
X153483000Y-133518000D01*
X153923000Y-135162000D01*
X154770000Y-136631000D01*
X154771000Y-136632000D01*
X155971000Y-137831000D01*
X157442000Y-138680000D01*
X159085000Y-139121000D01*
X172215000Y-139121000D01*
X172215000Y-139069000D01*
X172277000Y-138988000D01*
X173422000Y-138680000D01*
X173425000Y-138679000D01*
X174890000Y-137833000D01*
X174891000Y-137832000D01*
X176092000Y-136632000D01*
X176093000Y-136631000D01*
X176940000Y-135162000D01*
X177380000Y-133518000D01*
X177380000Y-124826000D01*
X176940000Y-123182000D01*
X176093000Y-121714000D01*
X174890000Y-120511000D01*
X173425000Y-119665000D01*
X173422000Y-119664000D01*
X171778000Y-119223000D01*
X159085000Y-119223000D01*
X157441000Y-119664000D01*
X157438000Y-119665000D01*
X155973000Y-120511000D01*
X154770000Y-121714000D01*
X153923000Y-123182000D01*
X153483000Y-124826000D01*
X44856000Y-124826000D01*
X44416000Y-123180000D01*
X43568000Y-121714000D01*
X43567000Y-121713000D01*
X42367000Y-120512000D01*
X42366000Y-120511000D01*
X40897000Y-119664000D01*
X40898000Y-119664000D01*
X39253000Y-119223000D01*
X26561000Y-119223000D01*
X24917000Y-119664000D01*
X24914000Y-119665000D01*
X23449000Y-120511000D01*
X22246000Y-121714000D01*
X21399000Y-123182000D01*
X20959000Y-124826000D01*
X16720427Y-124826000D01*
X16668000Y-124796000D01*
X16461000Y-124738000D01*
X16428000Y-124719000D01*
X15845000Y-124135000D01*
X15822000Y-124080000D01*
X15822000Y-123683000D01*
X15845000Y-123628000D01*
X17190000Y-122284000D01*
X17245000Y-122261000D01*
X17423000Y-122261000D01*
X17620000Y-122209000D01*
X17807000Y-122102000D01*
X17808000Y-122101000D01*
X17956000Y-121952000D01*
X17957000Y-121951000D01*
X18058000Y-121778000D01*
X18115000Y-121568000D01*
X18115000Y-121360000D01*
X18058000Y-121154000D01*
X17955000Y-120974000D01*
X17807000Y-120826000D01*
X17627000Y-120723000D01*
X17628000Y-120723000D01*
X17421000Y-120666000D01*
X17213000Y-120666000D01*
X17003000Y-120723000D01*
X16830000Y-120824000D01*
X16829000Y-120825000D01*
X16680000Y-120973000D01*
X16679000Y-120974000D01*
X16622000Y-121073000D01*
X16610000Y-121089000D01*
X14718000Y-122980000D01*
X14717000Y-122982000D01*
X14705000Y-122998000D01*
X14678000Y-123026000D01*
X14676000Y-123028000D01*
X14647000Y-123084000D01*
X14644000Y-123090000D01*
X14619000Y-123129000D01*
X14617000Y-123135000D01*
X14611000Y-123157000D01*
X14606000Y-123170000D01*
X14594000Y-123195000D01*
X14592000Y-123200000D01*
X14582000Y-123270000D01*
X14580000Y-123279000D01*
X14567000Y-123325000D01*
X12474982Y-123325000D01*
X12680000Y-121895000D01*
X13232000Y-118085000D01*
X13693267Y-114923000D01*
X16443000Y-114923000D01*
X16445000Y-114968000D01*
X16445000Y-117422000D01*
X16443000Y-117440000D01*
X16445000Y-117515000D01*
X16445000Y-117568000D01*
X16447000Y-117583000D01*
X16447000Y-117593000D01*
X16448000Y-117622000D01*
X16449000Y-117630000D01*
X16469000Y-117694000D01*
X16471000Y-117701000D01*
X16478000Y-117736000D01*
X16486000Y-117749000D01*
X16491000Y-117762000D01*
X16508000Y-117811000D01*
X16512000Y-117819000D01*
X16520000Y-117853000D01*
X16520000Y-117872000D01*
X16572000Y-118069000D01*
X16679000Y-118256000D01*
X16680000Y-118257000D01*
X16829000Y-118405000D01*
X16830000Y-118406000D01*
X17003000Y-118507000D01*
X17213000Y-118564000D01*
X17421000Y-118564000D01*
X17628000Y-118507000D01*
X17627000Y-118507000D01*
X17807000Y-118404000D01*
X17955000Y-118256000D01*
X18058000Y-118077000D01*
X18115000Y-117870000D01*
X18115000Y-117662000D01*
X18058000Y-117456000D01*
X17955000Y-117276000D01*
X17807000Y-117128000D01*
X17739000Y-117089000D01*
X17699000Y-117019000D01*
X17699000Y-115280000D01*
X17722000Y-115225000D01*
X19124000Y-113824000D01*
X19126000Y-113820000D01*
X19139000Y-113803000D01*
X19164000Y-113779000D01*
X19164000Y-113778000D01*
X19189000Y-113727000D01*
X19194000Y-113719000D01*
X19228000Y-113667000D01*
X19235000Y-113652000D01*
X19248000Y-113633000D01*
X19285000Y-113594000D01*
X19387000Y-113416000D01*
X19444000Y-113210000D01*
X19444000Y-113002000D01*
X19387000Y-112796000D01*
X19284000Y-112616000D01*
X19136000Y-112468000D01*
X18956000Y-112365000D01*
X18957000Y-112365000D01*
X18750000Y-112308000D01*
X18542000Y-112308000D01*
X18336000Y-112365000D01*
X18156000Y-112468000D01*
X18008000Y-112616000D01*
X17900000Y-112803000D01*
X17900000Y-112805000D01*
X17849000Y-113000000D01*
X17849000Y-113207000D01*
X17861000Y-113257000D01*
X17840000Y-113333000D01*
X16594000Y-114578000D01*
X16592000Y-114582000D01*
X16579000Y-114599000D01*
X16554000Y-114624000D01*
X16529000Y-114675000D01*
X16524000Y-114683000D01*
X16496000Y-114727000D01*
X16493000Y-114734000D01*
X16486000Y-114760000D01*
X16481000Y-114775000D01*
X16469000Y-114798000D01*
X16469000Y-114799000D01*
X16461000Y-114855000D01*
X16459000Y-114865000D01*
X16443000Y-114923000D01*
X13693267Y-114923000D01*
X13908000Y-113451000D01*
X14705644Y-108006000D01*
X17370000Y-108006000D01*
X17372000Y-108051000D01*
X17372000Y-108813000D01*
X17371000Y-108826000D01*
X17372000Y-108861000D01*
X17372000Y-108948000D01*
X17373000Y-108956000D01*
X17372000Y-108956000D01*
X17374000Y-108965000D01*
X17375000Y-108974000D01*
X17376000Y-109008000D01*
X17393000Y-109064000D01*
X17395000Y-109071000D01*
X17406000Y-109122000D01*
X17417000Y-109143000D01*
X17423000Y-109156000D01*
X17433000Y-109187000D01*
X17469000Y-109236000D01*
X17474000Y-109245000D01*
X17505000Y-109300000D01*
X17552000Y-109343000D01*
X17829000Y-109620000D01*
X17849000Y-109654000D01*
X17904000Y-109859000D01*
X17905000Y-109861000D01*
X18005000Y-110036000D01*
X18007000Y-110039000D01*
X18155000Y-110188000D01*
X18156000Y-110189000D01*
X18343000Y-110296000D01*
X18540000Y-110348000D01*
X18752000Y-110348000D01*
X18949000Y-110296000D01*
X19136000Y-110189000D01*
X19137000Y-110188000D01*
X19285000Y-110039000D01*
X19287000Y-110036000D01*
X19387000Y-109861000D01*
X19388000Y-109859000D01*
X19443000Y-109654000D01*
X19443000Y-109448000D01*
X19428832Y-109395000D01*
X37234000Y-109395000D01*
X37234000Y-109706000D01*
X37317000Y-110017000D01*
X37318000Y-110020000D01*
X37474000Y-110290000D01*
X37698000Y-110514000D01*
X37973000Y-110672000D01*
X37974000Y-110673000D01*
X38281000Y-110756000D01*
X40019000Y-110756000D01*
X40326000Y-110673000D01*
X40327000Y-110672000D01*
X40602000Y-110514000D01*
X40826000Y-110290000D01*
X40982000Y-110020000D01*
X40983000Y-110017000D01*
X41066000Y-109706000D01*
X41066000Y-109395000D01*
X40983000Y-109084000D01*
X40982000Y-109081000D01*
X40827000Y-108813000D01*
X40825000Y-108810000D01*
X40600000Y-108585000D01*
X40330000Y-108429000D01*
X40329000Y-108429000D01*
X40205000Y-108394000D01*
X40207000Y-108164000D01*
X40325000Y-108133000D01*
X40327000Y-108132000D01*
X40602000Y-107974000D01*
X40825000Y-107750000D01*
X40826000Y-107749000D01*
X40982000Y-107480000D01*
X40983000Y-107477000D01*
X41066000Y-107166000D01*
X41066000Y-106855000D01*
X40983000Y-106544000D01*
X40982000Y-106541000D01*
X40826000Y-106271000D01*
X40600000Y-106045000D01*
X40330000Y-105889000D01*
X40327000Y-105888000D01*
X40017000Y-105805000D01*
X38283000Y-105805000D01*
X37973000Y-105888000D01*
X37970000Y-105889000D01*
X37700000Y-106045000D01*
X37474000Y-106271000D01*
X37318000Y-106541000D01*
X37317000Y-106544000D01*
X37234000Y-106855000D01*
X37234000Y-107166000D01*
X37317000Y-107477000D01*
X37318000Y-107480000D01*
X37474000Y-107749000D01*
X37475000Y-107750000D01*
X37698000Y-107974000D01*
X37973000Y-108132000D01*
X37975000Y-108133000D01*
X38093000Y-108164000D01*
X38095000Y-108394000D01*
X37970000Y-108429000D01*
X37700000Y-108585000D01*
X37475000Y-108810000D01*
X37473000Y-108813000D01*
X37318000Y-109081000D01*
X37317000Y-109084000D01*
X37234000Y-109395000D01*
X19428832Y-109395000D01*
X19389000Y-109246000D01*
X19387000Y-109240000D01*
X19287000Y-109065000D01*
X19287000Y-109064000D01*
X19137000Y-108913000D01*
X19136000Y-108912000D01*
X18950000Y-108805000D01*
X18752000Y-108753000D01*
X18717000Y-108733000D01*
X18649000Y-108665000D01*
X18626000Y-108610000D01*
X18626000Y-108363000D01*
X18649000Y-108308000D01*
X20087000Y-106871000D01*
X20089000Y-106867000D01*
X20102000Y-106850000D01*
X20127000Y-106825000D01*
X20152000Y-106774000D01*
X20157000Y-106766000D01*
X20186000Y-106720000D01*
X20194000Y-106690000D01*
X20200000Y-106674000D01*
X20212000Y-106651000D01*
X20220000Y-106594000D01*
X20222000Y-106584000D01*
X20238000Y-106526000D01*
X20236000Y-106481000D01*
X20236000Y-106401000D01*
X20246000Y-106363000D01*
X20351000Y-106181000D01*
X20352000Y-106180000D01*
X20406000Y-105975000D01*
X20406000Y-105766000D01*
X20355000Y-105571000D01*
X20355000Y-105569000D01*
X20247000Y-105382000D01*
X20099000Y-105234000D01*
X19919000Y-105131000D01*
X19920000Y-105131000D01*
X19713000Y-105074000D01*
X19505000Y-105074000D01*
X19299000Y-105131000D01*
X19119000Y-105234000D01*
X18971000Y-105382000D01*
X18868000Y-105562000D01*
X18811000Y-105768000D01*
X18811000Y-105976000D01*
X18869000Y-106188000D01*
X18885000Y-106228000D01*
X18867000Y-106316000D01*
X17521000Y-107661000D01*
X17519000Y-107665000D01*
X17506000Y-107682000D01*
X17481000Y-107707000D01*
X17456000Y-107758000D01*
X17451000Y-107766000D01*
X17423000Y-107810000D01*
X17420000Y-107817000D01*
X17413000Y-107843000D01*
X17408000Y-107858000D01*
X17396000Y-107881000D01*
X17396000Y-107882000D01*
X17388000Y-107938000D01*
X17386000Y-107948000D01*
X17370000Y-108006000D01*
X14705644Y-108006000D01*
X14720000Y-107908000D01*
X15679000Y-101371000D01*
X15953815Y-99498000D01*
X18339000Y-99498000D01*
X18340000Y-99519000D01*
X18339000Y-99537000D01*
X18339000Y-101890000D01*
X18340000Y-101900000D01*
X18341000Y-101907000D01*
X18343000Y-101919000D01*
X18344000Y-101950000D01*
X18361000Y-102005000D01*
X18364000Y-102014000D01*
X18373000Y-102064000D01*
X18389000Y-102095000D01*
X18395000Y-102109000D01*
X18402000Y-102130000D01*
X18431000Y-102170000D01*
X18436000Y-102179000D01*
X18470000Y-102241000D01*
X18496000Y-102265000D01*
X18517000Y-102300000D01*
X18574000Y-102504000D01*
X18677000Y-102683000D01*
X18825000Y-102831000D01*
X19012000Y-102938000D01*
X19209000Y-102990000D01*
X19418000Y-102990000D01*
X19623000Y-102936000D01*
X19624000Y-102935000D01*
X19804000Y-102831000D01*
X19952000Y-102684000D01*
X19953000Y-102683000D01*
X20060000Y-102496000D01*
X20112000Y-102300000D01*
X20112000Y-102087000D01*
X20060000Y-101890000D01*
X19953000Y-101703000D01*
X19952000Y-101702000D01*
X19804000Y-101555000D01*
X19633000Y-101456000D01*
X19593000Y-101386000D01*
X19593000Y-99862000D01*
X19616000Y-99807000D01*
X20919000Y-98504000D01*
X20954000Y-98484000D01*
X21062000Y-98456000D01*
X21064000Y-98455000D01*
X21246000Y-98349000D01*
X21391000Y-98204000D01*
X21497000Y-98022000D01*
X21499000Y-98017000D01*
X21552000Y-97816000D01*
X21552000Y-97607000D01*
X21501000Y-97412000D01*
X21501000Y-97410000D01*
X21393000Y-97223000D01*
X21392000Y-97222000D01*
X21243000Y-97074000D01*
X21242000Y-97073000D01*
X21069000Y-96972000D01*
X20859000Y-96915000D01*
X20651000Y-96915000D01*
X20445000Y-96972000D01*
X20265000Y-97075000D01*
X20117000Y-97223000D01*
X20014000Y-97403000D01*
X19957000Y-97609000D01*
X19957000Y-97660000D01*
X19934000Y-97715000D01*
X18489000Y-99159000D01*
X18488000Y-99161000D01*
X18476000Y-99177000D01*
X18448000Y-99205000D01*
X18447000Y-99207000D01*
X18418000Y-99263000D01*
X18415000Y-99269000D01*
X18390000Y-99308000D01*
X18388000Y-99313000D01*
X18382000Y-99335000D01*
X18378000Y-99348000D01*
X18363000Y-99379000D01*
X18354000Y-99442000D01*
X18352000Y-99451000D01*
X18339000Y-99498000D01*
X15953815Y-99498000D01*
X16286000Y-97234000D01*
X16869000Y-93251000D01*
X17104353Y-91638000D01*
X19832000Y-91638000D01*
X19834000Y-91692000D01*
X19834000Y-93394000D01*
X19833000Y-93407000D01*
X19834000Y-93458000D01*
X19834000Y-93530000D01*
X19835000Y-93538000D01*
X19834000Y-93538000D01*
X19836000Y-93547000D01*
X19837000Y-93556000D01*
X19838000Y-93590000D01*
X19855000Y-93646000D01*
X19857000Y-93653000D01*
X19868000Y-93704000D01*
X19879000Y-93725000D01*
X19885000Y-93738000D01*
X19895000Y-93769000D01*
X19931000Y-93818000D01*
X19936000Y-93827000D01*
X19967000Y-93882000D01*
X20014000Y-93925000D01*
X20255000Y-94166000D01*
X20275000Y-94201000D01*
X20328000Y-94404000D01*
X20329000Y-94405000D01*
X20433000Y-94585000D01*
X20580000Y-94733000D01*
X20581000Y-94734000D01*
X20768000Y-94841000D01*
X20965000Y-94893000D01*
X21177000Y-94893000D01*
X21374000Y-94841000D01*
X21561000Y-94734000D01*
X21562000Y-94733000D01*
X21710000Y-94584000D01*
X21711000Y-94583000D01*
X21812000Y-94410000D01*
X21869000Y-94201000D01*
X21869000Y-93992000D01*
X21812000Y-93786000D01*
X21709000Y-93606000D01*
X21561000Y-93458000D01*
X21381000Y-93355000D01*
X21149000Y-93290000D01*
X21088000Y-93210000D01*
X21088000Y-91995000D01*
X21111000Y-91940000D01*
X22379000Y-90673000D01*
X22381000Y-90669000D01*
X22394000Y-90652000D01*
X22419000Y-90628000D01*
X22419000Y-90627000D01*
X22444000Y-90576000D01*
X22449000Y-90568000D01*
X22478000Y-90522000D01*
X22486000Y-90492000D01*
X22492000Y-90476000D01*
X22504000Y-90453000D01*
X22512000Y-90396000D01*
X22514000Y-90387000D01*
X22527000Y-90335000D01*
X22535000Y-90317000D01*
X22646000Y-90124000D01*
X22698000Y-89927000D01*
X22698000Y-89715000D01*
X22647000Y-89520000D01*
X22647000Y-89518000D01*
X22539000Y-89331000D01*
X22538000Y-89330000D01*
X22390000Y-89183000D01*
X22209000Y-89078000D01*
X22004000Y-89024000D01*
X21795000Y-89024000D01*
X21597000Y-89076000D01*
X21411000Y-89183000D01*
X21263000Y-89331000D01*
X21160000Y-89511000D01*
X21103000Y-89717000D01*
X21103000Y-89926000D01*
X21143000Y-90076000D01*
X21123000Y-90154000D01*
X19983000Y-91293000D01*
X19981000Y-91297000D01*
X19968000Y-91314000D01*
X19943000Y-91339000D01*
X19918000Y-91390000D01*
X19913000Y-91398000D01*
X19885000Y-91442000D01*
X19882000Y-91449000D01*
X19875000Y-91475000D01*
X19870000Y-91490000D01*
X19858000Y-91513000D01*
X19858000Y-91514000D01*
X19850000Y-91570000D01*
X19848000Y-91580000D01*
X19832000Y-91638000D01*
X17104353Y-91638000D01*
X17422000Y-89461000D01*
X17940000Y-85901000D01*
X18090357Y-84863000D01*
X20977000Y-84863000D01*
X20980000Y-84931000D01*
X20980000Y-85522000D01*
X20978000Y-85540000D01*
X20980000Y-85615000D01*
X20980000Y-85668000D01*
X20982000Y-85683000D01*
X20982000Y-85693000D01*
X20983000Y-85722000D01*
X20984000Y-85728000D01*
X21004000Y-85793000D01*
X21006000Y-85801000D01*
X21013000Y-85839000D01*
X21024000Y-85859000D01*
X21030000Y-85873000D01*
X21042000Y-85908000D01*
X21084000Y-85967000D01*
X21088000Y-85974000D01*
X21110000Y-86015000D01*
X21112000Y-86017000D01*
X21150000Y-86051000D01*
X21154000Y-86054000D01*
X21495000Y-86396000D01*
X21515000Y-86430000D01*
X21568000Y-86630000D01*
X21675000Y-86817000D01*
X21676000Y-86818000D01*
X21825000Y-86966000D01*
X22003000Y-87068000D01*
X22208000Y-87125000D01*
X22419000Y-87125000D01*
X22625000Y-87068000D01*
X22624000Y-87068000D01*
X22802000Y-86966000D01*
X22951000Y-86818000D01*
X22952000Y-86817000D01*
X23059000Y-86630000D01*
X23111000Y-86433000D01*
X23111000Y-86224000D01*
X23058000Y-86023000D01*
X23056000Y-86018000D01*
X22950000Y-85836000D01*
X22803000Y-85689000D01*
X22621000Y-85585000D01*
X22622000Y-85585000D01*
X22418000Y-85530000D01*
X22384000Y-85510000D01*
X22257000Y-85383000D01*
X22234000Y-85328000D01*
X22234000Y-85220000D01*
X22257000Y-85165000D01*
X23398000Y-84025000D01*
X23400000Y-84021000D01*
X23413000Y-84004000D01*
X23438000Y-83979000D01*
X23463000Y-83928000D01*
X23468000Y-83920000D01*
X23497000Y-83874000D01*
X23505000Y-83844000D01*
X23511000Y-83828000D01*
X23523000Y-83805000D01*
X23531000Y-83748000D01*
X23533000Y-83738000D01*
X23548000Y-83683000D01*
X23548000Y-83678000D01*
X23547000Y-83642000D01*
X23547000Y-83342000D01*
X23557000Y-83304000D01*
X23661000Y-83124000D01*
X23718000Y-82919000D01*
X23718000Y-82709000D01*
X23662000Y-82505000D01*
X23558000Y-82323000D01*
X23410000Y-82175000D01*
X23230000Y-82072000D01*
X23231000Y-82072000D01*
X23024000Y-82015000D01*
X22816000Y-82015000D01*
X22606000Y-82072000D01*
X22433000Y-82173000D01*
X22432000Y-82174000D01*
X22283000Y-82322000D01*
X22282000Y-82323000D01*
X22174000Y-82510000D01*
X22174000Y-82512000D01*
X22123000Y-82707000D01*
X22123000Y-82919000D01*
X22175000Y-83116000D01*
X22273000Y-83287000D01*
X22260000Y-83388000D01*
X21130000Y-84517000D01*
X21126000Y-84522000D01*
X21119000Y-84531000D01*
X21115000Y-84536000D01*
X21090000Y-84564000D01*
X21084000Y-84572000D01*
X21060000Y-84620000D01*
X21026000Y-84674000D01*
X21017000Y-84709000D01*
X21011000Y-84723000D01*
X21004000Y-84736000D01*
X20997000Y-84788000D01*
X20995000Y-84798000D01*
X20977000Y-84863000D01*
X18090357Y-84863000D01*
X18417000Y-82608000D01*
X18562495Y-81600000D01*
X32618000Y-81600000D01*
X32618000Y-84600000D01*
X35523000Y-84600000D01*
X35523000Y-83031000D01*
X36065000Y-83031000D01*
X36065000Y-83171000D01*
X36103000Y-83312000D01*
X36104000Y-83315000D01*
X36173000Y-83434000D01*
X36174000Y-83436000D01*
X36273000Y-83536000D01*
X36399000Y-83608000D01*
X36541000Y-83646000D01*
X36679000Y-83646000D01*
X36822000Y-83608000D01*
X36821000Y-83608000D01*
X36947000Y-83536000D01*
X36946000Y-83536000D01*
X37046000Y-83436000D01*
X37047000Y-83434000D01*
X37116000Y-83315000D01*
X37117000Y-83312000D01*
X37155000Y-83171000D01*
X37155000Y-83031000D01*
X37117000Y-82889000D01*
X37116000Y-82886000D01*
X37047000Y-82767000D01*
X37046000Y-82765000D01*
X36946000Y-82665000D01*
X36947000Y-82665000D01*
X36821000Y-82593000D01*
X36822000Y-82593000D01*
X36679000Y-82555000D01*
X36541000Y-82555000D01*
X36399000Y-82593000D01*
X36273000Y-82665000D01*
X36174000Y-82765000D01*
X36173000Y-82767000D01*
X36104000Y-82886000D01*
X36103000Y-82889000D01*
X36065000Y-83031000D01*
X35523000Y-83031000D01*
X35523000Y-81600000D01*
X34487000Y-81600000D01*
X34399000Y-81512000D01*
X34399000Y-76102000D01*
X34409000Y-76064000D01*
X34512000Y-75885000D01*
X34513000Y-75884000D01*
X34570000Y-75677000D01*
X34570000Y-75469000D01*
X34513000Y-75259000D01*
X34414000Y-75089000D01*
X34411000Y-75085000D01*
X34264000Y-74937000D01*
X34263000Y-74936000D01*
X34076000Y-74828000D01*
X33878000Y-74776000D01*
X33669000Y-74776000D01*
X33465000Y-74830000D01*
X33463000Y-74831000D01*
X33281000Y-74937000D01*
X33136000Y-75082000D01*
X33030000Y-75264000D01*
X33028000Y-75269000D01*
X32975000Y-75470000D01*
X32975000Y-75679000D01*
X33027000Y-75877000D01*
X33029000Y-75881000D01*
X33135000Y-76064000D01*
X33145000Y-76102000D01*
X33145000Y-81512000D01*
X33057000Y-81600000D01*
X32618000Y-81600000D01*
X18562495Y-81600000D01*
X18848000Y-79622000D01*
X19042087Y-78268000D01*
X22288000Y-78268000D01*
X22288000Y-78477000D01*
X22341000Y-78678000D01*
X22343000Y-78683000D01*
X22449000Y-78865000D01*
X22594000Y-79010000D01*
X22776000Y-79116000D01*
X22778000Y-79117000D01*
X22982000Y-79171000D01*
X23191000Y-79171000D01*
X23388000Y-79119000D01*
X23575000Y-79012000D01*
X23576000Y-79011000D01*
X23724000Y-78862000D01*
X23826000Y-78688000D01*
X23883000Y-78478000D01*
X23883000Y-78270000D01*
X23826000Y-78064000D01*
X23722000Y-77883000D01*
X23712000Y-77845000D01*
X23712000Y-76976000D01*
X23735000Y-76921000D01*
X24671000Y-75986000D01*
X24673000Y-75982000D01*
X24686000Y-75965000D01*
X24711000Y-75940000D01*
X24736000Y-75889000D01*
X24741000Y-75881000D01*
X24770000Y-75835000D01*
X24772000Y-75831000D01*
X24779000Y-75806000D01*
X24783000Y-75793000D01*
X24798000Y-75760000D01*
X24807000Y-75700000D01*
X24809000Y-75691000D01*
X24822000Y-75643000D01*
X24819000Y-75574000D01*
X24819000Y-75162000D01*
X24829000Y-75124000D01*
X24935000Y-74941000D01*
X24937000Y-74937000D01*
X24937000Y-74936000D01*
X24990000Y-74735000D01*
X24990000Y-74526000D01*
X24938000Y-74329000D01*
X24831000Y-74142000D01*
X24830000Y-74141000D01*
X24681000Y-73993000D01*
X24503000Y-73891000D01*
X24504000Y-73891000D01*
X24298000Y-73834000D01*
X24087000Y-73834000D01*
X23882000Y-73891000D01*
X23704000Y-73993000D01*
X23555000Y-74141000D01*
X23554000Y-74142000D01*
X23447000Y-74329000D01*
X23395000Y-74526000D01*
X23395000Y-74735000D01*
X23448000Y-74936000D01*
X23449000Y-74937000D01*
X23450000Y-74941000D01*
X23556000Y-75124000D01*
X23566000Y-75162000D01*
X23566000Y-75284000D01*
X23543000Y-75339000D01*
X22607000Y-76274000D01*
X22605000Y-76278000D01*
X22592000Y-76295000D01*
X22567000Y-76320000D01*
X22542000Y-76371000D01*
X22537000Y-76379000D01*
X22509000Y-76423000D01*
X22506000Y-76430000D01*
X22499000Y-76456000D01*
X22494000Y-76471000D01*
X22482000Y-76494000D01*
X22482000Y-76495000D01*
X22474000Y-76551000D01*
X22472000Y-76561000D01*
X22456000Y-76619000D01*
X22458000Y-76664000D01*
X22458000Y-77845000D01*
X22448000Y-77883000D01*
X22339000Y-78071000D01*
X22339000Y-78073000D01*
X22288000Y-78268000D01*
X19042087Y-78268000D01*
X19227000Y-76978000D01*
X19550000Y-74717000D01*
X19549000Y-74717000D01*
X19810000Y-72873000D01*
X20002000Y-71486000D01*
X20123000Y-70592000D01*
X20168000Y-70202000D01*
X20123000Y-69811000D01*
X20001000Y-68912000D01*
X20002000Y-68912000D01*
X19809000Y-67524000D01*
X19587002Y-65959000D01*
X22931000Y-65959000D01*
X22931000Y-66168000D01*
X22986000Y-66375000D01*
X22988000Y-66379000D01*
X23091000Y-66553000D01*
X23102000Y-66592000D01*
X23102000Y-69744000D01*
X23101000Y-69759000D01*
X23102000Y-69808000D01*
X23102000Y-69876000D01*
X23103000Y-69889000D01*
X23104000Y-69896000D01*
X23105000Y-69905000D01*
X23106000Y-69935000D01*
X23107000Y-69943000D01*
X23125000Y-70001000D01*
X23127000Y-70009000D01*
X23136000Y-70052000D01*
X23149000Y-70076000D01*
X23154000Y-70089000D01*
X23164000Y-70119000D01*
X23199000Y-70166000D01*
X23204000Y-70175000D01*
X23235000Y-70230000D01*
X23282000Y-70273000D01*
X23374000Y-70365000D01*
X23394000Y-70400000D01*
X23447000Y-70600000D01*
X23555000Y-70788000D01*
X23557000Y-70790000D01*
X23704000Y-70936000D01*
X23882000Y-71038000D01*
X24087000Y-71095000D01*
X24298000Y-71095000D01*
X24504000Y-71038000D01*
X24503000Y-71038000D01*
X24681000Y-70936000D01*
X24828000Y-70790000D01*
X24830000Y-70788000D01*
X24938000Y-70600000D01*
X24990000Y-70405000D01*
X24990000Y-70191000D01*
X24939000Y-69996000D01*
X24939000Y-69995000D01*
X24830000Y-69807000D01*
X24681000Y-69658000D01*
X24678000Y-69656000D01*
X24503000Y-69556000D01*
X24501000Y-69555000D01*
X24418000Y-69533000D01*
X24356000Y-69452000D01*
X24356000Y-66592000D01*
X24366000Y-66554000D01*
X24470000Y-66374000D01*
X24476524Y-66350000D01*
X36983000Y-66350000D01*
X36983000Y-66487000D01*
X37020000Y-66625000D01*
X37021000Y-66626000D01*
X37091000Y-66748000D01*
X37189000Y-66846000D01*
X37311000Y-66916000D01*
X37312000Y-66917000D01*
X37450000Y-66954000D01*
X37587000Y-66954000D01*
X37725000Y-66917000D01*
X37726000Y-66916000D01*
X37848000Y-66846000D01*
X37946000Y-66748000D01*
X38017000Y-66626000D01*
X38019000Y-66621000D01*
X38054000Y-66488000D01*
X38054000Y-66349000D01*
X38018000Y-66212000D01*
X38017000Y-66211000D01*
X37946000Y-66087000D01*
X37848000Y-65991000D01*
X37726000Y-65920000D01*
X37724000Y-65919000D01*
X37588000Y-65883000D01*
X37449000Y-65883000D01*
X37313000Y-65919000D01*
X37311000Y-65920000D01*
X37191000Y-65990000D01*
X37088000Y-66092000D01*
X37086000Y-66095000D01*
X37022000Y-66208000D01*
X37021000Y-66210000D01*
X36983000Y-66350000D01*
X24476524Y-66350000D01*
X24526000Y-66168000D01*
X24526000Y-65961000D01*
X24471000Y-65756000D01*
X24367000Y-65574000D01*
X24218000Y-65425000D01*
X24036000Y-65321000D01*
X24037000Y-65321000D01*
X23831000Y-65266000D01*
X23626000Y-65266000D01*
X23421000Y-65321000D01*
X23236000Y-65427000D01*
X23094000Y-65572000D01*
X23093000Y-65574000D01*
X22985000Y-65754000D01*
X22931000Y-65959000D01*
X19587002Y-65959000D01*
X19547000Y-65677000D01*
X19222000Y-63411000D01*
X18841000Y-60763000D01*
X18672534Y-59597000D01*
X21988000Y-59597000D01*
X21991000Y-59663000D01*
X21991000Y-62602000D01*
X21989000Y-62620000D01*
X21991000Y-62713000D01*
X21991000Y-62749000D01*
X21993000Y-62764000D01*
X21993000Y-62774000D01*
X21994000Y-62803000D01*
X21995000Y-62809000D01*
X22015000Y-62874000D01*
X22017000Y-62882000D01*
X22025000Y-62921000D01*
X22037000Y-62942000D01*
X22043000Y-62957000D01*
X22054000Y-62991000D01*
X22093000Y-63044000D01*
X22097000Y-63051000D01*
X22123000Y-63097000D01*
X22125000Y-63100000D01*
X22158000Y-63129000D01*
X22395000Y-63366000D01*
X22415000Y-63400000D01*
X22469000Y-63606000D01*
X22573000Y-63782000D01*
X22580000Y-63791000D01*
X22720000Y-63931000D01*
X22725000Y-63934000D01*
X22903000Y-64040000D01*
X23108000Y-64094000D01*
X23317000Y-64094000D01*
X23521000Y-64040000D01*
X23525000Y-64039000D01*
X23702000Y-63934000D01*
X23741000Y-63923000D01*
X24238000Y-63923000D01*
X24247000Y-63922000D01*
X24412000Y-63890000D01*
X24590000Y-63791000D01*
X24593000Y-63789000D01*
X24719000Y-63646000D01*
X24723000Y-63640000D01*
X24801000Y-63470000D01*
X24826000Y-63275000D01*
X24826000Y-63274000D01*
X24791000Y-63089000D01*
X24790000Y-63085000D01*
X24696000Y-62912000D01*
X24557000Y-62778000D01*
X24557000Y-62777000D01*
X24385000Y-62694000D01*
X24383000Y-62693000D01*
X24232000Y-62669000D01*
X23741000Y-62669000D01*
X23703000Y-62659000D01*
X23520000Y-62554000D01*
X23521000Y-62554000D01*
X23307000Y-62497000D01*
X23245000Y-62416000D01*
X23245000Y-59952000D01*
X23268000Y-59896000D01*
X23463000Y-59703000D01*
X23467000Y-59697000D01*
X23480000Y-59680000D01*
X23505000Y-59656000D01*
X23507000Y-59651000D01*
X23531000Y-59604000D01*
X23535000Y-59597000D01*
X23562000Y-59555000D01*
X23564000Y-59550000D01*
X23572000Y-59520000D01*
X23578000Y-59504000D01*
X23590000Y-59481000D01*
X23598000Y-59424000D01*
X23600000Y-59414000D01*
X23616000Y-59356000D01*
X23614000Y-59311000D01*
X23614000Y-58487000D01*
X23624000Y-58449000D01*
X23732000Y-58262000D01*
X23784000Y-58066000D01*
X23784000Y-57855000D01*
X23731000Y-57654000D01*
X23729000Y-57649000D01*
X23624000Y-57468000D01*
X23478000Y-57322000D01*
X23296000Y-57216000D01*
X23294000Y-57215000D01*
X23090000Y-57161000D01*
X22881000Y-57161000D01*
X22684000Y-57213000D01*
X22497000Y-57320000D01*
X22496000Y-57321000D01*
X22347000Y-57471000D01*
X22246000Y-57644000D01*
X22189000Y-57854000D01*
X22189000Y-58064000D01*
X22246000Y-58269000D01*
X22350000Y-58449000D01*
X22360000Y-58487000D01*
X22360000Y-58999000D01*
X22337000Y-59054000D01*
X22135000Y-59255000D01*
X22129000Y-59264000D01*
X22121000Y-59274000D01*
X22101000Y-59294000D01*
X22098000Y-59300000D01*
X22073000Y-59349000D01*
X22068000Y-59357000D01*
X22041000Y-59398000D01*
X22039000Y-59403000D01*
X22028000Y-59440000D01*
X22024000Y-59451000D01*
X22014000Y-59470000D01*
X22007000Y-59524000D01*
X22005000Y-59533000D01*
X21988000Y-59597000D01*
X18672534Y-59597000D01*
X18409000Y-57773000D01*
X17930000Y-54476000D01*
X17411000Y-50912000D01*
X17357557Y-50546000D01*
X20775000Y-50546000D01*
X20775000Y-50755000D01*
X20830000Y-50961000D01*
X20832000Y-50966000D01*
X20935000Y-51140000D01*
X20946000Y-51179000D01*
X20946000Y-54191000D01*
X20935000Y-54230000D01*
X20830000Y-54407000D01*
X20830000Y-54409000D01*
X20775000Y-54615000D01*
X20775000Y-54825000D01*
X20776000Y-54828000D01*
X20829000Y-55029000D01*
X20933000Y-55205000D01*
X20939000Y-55213000D01*
X21080000Y-55354000D01*
X21085000Y-55357000D01*
X21263000Y-55463000D01*
X21468000Y-55517000D01*
X21677000Y-55517000D01*
X21882000Y-55463000D01*
X22062000Y-55355000D01*
X22064000Y-55354000D01*
X22209000Y-55212000D01*
X22315000Y-55027000D01*
X22369000Y-54828000D01*
X22370000Y-54825000D01*
X22370000Y-54617000D01*
X22315000Y-54412000D01*
X22210000Y-54229000D01*
X22200000Y-54191000D01*
X22200000Y-51179000D01*
X22210000Y-51141000D01*
X22315000Y-50958000D01*
X22370000Y-50755000D01*
X22370000Y-50548000D01*
X22315000Y-50343000D01*
X22211000Y-50161000D01*
X22209000Y-50159000D01*
X22064000Y-50016000D01*
X22062000Y-50015000D01*
X21882000Y-49907000D01*
X21677000Y-49853000D01*
X21468000Y-49853000D01*
X21263000Y-49907000D01*
X21085000Y-50013000D01*
X21080000Y-50017000D01*
X20937000Y-50159000D01*
X20933000Y-50165000D01*
X20829000Y-50341000D01*
X20775000Y-50546000D01*
X17357557Y-50546000D01*
X16931470Y-47628000D01*
X33699000Y-47628000D01*
X33701000Y-47673000D01*
X33701000Y-62377000D01*
X33700000Y-62390000D01*
X33701000Y-62438000D01*
X33701000Y-62512000D01*
X33702000Y-62520000D01*
X33701000Y-62520000D01*
X33703000Y-62529000D01*
X33704000Y-62538000D01*
X33705000Y-62570000D01*
X33707000Y-62582000D01*
X33724000Y-62635000D01*
X33726000Y-62643000D01*
X33735000Y-62689000D01*
X33747000Y-62711000D01*
X33752000Y-62723000D01*
X33761000Y-62749000D01*
X33765000Y-62756000D01*
X33802000Y-62808000D01*
X33806000Y-62816000D01*
X33832000Y-62863000D01*
X33833000Y-62864000D01*
X33871000Y-62898000D01*
X33875000Y-62901000D01*
X34830000Y-63857000D01*
X34850000Y-63896000D01*
X34860000Y-63942000D01*
X34861000Y-63953000D01*
X34864000Y-64003000D01*
X34865000Y-64008000D01*
X34882000Y-64052000D01*
X34886000Y-64065000D01*
X34892000Y-64099000D01*
X34908000Y-64128000D01*
X34913000Y-64139000D01*
X34929000Y-64184000D01*
X34961000Y-64227000D01*
X34966000Y-64235000D01*
X34989000Y-64275000D01*
X35017000Y-64299000D01*
X35027000Y-64310000D01*
X35051000Y-64341000D01*
X35098000Y-64373000D01*
X35104000Y-64378000D01*
X35131000Y-64402000D01*
X35133000Y-64403000D01*
X35135000Y-64405000D01*
X35142000Y-64409000D01*
X35169000Y-64421000D01*
X35181000Y-64428000D01*
X35215000Y-64452000D01*
X35263000Y-64466000D01*
X35271000Y-64469000D01*
X35311000Y-64486000D01*
X35357000Y-64494000D01*
X35365000Y-64495000D01*
X35402000Y-64505000D01*
X35406000Y-64506000D01*
X35447000Y-64505000D01*
X35458000Y-64505000D01*
X35505000Y-64511000D01*
X35541000Y-64504000D01*
X35554000Y-64502000D01*
X35588000Y-64501000D01*
X35638000Y-64486000D01*
X35645000Y-64485000D01*
X35694000Y-64475000D01*
X35729000Y-64457000D01*
X35742000Y-64452000D01*
X35768000Y-64444000D01*
X35772000Y-64442000D01*
X35817000Y-64409000D01*
X35825000Y-64405000D01*
X35865000Y-64382000D01*
X35870000Y-64379000D01*
X35890000Y-64358000D01*
X35898000Y-64350000D01*
X35902000Y-64347000D01*
X36090000Y-64159000D01*
X36258000Y-64204000D01*
X36303000Y-64377000D01*
X36304000Y-64378000D01*
X36304000Y-64380000D01*
X36306000Y-64385000D01*
X36475000Y-64677000D01*
X36720000Y-64922000D01*
X37012000Y-65091000D01*
X37017000Y-65093000D01*
X37349000Y-65181000D01*
X37688000Y-65181000D01*
X38021000Y-65093000D01*
X38022000Y-65092000D01*
X38319000Y-64921000D01*
X38320000Y-64920000D01*
X38561000Y-64678000D01*
X38562000Y-64677000D01*
X38731000Y-64386000D01*
X38732000Y-64384000D01*
X38822000Y-64047000D01*
X38822000Y-63708000D01*
X38773000Y-63524000D01*
X38835000Y-63417000D01*
X39081000Y-63349000D01*
X39080000Y-63349000D01*
X39260000Y-63246000D01*
X39387000Y-63119000D01*
X39572000Y-63196000D01*
X39572000Y-72056000D01*
X39456000Y-72146000D01*
X39257000Y-72094000D01*
X39043000Y-72094000D01*
X38848000Y-72145000D01*
X38727000Y-72022000D01*
X38822000Y-71667000D01*
X38822000Y-71329000D01*
X38732000Y-70993000D01*
X38731000Y-70990000D01*
X38564000Y-70702000D01*
X38561000Y-70698000D01*
X38318000Y-70455000D01*
X38075000Y-70314000D01*
X38075000Y-70141000D01*
X38319000Y-70001000D01*
X38560000Y-69759000D01*
X38562000Y-69757000D01*
X38731000Y-69466000D01*
X38732000Y-69463000D01*
X38822000Y-69127000D01*
X38822000Y-68789000D01*
X38732000Y-68453000D01*
X38731000Y-68450000D01*
X38562000Y-68159000D01*
X38318000Y-67915000D01*
X38026000Y-67746000D01*
X38023000Y-67745000D01*
X37687000Y-67655000D01*
X37350000Y-67655000D01*
X37014000Y-67745000D01*
X37011000Y-67746000D01*
X36720000Y-67915000D01*
X36719000Y-67916000D01*
X36477000Y-68157000D01*
X36476000Y-68158000D01*
X36306000Y-68451000D01*
X36304000Y-68456000D01*
X36216000Y-68788000D01*
X36216000Y-69128000D01*
X36303000Y-69457000D01*
X36304000Y-69458000D01*
X36304000Y-69460000D01*
X36306000Y-69465000D01*
X36475000Y-69757000D01*
X36720000Y-70002000D01*
X36962000Y-70141000D01*
X36962000Y-70314000D01*
X36720000Y-70455000D01*
X36719000Y-70456000D01*
X36477000Y-70697000D01*
X36476000Y-70698000D01*
X36306000Y-70991000D01*
X36304000Y-70996000D01*
X36216000Y-71328000D01*
X36216000Y-71668000D01*
X36303000Y-71997000D01*
X36306000Y-72005000D01*
X36475000Y-72297000D01*
X36720000Y-72542000D01*
X36962000Y-72681000D01*
X36962000Y-72854000D01*
X36720000Y-72995000D01*
X36719000Y-72996000D01*
X36477000Y-73237000D01*
X36476000Y-73238000D01*
X36306000Y-73531000D01*
X36303000Y-73539000D01*
X36216000Y-73868000D01*
X36216000Y-74208000D01*
X36303000Y-74537000D01*
X36306000Y-74545000D01*
X36475000Y-74837000D01*
X36720000Y-75082000D01*
X37012000Y-75251000D01*
X37017000Y-75253000D01*
X37349000Y-75341000D01*
X37688000Y-75341000D01*
X38021000Y-75253000D01*
X38022000Y-75252000D01*
X38373000Y-75050000D01*
X38523000Y-75136000D01*
X38523000Y-79661000D01*
X38522000Y-79674000D01*
X38523000Y-79709000D01*
X38523000Y-79796000D01*
X38524000Y-79804000D01*
X38523000Y-79804000D01*
X38525000Y-79813000D01*
X38526000Y-79822000D01*
X38527000Y-79856000D01*
X38544000Y-79912000D01*
X38546000Y-79919000D01*
X38557000Y-79970000D01*
X38568000Y-79991000D01*
X38574000Y-80004000D01*
X38584000Y-80036000D01*
X38586000Y-80038000D01*
X38620000Y-80084000D01*
X38625000Y-80093000D01*
X38656000Y-80148000D01*
X38703000Y-80191000D01*
X38706000Y-80194000D01*
X40204000Y-81693000D01*
X40044000Y-81902000D01*
X39708000Y-81708000D01*
X39709000Y-81708000D01*
X39337000Y-81609000D01*
X38963000Y-81609000D01*
X38592000Y-81708000D01*
X38262000Y-81898000D01*
X37994000Y-82166000D01*
X37804000Y-82497000D01*
X37706000Y-82866000D01*
X37706000Y-83335000D01*
X37805000Y-83707000D01*
X37806000Y-83708000D01*
X37995000Y-84036000D01*
X38262000Y-84303000D01*
X38665000Y-84535000D01*
X38684000Y-84682000D01*
X37042000Y-86323000D01*
X37038000Y-86328000D01*
X37031000Y-86337000D01*
X37027000Y-86342000D01*
X37002000Y-86370000D01*
X36996000Y-86378000D01*
X36972000Y-86426000D01*
X36939000Y-86479000D01*
X36930000Y-86512000D01*
X36925000Y-86526000D01*
X36916000Y-86543000D01*
X36909000Y-86594000D01*
X36907000Y-86604000D01*
X36889000Y-86669000D01*
X36892000Y-86737000D01*
X36892000Y-100202000D01*
X36891000Y-100215000D01*
X36892000Y-100250000D01*
X36892000Y-100337000D01*
X36893000Y-100345000D01*
X36892000Y-100345000D01*
X36894000Y-100354000D01*
X36895000Y-100363000D01*
X36896000Y-100397000D01*
X36913000Y-100453000D01*
X36915000Y-100460000D01*
X36926000Y-100511000D01*
X36937000Y-100532000D01*
X36943000Y-100545000D01*
X36953000Y-100576000D01*
X36989000Y-100625000D01*
X36994000Y-100634000D01*
X37025000Y-100689000D01*
X37072000Y-100732000D01*
X37075000Y-100735000D01*
X39789000Y-103450000D01*
X39793000Y-103452000D01*
X39810000Y-103465000D01*
X39836000Y-103491000D01*
X39840000Y-103494000D01*
X39890000Y-103519000D01*
X39897000Y-103522000D01*
X39939000Y-103549000D01*
X39944000Y-103551000D01*
X39971000Y-103558000D01*
X39985000Y-103563000D01*
X40010000Y-103576000D01*
X40083000Y-103588000D01*
X40090000Y-103589000D01*
X40134000Y-103601000D01*
X40163000Y-103600000D01*
X53943000Y-103600000D01*
X53953000Y-103599000D01*
X53960000Y-103598000D01*
X53972000Y-103596000D01*
X54003000Y-103595000D01*
X54058000Y-103578000D01*
X54067000Y-103575000D01*
X54117000Y-103566000D01*
X54148000Y-103550000D01*
X54162000Y-103544000D01*
X54183000Y-103537000D01*
X54224000Y-103507000D01*
X54232000Y-103502000D01*
X54292000Y-103470000D01*
X54295000Y-103467000D01*
X54346000Y-103411000D01*
X54349000Y-103408000D01*
X85276000Y-72482000D01*
X85331000Y-72459000D01*
X119747000Y-72459000D01*
X119757000Y-72460000D01*
X119795000Y-72459000D01*
X119882000Y-72459000D01*
X119890000Y-72458000D01*
X119890000Y-72459000D01*
X119899000Y-72457000D01*
X119908000Y-72456000D01*
X119942000Y-72455000D01*
X119998000Y-72438000D01*
X120005000Y-72436000D01*
X120054000Y-72426000D01*
X120075000Y-72414000D01*
X120090000Y-72407000D01*
X120122000Y-72397000D01*
X120126000Y-72395000D01*
X120178000Y-72358000D01*
X120236000Y-72326000D01*
X120274000Y-72282000D01*
X154384000Y-38172000D01*
X154397000Y-38163000D01*
X154400000Y-38161000D01*
X154434000Y-38123000D01*
X154437000Y-38120000D01*
X154477000Y-38081000D01*
X154493000Y-38056000D01*
X154500000Y-38047000D01*
X154532000Y-38012000D01*
X154533000Y-38011000D01*
X154548000Y-37975000D01*
X154555000Y-37964000D01*
X154581000Y-37926000D01*
X154592000Y-37887000D01*
X154595000Y-37876000D01*
X154612000Y-37837000D01*
X154620000Y-37779000D01*
X154622000Y-37772000D01*
X154632000Y-37730000D01*
X154631000Y-37699000D01*
X154631000Y-37688000D01*
X154636000Y-37647000D01*
X154636000Y-37646000D01*
X154627000Y-37600000D01*
X154626000Y-37590000D01*
X154623000Y-37542000D01*
X154622000Y-37538000D01*
X154608000Y-37495000D01*
X154600000Y-37456000D01*
X154599000Y-37453000D01*
X154582000Y-37423000D01*
X154577000Y-37412000D01*
X154557000Y-37359000D01*
X154555000Y-37356000D01*
X154530000Y-37323000D01*
X154523000Y-37312000D01*
X154507000Y-37283000D01*
X154506000Y-37282000D01*
X154480000Y-37257000D01*
X154472000Y-37249000D01*
X154438000Y-37205000D01*
X154400000Y-37178000D01*
X154391000Y-37171000D01*
X154369000Y-37149000D01*
X154366000Y-37147000D01*
X154328000Y-37128000D01*
X154320000Y-37123000D01*
X154278000Y-37095000D01*
X154157000Y-37040000D01*
X154158000Y-37036000D01*
X154042000Y-37039000D01*
X153674000Y-37039000D01*
X153619000Y-37016000D01*
X151459000Y-34856000D01*
X151503000Y-34689000D01*
X151797000Y-34609000D01*
X151801000Y-34608000D01*
X151970000Y-34508000D01*
X152072000Y-34521000D01*
X153627000Y-36077000D01*
X153647000Y-36111000D01*
X153701000Y-36313000D01*
X153805000Y-36495000D01*
X153954000Y-36644000D01*
X154135000Y-36748000D01*
X154250000Y-36790000D01*
X154248000Y-36803000D01*
X154546000Y-36803000D01*
X154752000Y-36748000D01*
X154751000Y-36748000D01*
X154933000Y-36644000D01*
X155082000Y-36495000D01*
X155186000Y-36313000D01*
X155241000Y-36108000D01*
X155241000Y-35903000D01*
X155186000Y-35698000D01*
X155080000Y-35513000D01*
X154935000Y-35371000D01*
X154933000Y-35370000D01*
X154753000Y-35262000D01*
X154547000Y-35208000D01*
X154513000Y-35188000D01*
X152713000Y-33387000D01*
X152710000Y-33385000D01*
X152702000Y-33379000D01*
X152695000Y-33373000D01*
X152670000Y-33349000D01*
X152665000Y-33345000D01*
X152613000Y-33319000D01*
X152606000Y-33316000D01*
X152564000Y-33289000D01*
X152559000Y-33287000D01*
X152532000Y-33280000D01*
X152518000Y-33275000D01*
X152495000Y-33263000D01*
X152429000Y-33252000D01*
X152422000Y-33251000D01*
X152370000Y-33237000D01*
X152324000Y-33239000D01*
X152016000Y-33239000D01*
X151978000Y-33229000D01*
X151790000Y-33121000D01*
X151593000Y-33069000D01*
X151381000Y-33069000D01*
X151184000Y-33121000D01*
X150997000Y-33229000D01*
X150847000Y-33379000D01*
X150846000Y-33381000D01*
X150745000Y-33558000D01*
X150666000Y-33851000D01*
X150499000Y-33895000D01*
X149522000Y-32918000D01*
X149599000Y-32733000D01*
X152351000Y-32733000D01*
X152361000Y-32732000D01*
X152368000Y-32731000D01*
X152380000Y-32729000D01*
X152411000Y-32728000D01*
X152466000Y-32711000D01*
X152475000Y-32708000D01*
X152525000Y-32699000D01*
X152556000Y-32683000D01*
X152570000Y-32677000D01*
X152591000Y-32670000D01*
X152632000Y-32640000D01*
X152640000Y-32635000D01*
X152700000Y-32602000D01*
X152703000Y-32600000D01*
X152754000Y-32544000D01*
X152757000Y-32541000D01*
X154480000Y-30819000D01*
X154482000Y-30815000D01*
X154495000Y-30798000D01*
X154522000Y-30771000D01*
X154546000Y-30721000D01*
X154551000Y-30712000D01*
X154578000Y-30671000D01*
X154580000Y-30666000D01*
X154588000Y-30637000D01*
X154593000Y-30623000D01*
X154606000Y-30598000D01*
X154618000Y-30526000D01*
X154631000Y-30476000D01*
X154630000Y-30445000D01*
X154630000Y-20550000D01*
X154628000Y-20532000D01*
X154628000Y-20497000D01*
X154607000Y-20435000D01*
X154604000Y-20424000D01*
X154595000Y-20374000D01*
X154582000Y-20350000D01*
X154577000Y-20338000D01*
X154572000Y-20322000D01*
X154569000Y-20315000D01*
X154535000Y-20266000D01*
X154531000Y-20259000D01*
X154498000Y-20201000D01*
X154499000Y-20201000D01*
X154459000Y-20166000D01*
X151156000Y-16863000D01*
X151133000Y-16808000D01*
X151133000Y-6267000D01*
X151143000Y-6229000D01*
X151247000Y-6049000D01*
X151304000Y-5843000D01*
X151304000Y-5632000D01*
X151247000Y-5425000D01*
X151144000Y-5248000D01*
X151000000Y-5103000D01*
X150998000Y-5103000D01*
X150817000Y-4995000D01*
X150816000Y-4995000D01*
X150611000Y-4940000D01*
X150400000Y-4940000D01*
X150195000Y-4994000D01*
X150016000Y-5101000D01*
X150014000Y-5103000D01*
X149869000Y-5247000D01*
X149868000Y-5248000D01*
X149764000Y-5430000D01*
X149763000Y-5433000D01*
X149709000Y-5635000D01*
X149709000Y-5841000D01*
X149764000Y-6046000D01*
X149869000Y-6228000D01*
X149879000Y-6266000D01*
X149879000Y-16313000D01*
X149694000Y-16390000D01*
X148822000Y-15518000D01*
X148799000Y-15463000D01*
X148799000Y-13013000D01*
X148809000Y-12976000D01*
X148913000Y-12794000D01*
X148914000Y-12792000D01*
X148969000Y-12588000D01*
X148969000Y-12381000D01*
X148914000Y-12175000D01*
X148913000Y-12173000D01*
X148813000Y-11998000D01*
X148811000Y-11995000D01*
X148663000Y-11846000D01*
X148662000Y-11845000D01*
X148475000Y-11738000D01*
X148278000Y-11686000D01*
X148066000Y-11686000D01*
X147869000Y-11738000D01*
X147682000Y-11845000D01*
X147681000Y-11846000D01*
X147533000Y-11995000D01*
X147531000Y-11998000D01*
X147431000Y-12173000D01*
X147430000Y-12175000D01*
X147375000Y-12381000D01*
X147375000Y-12588000D01*
X147430000Y-12792000D01*
X147431000Y-12794000D01*
X147535000Y-12976000D01*
X147545000Y-13013000D01*
X147545000Y-15665000D01*
X147457000Y-15753000D01*
X143006000Y-15753000D01*
X142968000Y-15743000D01*
X142780000Y-15635000D01*
X142583000Y-15583000D01*
X142371000Y-15583000D01*
X142174000Y-15635000D01*
X141987000Y-15742000D01*
X141839000Y-15890000D01*
X141732000Y-16077000D01*
X141680000Y-16274000D01*
X141680000Y-16486000D01*
X141732000Y-16683000D01*
X141839000Y-16870000D01*
X141987000Y-17018000D01*
X142167000Y-17121000D01*
X142373000Y-17178000D01*
X142581000Y-17178000D01*
X142788000Y-17121000D01*
X142787000Y-17121000D01*
X142968000Y-17017000D01*
X143006000Y-17007000D01*
X144841000Y-17007000D01*
X144875000Y-17268000D01*
X144670000Y-17323000D01*
X144487000Y-17428000D01*
X144449000Y-17438000D01*
X144251000Y-17438000D01*
X144242000Y-17437000D01*
X144201000Y-17438000D01*
X144114000Y-17438000D01*
X144106000Y-17439000D01*
X144106000Y-17438000D01*
X144097000Y-17440000D01*
X144088000Y-17441000D01*
X144054000Y-17442000D01*
X143998000Y-17459000D01*
X143991000Y-17461000D01*
X143940000Y-17472000D01*
X143919000Y-17483000D01*
X143906000Y-17489000D01*
X143875000Y-17499000D01*
X143826000Y-17535000D01*
X143817000Y-17540000D01*
X143762000Y-17571000D01*
X143719000Y-17618000D01*
X143716000Y-17621000D01*
X143273000Y-18063000D01*
X143271000Y-18067000D01*
X143258000Y-18084000D01*
X143233000Y-18109000D01*
X143232000Y-18111000D01*
X143201000Y-18172000D01*
X143196000Y-18181000D01*
X143173000Y-18215000D01*
X143166000Y-18244000D01*
X143160000Y-18260000D01*
X143148000Y-18283000D01*
X143147000Y-18287000D01*
X143139000Y-18344000D01*
X143137000Y-18353000D01*
X143122000Y-18408000D01*
X143124000Y-18464000D01*
X143124000Y-18796000D01*
X143123000Y-18808000D01*
X143115000Y-18858000D01*
X143150000Y-19005000D01*
X143146000Y-19009000D01*
X143154000Y-19051000D01*
X143157000Y-19056000D01*
X143165000Y-19079000D01*
X143168000Y-19089000D01*
X143170000Y-19099000D01*
X143217000Y-19166000D01*
X143225000Y-19181000D01*
X143228000Y-19188000D01*
X143251000Y-19230000D01*
X143253000Y-19232000D01*
X143257000Y-19239000D01*
X143273000Y-19253000D01*
X143287000Y-19268000D01*
X143288000Y-19269000D01*
X143322000Y-19296000D01*
X143325000Y-19300000D01*
X143351000Y-19323000D01*
X143386000Y-19358000D01*
X143401000Y-19368000D01*
X143402000Y-19369000D01*
X143415000Y-19374000D01*
X143437000Y-19389000D01*
X143494000Y-19412000D01*
X143497000Y-19413000D01*
X143524000Y-19425000D01*
X143546000Y-19441000D01*
X143631000Y-19525000D01*
X143635000Y-19528000D01*
X143652000Y-19541000D01*
X143677000Y-19565000D01*
X143677000Y-19566000D01*
X143728000Y-19591000D01*
X143736000Y-19596000D01*
X143782000Y-19625000D01*
X143812000Y-19633000D01*
X143828000Y-19639000D01*
X143851000Y-19651000D01*
X143908000Y-19659000D01*
X143918000Y-19661000D01*
X143976000Y-19677000D01*
X144021000Y-19675000D01*
X145989000Y-19675000D01*
X146044000Y-19698000D01*
X146822000Y-20477000D01*
X146704000Y-20677000D01*
X146601000Y-20647000D01*
X146533000Y-20650000D01*
X133862000Y-20650000D01*
X133807000Y-20627000D01*
X124113015Y-10934000D01*
X136111000Y-10934000D01*
X136114000Y-11001000D01*
X136114000Y-16357000D01*
X136113000Y-16370000D01*
X136114000Y-16413000D01*
X136114000Y-16494000D01*
X136115000Y-16500000D01*
X136114000Y-16500000D01*
X136116000Y-16509000D01*
X136117000Y-16518000D01*
X136118000Y-16550000D01*
X136119000Y-16558000D01*
X136137000Y-16615000D01*
X136139000Y-16623000D01*
X136149000Y-16671000D01*
X136160000Y-16691000D01*
X136165000Y-16703000D01*
X136174000Y-16729000D01*
X136178000Y-16736000D01*
X136215000Y-16788000D01*
X136219000Y-16796000D01*
X136246000Y-16844000D01*
X136284000Y-16878000D01*
X136288000Y-16881000D01*
X137499000Y-18094000D01*
X137501000Y-18096000D01*
X137512000Y-18103000D01*
X137522000Y-18111000D01*
X137545000Y-18133000D01*
X137548000Y-18135000D01*
X137591000Y-18156000D01*
X137600000Y-18161000D01*
X137651000Y-18194000D01*
X137685000Y-18203000D01*
X137695000Y-18207000D01*
X137714000Y-18215000D01*
X137724000Y-18219000D01*
X137777000Y-18226000D01*
X137785000Y-18228000D01*
X137841000Y-18243000D01*
X137887000Y-18241000D01*
X138784000Y-18241000D01*
X138794000Y-18242000D01*
X138832000Y-18241000D01*
X138919000Y-18241000D01*
X138927000Y-18240000D01*
X138927000Y-18241000D01*
X138936000Y-18239000D01*
X138945000Y-18238000D01*
X138979000Y-18237000D01*
X139035000Y-18220000D01*
X139042000Y-18218000D01*
X139093000Y-18207000D01*
X139114000Y-18196000D01*
X139127000Y-18190000D01*
X139159000Y-18180000D01*
X139158000Y-18180000D01*
X139207000Y-18144000D01*
X139216000Y-18138000D01*
X139271000Y-18109000D01*
X139312000Y-18063000D01*
X139315000Y-18059000D01*
X139401000Y-17974000D01*
X139434000Y-17955000D01*
X139643000Y-17896000D01*
X139823000Y-17793000D01*
X139971000Y-17645000D01*
X140073000Y-17467000D01*
X140074000Y-17466000D01*
X140131000Y-17261000D01*
X140131000Y-17051000D01*
X140074000Y-16845000D01*
X139971000Y-16665000D01*
X139823000Y-16517000D01*
X139637000Y-16410000D01*
X139439000Y-16358000D01*
X139230000Y-16358000D01*
X139025000Y-16412000D01*
X138844000Y-16517000D01*
X138843000Y-16518000D01*
X138696000Y-16664000D01*
X138695000Y-16665000D01*
X138589000Y-16850000D01*
X138570000Y-16923000D01*
X138489000Y-16987000D01*
X138199000Y-16987000D01*
X138144000Y-16964000D01*
X137391000Y-16210000D01*
X137368000Y-16155000D01*
X137368000Y-11290000D01*
X137391000Y-11235000D01*
X139401000Y-9226000D01*
X139407000Y-9218000D01*
X139412000Y-9212000D01*
X139440000Y-9182000D01*
X139443000Y-9178000D01*
X139472000Y-9122000D01*
X139475000Y-9116000D01*
X139500000Y-9077000D01*
X139502000Y-9073000D01*
X139508000Y-9049000D01*
X139513000Y-9036000D01*
X139525000Y-9011000D01*
X139527000Y-9006000D01*
X139537000Y-8936000D01*
X139539000Y-8927000D01*
X139552000Y-8881000D01*
X139551000Y-8853000D01*
X139551000Y-6199000D01*
X140080000Y-6199000D01*
X140080000Y-7379000D01*
X140103000Y-7465000D01*
X140104000Y-7468000D01*
X140144000Y-7537000D01*
X140204000Y-7597000D01*
X140277000Y-7639000D01*
X140363000Y-7662000D01*
X140442000Y-7662000D01*
X140529000Y-7639000D01*
X140528000Y-7639000D01*
X140601000Y-7597000D01*
X140661000Y-7537000D01*
X140701000Y-7468000D01*
X140702000Y-7465000D01*
X140725000Y-7379000D01*
X140725000Y-6408000D01*
X140985000Y-6373000D01*
X141044000Y-6588000D01*
X141154000Y-6778000D01*
X141156000Y-6780000D01*
X141311000Y-6939000D01*
X141507000Y-7048000D01*
X141723000Y-7107000D01*
X141942000Y-7107000D01*
X142158000Y-7048000D01*
X142159000Y-7048000D01*
X142354000Y-6939000D01*
X142509000Y-6780000D01*
X142621000Y-6588000D01*
X142679000Y-6373000D01*
X142679000Y-6149000D01*
X142622000Y-5935000D01*
X142621000Y-5932000D01*
X142509000Y-5740000D01*
X142354000Y-5581000D01*
X142159000Y-5472000D01*
X142158000Y-5472000D01*
X141942000Y-5413000D01*
X141723000Y-5413000D01*
X141507000Y-5472000D01*
X141311000Y-5581000D01*
X141154000Y-5742000D01*
X141043000Y-5933000D01*
X141043000Y-5935000D01*
X140962000Y-6230000D01*
X140731000Y-6228000D01*
X140703000Y-6117000D01*
X140702000Y-6115000D01*
X140663000Y-6046000D01*
X140660000Y-6042000D01*
X140601000Y-5983000D01*
X140528000Y-5941000D01*
X140529000Y-5941000D01*
X140442000Y-5918000D01*
X140363000Y-5918000D01*
X140277000Y-5941000D01*
X140204000Y-5983000D01*
X140145000Y-6042000D01*
X140142000Y-6046000D01*
X140103000Y-6115000D01*
X140102000Y-6117000D01*
X140080000Y-6199000D01*
X139551000Y-6199000D01*
X139551000Y-5298000D01*
X139561000Y-5260000D01*
X139653174Y-5100000D01*
X143396000Y-5100000D01*
X143396000Y-5305000D01*
X143451000Y-5511000D01*
X143452000Y-5513000D01*
X143552000Y-5688000D01*
X143554000Y-5691000D01*
X143703000Y-5841000D01*
X143890000Y-5948000D01*
X144088000Y-6000000D01*
X144123000Y-6020000D01*
X144192000Y-6089000D01*
X144213000Y-6166000D01*
X144175000Y-6312000D01*
X144175000Y-6521000D01*
X144228000Y-6722000D01*
X144230000Y-6727000D01*
X144336000Y-6909000D01*
X144483000Y-7056000D01*
X144665000Y-7160000D01*
X144870000Y-7215000D01*
X145075000Y-7215000D01*
X145281000Y-7160000D01*
X145280000Y-7160000D01*
X145462000Y-7056000D01*
X145609000Y-6909000D01*
X145715000Y-6727000D01*
X145717000Y-6722000D01*
X145770000Y-6521000D01*
X145770000Y-6312000D01*
X145727369Y-6149000D01*
X146765000Y-6149000D01*
X146765000Y-6373000D01*
X146824000Y-6588000D01*
X146934000Y-6778000D01*
X146936000Y-6780000D01*
X147091000Y-6939000D01*
X147287000Y-7048000D01*
X147503000Y-7107000D01*
X147722000Y-7107000D01*
X147938000Y-7048000D01*
X147939000Y-7048000D01*
X148134000Y-6939000D01*
X148289000Y-6780000D01*
X148401000Y-6588000D01*
X148459000Y-6372000D01*
X148720000Y-6406000D01*
X148720000Y-7379000D01*
X148743000Y-7465000D01*
X148744000Y-7468000D01*
X148784000Y-7537000D01*
X148844000Y-7597000D01*
X148917000Y-7639000D01*
X149003000Y-7662000D01*
X149082000Y-7662000D01*
X149169000Y-7639000D01*
X149168000Y-7639000D01*
X149241000Y-7597000D01*
X149301000Y-7537000D01*
X149341000Y-7468000D01*
X149342000Y-7465000D01*
X149365000Y-7379000D01*
X149365000Y-6199000D01*
X149343000Y-6117000D01*
X149342000Y-6115000D01*
X149303000Y-6046000D01*
X149300000Y-6042000D01*
X149241000Y-5983000D01*
X149168000Y-5941000D01*
X149169000Y-5941000D01*
X149082000Y-5918000D01*
X149003000Y-5918000D01*
X148917000Y-5941000D01*
X148844000Y-5983000D01*
X148785000Y-6042000D01*
X148782000Y-6046000D01*
X148743000Y-6115000D01*
X148740000Y-6121000D01*
X148709000Y-6232000D01*
X148480000Y-6230000D01*
X148403000Y-5937000D01*
X148401000Y-5932000D01*
X148289000Y-5740000D01*
X148134000Y-5581000D01*
X147939000Y-5472000D01*
X147938000Y-5472000D01*
X147722000Y-5413000D01*
X147503000Y-5413000D01*
X147287000Y-5472000D01*
X147091000Y-5581000D01*
X146934000Y-5742000D01*
X146823000Y-5933000D01*
X146823000Y-5935000D01*
X146765000Y-6149000D01*
X145727369Y-6149000D01*
X145719000Y-6117000D01*
X145719000Y-6115000D01*
X145610000Y-5926000D01*
X145601000Y-5902000D01*
X145597000Y-5879000D01*
X145579000Y-5821000D01*
X145577000Y-5814000D01*
X145566000Y-5763000D01*
X145555000Y-5742000D01*
X145549000Y-5729000D01*
X145539000Y-5698000D01*
X145503000Y-5649000D01*
X145468000Y-5586000D01*
X145420000Y-5542000D01*
X145417000Y-5539000D01*
X145012000Y-5133000D01*
X144993000Y-5100000D01*
X144937000Y-4898000D01*
X144934000Y-4891000D01*
X144831000Y-4713000D01*
X144687000Y-4569000D01*
X144685000Y-4568000D01*
X144504000Y-4460000D01*
X144503000Y-4460000D01*
X144298000Y-4405000D01*
X144088000Y-4405000D01*
X143882000Y-4460000D01*
X143701000Y-4568000D01*
X143699000Y-4569000D01*
X143555000Y-4713000D01*
X143451000Y-4895000D01*
X143450000Y-4898000D01*
X143396000Y-5100000D01*
X139653174Y-5100000D01*
X139667000Y-5076000D01*
X139669000Y-5072000D01*
X139721000Y-4874000D01*
X139721000Y-4662000D01*
X139669000Y-4465000D01*
X139562000Y-4278000D01*
X139414000Y-4130000D01*
X139234000Y-4027000D01*
X139235000Y-4027000D01*
X139028000Y-3970000D01*
X138820000Y-3970000D01*
X138614000Y-4027000D01*
X138434000Y-4130000D01*
X138286000Y-4278000D01*
X138183000Y-4458000D01*
X138126000Y-4664000D01*
X138126000Y-4872000D01*
X138183000Y-5079000D01*
X138184000Y-5081000D01*
X138287000Y-5261000D01*
X138297000Y-5298000D01*
X138297000Y-8523000D01*
X138274000Y-8578000D01*
X136260000Y-10591000D01*
X136257000Y-10595000D01*
X136251000Y-10604000D01*
X136243000Y-10614000D01*
X136222000Y-10636000D01*
X136220000Y-10638000D01*
X136198000Y-10685000D01*
X136162000Y-10738000D01*
X136162000Y-10739000D01*
X136153000Y-10775000D01*
X136148000Y-10790000D01*
X136138000Y-10809000D01*
X136129000Y-10865000D01*
X136128000Y-10873000D01*
X136111000Y-10934000D01*
X124113015Y-10934000D01*
X123968000Y-10789000D01*
X123945000Y-10734000D01*
X123945000Y-8766000D01*
X123955000Y-8728000D01*
X124059000Y-8548000D01*
X124116000Y-8341000D01*
X124116000Y-8133000D01*
X124059000Y-7923000D01*
X123958000Y-7750000D01*
X123957000Y-7749000D01*
X123809000Y-7600000D01*
X123808000Y-7599000D01*
X123621000Y-7492000D01*
X123424000Y-7440000D01*
X123212000Y-7440000D01*
X123015000Y-7492000D01*
X122828000Y-7599000D01*
X122827000Y-7600000D01*
X122680000Y-7748000D01*
X122576000Y-7928000D01*
X122575000Y-7931000D01*
X122521000Y-8134000D01*
X122521000Y-8343000D01*
X122573000Y-8540000D01*
X122681000Y-8728000D01*
X122691000Y-8766000D01*
X122691000Y-9494000D01*
X122603000Y-9582000D01*
X122545000Y-9582000D01*
X122335000Y-9639000D01*
X122162000Y-9740000D01*
X122161000Y-9741000D01*
X122012000Y-9889000D01*
X122011000Y-9890000D01*
X121904000Y-10077000D01*
X121852000Y-10274000D01*
X121852000Y-10486000D01*
X121904000Y-10683000D01*
X122012000Y-10871000D01*
X122022000Y-10909000D01*
X122022000Y-11059000D01*
X122021000Y-11072000D01*
X122022000Y-11126000D01*
X122022000Y-11193000D01*
X122023000Y-11206000D01*
X122024000Y-11213000D01*
X122025000Y-11222000D01*
X122026000Y-11255000D01*
X122043000Y-11311000D01*
X122045000Y-11318000D01*
X122056000Y-11369000D01*
X122067000Y-11390000D01*
X122073000Y-11403000D01*
X122083000Y-11434000D01*
X122119000Y-11483000D01*
X122124000Y-11492000D01*
X122155000Y-11547000D01*
X122202000Y-11590000D01*
X122205000Y-11593000D01*
X133159000Y-22548000D01*
X133163000Y-22550000D01*
X133180000Y-22563000D01*
X133205000Y-22588000D01*
X133256000Y-22613000D01*
X133264000Y-22618000D01*
X133308000Y-22646000D01*
X133315000Y-22649000D01*
X133341000Y-22656000D01*
X133356000Y-22661000D01*
X133379000Y-22673000D01*
X133438000Y-22683000D01*
X133445000Y-22684000D01*
X133497000Y-22698000D01*
X133539000Y-22697000D01*
X145820000Y-22697000D01*
X145908000Y-22785000D01*
X145908000Y-28946000D01*
X145790000Y-29036000D01*
X145590000Y-28982000D01*
X145379000Y-28982000D01*
X145172000Y-29037000D01*
X145040000Y-29115000D01*
X144938000Y-29102000D01*
X144876000Y-29040000D01*
X144696000Y-28937000D01*
X144576000Y-28903000D01*
X144520000Y-28847000D01*
X144488000Y-28731000D01*
X144383000Y-28548000D01*
X144382000Y-28547000D01*
X144233000Y-28399000D01*
X144056000Y-28297000D01*
X144050000Y-28295000D01*
X143914000Y-28257000D01*
X143859000Y-28202000D01*
X143845000Y-28154000D01*
X143842000Y-28146000D01*
X143738000Y-27966000D01*
X143737000Y-27965000D01*
X143588000Y-27817000D01*
X143481000Y-27757000D01*
X143443000Y-27708000D01*
X143415000Y-27597000D01*
X143307000Y-27411000D01*
X143160000Y-27264000D01*
X142978000Y-27160000D01*
X142979000Y-27160000D01*
X142773000Y-27105000D01*
X142568000Y-27105000D01*
X142363000Y-27160000D01*
X142180000Y-27265000D01*
X142142000Y-27275000D01*
X137439000Y-27275000D01*
X137384000Y-27252000D01*
X137227000Y-27094000D01*
X137215000Y-27079000D01*
X137207000Y-27065000D01*
X137205000Y-27062000D01*
X137160000Y-27022000D01*
X137156000Y-27018000D01*
X136981000Y-26842000D01*
X136979000Y-26840000D01*
X136968000Y-26833000D01*
X136958000Y-26825000D01*
X136935000Y-26803000D01*
X136933000Y-26801000D01*
X136889000Y-26780000D01*
X136880000Y-26775000D01*
X136829000Y-26742000D01*
X136795000Y-26733000D01*
X136785000Y-26729000D01*
X136766000Y-26721000D01*
X136756000Y-26717000D01*
X136703000Y-26710000D01*
X136695000Y-26708000D01*
X136639000Y-26693000D01*
X136593000Y-26695000D01*
X135098000Y-26695000D01*
X135043000Y-26672000D01*
X134296000Y-25924000D01*
X134292000Y-25922000D01*
X134275000Y-25909000D01*
X134250000Y-25884000D01*
X134199000Y-25859000D01*
X134191000Y-25854000D01*
X134145000Y-25825000D01*
X134115000Y-25817000D01*
X134099000Y-25811000D01*
X134076000Y-25799000D01*
X134019000Y-25791000D01*
X134009000Y-25789000D01*
X133951000Y-25773000D01*
X133906000Y-25775000D01*
X132956000Y-25775000D01*
X132887000Y-25735000D01*
X132848000Y-25669000D01*
X132846000Y-25666000D01*
X132698000Y-25518000D01*
X132511000Y-25411000D01*
X132314000Y-25359000D01*
X132102000Y-25359000D01*
X131905000Y-25411000D01*
X131718000Y-25518000D01*
X131570000Y-25666000D01*
X131462000Y-25854000D01*
X131411000Y-26050000D01*
X131411000Y-26262000D01*
X131463000Y-26460000D01*
X131523000Y-26565000D01*
X131510000Y-26666000D01*
X130867000Y-27308000D01*
X130832000Y-27328000D01*
X130635000Y-27380000D01*
X130406000Y-27511000D01*
X130304000Y-27498000D01*
X130156000Y-27349000D01*
X129971000Y-27243000D01*
X129774000Y-27191000D01*
X129562000Y-27191000D01*
X129365000Y-27243000D01*
X129178000Y-27350000D01*
X129177000Y-27351000D01*
X129029000Y-27500000D01*
X129027000Y-27503000D01*
X128927000Y-27678000D01*
X128926000Y-27680000D01*
X128871000Y-27886000D01*
X128871000Y-28091000D01*
X128925000Y-28292000D01*
X128835000Y-28410000D01*
X124881000Y-28410000D01*
X124800000Y-28348000D01*
X124748000Y-28153000D01*
X124642000Y-27968000D01*
X124497000Y-27826000D01*
X124495000Y-27825000D01*
X124315000Y-27717000D01*
X124110000Y-27663000D01*
X123901000Y-27663000D01*
X123683000Y-27721000D01*
X123644000Y-27721000D01*
X123424000Y-27663000D01*
X123213000Y-27663000D01*
X123007000Y-27718000D01*
X122825000Y-27826000D01*
X122679000Y-27972000D01*
X122576000Y-28153000D01*
X122521000Y-28358000D01*
X122521000Y-28563000D01*
X122576000Y-28769000D01*
X122577000Y-28771000D01*
X122677000Y-28946000D01*
X122679000Y-28949000D01*
X122827000Y-29098000D01*
X122828000Y-29099000D01*
X123015000Y-29206000D01*
X123212000Y-29258000D01*
X123271000Y-29258000D01*
X123326000Y-29281000D01*
X123766000Y-29721000D01*
X123776000Y-29734000D01*
X123797000Y-29766000D01*
X123799000Y-29769000D01*
X123868000Y-29816000D01*
X123872000Y-29818000D01*
X123966000Y-29889000D01*
X123967000Y-29889000D01*
X123979000Y-29893000D01*
X123991000Y-29898000D01*
X124095000Y-29920000D01*
X124096000Y-29921000D01*
X124194000Y-29943000D01*
X124196000Y-29944000D01*
X124243000Y-29936000D01*
X124255000Y-29935000D01*
X128959000Y-29935000D01*
X129036000Y-30120000D01*
X128878000Y-30278000D01*
X128877000Y-30280000D01*
X128785000Y-30440000D01*
X128740000Y-30613000D01*
X128740000Y-30798000D01*
X128785000Y-30971000D01*
X128786000Y-30973000D01*
X128879000Y-31134000D01*
X129011000Y-31266000D01*
X129103000Y-31321000D01*
X129101000Y-31496000D01*
X129012000Y-31544000D01*
X128879000Y-31677000D01*
X128877000Y-31680000D01*
X128785000Y-31840000D01*
X128740000Y-32013000D01*
X128740000Y-32198000D01*
X128785000Y-32371000D01*
X128788000Y-32377000D01*
X128879000Y-32534000D01*
X129074000Y-32729000D01*
X128997000Y-32914000D01*
X127221000Y-32914000D01*
X127212000Y-32913000D01*
X127171000Y-32914000D01*
X127085000Y-32914000D01*
X127077000Y-32915000D01*
X127077000Y-32914000D01*
X127068000Y-32916000D01*
X127059000Y-32917000D01*
X127027000Y-32918000D01*
X127019000Y-32919000D01*
X126962000Y-32937000D01*
X126954000Y-32939000D01*
X126908000Y-32948000D01*
X126886000Y-32960000D01*
X126874000Y-32965000D01*
X126848000Y-32974000D01*
X126841000Y-32978000D01*
X126789000Y-33015000D01*
X126781000Y-33019000D01*
X126734000Y-33045000D01*
X126733000Y-33046000D01*
X126699000Y-33084000D01*
X126696000Y-33088000D01*
X122561000Y-37221000D01*
X122527000Y-37241000D01*
X122325000Y-37295000D01*
X122140000Y-37401000D01*
X121996000Y-37548000D01*
X121996000Y-37549000D01*
X121889000Y-37728000D01*
X121835000Y-37934000D01*
X121835000Y-38142000D01*
X121889000Y-38347000D01*
X121993000Y-38523000D01*
X121999000Y-38531000D01*
X122140000Y-38672000D01*
X122145000Y-38675000D01*
X122323000Y-38781000D01*
X122528000Y-38835000D01*
X122737000Y-38835000D01*
X122942000Y-38781000D01*
X123120000Y-38675000D01*
X123124000Y-38672000D01*
X123269000Y-38530000D01*
X123375000Y-38345000D01*
X123430000Y-38141000D01*
X123450000Y-38107000D01*
X127367000Y-34191000D01*
X127422000Y-34168000D01*
X132763000Y-34168000D01*
X132773000Y-34167000D01*
X132780000Y-34166000D01*
X132792000Y-34164000D01*
X132823000Y-34163000D01*
X132878000Y-34146000D01*
X132887000Y-34143000D01*
X132937000Y-34134000D01*
X132968000Y-34118000D01*
X132982000Y-34112000D01*
X133003000Y-34105000D01*
X133044000Y-34075000D01*
X133052000Y-34070000D01*
X133112000Y-34037000D01*
X133115000Y-34035000D01*
X133166000Y-33979000D01*
X133513000Y-33632000D01*
X133519000Y-33625000D01*
X133524000Y-33618000D01*
X133554000Y-33586000D01*
X133556000Y-33584000D01*
X133575000Y-33543000D01*
X133580000Y-33534000D01*
X133613000Y-33486000D01*
X133622000Y-33450000D01*
X133628000Y-33436000D01*
X133638000Y-33414000D01*
X133648000Y-33350000D01*
X133650000Y-33343000D01*
X133665000Y-33286000D01*
X133662000Y-33197000D01*
X133751000Y-33106000D01*
X139916000Y-33106000D01*
X140004000Y-33194000D01*
X140004000Y-33327000D01*
X140058000Y-33532000D01*
X140162000Y-33708000D01*
X140168000Y-33716000D01*
X140309000Y-33857000D01*
X140314000Y-33860000D01*
X140492000Y-33966000D01*
X140699000Y-34020000D01*
X140733000Y-34040000D01*
X141988000Y-35296000D01*
X141992000Y-35298000D01*
X142009000Y-35311000D01*
X142034000Y-35336000D01*
X142085000Y-35361000D01*
X142093000Y-35366000D01*
X142139000Y-35395000D01*
X142169000Y-35403000D01*
X142185000Y-35409000D01*
X142208000Y-35421000D01*
X142265000Y-35429000D01*
X142275000Y-35431000D01*
X142333000Y-35447000D01*
X142378000Y-35445000D01*
X145804000Y-35445000D01*
X145822000Y-35447000D01*
X145897000Y-35445000D01*
X145950000Y-35445000D01*
X145965000Y-35443000D01*
X145975000Y-35443000D01*
X146004000Y-35442000D01*
X146010000Y-35441000D01*
X146075000Y-35421000D01*
X146083000Y-35419000D01*
X146121000Y-35412000D01*
X146141000Y-35401000D01*
X146155000Y-35395000D01*
X146190000Y-35383000D01*
X146245000Y-35343000D01*
X146252000Y-35339000D01*
X146299000Y-35313000D01*
X146301000Y-35311000D01*
X146330000Y-35278000D01*
X146333000Y-35274000D01*
X146823000Y-34786000D01*
X146947000Y-34786000D01*
X149944000Y-37783000D01*
X149944000Y-37907000D01*
X121349000Y-66501000D01*
X121294000Y-66524000D01*
X120851000Y-66524000D01*
X120841000Y-66525000D01*
X120834000Y-66526000D01*
X120821000Y-66528000D01*
X120789000Y-66529000D01*
X120737000Y-66545000D01*
X120729000Y-66547000D01*
X120678000Y-66557000D01*
X120648000Y-66574000D01*
X120633000Y-66580000D01*
X120612000Y-66586000D01*
X120605000Y-66590000D01*
X120562000Y-66621000D01*
X120499000Y-66657000D01*
X120455000Y-66705000D01*
X120452000Y-66708000D01*
X119551000Y-67608000D01*
X119496000Y-67631000D01*
X92280000Y-67631000D01*
X92225000Y-67608000D01*
X69269000Y-44651000D01*
X69265000Y-44648000D01*
X69260000Y-44643000D01*
X67066000Y-42448000D01*
X67062000Y-42446000D01*
X67045000Y-42433000D01*
X67020000Y-42408000D01*
X66969000Y-42383000D01*
X66961000Y-42378000D01*
X66915000Y-42349000D01*
X66885000Y-42341000D01*
X66869000Y-42335000D01*
X66846000Y-42323000D01*
X66789000Y-42315000D01*
X66779000Y-42313000D01*
X66721000Y-42297000D01*
X66676000Y-42299000D01*
X39187000Y-42299000D01*
X39178000Y-42298000D01*
X39137000Y-42299000D01*
X39050000Y-42299000D01*
X39042000Y-42300000D01*
X39042000Y-42299000D01*
X39033000Y-42301000D01*
X39024000Y-42302000D01*
X38990000Y-42303000D01*
X38934000Y-42320000D01*
X38927000Y-42322000D01*
X38876000Y-42333000D01*
X38855000Y-42344000D01*
X38842000Y-42350000D01*
X38810000Y-42360000D01*
X38809000Y-42361000D01*
X38762000Y-42396000D01*
X38753000Y-42401000D01*
X38698000Y-42432000D01*
X38655000Y-42479000D01*
X38652000Y-42482000D01*
X33850000Y-47283000D01*
X33848000Y-47287000D01*
X33835000Y-47304000D01*
X33810000Y-47329000D01*
X33785000Y-47380000D01*
X33780000Y-47388000D01*
X33752000Y-47432000D01*
X33749000Y-47439000D01*
X33742000Y-47465000D01*
X33737000Y-47480000D01*
X33725000Y-47503000D01*
X33725000Y-47504000D01*
X33717000Y-47560000D01*
X33715000Y-47570000D01*
X33699000Y-47628000D01*
X16931470Y-47628000D01*
X16857000Y-47118000D01*
X16411859Y-44079000D01*
X19752000Y-44079000D01*
X19754000Y-44134000D01*
X19754000Y-46539000D01*
X19753000Y-46552000D01*
X19754000Y-46587000D01*
X19754000Y-46674000D01*
X19755000Y-46682000D01*
X19754000Y-46682000D01*
X19756000Y-46691000D01*
X19757000Y-46700000D01*
X19758000Y-46735000D01*
X19775000Y-46789000D01*
X19778000Y-46811000D01*
X19778000Y-46926000D01*
X19833000Y-47131000D01*
X19937000Y-47313000D01*
X20086000Y-47462000D01*
X20268000Y-47566000D01*
X20473000Y-47621000D01*
X20678000Y-47621000D01*
X20884000Y-47566000D01*
X20883000Y-47566000D01*
X21068000Y-47460000D01*
X21067000Y-47460000D01*
X21210000Y-47315000D01*
X21211000Y-47313000D01*
X21319000Y-47133000D01*
X21373000Y-46928000D01*
X21373000Y-46721000D01*
X21320000Y-46518000D01*
X21319000Y-46515000D01*
X21215000Y-46338000D01*
X21210000Y-46331000D01*
X21067000Y-46188000D01*
X21035000Y-46161000D01*
X21008000Y-46101000D01*
X21008000Y-44439000D01*
X21031000Y-44384000D01*
X21273000Y-44143000D01*
X21280000Y-44132000D01*
X21289000Y-44120000D01*
X21311000Y-44097000D01*
X21313000Y-44095000D01*
X21332000Y-44054000D01*
X21337000Y-44045000D01*
X21371000Y-43995000D01*
X21380000Y-43959000D01*
X21385000Y-43944000D01*
X21395000Y-43925000D01*
X21404000Y-43872000D01*
X21405000Y-43866000D01*
X21422000Y-43802000D01*
X21419000Y-43746000D01*
X21419000Y-43533000D01*
X21430000Y-43494000D01*
X21533000Y-43320000D01*
X21535000Y-43315000D01*
X21590000Y-43110000D01*
X21590000Y-42900000D01*
X21535000Y-42695000D01*
X21535000Y-42694000D01*
X21427000Y-42513000D01*
X21427000Y-42512000D01*
X21282000Y-42367000D01*
X21100000Y-42263000D01*
X21101000Y-42263000D01*
X20895000Y-42208000D01*
X20690000Y-42208000D01*
X20484000Y-42263000D01*
X20482000Y-42264000D01*
X20307000Y-42364000D01*
X20303000Y-42367000D01*
X20155000Y-42514000D01*
X20154000Y-42515000D01*
X20047000Y-42702000D01*
X19995000Y-42899000D01*
X19995000Y-43111000D01*
X20047000Y-43310000D01*
X20119000Y-43435000D01*
X20106000Y-43536000D01*
X19899000Y-43742000D01*
X19896000Y-43746000D01*
X19893000Y-43751000D01*
X19886000Y-43759000D01*
X19863000Y-43783000D01*
X19860000Y-43787000D01*
X19835000Y-43840000D01*
X19831000Y-43848000D01*
X19804000Y-43889000D01*
X19803000Y-43893000D01*
X19794000Y-43923000D01*
X19789000Y-43938000D01*
X19780000Y-43955000D01*
X19778000Y-43961000D01*
X19771000Y-44009000D01*
X19769000Y-44018000D01*
X19752000Y-44079000D01*
X16411859Y-44079000D01*
X16273000Y-43131000D01*
X15666000Y-38990000D01*
X14953432Y-34138000D01*
X18343000Y-34138000D01*
X18343000Y-34348000D01*
X18397000Y-34553000D01*
X18503000Y-34730000D01*
X18514000Y-34770000D01*
X18514000Y-38443000D01*
X18513000Y-38456000D01*
X18514000Y-38510000D01*
X18514000Y-38579000D01*
X18515000Y-38587000D01*
X18514000Y-38587000D01*
X18516000Y-38596000D01*
X18517000Y-38605000D01*
X18518000Y-38639000D01*
X18535000Y-38695000D01*
X18537000Y-38702000D01*
X18548000Y-38753000D01*
X18559000Y-38774000D01*
X18565000Y-38787000D01*
X18575000Y-38818000D01*
X18611000Y-38867000D01*
X18616000Y-38876000D01*
X18648000Y-38933000D01*
X18696000Y-38976000D01*
X18699000Y-38978000D01*
X18746000Y-39026000D01*
X18765000Y-39059000D01*
X18824000Y-39269000D01*
X18927000Y-39448000D01*
X19075000Y-39596000D01*
X19262000Y-39703000D01*
X19459000Y-39755000D01*
X19671000Y-39755000D01*
X19868000Y-39703000D01*
X20055000Y-39596000D01*
X20203000Y-39448000D01*
X20310000Y-39261000D01*
X20362000Y-39064000D01*
X20362000Y-38852000D01*
X20310000Y-38655000D01*
X20203000Y-38468000D01*
X20055000Y-38320000D01*
X19877000Y-38218000D01*
X19836000Y-38210000D01*
X19768000Y-38127000D01*
X19768000Y-34770000D01*
X19778000Y-34732000D01*
X19883000Y-34551000D01*
X19885000Y-34546000D01*
X19938000Y-34345000D01*
X19938000Y-34136000D01*
X19886000Y-33939000D01*
X19779000Y-33752000D01*
X19778000Y-33751000D01*
X19629000Y-33603000D01*
X19451000Y-33501000D01*
X19452000Y-33501000D01*
X19246000Y-33444000D01*
X19035000Y-33444000D01*
X18828000Y-33501000D01*
X18651000Y-33604000D01*
X18506000Y-33749000D01*
X18506000Y-33750000D01*
X18398000Y-33931000D01*
X18398000Y-33932000D01*
X18343000Y-34138000D01*
X14953432Y-34138000D01*
X14707000Y-32460000D01*
X13894000Y-26921000D01*
X13813440Y-26369000D01*
X17217000Y-26369000D01*
X17217000Y-26579000D01*
X17272000Y-26785000D01*
X17272000Y-26786000D01*
X17377000Y-26963000D01*
X17388000Y-27002000D01*
X17388000Y-30518000D01*
X17387000Y-30531000D01*
X17387000Y-30532000D01*
X17388000Y-30578000D01*
X17388000Y-30652000D01*
X17389000Y-30666000D01*
X17391000Y-30677000D01*
X17392000Y-30712000D01*
X17393000Y-30717000D01*
X17412000Y-30778000D01*
X17415000Y-30787000D01*
X17424000Y-30833000D01*
X17435000Y-30852000D01*
X17441000Y-30866000D01*
X17449000Y-30893000D01*
X17489000Y-30950000D01*
X17494000Y-30958000D01*
X17520000Y-31006000D01*
X17555000Y-31036000D01*
X17615000Y-31096000D01*
X17635000Y-31130000D01*
X17688000Y-31331000D01*
X17691000Y-31337000D01*
X17796000Y-31518000D01*
X17943000Y-31665000D01*
X18130000Y-31772000D01*
X18327000Y-31824000D01*
X18539000Y-31824000D01*
X18736000Y-31772000D01*
X18923000Y-31665000D01*
X19070000Y-31518000D01*
X19174000Y-31338000D01*
X19231000Y-31131000D01*
X19231000Y-30923000D01*
X19174000Y-30717000D01*
X19071000Y-30537000D01*
X18923000Y-30389000D01*
X18737000Y-30283000D01*
X18691000Y-30263000D01*
X18642000Y-30188000D01*
X18642000Y-28710000D01*
X36129000Y-28710000D01*
X36129000Y-29022000D01*
X36212000Y-29332000D01*
X36213000Y-29335000D01*
X36369000Y-29605000D01*
X36595000Y-29831000D01*
X36865000Y-29987000D01*
X36870000Y-29989000D01*
X36989000Y-30020000D01*
X36991000Y-30250000D01*
X36868000Y-30284000D01*
X36593000Y-30442000D01*
X36370000Y-30666000D01*
X36368000Y-30669000D01*
X36212000Y-30940000D01*
X36129000Y-31250000D01*
X36129000Y-31562000D01*
X36212000Y-31872000D01*
X36213000Y-31875000D01*
X36369000Y-32145000D01*
X36595000Y-32371000D01*
X36865000Y-32527000D01*
X36868000Y-32528000D01*
X37178000Y-32611000D01*
X38912000Y-32611000D01*
X39222000Y-32528000D01*
X39225000Y-32527000D01*
X39495000Y-32371000D01*
X39721000Y-32145000D01*
X39877000Y-31875000D01*
X39878000Y-31872000D01*
X39961000Y-31562000D01*
X39961000Y-31250000D01*
X39878000Y-30940000D01*
X39722000Y-30669000D01*
X39720000Y-30666000D01*
X39497000Y-30442000D01*
X39222000Y-30284000D01*
X39099000Y-30250000D01*
X39101000Y-30020000D01*
X39220000Y-29989000D01*
X39225000Y-29987000D01*
X39495000Y-29831000D01*
X39721000Y-29605000D01*
X39877000Y-29335000D01*
X39878000Y-29332000D01*
X39961000Y-29022000D01*
X39961000Y-28710000D01*
X39879000Y-28403000D01*
X39878000Y-28400000D01*
X39720000Y-28126000D01*
X39497000Y-27902000D01*
X39221000Y-27744000D01*
X39222000Y-27744000D01*
X38912000Y-27661000D01*
X37178000Y-27661000D01*
X36869000Y-27744000D01*
X36593000Y-27902000D01*
X36370000Y-28126000D01*
X36212000Y-28400000D01*
X36211000Y-28403000D01*
X36129000Y-28710000D01*
X18642000Y-28710000D01*
X18642000Y-27003000D01*
X18652000Y-26965000D01*
X18760000Y-26777000D01*
X18812000Y-26580000D01*
X18812000Y-26368000D01*
X18760000Y-26171000D01*
X18653000Y-25984000D01*
X18652000Y-25983000D01*
X18503000Y-25835000D01*
X18500000Y-25833000D01*
X18325000Y-25733000D01*
X18323000Y-25732000D01*
X18117000Y-25677000D01*
X17912000Y-25677000D01*
X17707000Y-25732000D01*
X17525000Y-25836000D01*
X17381000Y-25980000D01*
X17380000Y-25982000D01*
X17272000Y-26163000D01*
X17272000Y-26164000D01*
X17217000Y-26369000D01*
X13813440Y-26369000D01*
X13218000Y-22289000D01*
X12803663Y-19438000D01*
X15846000Y-19438000D01*
X15846000Y-19646000D01*
X15904000Y-19855000D01*
X16007000Y-20033000D01*
X16017000Y-20071000D01*
X16017000Y-21697000D01*
X16016000Y-21710000D01*
X16017000Y-21753000D01*
X16017000Y-21833000D01*
X16018000Y-21841000D01*
X16017000Y-21841000D01*
X16019000Y-21850000D01*
X16020000Y-21859000D01*
X16021000Y-21893000D01*
X16038000Y-21949000D01*
X16040000Y-21956000D01*
X16051000Y-22007000D01*
X16062000Y-22028000D01*
X16068000Y-22041000D01*
X16078000Y-22072000D01*
X16114000Y-22121000D01*
X16119000Y-22130000D01*
X16150000Y-22185000D01*
X16197000Y-22228000D01*
X16308000Y-22339000D01*
X16331000Y-22394000D01*
X16331000Y-23633000D01*
X16330000Y-23642000D01*
X16325000Y-23686000D01*
X16335000Y-23734000D01*
X16336000Y-23749000D01*
X16336000Y-23771000D01*
X16355000Y-23843000D01*
X16356000Y-23850000D01*
X16361000Y-23880000D01*
X16364000Y-23886000D01*
X16367000Y-23894000D01*
X16371000Y-23906000D01*
X16388000Y-23971000D01*
X16495000Y-24157000D01*
X16496000Y-24158000D01*
X16645000Y-24306000D01*
X16823000Y-24408000D01*
X17028000Y-24465000D01*
X17239000Y-24465000D01*
X17446000Y-24408000D01*
X17623000Y-24305000D01*
X17768000Y-24160000D01*
X17876000Y-23978000D01*
X17931000Y-23772000D01*
X17931000Y-23562000D01*
X17877000Y-23360000D01*
X17876000Y-23356000D01*
X17768000Y-23175000D01*
X17768000Y-23174000D01*
X17608000Y-23014000D01*
X17585000Y-22959000D01*
X17585000Y-22188000D01*
X17586000Y-22183000D01*
X17585000Y-22152000D01*
X17585000Y-22058000D01*
X17584000Y-22050000D01*
X17585000Y-22050000D01*
X17583000Y-22041000D01*
X17582000Y-22032000D01*
X17581000Y-22000000D01*
X17581000Y-21997000D01*
X17562000Y-21935000D01*
X17560000Y-21927000D01*
X17551000Y-21881000D01*
X17539000Y-21859000D01*
X17534000Y-21847000D01*
X17526000Y-21822000D01*
X17521000Y-21814000D01*
X17484000Y-21762000D01*
X17480000Y-21754000D01*
X17454000Y-21707000D01*
X17453000Y-21706000D01*
X17415000Y-21672000D01*
X17411000Y-21669000D01*
X17294000Y-21551000D01*
X17271000Y-21496000D01*
X17271000Y-20071000D01*
X17281000Y-20033000D01*
X17389000Y-19845000D01*
X17441000Y-19649000D01*
X17441000Y-19436000D01*
X17390000Y-19241000D01*
X17390000Y-19239000D01*
X17282000Y-19052000D01*
X17281000Y-19051000D01*
X17132000Y-18903000D01*
X17131000Y-18902000D01*
X16958000Y-18801000D01*
X16748000Y-18744000D01*
X16540000Y-18744000D01*
X16334000Y-18801000D01*
X16154000Y-18904000D01*
X16006000Y-19052000D01*
X15903000Y-19232000D01*
X15846000Y-19438000D01*
X12803663Y-19438000D01*
X12664000Y-18477000D01*
X12663000Y-18477000D01*
X12222000Y-15406000D01*
X11882000Y-12992000D01*
X11621000Y-11087000D01*
X11622000Y-11085000D01*
X11464000Y-9856000D01*
X11462000Y-9854000D01*
X11348000Y-8852000D01*
X11348000Y-8850000D01*
X11295000Y-8253000D01*
X11295000Y-8249000D01*
X11283000Y-7876000D01*
X11283000Y-7868000D01*
X11299000Y-7666000D01*
X11300000Y-7659000D01*
X11374000Y-7239000D01*
X11374000Y-7236000D01*
X11455409Y-6859000D01*
X20959000Y-6859000D01*
X20959000Y-15988000D01*
X21011000Y-15988000D01*
X21092000Y-16050000D01*
X21399000Y-17195000D01*
X22247000Y-18665000D01*
X23448000Y-19865000D01*
X23449000Y-19866000D01*
X24914000Y-20712000D01*
X24917000Y-20713000D01*
X26561000Y-21154000D01*
X39253000Y-21154000D01*
X40898000Y-20713000D01*
X40897000Y-20713000D01*
X42366000Y-19866000D01*
X42367000Y-19865000D01*
X43566000Y-18665000D01*
X43568000Y-18663000D01*
X44415000Y-17198000D01*
X44416000Y-17195000D01*
X44856000Y-15551000D01*
X44856000Y-6859000D01*
X44416000Y-5215000D01*
X44415000Y-5212000D01*
X43568000Y-3746000D01*
X42366000Y-2544000D01*
X41889052Y-2269000D01*
X140080000Y-2269000D01*
X140080000Y-2949000D01*
X140103000Y-3035000D01*
X140104000Y-3038000D01*
X140144000Y-3107000D01*
X140204000Y-3167000D01*
X140277000Y-3209000D01*
X140363000Y-3232000D01*
X140442000Y-3232000D01*
X140529000Y-3209000D01*
X140528000Y-3209000D01*
X140601000Y-3167000D01*
X140661000Y-3107000D01*
X140701000Y-3038000D01*
X140702000Y-3035000D01*
X140725000Y-2949000D01*
X140725000Y-2269000D01*
X148720000Y-2269000D01*
X148720000Y-2949000D01*
X148743000Y-3035000D01*
X148744000Y-3038000D01*
X148784000Y-3107000D01*
X148844000Y-3167000D01*
X148917000Y-3209000D01*
X149003000Y-3232000D01*
X149082000Y-3232000D01*
X149169000Y-3209000D01*
X149168000Y-3209000D01*
X149241000Y-3167000D01*
X149301000Y-3107000D01*
X149341000Y-3038000D01*
X149342000Y-3035000D01*
X149365000Y-2949000D01*
X149365000Y-2269000D01*
X149342000Y-2184000D01*
X149301000Y-2113000D01*
X149241000Y-2053000D01*
X149168000Y-2011000D01*
X149169000Y-2011000D01*
X149082000Y-1988000D01*
X149003000Y-1988000D01*
X148917000Y-2011000D01*
X148844000Y-2053000D01*
X148784000Y-2113000D01*
X148743000Y-2184000D01*
X148720000Y-2269000D01*
X140725000Y-2269000D01*
X140702000Y-2184000D01*
X140661000Y-2113000D01*
X140601000Y-2053000D01*
X140528000Y-2011000D01*
X140529000Y-2011000D01*
X140442000Y-1988000D01*
X140363000Y-1988000D01*
X140277000Y-2011000D01*
X140204000Y-2053000D01*
X140144000Y-2113000D01*
X140103000Y-2184000D01*
X140080000Y-2269000D01*
X41889052Y-2269000D01*
X40897000Y-1697000D01*
X40898000Y-1697000D01*
X39253000Y-1256000D01*
X26561000Y-1256000D01*
X24917000Y-1697000D01*
X24914000Y-1698000D01*
X23449000Y-2544000D01*
X23448000Y-2545000D01*
X22247000Y-3745000D01*
X22246000Y-3746000D01*
X21399000Y-5215000D01*
X20959000Y-6859000D01*
X11455409Y-6859000D01*
X11458000Y-6847000D01*
X11458000Y-6844000D01*
X11560000Y-6444000D01*
X11561000Y-6441000D01*
X11666000Y-6091000D01*
X11667000Y-6088000D01*
X11794000Y-5723000D01*
X11795000Y-5719000D01*
X11935000Y-5375000D01*
X11936000Y-5372000D01*
X12079000Y-5059000D01*
X12081000Y-5056000D01*
X12248000Y-4734000D01*
X12250000Y-4731000D01*
X12442000Y-4401000D01*
X12444000Y-4398000D01*
X12636000Y-4102000D01*
X12638000Y-4099000D01*
X12866000Y-3779000D01*
X12868000Y-3776000D01*
X13102000Y-3474000D01*
X13104000Y-3471000D01*
X13443000Y-3079000D01*
X13446000Y-3076000D01*
X13822000Y-2692000D01*
X13825000Y-2689000D01*
X14220000Y-2335000D01*
X14223000Y-2332000D01*
X14634000Y-2007000D01*
X14638000Y-2004000D01*
X15073000Y-1702000D01*
X15077000Y-1700000D01*
X15529000Y-1426000D01*
X15533000Y-1423000D01*
X16002000Y-1175000D01*
X16006000Y-1173000D01*
X16509000Y-946000D01*
X16513000Y-945000D01*
X17003000Y-756000D01*
X17007000Y-755000D01*
X17539000Y-585000D01*
X17543000Y-584000D01*
X18071000Y-449000D01*
X18075000Y-448000D01*
X18607000Y-343000D01*
X18621000Y-341000D01*
X21942000Y-312000D01*
X21943000Y-312000D01*
X30866000Y-290000D01*
X44257000Y-274000D01*
X61006000Y-264000D01*
X80001000Y-261000D01*
X100131000Y-263000D01*
X120290000Y-271000D01*
X139367000Y-283000D01*
X152910000Y-297000D01*
X152987000Y-482000D01*
X152812000Y-657000D01*
X152706000Y-839000D01*
X152704000Y-844000D01*
X152651000Y-1045000D01*
X152651000Y-1256000D01*
X152703000Y-1451000D01*
X152810000Y-1638000D01*
X152811000Y-1639000D01*
X152960000Y-1787000D01*
X152961000Y-1788000D01*
X153134000Y-1889000D01*
X153346000Y-1948000D01*
X153379000Y-1967000D01*
X153741000Y-2329000D01*
X153764000Y-2384000D01*
X153764000Y-4404000D01*
X153741000Y-4459000D01*
X153161000Y-5038000D01*
X153160000Y-5040000D01*
X153148000Y-5056000D01*
X153120000Y-5084000D01*
X153118000Y-5087000D01*
X153090000Y-5142000D01*
X153087000Y-5148000D01*
X153062000Y-5187000D01*
X153060000Y-5192000D01*
X153053000Y-5220000D01*
X153047000Y-5235000D01*
X153035000Y-5258000D01*
X153035000Y-5260000D01*
X153025000Y-5328000D01*
X153023000Y-5337000D01*
X153010000Y-5383000D01*
X153011000Y-5415000D01*
X153011000Y-8362000D01*
X153001000Y-8400000D01*
X152896000Y-8582000D01*
X152841000Y-8787000D01*
X152841000Y-8992000D01*
X152896000Y-9197000D01*
X153000000Y-9379000D01*
X153149000Y-9528000D01*
X153331000Y-9632000D01*
X153337000Y-9635000D01*
X153422000Y-9658000D01*
X153483000Y-9739000D01*
X153483000Y-15988000D01*
X153535000Y-15988000D01*
X153616000Y-16050000D01*
X153923000Y-17195000D01*
X153924000Y-17198000D01*
X154772000Y-18665000D01*
X155973000Y-19866000D01*
X157442000Y-20713000D01*
X159085000Y-21154000D01*
X171778000Y-21154000D01*
X173422000Y-20713000D01*
X173425000Y-20712000D01*
X174890000Y-19866000D01*
X176093000Y-18663000D01*
X176940000Y-17195000D01*
X177380000Y-15551000D01*
X177380000Y-6859000D01*
X176940000Y-5215000D01*
X176093000Y-3746000D01*
X176092000Y-3745000D01*
X174891000Y-2545000D01*
X174890000Y-2544000D01*
X173425000Y-1698000D01*
X173422000Y-1697000D01*
X171778000Y-1256000D01*
X159085000Y-1256000D01*
X157441000Y-1697000D01*
X157438000Y-1698000D01*
X155973000Y-2544000D01*
X155972000Y-2545000D01*
X155203000Y-3313000D01*
X155018000Y-3236000D01*
X155018000Y-2183000D01*
X155019000Y-2176000D01*
X155018000Y-2133000D01*
X155018000Y-2044000D01*
X155016000Y-2032000D01*
X155015000Y-2022000D01*
X155014000Y-1986000D01*
X154997000Y-1930000D01*
X154995000Y-1923000D01*
X154984000Y-1872000D01*
X154973000Y-1851000D01*
X154967000Y-1838000D01*
X154958000Y-1809000D01*
X154957000Y-1807000D01*
X154921000Y-1758000D01*
X154886000Y-1695000D01*
X154838000Y-1651000D01*
X154835000Y-1648000D01*
X154266000Y-1078000D01*
X154246000Y-1044000D01*
X154189000Y-835000D01*
X154088000Y-661000D01*
G37*
%TD.AperFunction*%
%TD*%
M02*
