M48
; DRILL file {KiCad 7.0.11-7.0.11~ubuntu20.04.1} date Sat Aug 17 07:39:32 2024
; FORMAT={-:-/ absolute / metric / decimal}
; #@! TF.CreationDate,2024-08-17T07:39:32+00:00
; #@! TF.GenerationSoftware,Kicad,Pcbnew,7.0.11-7.0.11~ubuntu20.04.1
; #@! TF.FileFunction,MixedPlating,1,2
FMAT,2
METRIC
; #@! TA.AperFunction,Plated,PTH,ComponentDrill
T1C0.200
; #@! TA.AperFunction,Plated,PTH,ComponentDrill
T2C0.300
; #@! TA.AperFunction,Plated,PTH,ComponentDrill
T3C0.650
; #@! TA.AperFunction,Plated,PTH,ComponentDrill
T4C0.850
; #@! TA.AperFunction,Plated,PTH,ComponentDrill
T5C0.914
; #@! TA.AperFunction,Plated,PTH,ComponentDrill
T6C1.080
; #@! TA.AperFunction,Plated,PTH,ComponentDrill
T7C1.100
; #@! TA.AperFunction,NonPlated,NPTH,ComponentDrill
T8C0.700
; #@! TA.AperFunction,NonPlated,NPTH,ComponentDrill
T9C12.000
%
G90
G05
T1
X129.438Y-30.706
X129.438Y-32.106
X130.138Y-30.006
X130.138Y-31.406
X130.138Y-32.806
X130.838Y-30.706
X130.838Y-32.106
X131.538Y-30.006
X131.538Y-31.406
X131.538Y-32.806
X132.238Y-30.706
X132.238Y-32.106
T2
X0.0Y0.0
X13.585Y-129.172
X13.691Y-10.168
X13.953Y-19.651
X14.049Y-121.995
X14.636Y-15.971
X14.731Y-125.709
X14.731Y-125.709
X14.896Y-7.375
X15.195Y-114.079
X15.333Y-27.875
X15.753Y-23.927
X15.902Y-117.664
X16.341Y-106.461
X16.358Y-125.537
X16.537Y-35.59
X16.644Y-19.542
X16.784Y-31.463
X17.071Y-110.975
X17.133Y-23.667
X17.199Y-98.576
X17.317Y-117.766
X17.317Y-121.464
X17.66Y-43.571
X17.989Y-38.534
X18.015Y-26.474
X18.386Y-102.456
X18.433Y-31.027
X18.646Y-109.55
X18.646Y-113.106
X18.742Y-90.727
X18.79Y-42.066
X18.891Y-46.401
X18.925Y-51.006
X19.098Y-97.982
X19.141Y-34.242
X19.315Y-102.193
X19.565Y-38.958
X19.609Y-105.872
X19.779Y-82.813
X20.284Y-54.504
X20.284Y-57.958
X20.575Y-46.824
X20.641Y-86.734
X20.755Y-97.713
X20.792Y-43.005
X21.071Y-94.096
X21.11Y-74.866
X21.272Y-66.775
X21.483Y-62.289
X21.573Y-50.651
X21.573Y-54.719
X21.607Y-78.48
X21.901Y-89.821
X22.313Y-86.327
X22.92Y-82.813
X22.987Y-57.958
X23.085Y-71.286
X23.085Y-78.374
X23.213Y-63.296
X23.729Y-66.063
X24.192Y-70.297
X24.192Y-74.632
X26.032Y-35.384
X26.032Y-50.384
X26.032Y-65.384
X26.032Y-80.384
X26.032Y-95.384
X26.032Y-110.384
X33.772Y-75.573
X34.921Y-71.609
X35.823Y-62.468
X38.011Y-50.035
X38.77Y-62.608
X38.859Y-55.695
X39.15Y-72.891
X40.058Y-97.855
X40.199Y-59.719
X40.199Y-78.228
X40.74Y-100.499
X40.874Y-104.778
X41.032Y-35.384
X41.166Y-47.28
X41.227Y-63.668
X41.371Y-101.747
X41.432Y-52.182
X41.563Y-95.187
X42.31Y-55.526
X42.599Y-51.399
X42.824Y-81.11
X42.834Y-48.083
X43.515Y-68.958
X44.501Y-47.28
X44.501Y-61.338
X44.659Y-75.013
X44.942Y-68.274
X45.232Y-84.333
X45.274Y-58.555
X45.321Y-50.703
X45.321Y-72.768
X45.321Y-80.985
X45.753Y-56.399
X46.199Y-67.638
X46.226Y-92.728
X47.432Y-70.518
X48.832Y-63.178
X49.276Y-52.151
X49.427Y-59.385
X49.747Y-21.443
X50.526Y-55.747
X51.455Y-9.103
X51.485Y-62.289
X51.485Y-73.95
X51.819Y-49.843
X51.906Y-61.516
X52.178Y-56.985
X52.49Y-58.608
X52.685Y-63.878
X52.811Y-53.755
X55.321Y-62.608
X56.032Y-20.384
X56.032Y-35.384
X56.032Y-50.384
X56.032Y-65.384
X56.032Y-80.384
X56.032Y-110.384
X56.032Y-125.384
X71.032Y-5.384
X71.032Y-20.384
X71.032Y-35.384
X71.032Y-65.384
X71.032Y-80.384
X71.032Y-95.384
X71.032Y-110.384
X71.032Y-125.384
X86.032Y-5.384
X86.032Y-20.384
X86.032Y-35.384
X86.032Y-50.384
X86.032Y-80.384
X86.032Y-95.384
X86.032Y-110.384
X86.032Y-125.384
X101.032Y-5.384
X101.032Y-20.384
X101.032Y-35.384
X101.032Y-50.384
X101.032Y-65.384
X101.032Y-80.384
X101.032Y-95.384
X101.032Y-110.384
X101.032Y-125.384
X116.032Y-5.384
X116.032Y-20.384
X116.032Y-35.384
X116.032Y-50.384
X116.032Y-65.384
X116.032Y-80.384
X116.032Y-95.384
X116.032Y-110.384
X116.032Y-125.384
X122.633Y-38.037
X122.649Y-10.38
X123.318Y-8.237
X123.318Y-28.461
X123.934Y-5.773
X124.006Y-28.461
X124.331Y-32.223
X126.493Y-26.908
X129.668Y-27.988
X130.938Y-28.125
X131.032Y-5.384
X131.032Y-35.384
X131.032Y-50.384
X131.032Y-65.384
X131.032Y-80.384
X131.032Y-95.384
X131.032Y-110.384
X131.032Y-125.384
X132.208Y-26.156
X133.478Y-28.125
X134.296Y-31.406
X134.918Y-25.878
X135.987Y-1.148
X136.018Y-29.571
X136.034Y-4.41
X137.288Y-32.106
X138.924Y-4.768
X139.333Y-17.155
X140.718Y-19.061
X140.802Y-33.222
X141.311Y-4.877
X141.319Y-24.986
X142.009Y-33.222
X142.477Y-16.38
X142.671Y-27.902
X143.1Y-28.456
X143.1Y-33.222
X143.744Y-29.038
X144.193Y-5.203
X144.386Y-29.678
X144.386Y-33.222
X144.472Y-18.565
X144.972Y-6.418
X144.978Y-18.065
X145.485Y-29.78
X145.485Y-32.479
X146.032Y-50.384
X146.032Y-65.384
X146.032Y-80.384
X146.032Y-95.384
X146.032Y-110.384
X146.032Y-125.384
X146.322Y-14.431
X148.172Y-12.483
X148.522Y-19.598
X149.339Y-14.675
X149.828Y-31.406
X150.506Y-5.738
X151.487Y-31.405
X151.487Y-33.866
X151.487Y-33.866
X152.745Y-26.889
X153.014Y-20.598
X153.448Y-1.148
X153.638Y-8.89
X154.444Y-36.006
X161.032Y-35.384
X161.032Y-50.384
X161.032Y-65.384
X161.032Y-80.384
X161.032Y-95.384
X161.032Y-110.384
X176.032Y-20.384
X176.032Y-35.384
X176.032Y-50.384
X176.032Y-65.384
X176.032Y-80.384
X176.032Y-95.384
X176.032Y-110.384
X191.032Y-5.384
X191.032Y-20.384
X191.032Y-35.384
X191.032Y-50.384
X191.032Y-65.384
X191.032Y-80.384
X191.032Y-95.384
X191.032Y-110.384
X191.032Y-125.384
X206.032Y-20.384
X206.032Y-35.384
X206.032Y-50.384
X206.032Y-65.384
X206.032Y-80.384
X206.032Y-95.384
X206.032Y-110.384
X206.032Y-125.384
X221.032Y-35.384
X221.032Y-50.384
X221.032Y-65.384
X221.032Y-80.384
X221.032Y-95.384
X221.032Y-110.384
X236.032Y-50.384
X236.032Y-65.384
X236.032Y-80.384
T4
X45.232Y-87.592
X50.232Y-87.592
X56.799Y-87.361
X61.799Y-87.361
T5
X38.045Y-28.866
X38.045Y-31.406
X39.15Y-107.01
X39.15Y-109.55
T6
X37.519Y-74.038
X37.519Y-71.498
X37.519Y-68.958
X37.519Y-66.418
X37.519Y-63.878
X37.519Y-61.338
X37.519Y-58.798
X42.599Y-75.308
X42.599Y-72.768
X42.599Y-70.228
X42.599Y-67.688
X42.599Y-65.148
X42.599Y-62.608
X42.599Y-60.068
X42.599Y-57.528
T7
X34.07Y-83.1
X36.61Y-83.1
X39.15Y-83.1
T8
X141.832Y-6.26
X147.612Y-6.26
T3
G00X140.402Y-7.34
M15
G01X140.402Y-6.24
M16
G05
G00X140.403Y-2.91
M15
G01X140.403Y-2.31
M16
G05
G00X149.042Y-7.34
M15
G01X149.042Y-6.24
M16
G05
G00X149.042Y-2.91
M15
G01X149.042Y-2.31
M16
G05
T9
G00X27.407Y-14.705
M15
G01X27.407Y-7.705
M16
G05
G00X27.407Y-125.672
M15
G01X27.407Y-132.672
M16
G05
G00X27.407Y-7.705
M15
G01X38.407Y-7.705
M16
G05
G00X38.407Y-125.672
M15
G01X27.407Y-125.672
M16
G05
G00X38.407Y-132.672
M15
G01X27.407Y-132.672
M16
G05
G00X27.407Y-14.705
M15
G01X38.407Y-14.705
M16
G05
G00X38.407Y-14.705
M15
G01X38.407Y-7.705
M16
G05
G00X38.407Y-125.672
M15
G01X38.407Y-132.672
M16
G05
G00X159.932Y-14.705
M15
G01X159.932Y-7.705
M16
G05
G00X159.932Y-125.672
M15
G01X159.932Y-132.672
M16
G05
G00X159.932Y-7.705
M15
G01X170.932Y-7.705
M16
G05
G00X170.932Y-125.672
M15
G01X159.932Y-125.672
M16
G05
G00X170.932Y-132.672
M15
G01X159.932Y-132.672
M16
G05
G00X159.932Y-14.705
M15
G01X170.932Y-14.705
M16
G05
G00X170.932Y-14.705
M15
G01X170.932Y-7.705
M16
G05
G00X170.932Y-125.672
M15
G01X170.932Y-132.672
M16
G05
M30
